<?xml version="1.0" encoding="UTF-8"?>
<svg id="Layer_3" data-name="Layer 3" xmlns="http://www.w3.org/2000/svg" xmlns:xlink="http://www.w3.org/1999/xlink" viewBox="0 0 1482.18 683.81">
  <defs>
    <style>
      .cls-1, .cls-2, .cls-3 {
        stroke: #fff;
        stroke-miterlimit: 10;
      }

      .cls-1, .cls-3 {
        fill: none;
      }

      .cls-4 {
        clip-path: url(#clippath-2);
      }

      .cls-5 {
        isolation: isolate;
      }

      .cls-6 {
        clip-path: url(#clippath-1);
      }

      .cls-7 {
        clip-path: url(#clippath);
      }

      .cls-3 {
        stroke-width: .25px;
      }
    </style>
    <clipPath id="clippath">
      <path class="cls-1" d="m704.06.76c14.71.72,24.96,2.42,33.06,3.99,5.51,1.07,11.99,2.7,13.34,3.07,5.35,1.46,5.67,1.55,8.65,2.46,4.76,1.46,8.51,2.79,8.55,2.8,3.53,1.27,8.86,3.18,15.15,5.92,5.82,2.54,11.19,5.11,15.95,7.64,2.42,1.29,8.09,4.3,15.23,8.81,6.93,4.38,12.04,8.15,14.49,9.96,1.56,1.16,7.18,5.37,13.72,11.09,1.08.95,3.33,2.91,6.56,5.96q2.16,2.04,6.35,6.22c2.72,2.72,7.55,8.02,9.03,9.74q3.82,4.45,5.68,6.74c1.66,2.05,3.82,4.83,5.4,6.94,2.49,3.34,5.86,7.99,9.95,14.46,1.56,2.46,3.09,4.99,4.55,7.51,1.32,2.28,3.01,5.37,4.26,7.69.02.03,1.84,3.44,3.97,7.87,1.15,2.39,2.6,5.61,3.68,8.04,1.16,2.6,3.65,8.71,5.09,12.74.46,1.29,1.09,3,1.52,4.3,1.65,4.98,2.14,6.48,2.77,8.67q1.67,5.82,2.42,8.76c.67,2.64,1.52,6.18,2.06,8.85q1.2,5.94,1.7,8.93c.46,2.69,1,6.3,1.35,9.01.79,6.14,1.3,11.93,1.62,18.24.34,6.84.28,12.11.26,13.83-.08,7.37-.55,13.72-.55,13.77-.14,1.37-.24,3.19-.36,4.56s-.3,3.18-.45,4.54c-.55,5.03-1.17,9-1.18,9.04q-1.09,6.74-2.44,13.42c-.53,2.63-1.18,5.24-2.08,8.85-.9,3.62-2.28,8.25-2.43,8.76q-.87,2.91-2.79,8.67c-1.29,3.86-3.69,10.07-4.85,12.83-1.77,4.22-3.78,9-7.35,16.05-3.4,6.73-6.22,11.54-8.53,15.36-2.94,4.86-6.19,9.79-9.68,14.64-1.68,2.34-3.5,4.77-5.27,7.04-1.62,2.09-3.86,4.81-5.55,6.85-1.77,2.14-6.55,7.52-8.85,9.9q-4.12,4.27-6.23,6.34c-2.16,2.12-4.21,4.05-6.45,6.08-10.95,9.93-22.81,18.76-35.25,26.25-7.99,4.81-14.97,8.35-19.41,10.47-8.84,4.22-16.23,7.09-20.87,8.75-3.33,1.19-11.13,3.99-21.85,6.68-10.61,2.67-19.17,3.95-22.39,4.44-3.9.59-11.96,1.64-22.06,2.14-7.31.36-14.76.37-22.15.03,4.29.2,8.61.22,12.95.06-4.34.16-8.66.13-12.95-.06-3.22-.17-9.93-.52-17.17-1.44-3.09-.39-5.32-.67-9.67-1.39-3.27-.54-3.5-.58-9.24-1.73-3.8-.76-10.9-2.52-13.52-3.27-5.56-1.58-5.78-1.65-8.79-2.61-2.61-.83-6.07-2.03-8.65-2.95-3.25-1.16-9.13-3.47-12.69-5.05q-5.24-2.32-8.06-3.67c-4.44-2.13-7.85-3.95-7.88-3.97q-5.01-2.7-7.71-4.26c-2.6-1.5-4.99-2.95-7.53-4.55-6.75-4.26-11.6-7.83-14.49-9.96-1.09-.8-6.89-5.12-13.72-11.08-1.08-.95-3.34-2.91-6.56-5.96q-2.16-2.04-6.35-6.22c-2.72-2.72-7.55-8.02-9.03-9.74q-3.83-4.46-5.68-6.74c-2.48-3.07-4.45-5.67-5.4-6.94-2.49-3.33-5.86-7.99-9.95-14.46-1.56-2.46-3.09-4.99-4.55-7.51-1.57-2.7-1.92-3.36-4.26-7.69-1.26-2.33-2.82-5.48-3.97-7.87-1.36-2.82-1.62-3.42-3.68-8.04-.72-1.62-3.26-7.65-5.09-12.73-.46-1.29-1.09-3-1.52-4.3-1.65-4.98-2.14-6.48-2.77-8.67-.75-2.62-1.75-6.12-2.42-8.76-1.26-4.97-2.05-8.81-2.06-8.85-.27-1.34-.64-3.12-.9-4.46s-.58-3.13-.81-4.48c-.51-2.98-.96-6.01-1.35-9.01-.79-6.14-1.3-11.93-1.62-18.24-.34-6.84-.28-12.11-.26-13.83.08-7.51.55-13.72.55-13.77,0,0,0,0,0,0,.25-2.73.52-6.38.82-9.1.55-5.03,1.17-9,1.18-9.04q1.09-6.74,2.44-13.42c.53-2.64,1.15-5.11,2.08-8.85.9-3.62,2.28-8.25,2.43-8.76q.87-2.92,2.79-8.67c1.29-3.87,3.69-10.08,4.85-12.83,2.48-5.9,7.1-16.88,15.88-31.4,2.02-3.34,5.34-8.59,9.68-14.64,1.7-2.37,3.48-4.74,5.27-7.04,1.62-2.09,3.86-4.81,5.55-6.85,1.77-2.14,6.55-7.52,8.85-9.9q4.11-4.27,6.23-6.34c2.16-2.12,4.21-4.05,6.45-6.08,5.44-4.93,11.16-9.64,17.01-14,8.97-6.68,16.77-11.38,18.24-12.26,1.14-.67,2.64-1.59,3.79-2.24,2.3-1.3,5.38-3,7.71-4.25,1.55-.84,5.82-2.99,7.91-3.97,2.41-1.13,5.63-2.59,8.06-3.67,1.24-.55,2.91-1.23,4.16-1.75,4.55-1.88,8.69-3.35,11.16-4.22,2.34-.83,10.79-3.74,21.56-6.32,10.14-2.43,18.23-3.57,21.68-4.05,4.52-.64,11.95-1.48,21.61-1.89,4.31-.18,8.69-.21,10.01-.21,0,0,0,0,0,0,1.53,0,3.06,0,4.59.03,3.9.06,6.9.2,7.46.23Z"/>
    </clipPath>
    <clipPath id="clippath-1">
      <path class="cls-1" d="m778.72,17.29c3.51,1.42,9.19,3.94,12.16,5.4q5.27,2.59,7.88,3.97c3.47,1.83,6.06,3.31,7.7,4.26,6.13,3.54,11.17,6.9,11.22,6.93q4.86,3.27,7.24,4.98c3.99,2.86,7.03,5.24,7.05,5.26,4.15,3.28,4.49,3.55,6.86,5.54,2.24,1.89,4.49,3.84,6.66,5.82,2.18,1.98,4.35,4.03,6.46,6.1,1.9,1.86,4.37,4.42,6.22,6.33,2.08,2.16,6.56,7.14,8.82,9.89q3.73,4.52,5.54,6.84c2.87,3.68,4.75,6.32,5.26,7.04,2.52,3.57,3.05,4.31,4.98,7.23q1.61,2.44,4.69,7.42c2.33,3.76,5.61,9.74,6.5,11.47.6,1.17,1.43,2.73,2.02,3.91s1.38,2.76,1.95,3.95c1.73,3.59,3.04,6.58,3.68,8.04,3.44,7.95,5.19,12.99,6.61,17.04,1.27,3.64,3.15,9.73,4.03,13.04q1.55,5.85,2.24,8.81c.36,1.55,1.03,4.43,1.88,8.89.3,1.56.85,4.47,1.53,8.97q.45,3.01,1.17,9.05c.58,4.86,1.07,12.92,1.08,13.71,0,0,0,0,0,0,.03,1.38.15,3.22.18,4.6q.12,6.16.09,9.23c-.08,7.51-.55,13.72-.55,13.77,0,0,0,0,0,0-.25,2.73-.52,6.38-.82,9.1-.55,5.03-1.17,9-1.18,9.04-.83,5.17-1.09,6.74-1.54,8.96-.27,1.34-.62,3.12-.9,4.45s-.7,3.1-.99,4.43-.74,3.09-1.08,4.41c-1.05,4.01-2.5,9.51-5.22,17.43-2.83,8.23-5.55,14.53-6.57,16.9-1.55,3.59-4.14,9.26-7.65,15.88-.72,1.36-2.06,3.88-4.26,7.68q-1.63,2.8-4.55,7.5c-1.94,3.12-5.72,8.77-9.97,14.46-3.5,4.67-7.23,9.28-11.1,13.7-3.82,4.36-8.04,8.82-12.2,12.89-1.11,1.09-3.17,3.11-6.45,6.08q-2.31,2.09-6.66,5.81c-.62.53-6.25,5.31-13.91,10.79-2.44,1.75-4.74,3.33-7.25,4.97q-2.48,1.63-7.44,4.69s-3.28,2.01-7.63,4.4q-2.59,1.43-7.81,4.11c-2.96,1.52-8.6,4.15-12.07,5.63-2.53,1.08-5.93,2.45-8.49,3.46-1.29.51-3.02,1.14-4.32,1.61s-3.05,1.1-4.37,1.53c-2.6.85-6.07,1.95-8.68,2.75-3.22.98-9.03,2.46-9.08,2.47-2.63.63-6.15,1.44-8.79,2.01-1.44.31-3.37.68-4.82.95-3.42.62-6.64,1.2-13.75,2.11-2.71.35-7.68.85-11.56,1.12-2.17.15-7.24.49-13.23.57-1.05.01-2.79.03-5.11.02-4.02-.03-6.91-.15-9.01-.24-20.75-.96-40.94-6.06-60.18-15.22-22.43-10.69-42.64-26.4-60.05-46.71-17.41-20.32-31.15-44.22-40.84-71.03-10.04-27.75-15.27-57.43-15.56-88.21-.29-30.78,4.39-60.82,13.91-89.28,9.19-27.49,22.47-52.36,39.49-73.92,17.02-21.56,36.92-38.72,59.14-51.01,22.55-12.47,46.54-19.36,71.33-20.25.56.03,1.67.02,2.48,0s1.01-.07.45-.1-1.67-.02-2.48,0-1.01.07-.45.1c-24.79.89-48.78,7.78-71.33,20.25-22.22,12.29-42.12,29.45-59.14,51.01-17.02,21.56-30.31,46.43-39.49,73.92-9.52,28.46-14.19,58.5-13.91,89.28s5.52,60.46,15.56,88.21c9.69,26.81,23.43,50.71,40.84,71.03,17.41,20.32,37.61,36.03,60.05,46.71,19.24,9.16,39.42,14.26,60.18,15.22-2.58-.12-9.43-.46-18.31-1.58-1.12-.14-4.51-.57-8.97-1.32q-3.08-.52-9-1.7c-3.35-.67-10.61-2.45-13.38-3.24q-5.82-1.66-8.77-2.6c-2.61-.83-6.07-2.03-8.65-2.95-3.24-1.16-9.11-3.46-12.67-5.04q-5.25-2.33-8.06-3.67c-4.44-2.13-7.85-3.95-7.88-3.97q-5.01-2.7-7.7-4.26c-2.6-1.5-4.99-2.95-7.52-4.55-6.75-4.26-11.59-7.83-14.49-9.96-1.54-1.13-7.06-5.27-13.72-11.08-2.28-1.99-4.36-3.88-6.56-5.96q-2.16-2.04-6.35-6.22c-2.72-2.72-7.55-8.02-9.03-9.74q-3.82-4.45-5.68-6.74c-1.66-2.05-3.82-4.83-5.4-6.94-2.49-3.34-5.86-7.99-9.95-14.46-1.56-2.46-3.09-4.99-4.55-7.51-1.32-2.28-3.01-5.37-4.26-7.69-.02-.03-1.84-3.44-3.97-7.87-1.36-2.82-1.58-3.32-3.68-8.04-.72-1.62-3.26-7.65-5.09-12.73-.46-1.29-1.09-3-1.52-4.3-1.65-4.98-2.14-6.48-2.77-8.67q-1.67-5.82-2.42-8.76c-.67-2.64-1.48-6.18-2.06-8.85-.55-2.52-1.94-9.3-3.05-17.94-.79-6.14-1.3-11.93-1.62-18.24-.34-6.84-.28-12.11-.26-13.83.08-7.51.55-13.72.55-13.77,0,0,0,0,0,0,.12-1.37.24-3.19.36-4.56s.3-3.18.45-4.54c.55-5.04,1.17-9,1.18-9.04q1.09-6.74,2.44-13.42c.53-2.64,1.15-5.11,2.08-8.85.9-3.62,2.28-8.25,2.43-8.76q.87-2.92,2.79-8.67c1.07-3.21,3.42-9.45,4.85-12.83,2.48-5.9,7.1-16.88,15.88-31.4,2.02-3.34,5.34-8.59,9.68-14.64,1.7-2.37,3.48-4.74,5.27-7.04,1.62-2.09,3.86-4.81,5.55-6.85,1.77-2.14,6.55-7.52,8.85-9.9q4.11-4.27,6.23-6.34c2.16-2.12,4.21-4.05,6.45-6.08,5.29-4.8,10.02-8.57,10.06-8.61q4.6-3.64,6.96-5.39c2.11-1.57,4.97-3.62,7.15-5.11,2.41-1.65,4.88-3.28,7.34-4.83q2.49-1.57,7.53-4.55c2.38-1.4,8.69-4.83,11.65-6.28q4.92-2.41,7.99-3.82c2.02-.93,4.74-2.11,6.79-2.96,6.93-2.85,11.28-4.4,16.9-6.26,5.19-1.72,11.51-3.44,13.11-3.83,2.58-.64,6.02-1.49,8.62-2.05,3.91-.85,6.84-1.38,8.96-1.75,10.03-1.76,20.44-2.84,30.94-3.2,7.73-.27,13.56-.16,17.28-.05,8.27.24,15.38.98,15.45.99,3.95.42,5.28.56,8.44.99,2.56.35,5.97.91,8.52,1.34,2.74.46,9.07,1.72,13.35,2.79,4.53,1.13,5.34,1.33,8.69,2.28,3.85,1.09,6.04,1.81,8.59,2.63,6.77,2.19,12.97,4.7,15.31,5.64Z"/>
    </clipPath>
    <clipPath id="clippath-2">
      <path class="cls-1" d="m690.11.75c-.49.01-.98.03-1.46.05-.56-.03-.36-.07.45-.1s1.92-.03,2.48,0,.36.07-.45.1-1.92.03-2.48,0c.49-.02.98-.03,1.46-.05Z"/>
    </clipPath>
  </defs>
  <g>
    <polygon class="cls-1" points="336.66 353.82 1081.51 353.82 1480.79 683.31 1.22 683.31 336.66 353.82"/>
    <line class="cls-1" x1="38.27" y1="646.92" x2="1436.7" y2="646.92"/>
    <line class="cls-1" x1="71.46" y1="614.32" x2="1397.19" y2="614.32"/>
    <line class="cls-1" x1="101.38" y1="584.93" x2="1361.58" y2="584.93"/>
    <line class="cls-1" x1="128.47" y1="558.32" x2="1329.33" y2="558.32"/>
    <line class="cls-1" x1="153.13" y1="534.1" x2="1299.98" y2="534.1"/>
    <line class="cls-1" x1="175.66" y1="511.96" x2="1273.15" y2="511.96"/>
    <line class="cls-1" x1="196.34" y1="491.65" x2="1248.54" y2="491.65"/>
    <line class="cls-1" x1="215.38" y1="472.95" x2="1225.88" y2="472.95"/>
    <line class="cls-1" x1="232.96" y1="455.68" x2="1204.95" y2="455.68"/>
    <line class="cls-1" x1="249.26" y1="439.68" x2="1185.56" y2="439.68"/>
    <line class="cls-1" x1="264.4" y1="424.8" x2="1167.53" y2="424.8"/>
    <line class="cls-1" x1="278.5" y1="410.95" x2="1150.75" y2="410.95"/>
    <line class="cls-1" x1="291.67" y1="398.01" x2="1135.07" y2="398.01"/>
    <line class="cls-1" x1="304" y1="385.9" x2="1120.39" y2="385.9"/>
    <line class="cls-1" x1="315.56" y1="374.54" x2="1106.63" y2="374.54"/>
    <line class="cls-1" x1="326.43" y1="363.87" x2="1093.69" y2="363.87"/>
    <line class="cls-1" x1="1037.7" y1="353.82" x2="1393.76" y2="683.31"/>
    <line class="cls-1" x1="993.89" y1="353.82" x2="1306.73" y2="683.31"/>
    <line class="cls-1" x1="950.07" y1="353.82" x2="1219.69" y2="683.31"/>
    <line class="cls-1" x1="906.26" y1="353.82" x2="1132.66" y2="683.31"/>
    <line class="cls-1" x1="862.44" y1="353.82" x2="1045.63" y2="683.31"/>
    <line class="cls-1" x1="818.63" y1="353.82" x2="958.59" y2="683.31"/>
    <line class="cls-1" x1="774.81" y1="353.82" x2="871.56" y2="683.31"/>
    <line class="cls-1" x1="731" y1="353.82" x2="784.52" y2="683.31"/>
    <line class="cls-1" x1="687.18" y1="353.82" x2="697.49" y2="683.31"/>
    <line class="cls-1" x1="643.37" y1="353.82" x2="610.46" y2="683.31"/>
    <line class="cls-1" x1="599.55" y1="353.82" x2="523.42" y2="683.31"/>
    <line class="cls-1" x1="555.74" y1="353.82" x2="436.39" y2="683.31"/>
    <line class="cls-1" x1="511.92" y1="353.82" x2="349.36" y2="683.31"/>
    <line class="cls-1" x1="468.11" y1="353.82" x2="262.32" y2="683.31"/>
    <line class="cls-1" x1="424.29" y1="353.82" x2="175.29" y2="683.31"/>
    <line class="cls-1" x1="380.48" y1="353.82" x2="88.26" y2="683.31"/>
  </g>
  <ellipse class="cls-2" cx="697.46" cy="434.41" rx="36.31" ry="144.04" transform="translate(261.32 1130.8) rotate(-89.86)"/>
  <g class="cls-5">
    <g class="cls-5">
      <g class="cls-7">
        <g class="cls-5">
          <g>
            <path class="cls-3" d="m688.65.8c-24.79.89-48.78,7.78-71.33,20.25,27.96,1.29,83.3,1.17,123.59-.29-15.83-12.38-32.58-19.18-49.78-19.97-.81.03-1.92.03-2.48,0Z"/>
            <path class="cls-3" d="m664.15,3.68c9.96.46,29.66.42,44.01-.1"/>
            <path class="cls-3" d="m640.32,10.46c19.11.88,56.93.8,84.47-.2"/>
            <path class="cls-3" d="m689.36.82c-12.72,1.17-25.01,8.33-36.53,21.06"/>
            <path class="cls-3" d="m690.25.82c2.34,1.14,4.67,8.27,6.92,20.96"/>
          </g>
          <g>
            <path class="cls-3" d="m691.13.79c17.2.8,33.95,7.59,49.78,19.97,40.3-1.45,50.29-3.68,22.33-4.97-22.77-10.84-46.87-15.99-71.66-15.1.56.03.36.07-.45.1Z"/>
            <path class="cls-3" d="m708.16,3.58c14.35-.52,17.91-1.31,7.95-1.77"/>
            <path class="cls-3" d="m724.79,10.26c27.54-.99,34.37-2.51,15.26-3.4"/>
            <path class="cls-3" d="m691.73.76c27.37.24,53.97,6.49,79.09,18.36"/>
            <path class="cls-3" d="m691.89.73c30.09-.37,59.33,5.29,86.94,16.61"/>
          </g>
          <g>
            <path class="cls-3" d="m691.58.7c24.79-.89,48.89,4.26,71.66,15.1-27.96-1.29-83.3-1.17-123.59.29,15.62-10.93,32.25-16.18,49.45-15.38.81-.03,1.92-.03,2.48,0Z"/>
            <path class="cls-3" d="m716.11,1.8c-9.96-.46-29.66-.42-44.01.1"/>
            <path class="cls-3" d="m740.05,6.86c-19.11-.88-56.93-.8-84.47.2"/>
            <path class="cls-3" d="m690.86.68c12.72-1.17,25.12,3.71,36.86,14.29"/>
            <path class="cls-3" d="m689.97.68c-2.34-1.14-4.56,3.78-6.59,14.39"/>
          </g>
          <g>
            <path class="cls-3" d="m689.1.7c-17.2-.8-33.83,4.45-49.45,15.38-40.3,1.45-50.29,3.68-22.33,4.97,22.55-12.47,46.54-19.36,71.33-20.25-.56-.03-.36-.07.45-.1Z"/>
            <path class="cls-3" d="m672.1,1.91c-14.35.52-17.91,1.31-7.95,1.77"/>
            <path class="cls-3" d="m655.58,7.06c-27.54.99-34.37,2.51-15.26,3.4"/>
            <path class="cls-3" d="m688.5.73c-27.37-.24-53.86,5.56-78.76,16.99"/>
            <path class="cls-3" d="m688.33.77c-30.09.37-59.22,6.75-86.61,18.74"/>
          </g>
          <g>
            <path class="cls-3" d="m617.31,21.05c-22.22,12.29-42.12,29.45-59.14,51.01,50.8,2.35,151.33,2.12,224.54-.52-12.14-21.49-26.21-38.58-41.81-50.78-40.3,1.45-95.63,1.58-123.59.29Z"/>
            <path class="cls-3" d="m595.89,34.95c36.22,1.68,107.9,1.51,160.09-.37"/>
            <path class="cls-3" d="m576.14,51.99c43.85,2.03,130.62,1.83,193.81-.45"/>
            <path class="cls-3" d="m652.83,21.88c-11.35,12.54-21.49,29.93-30.13,51.68"/>
            <path class="cls-3" d="m697.17,21.78c2.22,12.51,4.26,29.87,6.08,51.6"/>
          </g>
          <g>
            <path class="cls-3" d="m740.91,20.77c15.6,12.2,29.67,29.29,41.81,50.78,73.21-2.64,91.37-6.69,40.57-9.04-17.41-20.32-37.61-36.04-60.05-46.71,27.96,1.29,17.96,3.52-22.33,4.97Z"/>
            <path class="cls-3" d="m755.98,34.58c52.2-1.88,65.15-4.77,28.93-6.44"/>
            <path class="cls-3" d="m769.94,51.54c63.19-2.28,78.87-5.77,35.02-7.8"/>
            <path class="cls-3" d="m770.82,19.12c24.75,11.69,47.04,28.33,66.24,49.43"/>
            <path class="cls-3" d="m778.83,17.34c27.2,11.15,51.69,27.29,72.78,47.97"/>
          </g>
          <g>
            <path class="cls-3" d="m763.24,15.79c22.43,10.68,42.64,26.4,60.05,46.71-50.8-2.35-151.33-2.12-224.54.52,11.75-20.39,25.51-36.18,40.9-46.95,40.3-1.45,95.63-1.58,123.59-.29Z"/>
            <path class="cls-3" d="m784.91,28.14c-36.22-1.68-107.9-1.51-160.09.37"/>
            <path class="cls-3" d="m804.96,43.74c-43.85-2.03-130.62-1.83-193.81.45"/>
            <path class="cls-3" d="m727.72,14.97c11.56,10.42,22.01,25.92,31.04,46.04"/>
            <path class="cls-3" d="m683.38,15.07c-2,10.46-3.74,25.98-5.18,46.13"/>
          </g>
          <g>
            <path class="cls-3" d="m639.65,16.08c-15.39,10.76-29.15,26.56-40.9,46.95-73.21,2.64-91.37,6.69-40.57,9.04,17.02-21.56,36.92-38.72,59.14-51.01-27.96-1.29-17.96-3.52,22.33-4.97Z"/>
            <path class="cls-3" d="m624.82,28.51c-52.2,1.88-65.15,4.77-28.93,6.44"/>
            <path class="cls-3" d="m611.16,44.19c-63.19,2.28-78.87,5.77-35.02,7.8"/>
            <path class="cls-3" d="m609.73,17.73c-24.54,11.27-46.52,27.52-65.33,48.29"/>
            <path class="cls-3" d="m601.72,19.51c-26.99,11.81-51.17,28.56-71.87,49.75"/>
          </g>
          <g>
            <path class="cls-3" d="m558.18,72.07c-17.02,21.56-30.31,46.43-39.49,73.92,66.19,3.07,197.18,2.76,292.58-.68-6.8-27.45-16.41-52.27-28.55-73.76-73.21,2.64-173.74,2.87-224.54.52Z"/>
            <path class="cls-3" d="m542.41,94.7c56.92,2.64,169.56,2.38,251.58-.58"/>
            <path class="cls-3" d="m529.22,119.4c62.06,2.87,184.87,2.59,274.31-.63"/>
            <path class="cls-3" d="m622.7,73.56c-8.64,21.75-15.35,46.78-19.94,74.37"/>
            <path class="cls-3" d="m703.25,73.38c1.82,21.73,3.32,46.74,4.47,74.32"/>
          </g>
          <g>
            <path class="cls-3" d="m782.71,71.55c12.14,21.49,21.74,46.31,28.55,73.76,95.39-3.44,119.06-8.71,52.87-11.78-9.69-26.8-23.43-50.7-40.84-71.02,50.8,2.35,32.64,6.4-40.57,9.04Z"/>
            <path class="cls-3" d="m794,94.12c82.03-2.96,102.38-7.49,45.46-10.13"/>
            <path class="cls-3" d="m803.53,118.76c89.44-3.22,111.63-8.17,49.56-11.04"/>
            <path class="cls-3" d="m837.06,68.55c19.2,21.1,34.34,45.62,45.01,72.85"/>
            <path class="cls-3" d="m851.61,65.31c21.09,20.68,37.71,44.87,49.42,71.87"/>
          </g>
          <g>
            <path class="cls-3" d="m823.28,62.51c17.41,20.32,31.15,44.22,40.84,71.02-66.19-3.07-197.18-2.76-292.58.68,6.3-26.84,15.45-50.79,27.2-71.18,73.21-2.64,173.74-2.87,224.54-.52Z"/>
            <path class="cls-3" d="m839.46,84c-56.92-2.64-169.56-2.38-251.58.58"/>
            <path class="cls-3" d="m853.1,107.72c-62.06-2.87-184.87-2.59-274.31.63"/>
            <path class="cls-3" d="m758.76,61.01c9.03,20.12,16.19,43.87,21.29,70.57"/>
            <path class="cls-3" d="m678.21,61.2c-1.43,20.15-2.48,43.91-3.12,70.62"/>
          </g>
          <g>
            <path class="cls-3" d="m598.75,63.03c-11.75,20.39-20.9,44.34-27.2,71.18-95.39,3.44-119.06,8.71-52.87,11.78,9.19-27.49,22.47-52.36,39.49-73.92-50.8-2.35-32.64-6.4,40.57-9.04Z"/>
            <path class="cls-3" d="m587.87,84.58c-82.03,2.96-102.38,7.49-45.46,10.13"/>
            <path class="cls-3" d="m578.79,108.35c-89.44,3.22-111.63,8.17-49.56,11.04"/>
            <path class="cls-3" d="m544.4,66.02c-18.81,20.77-33.5,45.03-43.67,72.09"/>
            <path class="cls-3" d="m529.85,69.26c-20.7,21.2-36.87,45.78-48.08,73.07"/>
          </g>
          <g>
            <path class="cls-3" d="m518.68,145.98c-9.52,28.46-14.19,58.5-13.91,89.28,71.84,3.33,214.01,3,317.53-.73-.29-30.78-4-60.8-11.05-89.23-95.39,3.44-226.38,3.74-292.58.68Z"/>
            <path class="cls-3" d="m510.78,174.94c69.32,3.21,206.51,2.89,306.41-.71"/>
            <path class="cls-3" d="m506.14,204.76c71.21,3.3,212.13,2.97,314.74-.73"/>
            <path class="cls-3" d="m602.76,147.94c-4.76,28.58-7.02,58.67-6.74,89.45"/>
            <path class="cls-3" d="m707.72,147.69c1.19,28.56,1.93,58.65,2.22,89.43"/>
          </g>
          <g>
            <path class="cls-3" d="m811.26,145.31c7.05,28.43,10.76,58.44,11.05,89.23,103.53-3.73,129.22-9.45,57.37-12.78-.29-30.78-5.52-60.46-15.56-88.22,66.19,3.07,42.53,8.34-52.87,11.78Z"/>
            <path class="cls-3" d="m817.19,174.23c99.9-3.6,124.69-9.12,55.36-12.33"/>
            <path class="cls-3" d="m820.88,204.04c102.62-3.7,128.08-9.37,56.87-12.67"/>
            <path class="cls-3" d="m882.07,141.41c11.06,28.21,16.8,58.11,17.09,88.89"/>
            <path class="cls-3" d="m901.04,137.18c12.13,27.97,18.42,57.75,18.71,88.53"/>
          </g>
          <g>
            <path class="cls-3" d="m864.12,133.53c10.04,27.76,15.27,57.44,15.56,88.22-71.84-3.33-214.01-3-317.53.73-.29-30.78,2.88-60.48,9.4-88.28,95.39-3.44,226.38-3.74,292.58-.68Z"/>
            <path class="cls-3" d="m872.56,161.9c-69.32-3.21-206.51-2.89-306.41.71"/>
            <path class="cls-3" d="m877.75,191.37c-71.21-3.3-212.13-2.97-314.74.73"/>
            <path class="cls-3" d="m780.05,131.58c5.28,27.65,8.1,57.27,8.39,88.05"/>
            <path class="cls-3" d="m675.09,131.82c-.66,27.66-.85,57.29-.57,88.07"/>
          </g>
          <g>
            <path class="cls-3" d="m571.55,134.21c-6.52,27.8-9.69,57.5-9.4,88.28-103.53,3.73-129.22,9.45-57.37,12.78-.29-30.78,4.39-60.82,13.91-89.28-66.19-3.07-42.53-8.34,52.87-11.78Z"/>
            <path class="cls-3" d="m566.15,162.61c-99.9,3.6-124.69,9.12-55.36,12.33"/>
            <path class="cls-3" d="m563.01,192.1c-102.62,3.7-128.08,9.37-56.87,12.67"/>
            <path class="cls-3" d="m500.74,138.11c-10.53,28.02-15.73,57.83-15.44,88.61"/>
            <path class="cls-3" d="m481.77,142.33c-11.61,28.26-17.34,58.19-17.06,88.97"/>
          </g>
          <g>
            <path class="cls-3" d="m504.78,235.27c.29,30.78,5.52,60.46,15.56,88.21,66.19,3.07,197.18,2.76,292.58-.68,6.52-27.79,9.69-57.49,9.4-88.27-103.53,3.73-245.69,4.06-317.53.73Z"/>
            <path class="cls-3" d="m506.71,265.65c71.21,3.3,212.13,2.97,314.74-.73"/>
            <path class="cls-3" d="m511.9,295.12c69.32,3.21,206.51,2.89,306.41-.71"/>
            <path class="cls-3" d="m596.02,237.38c.29,30.78,3.11,60.4,8.39,88.05"/>
            <path class="cls-3" d="m709.94,237.12c.29,30.78.1,60.41-.57,88.07"/>
          </g>
          <g>
            <path class="cls-3" d="m822.31,234.53c.29,30.78-2.88,60.48-9.4,88.27,95.39-3.44,119.06-8.71,52.87-11.78,9.52-28.46,14.2-58.49,13.91-89.27,71.84,3.33,46.15,9.05-57.37,12.78Z"/>
            <path class="cls-3" d="m821.45,264.92c102.62-3.7,128.08-9.37,56.87-12.67"/>
            <path class="cls-3" d="m818.31,294.41c99.9-3.6,124.69-9.12,55.36-12.33"/>
            <path class="cls-3" d="m899.16,230.3c.29,30.78-4.91,60.59-15.44,88.6"/>
            <path class="cls-3" d="m919.74,225.71c.29,30.78-5.45,60.71-17.06,88.96"/>
          </g>
          <g>
            <path class="cls-3" d="m879.68,221.75c.29,30.78-4.39,60.82-13.91,89.27-66.19-3.07-197.18-2.76-292.58.68-7.05-28.42-10.76-58.44-11.05-89.22,103.53-3.73,245.69-4.06,317.53-.73Z"/>
            <path class="cls-3" d="m878.32,252.25c-71.21-3.3-212.13-2.97-314.74.73"/>
            <path class="cls-3" d="m873.67,282.07c-69.32-3.21-206.51-2.89-306.41.71"/>
            <path class="cls-3" d="m788.44,219.63c.29,30.78-1.98,60.87-6.74,89.44"/>
            <path class="cls-3" d="m674.52,219.9c.29,30.78,1.03,60.87,2.22,89.42"/>
          </g>
          <g>
            <path class="cls-3" d="m562.15,222.49c.29,30.78,4,60.8,11.05,89.22-95.39,3.44-119.06,8.71-52.87,11.78-10.04-27.75-15.27-57.43-15.56-88.21-71.84-3.33-46.15-9.05,57.37-12.78Z"/>
            <path class="cls-3" d="m563.58,252.98c-102.62,3.7-128.08,9.37-56.87,12.67"/>
            <path class="cls-3" d="m567.27,282.78c-99.9,3.6-124.69,9.12-55.36,12.33"/>
            <path class="cls-3" d="m485.3,226.72c.29,30.78,6.03,60.69,17.09,88.88"/>
            <path class="cls-3" d="m464.71,231.3c.29,30.78,6.58,60.57,18.71,88.52"/>
          </g>
          <g>
            <path class="cls-3" d="m520.33,323.48c9.69,26.81,23.43,50.71,40.84,71.03,50.8,2.35,151.33,2.12,224.54-.52,11.75-20.39,20.9-44.34,27.2-71.19-95.39,3.44-226.38,3.74-292.58.68Z"/>
            <path class="cls-3" d="m531.36,349.3c62.06,2.87,184.87,2.59,274.31-.63"/>
            <path class="cls-3" d="m545,373.02c56.92,2.64,169.56,2.38,251.58-.58"/>
            <path class="cls-3" d="m604.41,325.43c5.1,26.71,12.26,50.45,21.29,70.58"/>
            <path class="cls-3" d="m709.37,325.19c-.64,26.72-1.69,50.49-3.12,70.63"/>
          </g>
          <g>
            <path class="cls-3" d="m812.91,322.8c-6.3,26.85-15.45,50.8-27.2,71.19,73.21-2.64,91.37-6.69,40.57-9.04,17.02-21.56,30.31-46.43,39.49-73.93,66.19,3.07,42.53,8.34-52.87,11.78Z"/>
            <path class="cls-3" d="m805.67,348.66c89.44-3.22,111.63-8.17,49.56-11.04"/>
            <path class="cls-3" d="m796.59,372.44c82.03-2.96,102.38-7.49,45.46-10.13"/>
            <path class="cls-3" d="m883.72,318.9c-10.17,27.06-24.86,51.32-43.67,72.1"/>
            <path class="cls-3" d="m902.69,314.68c-11.2,27.29-27.38,51.88-48.08,73.08"/>
          </g>
          <g>
            <path class="cls-3" d="m865.77,311.03c-9.19,27.49-22.47,52.37-39.49,73.93-50.8-2.35-151.33-2.12-224.54.52-12.14-21.49-21.74-46.31-28.55-73.77,95.39-3.44,226.38-3.74,292.58-.68Z"/>
            <path class="cls-3" d="m855.23,337.62c-62.06-2.87-184.87-2.59-274.31.63"/>
            <path class="cls-3" d="m842.04,362.31c-56.92-2.64-169.56-2.38-251.58.58"/>
            <path class="cls-3" d="m781.7,309.07c-4.59,27.6-11.3,52.63-19.94,74.38"/>
            <path class="cls-3" d="m676.74,309.32c1.14,27.59,2.65,52.59,4.47,74.32"/>
          </g>
          <g>
            <path class="cls-3" d="m573.2,311.7c6.8,27.46,16.41,52.28,28.55,73.77-73.21,2.64-91.37,6.69-40.57,9.04-17.41-20.32-31.15-44.22-40.84-71.03-66.19-3.07-42.53-8.34,52.87-11.78Z"/>
            <path class="cls-3" d="m580.93,338.25c-89.44,3.22-111.63,8.17-49.56,11.04"/>
            <path class="cls-3" d="m590.46,362.9c-82.03,2.96-102.38,7.49-45.46,10.13"/>
            <path class="cls-3" d="m502.39,315.6c10.67,27.24,25.82,51.76,45.01,72.86"/>
            <path class="cls-3" d="m483.42,319.83c11.71,27.01,28.34,51.2,49.42,71.88"/>
          </g>
          <g>
            <path class="cls-3" d="m561.17,394.51c17.41,20.32,37.61,36.03,60.05,46.71,27.96,1.29,83.3,1.17,123.59-.29,15.39-10.77,29.15-26.56,40.9-46.95-73.21,2.64-173.74,2.87-224.54.52Z"/>
            <path class="cls-3" d="m579.49,413.28c43.85,2.03,130.62,1.83,193.81-.45"/>
            <path class="cls-3" d="m599.55,428.88c36.22,1.68,107.9,1.51,160.09-.37"/>
            <path class="cls-3" d="m625.7,396.01c9.03,20.12,19.47,35.61,31.04,46.04"/>
            <path class="cls-3" d="m706.25,395.82c-1.43,20.15-3.17,35.66-5.18,46.13"/>
          </g>
          <g>
            <path class="cls-3" d="m785.71,393.99c-11.75,20.39-25.51,36.18-40.9,46.95,40.3-1.45,50.29-3.68,22.33-4.97,22.22-12.3,42.12-29.45,59.14-51.01,50.8,2.35,32.64,6.4-40.57,9.04Z"/>
            <path class="cls-3" d="m773.3,412.83c63.19-2.28,78.87-5.77,35.02-7.8"/>
            <path class="cls-3" d="m759.64,428.51c52.2-1.88,65.15-4.77,28.93-6.44"/>
            <path class="cls-3" d="m840.05,391c-18.81,20.77-40.79,37.02-65.33,48.29"/>
            <path class="cls-3" d="m854.61,387.75c-20.7,21.2-44.88,37.93-71.87,49.75"/>
          </g>
          <g>
            <path class="cls-3" d="m826.28,384.95c-17.02,21.56-36.92,38.72-59.14,51.01-27.96-1.29-83.3-1.17-123.59.29-15.6-12.21-29.67-29.29-41.81-50.78,73.21-2.64,173.74-2.87,224.54-.52Z"/>
            <path class="cls-3" d="m808.32,405.03c-43.85-2.03-130.62-1.83-193.81.45"/>
            <path class="cls-3" d="m788.57,422.06c-36.22-1.68-107.9-1.51-160.09.37"/>
            <path class="cls-3" d="m761.76,383.46c-8.64,21.75-18.78,39.14-30.13,51.68"/>
            <path class="cls-3" d="m681.21,383.64c1.82,21.73,3.87,39.08,6.08,51.6"/>
          </g>
          <g>
            <path class="cls-3" d="m601.75,385.47c12.14,21.49,26.21,38.57,41.81,50.78-40.3,1.45-50.29,3.68-22.33,4.97-22.43-10.69-42.64-26.4-60.05-46.71-50.8-2.35-32.64-6.4,40.57-9.04Z"/>
            <path class="cls-3" d="m614.51,405.48c-63.19,2.28-78.87,5.77-35.02,7.8"/>
            <path class="cls-3" d="m628.48,422.44c-52.2,1.88-65.15,4.77-28.93,6.44"/>
            <path class="cls-3" d="m547.4,388.47c19.2,21.1,41.48,37.73,66.24,49.43"/>
            <path class="cls-3" d="m532.85,391.71c21.09,20.68,45.58,36.82,72.78,47.97"/>
          </g>
          <g>
            <path class="cls-3" d="m621.22,441.22c23.22,11.05,47.82,16.19,73.13,15.28,17.56.81,34.54-4.43,50.46-15.57-40.3,1.45-95.63,1.58-123.59.29Z"/>
            <path class="cls-3" d="m644.87,450.3c18.93.88,56.4.79,83.68-.19"/>
            <path class="cls-3" d="m669.3,455.4c9.59.44,28.57.4,42.4-.1"/>
            <path class="cls-3" d="m656.74,442.05c11.97,10.79,24.62,15.66,37.61,14.46"/>
            <path class="cls-3" d="m701.07,441.95c-2.07,10.82-4.34,15.72-6.73,14.56"/>
          </g>
          <g>
            <path class="cls-3" d="m744.81,440.94c-15.92,11.14-32.9,16.38-50.46,15.57,25.31-.91,49.8-7.82,72.8-20.54,27.96,1.29,17.96,3.52-22.33,4.97Z"/>
            <path class="cls-3" d="m728.56,450.11c27.28-.98,34.05-2.49,15.12-3.37"/>
            <path class="cls-3" d="m711.7,455.31c13.82-.5,17.25-1.26,7.66-1.71"/>
            <path class="cls-3" d="m774.73,439.29c-25.4,11.66-52.44,17.46-80.38,17.21"/>
            <path class="cls-3" d="m782.74,437.51c-27.93,12.23-57.67,18.62-88.39,19"/>
          </g>
          <g>
            <path class="cls-3" d="m767.15,435.96c-23,12.72-47.49,19.63-72.8,20.54-17.56-.81-34.65-7.63-50.8-20.26,40.3-1.45,95.63-1.58,123.59-.29Z"/>
            <path class="cls-3" d="m743.68,446.74c-18.93-.88-56.4-.79-83.68.19"/>
            <path class="cls-3" d="m719.36,453.6c-9.59-.44-28.57-.4-42.4.1"/>
            <path class="cls-3" d="m731.63,435.14c-11.75,12.98-24.29,20.17-37.28,21.37"/>
            <path class="cls-3" d="m687.29,435.24c2.29,12.95,4.67,20.1,7.06,21.26"/>
          </g>
          <g>
            <path class="cls-3" d="m643.55,436.25c16.14,12.63,33.24,19.44,50.8,20.26-25.31.91-49.91-4.23-73.13-15.28-27.96-1.29-17.96-3.52,22.33-4.97Z"/>
            <path class="cls-3" d="m659.99,446.93c-27.28.98-34.05,2.49-15.12,3.37"/>
            <path class="cls-3" d="m676.96,453.7c-13.82.5-17.25,1.26-7.66,1.71"/>
            <path class="cls-3" d="m613.64,437.9c25.62,12.1,52.77,18.37,80.71,18.61"/>
            <path class="cls-3" d="m605.63,439.68c28.15,11.54,58.01,17.2,88.72,16.82"/>
          </g>
        </g>
        <path class="cls-3" d="m704.06.76c14.71.72,24.96,2.42,33.06,3.99,5.51,1.07,11.99,2.7,13.34,3.07,5.35,1.46,5.67,1.55,8.65,2.46,4.76,1.46,8.51,2.79,8.55,2.8,3.53,1.27,8.86,3.18,15.15,5.92,5.82,2.54,11.19,5.11,15.95,7.64,2.42,1.29,8.09,4.3,15.23,8.81,6.93,4.38,12.04,8.15,14.49,9.96,1.56,1.16,7.18,5.37,13.72,11.09,1.08.95,3.33,2.91,6.56,5.96q2.16,2.04,6.35,6.22c2.72,2.72,7.55,8.02,9.03,9.74q3.82,4.45,5.68,6.74c1.66,2.05,3.82,4.83,5.4,6.94,2.49,3.34,5.86,7.99,9.95,14.46,1.56,2.46,3.09,4.99,4.55,7.51,1.32,2.28,3.01,5.37,4.26,7.69.02.03,1.84,3.44,3.97,7.87,1.15,2.39,2.6,5.61,3.68,8.04,1.16,2.6,3.65,8.71,5.09,12.74.46,1.29,1.09,3,1.52,4.3,1.65,4.98,2.14,6.48,2.77,8.67q1.67,5.82,2.42,8.76c.67,2.64,1.52,6.18,2.06,8.85q1.2,5.94,1.7,8.93c.46,2.69,1,6.3,1.35,9.01.79,6.14,1.3,11.93,1.62,18.24.34,6.84.28,12.11.26,13.83-.08,7.37-.55,13.72-.55,13.77-.14,1.37-.24,3.19-.36,4.56s-.3,3.18-.45,4.54c-.55,5.03-1.17,9-1.18,9.04q-1.09,6.74-2.44,13.42c-.53,2.63-1.18,5.24-2.08,8.85-.9,3.62-2.28,8.25-2.43,8.76q-.87,2.91-2.79,8.67c-1.29,3.86-3.69,10.07-4.85,12.83-1.77,4.22-3.78,9-7.35,16.05-3.4,6.73-6.22,11.54-8.53,15.36-2.94,4.86-6.19,9.79-9.68,14.64-1.68,2.34-3.5,4.77-5.27,7.04-1.62,2.09-3.86,4.81-5.55,6.85-1.77,2.14-6.55,7.52-8.85,9.9q-4.12,4.27-6.23,6.34c-2.16,2.12-4.21,4.05-6.45,6.08-10.95,9.93-22.81,18.76-35.25,26.25-7.99,4.81-14.97,8.35-19.41,10.47-8.84,4.22-16.23,7.09-20.87,8.75-3.33,1.19-11.13,3.99-21.85,6.68-10.61,2.67-19.17,3.95-22.39,4.44-3.9.59-11.96,1.64-22.06,2.14-7.31.36-14.76.37-22.15.03,4.29.2,8.61.22,12.95.06-4.34.16-8.66.13-12.95-.06-3.22-.17-9.93-.52-17.17-1.44-3.09-.39-5.32-.67-9.67-1.39-3.27-.54-3.5-.58-9.24-1.73-3.8-.76-10.9-2.52-13.52-3.27-5.56-1.58-5.78-1.65-8.79-2.61-2.61-.83-6.07-2.03-8.65-2.95-3.25-1.16-9.13-3.47-12.69-5.05q-5.24-2.32-8.06-3.67c-4.44-2.13-7.85-3.95-7.88-3.97q-5.01-2.7-7.71-4.26c-2.6-1.5-4.99-2.95-7.53-4.55-6.75-4.26-11.6-7.83-14.49-9.96-1.09-.8-6.89-5.12-13.72-11.08-1.08-.95-3.34-2.91-6.56-5.96q-2.16-2.04-6.35-6.22c-2.72-2.72-7.55-8.02-9.03-9.74q-3.83-4.46-5.68-6.74c-2.48-3.07-4.45-5.67-5.4-6.94-2.49-3.33-5.86-7.99-9.95-14.46-1.56-2.46-3.09-4.99-4.55-7.51-1.57-2.7-1.92-3.36-4.26-7.69-1.26-2.33-2.82-5.48-3.97-7.87-1.36-2.82-1.62-3.42-3.68-8.04-.72-1.62-3.26-7.65-5.09-12.73-.46-1.29-1.09-3-1.52-4.3-1.65-4.98-2.14-6.48-2.77-8.67-.75-2.62-1.75-6.12-2.42-8.76-1.26-4.97-2.05-8.81-2.06-8.85-.27-1.34-.64-3.12-.9-4.46s-.58-3.13-.81-4.48c-.51-2.98-.96-6.01-1.35-9.01-.79-6.14-1.3-11.93-1.62-18.24-.34-6.84-.28-12.11-.26-13.83.08-7.51.55-13.72.55-13.77,0,0,0,0,0,0,.25-2.73.52-6.38.82-9.1.55-5.03,1.17-9,1.18-9.04q1.09-6.74,2.44-13.42c.53-2.64,1.15-5.11,2.08-8.85.9-3.62,2.28-8.25,2.43-8.76q.87-2.92,2.79-8.67c1.29-3.87,3.69-10.08,4.85-12.83,2.48-5.9,7.1-16.88,15.88-31.4,2.02-3.34,5.34-8.59,9.68-14.64,1.7-2.37,3.48-4.74,5.27-7.04,1.62-2.09,3.86-4.81,5.55-6.85,1.77-2.14,6.55-7.52,8.85-9.9q4.11-4.27,6.23-6.34c2.16-2.12,4.21-4.05,6.45-6.08,5.44-4.93,11.16-9.64,17.01-14,8.97-6.68,16.77-11.38,18.24-12.26,1.14-.67,2.64-1.59,3.79-2.24,2.3-1.3,5.38-3,7.71-4.25,1.55-.84,5.82-2.99,7.91-3.97,2.41-1.13,5.63-2.59,8.06-3.67,1.24-.55,2.91-1.23,4.16-1.75,4.55-1.88,8.69-3.35,11.16-4.22,2.34-.83,10.79-3.74,21.56-6.32,10.14-2.43,18.23-3.57,21.68-4.05,4.52-.64,11.95-1.48,21.61-1.89,4.31-.18,8.69-.21,10.01-.21,0,0,0,0,0,0,1.53,0,3.06,0,4.59.03,3.9.06,6.9.2,7.46.23Z"/>
      </g>
      <path class="cls-1" d="m704.06.76c14.71.72,24.96,2.42,33.06,3.99,5.51,1.07,11.99,2.7,13.34,3.07,5.35,1.46,5.67,1.55,8.65,2.46,4.76,1.46,8.51,2.79,8.55,2.8,3.53,1.27,8.86,3.18,15.15,5.92,5.82,2.54,11.19,5.11,15.95,7.64,2.42,1.29,8.09,4.3,15.23,8.81,6.93,4.38,12.04,8.15,14.49,9.96,1.56,1.16,7.18,5.37,13.72,11.09,1.08.95,3.33,2.91,6.56,5.96q2.16,2.04,6.35,6.22c2.72,2.72,7.55,8.02,9.03,9.74q3.82,4.45,5.68,6.74c1.66,2.05,3.82,4.83,5.4,6.94,2.49,3.34,5.86,7.99,9.95,14.46,1.56,2.46,3.09,4.99,4.55,7.51,1.32,2.28,3.01,5.37,4.26,7.69.02.03,1.84,3.44,3.97,7.87,1.15,2.39,2.6,5.61,3.68,8.04,1.16,2.6,3.65,8.71,5.09,12.74.46,1.29,1.09,3,1.52,4.3,1.65,4.98,2.14,6.48,2.77,8.67q1.67,5.82,2.42,8.76c.67,2.64,1.52,6.18,2.06,8.85q1.2,5.94,1.7,8.93c.46,2.69,1,6.3,1.35,9.01.79,6.14,1.3,11.93,1.62,18.24.34,6.84.28,12.11.26,13.83-.08,7.37-.55,13.72-.55,13.77-.14,1.37-.24,3.19-.36,4.56s-.3,3.18-.45,4.54c-.55,5.03-1.17,9-1.18,9.04q-1.09,6.74-2.44,13.42c-.53,2.63-1.18,5.24-2.08,8.85-.9,3.62-2.28,8.25-2.43,8.76q-.87,2.91-2.79,8.67c-1.29,3.86-3.69,10.07-4.85,12.83-1.77,4.22-3.78,9-7.35,16.05-3.4,6.73-6.22,11.54-8.53,15.36-2.94,4.86-6.19,9.79-9.68,14.64-1.68,2.34-3.5,4.77-5.27,7.04-1.62,2.09-3.86,4.81-5.55,6.85-1.77,2.14-6.55,7.52-8.85,9.9q-4.12,4.27-6.23,6.34c-2.16,2.12-4.21,4.05-6.45,6.08-10.95,9.93-22.81,18.76-35.25,26.25-7.99,4.81-14.97,8.35-19.41,10.47-8.84,4.22-16.23,7.09-20.87,8.75-3.33,1.19-11.13,3.99-21.85,6.68-10.61,2.67-19.17,3.95-22.39,4.44-3.9.59-11.96,1.64-22.06,2.14-7.31.36-14.76.37-22.15.03,4.29.2,8.61.22,12.95.06-4.34.16-8.66.13-12.95-.06-3.22-.17-9.93-.52-17.17-1.44-3.09-.39-5.32-.67-9.67-1.39-3.27-.54-3.5-.58-9.24-1.73-3.8-.76-10.9-2.52-13.52-3.27-5.56-1.58-5.78-1.65-8.79-2.61-2.61-.83-6.07-2.03-8.65-2.95-3.25-1.16-9.13-3.47-12.69-5.05q-5.24-2.32-8.06-3.67c-4.44-2.13-7.85-3.95-7.88-3.97q-5.01-2.7-7.71-4.26c-2.6-1.5-4.99-2.95-7.53-4.55-6.75-4.26-11.6-7.83-14.49-9.96-1.09-.8-6.89-5.12-13.72-11.08-1.08-.95-3.34-2.91-6.56-5.96q-2.16-2.04-6.35-6.22c-2.72-2.72-7.55-8.02-9.03-9.74q-3.83-4.46-5.68-6.74c-2.48-3.07-4.45-5.67-5.4-6.94-2.49-3.33-5.86-7.99-9.95-14.46-1.56-2.46-3.09-4.99-4.55-7.51-1.57-2.7-1.92-3.36-4.26-7.69-1.26-2.33-2.82-5.48-3.97-7.87-1.36-2.82-1.62-3.42-3.68-8.04-.72-1.62-3.26-7.65-5.09-12.73-.46-1.29-1.09-3-1.52-4.3-1.65-4.98-2.14-6.48-2.77-8.67-.75-2.62-1.75-6.12-2.42-8.76-1.26-4.97-2.05-8.81-2.06-8.85-.27-1.34-.64-3.12-.9-4.46s-.58-3.13-.81-4.48c-.51-2.98-.96-6.01-1.35-9.01-.79-6.14-1.3-11.93-1.62-18.24-.34-6.84-.28-12.11-.26-13.83.08-7.51.55-13.72.55-13.77,0,0,0,0,0,0,.25-2.73.52-6.38.82-9.1.55-5.03,1.17-9,1.18-9.04q1.09-6.74,2.44-13.42c.53-2.64,1.15-5.11,2.08-8.85.9-3.62,2.28-8.25,2.43-8.76q.87-2.92,2.79-8.67c1.29-3.87,3.69-10.08,4.85-12.83,2.48-5.9,7.1-16.88,15.88-31.4,2.02-3.34,5.34-8.59,9.68-14.64,1.7-2.37,3.48-4.74,5.27-7.04,1.62-2.09,3.86-4.81,5.55-6.85,1.77-2.14,6.55-7.52,8.85-9.9q4.11-4.27,6.23-6.34c2.16-2.12,4.21-4.05,6.45-6.08,5.44-4.93,11.16-9.64,17.01-14,8.97-6.68,16.77-11.38,18.24-12.26,1.14-.67,2.64-1.59,3.79-2.24,2.3-1.3,5.38-3,7.71-4.25,1.55-.84,5.82-2.99,7.91-3.97,2.41-1.13,5.63-2.59,8.06-3.67,1.24-.55,2.91-1.23,4.16-1.75,4.55-1.88,8.69-3.35,11.16-4.22,2.34-.83,10.79-3.74,21.56-6.32,10.14-2.43,18.23-3.57,21.68-4.05,4.52-.64,11.95-1.48,21.61-1.89,4.31-.18,8.69-.21,10.01-.21,0,0,0,0,0,0,1.53,0,3.06,0,4.59.03,3.9.06,6.9.2,7.46.23Z"/>
    </g>
    <g class="cls-5">
      <g class="cls-6">
        <g class="cls-5">
          <g>
            <path class="cls-3" d="m690.11.75c-.49.01-.98.03-1.46.05.56.03,1.67.02,2.48,0-.34-.02-.68-.03-1.02-.04Z"/>
            <path class="cls-3" d="m690.11.75c-.25.02-.5.04-.75.06"/>
            <path class="cls-3" d="m690.11.75s.09.04.14.06"/>
          </g>
          <g>
            <path class="cls-3" d="m690.11.75c.34.01.68.02,1.02.04.81-.03,1.01-.07.45-.1-.49.02-.98.04-1.46.06Z"/>
            <path class="cls-3" d="m690.11.75c.54,0,1.08,0,1.62,0"/>
            <path class="cls-3" d="m690.11.75c.59-.01,1.19-.02,1.78-.03"/>
          </g>
          <g>
            <path class="cls-3" d="m690.11.75c.49-.02.98-.04,1.46-.06-.56-.03-1.67-.02-2.48,0,.34.02.68.03,1.02.05Z"/>
            <path class="cls-3" d="m690.11.75c.25-.03.5-.05.75-.08"/>
            <path class="cls-3" d="m690.11.75s-.09-.05-.14-.07"/>
          </g>
          <g>
            <path class="cls-3" d="m690.11.75c-.34-.02-.68-.04-1.02-.05-.81.03-1.01.07-.45.1.49-.02.98-.03,1.46-.05Z"/>
            <path class="cls-3" d="m690.11.75c-.54,0-1.08-.02-1.62-.02"/>
            <path class="cls-3" d="m690.11.75c-.59,0-1.19,0-1.78.01"/>
          </g>
          <g>
            <path class="cls-3" d="m688.65.8c-24.79.89-48.78,7.78-71.33,20.25,27.96,1.29,83.3,1.17,123.59-.29-15.83-12.38-32.58-19.18-49.78-19.97-.81.03-1.92.03-2.48,0Z"/>
            <path class="cls-3" d="m664.15,3.68c9.96.46,29.66.42,44.01-.1"/>
            <path class="cls-3" d="m640.32,10.46c19.11.88,56.93.8,84.47-.2"/>
            <path class="cls-3" d="m689.36.82c-12.72,1.17-25.01,8.33-36.53,21.06"/>
            <path class="cls-3" d="m690.25.82c2.34,1.14,4.67,8.27,6.92,20.96"/>
          </g>
          <g>
            <path class="cls-3" d="m691.13.79c17.2.8,33.95,7.59,49.78,19.97,40.3-1.45,50.29-3.68,22.33-4.97-22.77-10.84-46.87-15.99-71.66-15.1.56.03.36.07-.45.1Z"/>
            <path class="cls-3" d="m708.16,3.58c14.35-.52,17.91-1.31,7.95-1.77"/>
            <path class="cls-3" d="m724.79,10.26c27.54-.99,34.37-2.51,15.26-3.4"/>
            <path class="cls-3" d="m691.73.76c27.37.24,53.97,6.49,79.09,18.36"/>
            <path class="cls-3" d="m691.89.73c30.09-.37,59.33,5.29,86.94,16.61"/>
          </g>
          <g>
            <path class="cls-3" d="m691.58.7c24.79-.89,48.89,4.26,71.66,15.1-27.96-1.29-83.3-1.17-123.59.29,15.62-10.93,32.25-16.18,49.45-15.38.81-.03,1.92-.03,2.48,0Z"/>
            <path class="cls-3" d="m716.11,1.8c-9.96-.46-29.66-.42-44.01.1"/>
            <path class="cls-3" d="m740.05,6.86c-19.11-.88-56.93-.8-84.47.2"/>
            <path class="cls-3" d="m690.86.68c12.72-1.17,25.12,3.71,36.86,14.29"/>
            <path class="cls-3" d="m689.97.68c-2.34-1.14-4.56,3.78-6.59,14.39"/>
          </g>
          <g>
            <path class="cls-3" d="m689.1.7c-17.2-.8-33.83,4.45-49.45,15.38-40.3,1.45-50.29,3.68-22.33,4.97,22.55-12.47,46.54-19.36,71.33-20.25-.56-.03-.36-.07.45-.1Z"/>
            <path class="cls-3" d="m672.1,1.91c-14.35.52-17.91,1.31-7.95,1.77"/>
            <path class="cls-3" d="m655.58,7.06c-27.54.99-34.37,2.51-15.26,3.4"/>
            <path class="cls-3" d="m688.5.73c-27.37-.24-53.86,5.56-78.76,16.99"/>
            <path class="cls-3" d="m688.33.77c-30.09.37-59.22,6.75-86.61,18.74"/>
          </g>
          <g>
            <path class="cls-3" d="m617.31,21.05c-22.22,12.29-42.12,29.45-59.14,51.01,50.8,2.35,151.33,2.12,224.54-.52-12.14-21.49-26.21-38.58-41.81-50.78-40.3,1.45-95.63,1.58-123.59.29Z"/>
            <path class="cls-3" d="m595.89,34.95c36.22,1.68,107.9,1.51,160.09-.37"/>
            <path class="cls-3" d="m576.14,51.99c43.85,2.03,130.62,1.83,193.81-.45"/>
            <path class="cls-3" d="m652.83,21.88c-11.35,12.54-21.49,29.93-30.13,51.68"/>
            <path class="cls-3" d="m697.17,21.78c2.22,12.51,4.26,29.87,6.08,51.6"/>
          </g>
          <g>
            <path class="cls-3" d="m740.91,20.77c15.6,12.2,29.67,29.29,41.81,50.78,73.21-2.64,91.37-6.69,40.57-9.04-17.41-20.32-37.61-36.04-60.05-46.71,27.96,1.29,17.96,3.52-22.33,4.97Z"/>
            <path class="cls-3" d="m755.98,34.58c52.2-1.88,65.15-4.77,28.93-6.44"/>
            <path class="cls-3" d="m769.94,51.54c63.19-2.28,78.87-5.77,35.02-7.8"/>
            <path class="cls-3" d="m770.82,19.12c24.75,11.69,47.04,28.33,66.24,49.43"/>
          </g>
          <g>
            <path class="cls-3" d="m763.24,15.79c22.43,10.68,42.64,26.4,60.05,46.71-50.8-2.35-151.33-2.12-224.54.52,11.75-20.39,25.51-36.18,40.9-46.95,40.3-1.45,95.63-1.58,123.59-.29Z"/>
            <path class="cls-3" d="m784.91,28.14c-36.22-1.68-107.9-1.51-160.09.37"/>
            <path class="cls-3" d="m804.96,43.74c-43.85-2.03-130.62-1.83-193.81.45"/>
            <path class="cls-3" d="m727.72,14.97c11.56,10.42,22.01,25.92,31.04,46.04"/>
            <path class="cls-3" d="m683.38,15.07c-2,10.46-3.74,25.98-5.18,46.13"/>
          </g>
          <g>
            <path class="cls-3" d="m639.65,16.08c-15.39,10.76-29.15,26.56-40.9,46.95-73.21,2.64-91.37,6.69-40.57,9.04,17.02-21.56,36.92-38.72,59.14-51.01-27.96-1.29-17.96-3.52,22.33-4.97Z"/>
            <path class="cls-3" d="m624.82,28.51c-52.2,1.88-65.15,4.77-28.93,6.44"/>
            <path class="cls-3" d="m611.16,44.19c-63.19,2.28-78.87,5.77-35.02,7.8"/>
            <path class="cls-3" d="m609.73,17.73c-24.54,11.27-46.52,27.52-65.33,48.29"/>
            <path class="cls-3" d="m601.72,19.51c-26.99,11.81-51.17,28.56-71.87,49.75"/>
          </g>
          <g>
            <path class="cls-3" d="m558.18,72.07c-17.02,21.56-30.31,46.43-39.49,73.92,66.19,3.07,197.18,2.76,292.58-.68-6.8-27.45-16.41-52.27-28.55-73.76-73.21,2.64-173.74,2.87-224.54.52Z"/>
            <path class="cls-3" d="m542.41,94.7c56.92,2.64,169.56,2.38,251.58-.58"/>
            <path class="cls-3" d="m529.22,119.4c62.06,2.87,184.87,2.59,274.31-.63"/>
            <path class="cls-3" d="m622.7,73.56c-8.64,21.75-15.35,46.78-19.94,74.37"/>
            <path class="cls-3" d="m703.25,73.38c1.82,21.73,3.32,46.74,4.47,74.32"/>
          </g>
          <g>
            <path class="cls-3" d="m782.71,71.55c12.14,21.49,21.74,46.31,28.55,73.76,95.39-3.44,119.06-8.71,52.87-11.78-9.69-26.8-23.43-50.7-40.84-71.02,50.8,2.35,32.64,6.4-40.57,9.04Z"/>
            <path class="cls-3" d="m794,94.12c82.03-2.96,102.38-7.49,45.46-10.13"/>
            <path class="cls-3" d="m803.53,118.76c89.44-3.22,111.63-8.17,49.56-11.04"/>
            <path class="cls-3" d="m837.06,68.55c19.2,21.1,34.34,45.62,45.01,72.85"/>
            <path class="cls-3" d="m851.61,65.31c21.09,20.68,37.71,44.87,49.42,71.87"/>
          </g>
          <g>
            <path class="cls-3" d="m823.28,62.51c17.41,20.32,31.15,44.22,40.84,71.02-66.19-3.07-197.18-2.76-292.58.68,6.3-26.84,15.45-50.79,27.2-71.18,73.21-2.64,173.74-2.87,224.54-.52Z"/>
            <path class="cls-3" d="m839.46,84c-56.92-2.64-169.56-2.38-251.58.58"/>
            <path class="cls-3" d="m853.1,107.72c-62.06-2.87-184.87-2.59-274.31.63"/>
            <path class="cls-3" d="m758.76,61.01c9.03,20.12,16.19,43.87,21.29,70.57"/>
            <path class="cls-3" d="m678.21,61.2c-1.43,20.15-2.48,43.91-3.12,70.62"/>
          </g>
          <g>
            <path class="cls-3" d="m598.75,63.03c-11.75,20.39-20.9,44.34-27.2,71.18-95.39,3.44-119.06,8.71-52.87,11.78,9.19-27.49,22.47-52.36,39.49-73.92-50.8-2.35-32.64-6.4,40.57-9.04Z"/>
            <path class="cls-3" d="m587.87,84.58c-82.03,2.96-102.38,7.49-45.46,10.13"/>
            <path class="cls-3" d="m578.79,108.35c-89.44,3.22-111.63,8.17-49.56,11.04"/>
            <path class="cls-3" d="m544.4,66.02c-18.81,20.77-33.5,45.03-43.67,72.09"/>
            <path class="cls-3" d="m529.85,69.26c-20.7,21.2-36.87,45.78-48.08,73.07"/>
          </g>
          <g>
            <path class="cls-3" d="m518.68,145.98c-9.52,28.46-14.19,58.5-13.91,89.28,71.84,3.33,214.01,3,317.53-.73-.29-30.78-4-60.8-11.05-89.23-95.39,3.44-226.38,3.74-292.58.68Z"/>
            <path class="cls-3" d="m510.78,174.94c69.32,3.21,206.51,2.89,306.41-.71"/>
            <path class="cls-3" d="m506.14,204.76c71.21,3.3,212.13,2.97,314.74-.73"/>
            <path class="cls-3" d="m602.76,147.94c-4.76,28.58-7.02,58.67-6.74,89.45"/>
            <path class="cls-3" d="m707.72,147.69c1.19,28.56,1.93,58.65,2.22,89.43"/>
          </g>
          <g>
            <path class="cls-3" d="m811.26,145.31c7.05,28.43,10.76,58.44,11.05,89.23,103.53-3.73,129.22-9.45,57.37-12.78-.29-30.78-5.52-60.46-15.56-88.22,66.19,3.07,42.53,8.34-52.87,11.78Z"/>
            <path class="cls-3" d="m817.19,174.23c99.9-3.6,124.69-9.12,55.36-12.33"/>
            <path class="cls-3" d="m820.88,204.04c102.62-3.7,128.08-9.37,56.87-12.67"/>
            <path class="cls-3" d="m882.07,141.41c11.06,28.21,16.8,58.11,17.09,88.89"/>
            <path class="cls-3" d="m901.04,137.18c12.13,27.97,18.42,57.75,18.71,88.53"/>
          </g>
          <g>
            <path class="cls-3" d="m864.12,133.53c10.04,27.76,15.27,57.44,15.56,88.22-71.84-3.33-214.01-3-317.53.73-.29-30.78,2.88-60.48,9.4-88.28,95.39-3.44,226.38-3.74,292.58-.68Z"/>
            <path class="cls-3" d="m872.56,161.9c-69.32-3.21-206.51-2.89-306.41.71"/>
            <path class="cls-3" d="m877.75,191.37c-71.21-3.3-212.13-2.97-314.74.73"/>
            <path class="cls-3" d="m780.05,131.58c5.28,27.65,8.1,57.27,8.39,88.05"/>
            <path class="cls-3" d="m675.09,131.82c-.66,27.66-.85,57.29-.57,88.07"/>
          </g>
          <g>
            <path class="cls-3" d="m571.55,134.21c-6.52,27.8-9.69,57.5-9.4,88.28-103.53,3.73-129.22,9.45-57.37,12.78-.29-30.78,4.39-60.82,13.91-89.28-66.19-3.07-42.53-8.34,52.87-11.78Z"/>
            <path class="cls-3" d="m566.15,162.61c-99.9,3.6-124.69,9.12-55.36,12.33"/>
            <path class="cls-3" d="m563.01,192.1c-102.62,3.7-128.08,9.37-56.87,12.67"/>
            <path class="cls-3" d="m500.74,138.11c-10.53,28.02-15.73,57.83-15.44,88.61"/>
            <path class="cls-3" d="m481.77,142.33c-11.61,28.26-17.34,58.19-17.06,88.97"/>
          </g>
          <g>
            <path class="cls-3" d="m504.78,235.27c.29,30.78,5.52,60.46,15.56,88.21,66.19,3.07,197.18,2.76,292.58-.68,6.52-27.79,9.69-57.49,9.4-88.27-103.53,3.73-245.69,4.06-317.53.73Z"/>
            <path class="cls-3" d="m506.71,265.65c71.21,3.3,212.13,2.97,314.74-.73"/>
            <path class="cls-3" d="m511.9,295.12c69.32,3.21,206.51,2.89,306.41-.71"/>
            <path class="cls-3" d="m596.02,237.38c.29,30.78,3.11,60.4,8.39,88.05"/>
            <path class="cls-3" d="m709.94,237.12c.29,30.78.1,60.41-.57,88.07"/>
          </g>
          <g>
            <path class="cls-3" d="m822.31,234.53c.29,30.78-2.88,60.48-9.4,88.27,95.39-3.44,119.06-8.71,52.87-11.78,9.52-28.46,14.2-58.49,13.91-89.27,71.84,3.33,46.15,9.05-57.37,12.78Z"/>
            <path class="cls-3" d="m821.45,264.92c102.62-3.7,128.08-9.37,56.87-12.67"/>
            <path class="cls-3" d="m818.31,294.41c99.9-3.6,124.69-9.12,55.36-12.33"/>
            <path class="cls-3" d="m899.16,230.3c.29,30.78-4.91,60.59-15.44,88.6"/>
            <path class="cls-3" d="m919.74,225.71c.29,30.78-5.45,60.71-17.06,88.96"/>
          </g>
          <g>
            <path class="cls-3" d="m879.68,221.75c.29,30.78-4.39,60.82-13.91,89.27-66.19-3.07-197.18-2.76-292.58.68-7.05-28.42-10.76-58.44-11.05-89.22,103.53-3.73,245.69-4.06,317.53-.73Z"/>
            <path class="cls-3" d="m878.32,252.25c-71.21-3.3-212.13-2.97-314.74.73"/>
            <path class="cls-3" d="m873.67,282.07c-69.32-3.21-206.51-2.89-306.41.71"/>
            <path class="cls-3" d="m788.44,219.63c.29,30.78-1.98,60.87-6.74,89.44"/>
            <path class="cls-3" d="m674.52,219.9c.29,30.78,1.03,60.87,2.22,89.42"/>
          </g>
          <g>
            <path class="cls-3" d="m562.15,222.49c.29,30.78,4,60.8,11.05,89.22-95.39,3.44-119.06,8.71-52.87,11.78-10.04-27.75-15.27-57.43-15.56-88.21-71.84-3.33-46.15-9.05,57.37-12.78Z"/>
            <path class="cls-3" d="m563.58,252.98c-102.62,3.7-128.08,9.37-56.87,12.67"/>
            <path class="cls-3" d="m567.27,282.78c-99.9,3.6-124.69,9.12-55.36,12.33"/>
            <path class="cls-3" d="m485.3,226.72c.29,30.78,6.03,60.69,17.09,88.88"/>
            <path class="cls-3" d="m464.71,231.3c.29,30.78,6.58,60.57,18.71,88.52"/>
          </g>
          <g>
            <path class="cls-3" d="m520.33,323.48c9.69,26.81,23.43,50.71,40.84,71.03,50.8,2.35,151.33,2.12,224.54-.52,11.75-20.39,20.9-44.34,27.2-71.19-95.39,3.44-226.38,3.74-292.58.68Z"/>
            <path class="cls-3" d="m531.36,349.3c62.06,2.87,184.87,2.59,274.31-.63"/>
            <path class="cls-3" d="m545,373.02c56.92,2.64,169.56,2.38,251.58-.58"/>
            <path class="cls-3" d="m604.41,325.43c5.1,26.71,12.26,50.45,21.29,70.58"/>
            <path class="cls-3" d="m709.37,325.19c-.64,26.72-1.69,50.49-3.12,70.63"/>
          </g>
          <g>
            <path class="cls-3" d="m812.91,322.8c-6.3,26.85-15.45,50.8-27.2,71.19,73.21-2.64,91.37-6.69,40.57-9.04,17.02-21.56,30.31-46.43,39.49-73.93,66.19,3.07,42.53,8.34-52.87,11.78Z"/>
            <path class="cls-3" d="m805.67,348.66c89.44-3.22,111.63-8.17,49.56-11.04"/>
            <path class="cls-3" d="m796.59,372.44c82.03-2.96,102.38-7.49,45.46-10.13"/>
            <path class="cls-3" d="m883.72,318.9c-10.17,27.06-24.86,51.32-43.67,72.1"/>
            <path class="cls-3" d="m902.69,314.68c-11.2,27.29-27.38,51.88-48.08,73.08"/>
          </g>
          <g>
            <path class="cls-3" d="m865.77,311.03c-9.19,27.49-22.47,52.37-39.49,73.93-50.8-2.35-151.33-2.12-224.54.52-12.14-21.49-21.74-46.31-28.55-73.77,95.39-3.44,226.38-3.74,292.58-.68Z"/>
            <path class="cls-3" d="m855.23,337.62c-62.06-2.87-184.87-2.59-274.31.63"/>
            <path class="cls-3" d="m842.04,362.31c-56.92-2.64-169.56-2.38-251.58.58"/>
            <path class="cls-3" d="m781.7,309.07c-4.59,27.6-11.3,52.63-19.94,74.38"/>
            <path class="cls-3" d="m676.74,309.32c1.14,27.59,2.65,52.59,4.47,74.32"/>
          </g>
          <g>
            <path class="cls-3" d="m573.2,311.7c6.8,27.46,16.41,52.28,28.55,73.77-73.21,2.64-91.37,6.69-40.57,9.04-17.41-20.32-31.15-44.22-40.84-71.03-66.19-3.07-42.53-8.34,52.87-11.78Z"/>
            <path class="cls-3" d="m580.93,338.25c-89.44,3.22-111.63,8.17-49.56,11.04"/>
            <path class="cls-3" d="m590.46,362.9c-82.03,2.96-102.38,7.49-45.46,10.13"/>
            <path class="cls-3" d="m502.39,315.6c10.67,27.24,25.82,51.76,45.01,72.86"/>
            <path class="cls-3" d="m483.42,319.83c11.71,27.01,28.34,51.2,49.42,71.88"/>
          </g>
          <g>
            <path class="cls-3" d="m561.17,394.51c17.41,20.32,37.61,36.03,60.05,46.71,27.96,1.29,83.3,1.17,123.59-.29,15.39-10.77,29.15-26.56,40.9-46.95-73.21,2.64-173.74,2.87-224.54.52Z"/>
            <path class="cls-3" d="m579.49,413.28c43.85,2.03,130.62,1.83,193.81-.45"/>
            <path class="cls-3" d="m599.55,428.88c36.22,1.68,107.9,1.51,160.09-.37"/>
            <path class="cls-3" d="m625.7,396.01c9.03,20.12,19.47,35.61,31.04,46.04"/>
            <path class="cls-3" d="m706.25,395.82c-1.43,20.15-3.17,35.66-5.18,46.13"/>
          </g>
          <g>
            <path class="cls-3" d="m785.71,393.99c-11.75,20.39-25.51,36.18-40.9,46.95,40.3-1.45,50.29-3.68,22.33-4.97,22.22-12.3,42.12-29.45,59.14-51.01,50.8,2.35,32.64,6.4-40.57,9.04Z"/>
            <path class="cls-3" d="m773.3,412.83c63.19-2.28,78.87-5.77,35.02-7.8"/>
            <path class="cls-3" d="m759.64,428.51c52.2-1.88,65.15-4.77,28.93-6.44"/>
            <path class="cls-3" d="m840.05,391c-18.81,20.77-40.79,37.02-65.33,48.29"/>
            <path class="cls-3" d="m854.61,387.75c-20.7,21.2-44.88,37.93-71.87,49.75"/>
          </g>
          <g>
            <path class="cls-3" d="m826.28,384.95c-17.02,21.56-36.92,38.72-59.14,51.01-27.96-1.29-83.3-1.17-123.59.29-15.6-12.21-29.67-29.29-41.81-50.78,73.21-2.64,173.74-2.87,224.54-.52Z"/>
            <path class="cls-3" d="m808.32,405.03c-43.85-2.03-130.62-1.83-193.81.45"/>
            <path class="cls-3" d="m788.57,422.06c-36.22-1.68-107.9-1.51-160.09.37"/>
            <path class="cls-3" d="m761.76,383.46c-8.64,21.75-18.78,39.14-30.13,51.68"/>
            <path class="cls-3" d="m681.21,383.64c1.82,21.73,3.87,39.08,6.08,51.6"/>
          </g>
          <g>
            <path class="cls-3" d="m601.75,385.47c12.14,21.49,26.21,38.57,41.81,50.78-40.3,1.45-50.29,3.68-22.33,4.97-22.43-10.69-42.64-26.4-60.05-46.71-50.8-2.35-32.64-6.4,40.57-9.04Z"/>
            <path class="cls-3" d="m614.51,405.48c-63.19,2.28-78.87,5.77-35.02,7.8"/>
            <path class="cls-3" d="m628.48,422.44c-52.2,1.88-65.15,4.77-28.93,6.44"/>
            <path class="cls-3" d="m547.4,388.47c19.2,21.1,41.48,37.73,66.24,49.43"/>
            <path class="cls-3" d="m532.85,391.71c21.09,20.68,45.58,36.82,72.78,47.97"/>
          </g>
          <g>
            <path class="cls-3" d="m621.22,441.22c23.22,11.05,47.82,16.19,73.13,15.28,17.56.81,34.54-4.43,50.46-15.57-40.3,1.45-95.63,1.58-123.59.29Z"/>
            <path class="cls-3" d="m644.87,450.3c18.93.88,56.4.79,83.68-.19"/>
            <path class="cls-3" d="m669.3,455.4c9.59.44,28.57.4,42.4-.1"/>
            <path class="cls-3" d="m656.74,442.05c11.97,10.79,24.62,15.66,37.61,14.46"/>
            <path class="cls-3" d="m701.07,441.95c-2.07,10.82-4.34,15.72-6.73,14.56"/>
          </g>
          <g>
            <path class="cls-3" d="m744.81,440.94c-15.92,11.14-32.9,16.38-50.46,15.57,25.31-.91,49.8-7.82,72.8-20.54,27.96,1.29,17.96,3.52-22.33,4.97Z"/>
            <path class="cls-3" d="m728.56,450.11c27.28-.98,34.05-2.49,15.12-3.37"/>
            <path class="cls-3" d="m711.7,455.31c13.82-.5,17.25-1.26,7.66-1.71"/>
            <path class="cls-3" d="m774.73,439.29c-25.4,11.66-52.44,17.46-80.38,17.21"/>
            <path class="cls-3" d="m782.74,437.51c-27.93,12.23-57.67,18.62-88.39,19"/>
          </g>
          <g>
            <path class="cls-3" d="m767.15,435.96c-23,12.72-47.49,19.63-72.8,20.54-17.56-.81-34.65-7.63-50.8-20.26,40.3-1.45,95.63-1.58,123.59-.29Z"/>
            <path class="cls-3" d="m743.68,446.74c-18.93-.88-56.4-.79-83.68.19"/>
            <path class="cls-3" d="m719.36,453.6c-9.59-.44-28.57-.4-42.4.1"/>
            <path class="cls-3" d="m731.63,435.14c-11.75,12.98-24.29,20.17-37.28,21.37"/>
            <path class="cls-3" d="m687.29,435.24c2.29,12.95,4.67,20.1,7.06,21.26"/>
          </g>
          <g>
            <path class="cls-3" d="m643.55,436.25c16.14,12.63,33.24,19.44,50.8,20.26-25.31.91-49.91-4.23-73.13-15.28-27.96-1.29-17.96-3.52,22.33-4.97Z"/>
            <path class="cls-3" d="m659.99,446.93c-27.28.98-34.05,2.49-15.12,3.37"/>
            <path class="cls-3" d="m676.96,453.7c-13.82.5-17.25,1.26-7.66,1.71"/>
            <path class="cls-3" d="m613.64,437.9c25.62,12.1,52.77,18.37,80.71,18.61"/>
            <path class="cls-3" d="m605.63,439.68c28.15,11.54,58.01,17.2,88.72,16.82"/>
          </g>
        </g>
      </g>
      <path class="cls-1" d="m778.72,17.29c3.51,1.42,9.19,3.94,12.16,5.4q5.27,2.59,7.88,3.97c3.47,1.83,6.06,3.31,7.7,4.26,6.13,3.54,11.17,6.9,11.22,6.93q4.86,3.27,7.24,4.98c3.99,2.86,7.03,5.24,7.05,5.26,4.15,3.28,4.49,3.55,6.86,5.54,2.24,1.89,4.49,3.84,6.66,5.82,2.18,1.98,4.35,4.03,6.46,6.1,1.9,1.86,4.37,4.42,6.22,6.33,2.08,2.16,6.56,7.14,8.82,9.89q3.73,4.52,5.54,6.84c2.87,3.68,4.75,6.32,5.26,7.04,2.52,3.57,3.05,4.31,4.98,7.23q1.61,2.44,4.69,7.42c2.33,3.76,5.61,9.74,6.5,11.47.6,1.17,1.43,2.73,2.02,3.91s1.38,2.76,1.95,3.95c1.73,3.59,3.04,6.58,3.68,8.04,3.44,7.95,5.19,12.99,6.61,17.04,1.27,3.64,3.15,9.73,4.03,13.04q1.55,5.85,2.24,8.81c.36,1.55,1.03,4.43,1.88,8.89.3,1.56.85,4.47,1.53,8.97q.45,3.01,1.17,9.05c.58,4.86,1.07,12.92,1.08,13.71,0,0,0,0,0,0,.03,1.38.15,3.22.18,4.6q.12,6.16.09,9.23c-.08,7.51-.55,13.72-.55,13.77,0,0,0,0,0,0-.25,2.73-.52,6.38-.82,9.1-.55,5.03-1.17,9-1.18,9.04-.83,5.17-1.09,6.74-1.54,8.96-.27,1.34-.62,3.12-.9,4.45s-.7,3.1-.99,4.43-.74,3.09-1.08,4.41c-1.05,4.01-2.5,9.51-5.22,17.43-2.83,8.23-5.55,14.53-6.57,16.9-1.55,3.59-4.14,9.26-7.65,15.88-.72,1.36-2.06,3.88-4.26,7.68q-1.63,2.8-4.55,7.5c-1.94,3.12-5.72,8.77-9.97,14.46-3.5,4.67-7.23,9.28-11.1,13.7-3.82,4.36-8.04,8.82-12.2,12.89-1.11,1.09-3.17,3.11-6.45,6.08q-2.31,2.09-6.66,5.81c-.62.53-6.25,5.31-13.91,10.79-2.44,1.75-4.74,3.33-7.25,4.97q-2.48,1.63-7.44,4.69s-3.28,2.01-7.63,4.4q-2.59,1.43-7.81,4.11c-2.96,1.52-8.6,4.15-12.07,5.63-2.53,1.08-5.93,2.45-8.49,3.46-1.29.51-3.02,1.14-4.32,1.61s-3.05,1.1-4.37,1.53c-2.6.85-6.07,1.95-8.68,2.75-3.22.98-9.03,2.46-9.08,2.47-2.63.63-6.15,1.44-8.79,2.01-1.44.31-3.37.68-4.82.95-3.42.62-6.64,1.2-13.75,2.11-2.71.35-7.68.85-11.56,1.12-2.17.15-7.24.49-13.23.57-1.05.01-2.79.03-5.11.02-4.02-.03-6.91-.15-9.01-.24-20.75-.96-40.94-6.06-60.18-15.22-22.43-10.69-42.64-26.4-60.05-46.71-17.41-20.32-31.15-44.22-40.84-71.03-10.04-27.75-15.27-57.43-15.56-88.21-.29-30.78,4.39-60.82,13.91-89.28,9.19-27.49,22.47-52.36,39.49-73.92,17.02-21.56,36.92-38.72,59.14-51.01,22.55-12.47,46.54-19.36,71.33-20.25.56.03,1.67.02,2.48,0s1.01-.07.45-.1-1.67-.02-2.48,0-1.01.07-.45.1c-24.79.89-48.78,7.78-71.33,20.25-22.22,12.29-42.12,29.45-59.14,51.01-17.02,21.56-30.31,46.43-39.49,73.92-9.52,28.46-14.19,58.5-13.91,89.28s5.52,60.46,15.56,88.21c9.69,26.81,23.43,50.71,40.84,71.03,17.41,20.32,37.61,36.03,60.05,46.71,19.24,9.16,39.42,14.26,60.18,15.22-2.58-.12-9.43-.46-18.31-1.58-1.12-.14-4.51-.57-8.97-1.32q-3.08-.52-9-1.7c-3.35-.67-10.61-2.45-13.38-3.24q-5.82-1.66-8.77-2.6c-2.61-.83-6.07-2.03-8.65-2.95-3.24-1.16-9.11-3.46-12.67-5.04q-5.25-2.33-8.06-3.67c-4.44-2.13-7.85-3.95-7.88-3.97q-5.01-2.7-7.7-4.26c-2.6-1.5-4.99-2.95-7.52-4.55-6.75-4.26-11.59-7.83-14.49-9.96-1.54-1.13-7.06-5.27-13.72-11.08-2.28-1.99-4.36-3.88-6.56-5.96q-2.16-2.04-6.35-6.22c-2.72-2.72-7.55-8.02-9.03-9.74q-3.82-4.45-5.68-6.74c-1.66-2.05-3.82-4.83-5.4-6.94-2.49-3.34-5.86-7.99-9.95-14.46-1.56-2.46-3.09-4.99-4.55-7.51-1.32-2.28-3.01-5.37-4.26-7.69-.02-.03-1.84-3.44-3.97-7.87-1.36-2.82-1.58-3.32-3.68-8.04-.72-1.62-3.26-7.65-5.09-12.73-.46-1.29-1.09-3-1.52-4.3-1.65-4.98-2.14-6.48-2.77-8.67q-1.67-5.82-2.42-8.76c-.67-2.64-1.48-6.18-2.06-8.85-.55-2.52-1.94-9.3-3.05-17.94-.79-6.14-1.3-11.93-1.62-18.24-.34-6.84-.28-12.11-.26-13.83.08-7.51.55-13.72.55-13.77,0,0,0,0,0,0,.12-1.37.24-3.19.36-4.56s.3-3.18.45-4.54c.55-5.04,1.17-9,1.18-9.04q1.09-6.74,2.44-13.42c.53-2.64,1.15-5.11,2.08-8.85.9-3.62,2.28-8.25,2.43-8.76q.87-2.92,2.79-8.67c1.07-3.21,3.42-9.45,4.85-12.83,2.48-5.9,7.1-16.88,15.88-31.4,2.02-3.34,5.34-8.59,9.68-14.64,1.7-2.37,3.48-4.74,5.27-7.04,1.62-2.09,3.86-4.81,5.55-6.85,1.77-2.14,6.55-7.52,8.85-9.9q4.11-4.27,6.23-6.34c2.16-2.12,4.21-4.05,6.45-6.08,5.29-4.8,10.02-8.57,10.06-8.61q4.6-3.64,6.96-5.39c2.11-1.57,4.97-3.62,7.15-5.11,2.41-1.65,4.88-3.28,7.34-4.83q2.49-1.57,7.53-4.55c2.38-1.4,8.69-4.83,11.65-6.28q4.92-2.41,7.99-3.82c2.02-.93,4.74-2.11,6.79-2.96,6.93-2.85,11.28-4.4,16.9-6.26,5.19-1.72,11.51-3.44,13.11-3.83,2.58-.64,6.02-1.49,8.62-2.05,3.91-.85,6.84-1.38,8.96-1.75,10.03-1.76,20.44-2.84,30.94-3.2,7.73-.27,13.56-.16,17.28-.05,8.27.24,15.38.98,15.45.99,3.95.42,5.28.56,8.44.99,2.56.35,5.97.91,8.52,1.34,2.74.46,9.07,1.72,13.35,2.79,4.53,1.13,5.34,1.33,8.69,2.28,3.85,1.09,6.04,1.81,8.59,2.63,6.77,2.19,12.97,4.7,15.31,5.64Z"/>
    </g>
    <g class="cls-5">
      <g class="cls-4">
        <g class="cls-5">
          <g>
            <path class="cls-3" d="m690.11.75c-.49.01-.98.03-1.46.05.56.03,1.67.02,2.48,0-.34-.02-.68-.03-1.02-.04Z"/>
            <path class="cls-3" d="m689.62.77c.19,0,.56,0,.83,0"/>
            <path class="cls-3" d="m689.14.78c.37.02,1.11.02,1.65,0"/>
            <path class="cls-3" d="m690.11.75c-.25.02-.5.04-.75.06"/>
            <path class="cls-3" d="m690.11.75s.09.04.14.06"/>
          </g>
          <g>
            <path class="cls-3" d="m690.11.75c.34.01.68.02,1.02.04.81-.03,1.01-.07.45-.1-.49.02-.98.04-1.46.06Z"/>
            <path class="cls-3" d="m690.45.77c.27,0,.34-.02.15-.03"/>
            <path class="cls-3" d="m690.79.78c.54-.02.67-.05.3-.07"/>
            <path class="cls-3" d="m690.11.75c.54,0,1.08,0,1.62,0"/>
            <path class="cls-3" d="m690.11.75c.59-.01,1.19-.02,1.78-.03"/>
          </g>
          <g>
            <path class="cls-3" d="m690.11.75c.49-.02.98-.04,1.46-.06-.56-.03-1.67-.02-2.48,0,.34.02.68.03,1.02.05Z"/>
            <path class="cls-3" d="m690.6.73c-.19,0-.56,0-.83,0"/>
            <path class="cls-3" d="m691.09.71c-.37-.02-1.11-.02-1.65,0"/>
            <path class="cls-3" d="m690.11.75c.25-.03.5-.05.75-.08"/>
            <path class="cls-3" d="m690.11.75s-.09-.05-.14-.07"/>
          </g>
          <g>
            <path class="cls-3" d="m690.11.75c-.34-.02-.68-.04-1.02-.05-.81.03-1.01.07-.45.1.49-.02.98-.03,1.46-.05Z"/>
            <path class="cls-3" d="m689.77.74c-.27,0-.34.02-.15.03"/>
            <path class="cls-3" d="m689.43.72c-.54.02-.67.05-.3.07"/>
            <path class="cls-3" d="m690.11.75c-.54,0-1.08-.02-1.62-.02"/>
            <path class="cls-3" d="m690.11.75c-.59,0-1.19,0-1.78.01"/>
          </g>
          <g>
            <path class="cls-3" d="m688.65.8c-24.79.89-48.78,7.78-71.33,20.25,27.96,1.29,83.3,1.17,123.59-.29-15.83-12.38-32.58-19.18-49.78-19.97-.81.03-1.92.03-2.48,0Z"/>
            <path class="cls-3" d="m689.36.82c-12.72,1.17-25.01,8.33-36.53,21.06"/>
            <path class="cls-3" d="m690.25.82c2.34,1.14,4.67,8.27,6.92,20.96"/>
          </g>
          <g>
            <path class="cls-3" d="m691.13.79c17.2.8,33.95,7.59,49.78,19.97,40.3-1.45,50.29-3.68,22.33-4.97-22.77-10.84-46.87-15.99-71.66-15.1.56.03.36.07-.45.1Z"/>
            <path class="cls-3" d="m691.73.76c27.37.24,53.97,6.49,79.09,18.36"/>
            <path class="cls-3" d="m691.89.73c30.09-.37,59.33,5.29,86.94,16.61"/>
          </g>
          <g>
            <path class="cls-3" d="m691.58.7c24.79-.89,48.89,4.26,71.66,15.1-27.96-1.29-83.3-1.17-123.59.29,15.62-10.93,32.25-16.18,49.45-15.38.81-.03,1.92-.03,2.48,0Z"/>
            <path class="cls-3" d="m690.86.68c12.72-1.17,25.12,3.71,36.86,14.29"/>
            <path class="cls-3" d="m689.97.68c-2.34-1.14-4.56,3.78-6.59,14.39"/>
          </g>
          <g>
            <path class="cls-3" d="m689.1.7c-17.2-.8-33.83,4.45-49.45,15.38-40.3,1.45-50.29,3.68-22.33,4.97,22.55-12.47,46.54-19.36,71.33-20.25-.56-.03-.36-.07.45-.1Z"/>
            <path class="cls-3" d="m688.5.73c-27.37-.24-53.86,5.56-78.76,16.99"/>
            <path class="cls-3" d="m688.33.77c-30.09.37-59.22,6.75-86.61,18.74"/>
          </g>
        </g>
        <path class="cls-3" d="m690.11.75c-.49.01-.98.03-1.46.05-.56-.03-.36-.07.45-.1s1.92-.03,2.48,0,.36.07-.45.1-1.92.03-2.48,0c.49-.02.98-.03,1.46-.05Z"/>
      </g>
      <path class="cls-1" d="m690.11.75c-.49.01-.98.03-1.46.05-.56-.03-.36-.07.45-.1s1.92-.03,2.48,0,.36.07-.45.1-1.92.03-2.48,0c.49-.02.98-.03,1.46-.05Z"/>
    </g>
    <g class="cls-5">
      <g class="cls-5">
        <g>
          <path class="cls-3" d="m694.35,456.51c-103.25,3.47-188.2-95.67-189.37-221.25,71.76,3.32,213.77,2.99,317.18-.73,1.17,125.58-56.17,225.05-127.82,221.98Z"/>
          <path class="cls-3" d="m599.62,428.59c36.19,1.68,107.81,1.51,159.96-.37"/>
          <path class="cls-3" d="m531.65,349.2c61.95,2.87,184.54,2.59,273.82-.63"/>
          <path class="cls-3" d="m694.35,456.51c-52.99,4.64-97.05-93.55-98.22-219.13"/>
          <path class="cls-3" d="m694.35,456.51c9.75,4.49,16.74-93.82,15.57-219.39"/>
        </g>
        <g>
          <path class="cls-3" d="m694.35,456.51c71.64,3.07,128.98-96.4,127.82-221.98,103.41-3.73,129.07-9.44,57.31-12.77,1.17,125.58-81.88,230.77-185.13,234.75Z"/>
          <path class="cls-3" d="m759.59,428.22c52.15-1.88,65.09-4.76,28.9-6.44"/>
          <path class="cls-3" d="m805.47,348.57c89.27-3.22,111.43-8.15,49.48-11.02"/>
          <path class="cls-3" d="m694.35,456.51c113.97.74,205.75-100.63,204.58-226.21"/>
        </g>
        <g>
          <path class="cls-3" d="m694.35,456.51c103.25-3.97,186.3-109.17,185.13-234.75-71.76-3.32-213.77-2.99-317.18.73,1.17,125.58,60.41,230.44,132.06,234.01Z"/>
          <path class="cls-3" d="m788.49,421.79c-36.19-1.68-107.81-1.51-159.96.37"/>
          <path class="cls-3" d="m854.94,337.55c-61.95-2.87-184.54-2.59-273.82.63"/>
          <path class="cls-3" d="m694.35,456.51c52.99-5.14,95.15-111.28,93.98-236.86"/>
          <path class="cls-3" d="m694.35,456.51c-9.76-4.99-18.64-111.02-19.81-236.6"/>
        </g>
        <g>
          <path class="cls-3" d="m694.35,456.51c-71.65-3.57-130.89-108.43-132.06-234.01-103.41,3.73-129.07,9.44-57.31,12.77,1.17,125.58,86.12,224.72,189.37,221.25Z"/>
          <path class="cls-3" d="m628.53,422.16c-52.15,1.88-65.09,4.76-28.9,6.44"/>
          <path class="cls-3" d="m581.13,338.18c-89.27,3.22-111.43,8.15-49.48,11.02"/>
          <path class="cls-3" d="m694.35,456.51c-113.98-1.24-207.66-104.21-208.82-229.78"/>
          <path class="cls-3" d="m694.35,456.51c-125.32,1.29-228.22-99.63-229.38-225.2"/>
        </g>
        <g>
          <path class="cls-3" d="m690.11.75c71.65,3.32,130.89,108.18,132.05,233.77-103.41,3.73-245.42,4.06-317.18.73"/>
          <path class="cls-3" d="m529.52,119.47c61.95,2.87,184.54,2.59,273.82-.63"/>
          <path class="cls-3" d="m595.97,35.3c36.19,1.68,107.81,1.51,159.96-.37"/>
          <path class="cls-3" d="m596.13,237.37c-1.17-125.59,40.99-231.73,93.98-236.62"/>
          <path class="cls-3" d="m709.92,237.11c-1.17-125.59-10.05-231.61-19.81-236.36"/>
        </g>
        <g>
          <path class="cls-3" d="m822.17,234.53c-1.17-125.59-60.41-230.45-132.05-233.77,103.25-3.72,188.2,95.42,189.37,221,71.76,3.32,46.1,9.04-57.31,12.77Z"/>
          <path class="cls-3" d="m803.33,118.84c89.27-3.22,111.43-8.15,49.48-11.02"/>
          <path class="cls-3" d="m755.93,34.93c52.15-1.88,65.09-4.76,28.9-6.44"/>
          <path class="cls-3" d="m898.93,230.3C897.77,104.71,804.09,1.74,690.11.75"/>
        </g>
        <g>
          <path class="cls-3" d="m879.48,221.76c-1.17-125.59-86.12-224.73-189.37-221-71.65-3.32-128.99,96.15-127.82,221.74,103.41-3.73,245.42-4.06,317.18-.73Z"/>
          <path class="cls-3" d="m852.81,107.82c-61.95-2.87-184.54-2.59-273.82.63"/>
          <path class="cls-3" d="m784.84,28.49c-36.19-1.68-107.81-1.51-159.96.37"/>
          <path class="cls-3" d="m788.33,219.64c-1.17-125.59-45.23-223.78-98.22-218.89"/>
          <path class="cls-3" d="m674.54,219.91c-1.17-125.59,5.82-223.9,15.57-219.15"/>
        </g>
        <g>
          <path class="cls-3" d="m504.98,235.26c-71.76-3.32-46.1-9.04,57.31-12.77-1.17-125.59,56.17-225.06,127.82-221.74"/>
          <path class="cls-3" d="m578.99,108.45c-89.27,3.22-111.43,8.15-49.48,11.02"/>
          <path class="cls-3" d="m624.87,28.86c-52.15,1.88-65.09,4.76-28.9,6.44"/>
          <path class="cls-3" d="m485.53,226.72C484.36,101.13,576.14-.23,690.11.75"/>
        </g>
      </g>
    </g>
    <g class="cls-5">
      <g class="cls-5">
        <g>
          <path class="cls-3" d="m599.62,428.59c36.19,1.68,107.81,1.51,159.96-.37"/>
          <path class="cls-3" d="m531.65,349.2c61.95,2.87,184.54,2.59,273.82-.63"/>
          <path class="cls-3" d="m694.35,456.51c-52.99,4.64-97.05-93.55-98.22-219.13"/>
          <path class="cls-3" d="m694.35,456.51c9.75,4.49,16.74-93.82,15.57-219.39"/>
        </g>
        <g>
          <path class="cls-3" d="m694.35,456.51c71.64,3.07,128.98-96.4,127.82-221.98,103.41-3.73,129.07-9.44,57.31-12.77,1.17,125.58-81.88,230.77-185.13,234.75Z"/>
          <path class="cls-3" d="m759.59,428.22c52.15-1.88,65.09-4.76,28.9-6.44"/>
          <path class="cls-3" d="m805.47,348.57c89.27-3.22,111.43-8.15,49.48-11.02"/>
          <path class="cls-3" d="m694.35,456.51c113.97.74,205.75-100.63,204.58-226.21"/>
        </g>
        <g>
          <path class="cls-3" d="m694.35,456.51c103.25-3.97,186.3-109.17,185.13-234.75-71.76-3.32-213.77-2.99-317.18.73,1.17,125.58,60.41,230.44,132.06,234.01Z"/>
          <path class="cls-3" d="m788.49,421.79c-36.19-1.68-107.81-1.51-159.96.37"/>
          <path class="cls-3" d="m854.94,337.55c-61.95-2.87-184.54-2.59-273.82.63"/>
          <path class="cls-3" d="m694.35,456.51c52.99-5.14,95.15-111.28,93.98-236.86"/>
          <path class="cls-3" d="m694.35,456.51c-9.76-4.99-18.64-111.02-19.81-236.6"/>
        </g>
        <g>
          <path class="cls-3" d="m694.35,456.51c-71.65-3.57-130.89-108.43-132.06-234.01-103.41,3.73-129.07,9.44-57.31,12.77"/>
          <path class="cls-3" d="m628.53,422.16c-52.15,1.88-65.09,4.76-28.9,6.44"/>
          <path class="cls-3" d="m581.13,338.18c-89.27,3.22-111.43,8.15-49.48,11.02"/>
        </g>
        <g>
          <path class="cls-3" d="m690.11.75c71.65,3.32,130.89,108.18,132.05,233.77-103.41,3.73-245.42,4.06-317.18.73"/>
          <path class="cls-3" d="m529.52,119.47c61.95,2.87,184.54,2.59,273.82-.63"/>
          <path class="cls-3" d="m595.97,35.3c36.19,1.68,107.81,1.51,159.96-.37"/>
          <path class="cls-3" d="m596.13,237.37c-1.17-125.59,40.99-231.73,93.98-236.62"/>
          <path class="cls-3" d="m709.92,237.11c-1.17-125.59-10.05-231.61-19.81-236.36"/>
        </g>
        <g>
          <path class="cls-3" d="m822.17,234.53c-1.17-125.59-60.41-230.45-132.05-233.77,103.25-3.72,188.2,95.42,189.37,221,71.76,3.32,46.1,9.04-57.31,12.77Z"/>
          <path class="cls-3" d="m803.33,118.84c89.27-3.22,111.43-8.15,49.48-11.02"/>
          <path class="cls-3" d="m755.93,34.93c52.15-1.88,65.09-4.76,28.9-6.44"/>
          <path class="cls-3" d="m898.93,230.3C897.77,104.71,804.09,1.74,690.11.75"/>
        </g>
        <g>
          <path class="cls-3" d="m879.48,221.76c-1.17-125.59-86.12-224.73-189.37-221-71.65-3.32-128.99,96.15-127.82,221.74,103.41-3.73,245.42-4.06,317.18-.73Z"/>
          <path class="cls-3" d="m852.81,107.82c-61.95-2.87-184.54-2.59-273.82.63"/>
          <path class="cls-3" d="m784.84,28.49c-36.19-1.68-107.81-1.51-159.96.37"/>
          <path class="cls-3" d="m788.33,219.64c-1.17-125.59-45.23-223.78-98.22-218.89"/>
          <path class="cls-3" d="m674.54,219.91c-1.17-125.59,5.82-223.9,15.57-219.15"/>
        </g>
        <g>
          <path class="cls-3" d="m504.98,235.26c-71.76-3.32-46.1-9.04,57.31-12.77-1.17-125.59,56.17-225.06,127.82-221.74"/>
          <path class="cls-3" d="m578.99,108.45c-89.27,3.22-111.43,8.15-49.48,11.02"/>
          <path class="cls-3" d="m624.87,28.86c-52.15,1.88-65.09,4.76-28.9,6.44"/>
          <path class="cls-3" d="m485.53,226.72C484.36,101.13,576.14-.23,690.11.75"/>
          <path class="cls-3" d="m464.96,231.3C463.8,105.71,564.8,2.29,690.11.75"/>
        </g>
      </g>
    </g>
  </g>
</svg>