<?xml version="1.0" encoding="UTF-8"?>
<svg xmlns="http://www.w3.org/2000/svg" viewBox="0 0 1065.67 418.83">
  <defs>
    <style>
      .cls-1 {
        fill: none;
      }

      .cls-1, .cls-2 {
        stroke: #fff;
        stroke-miterlimit: 10;
      }
    </style>
  </defs>
  <g id="Layer_2" data-name="Layer 2">
    <g>
      <polygon class="cls-1" points="292.85 214.15 771.92 214.15 1064.08 418.33 1.58 418.33 292.85 214.15"/>
      <line class="cls-1" x1="64.81" y1="374.01" x2="1000.67" y2="374.01"/>
      <line class="cls-1" x1="114.56" y1="339.13" x2="950.76" y2="339.13"/>
      <line class="cls-1" x1="154.74" y1="310.96" x2="910.45" y2="310.96"/>
      <line class="cls-1" x1="187.86" y1="287.74" x2="877.23" y2="287.74"/>
      <line class="cls-1" x1="215.64" y1="268.27" x2="849.37" y2="268.27"/>
      <line class="cls-1" x1="239.27" y1="251.71" x2="825.66" y2="251.71"/>
      <line class="cls-1" x1="259.61" y1="237.45" x2="805.26" y2="237.45"/>
      <line class="cls-1" x1="277.31" y1="225.04" x2="787.5" y2="225.04"/>
      <line class="cls-1" x1="718.69" y1="214.15" x2="946.03" y2="418.33"/>
      <line class="cls-1" x1="665.46" y1="214.15" x2="827.97" y2="418.33"/>
      <line class="cls-1" x1="612.23" y1="214.15" x2="709.92" y2="418.33"/>
      <line class="cls-1" x1="559" y1="214.15" x2="591.86" y2="418.33"/>
      <line class="cls-1" x1="505.77" y1="214.15" x2="473.81" y2="418.33"/>
      <line class="cls-1" x1="452.54" y1="214.15" x2="355.75" y2="418.33"/>
      <line class="cls-1" x1="399.31" y1="214.15" x2="237.7" y2="418.33"/>
      <line class="cls-1" x1="346.08" y1="214.15" x2="119.64" y2="418.33"/>
    </g>
    <ellipse class="cls-2" cx="525.2" cy="272.06" rx="120.83" ry="26.37"/>
  </g>
  <g id="Layer_3" data-name="Layer 3">
    <g>
      <path class="cls-1" d="m468.66,22.6s-.06,0-.09.01c-7.26.86-14.64,1.89-21.95,3.08-.49.08-.98.16-1.48.24l-.14.05c-.4.28-.79.56-1.18.85-12.59,9.04-23.5,20.03-32.45,32.7-.03.03-.05.07-.08.11-.15.22-.31.44-.46.67h0s.8-.14.8-.14c.05,0,.09-.01.14-.03,9.81-1.74,19.91-3.29,30.01-4.6.22-.03.44-.06.67-.09l.17-.03s.05-.09.08-.14c.11-.2.23-.4.35-.59,7.23-12.37,15.9-22.94,25.8-31.43.03-.02.05-.04.07-.07.11-.09.21-.18.32-.27l.53-.45c-.37.04-.74.09-1.11.13Zm-26.47,32.21c-10.05,1.3-20.1,2.83-29.88,4.56,9.1-12.74,20.21-23.76,33.01-32.78,7.43-1.22,14.93-2.29,22.33-3.18-9.76,8.52-18.32,19.08-25.46,31.4Z"/>
      <path class="cls-1" d="m524.77.8v.67h-.56c-.36,0-.72,0-1.08.01h0c-.4,0-.8,0-1.19.02h0c-.44,0-.83.01-1.21.03h-.07s-.07,0-.11,0c-1.43.04-2.86.11-4.28.2t-.01,0c-2.57.15-5.14.38-7.68.68h-.01c-22.24,2.61-43.41,10.54-61.92,23.26-.41.28-.82.56-1.23.85l-.2-.28-.2-.28s.04-.03.06-.04c22.22-15.6,48.34-24.27,75.54-25.08h.15c.39-.01.74-.02,1.1-.03h.05c.43-.01.82-.02,1.2-.02h.03c.4,0,.8-.01,1.21-.01h.44Z"/>
      <path class="cls-1" d="m524.38,277.77s-.03,0-.05,0c-.04,0-.08,0-.12,0-.98,0-1.96-.01-2.94-.04h0c-1.37-.03-2.73-.09-4.09-.16h0c-2.52-.13-5.03-.34-7.53-.62-.03,0-.05,0-.09-.01-20.41-2.24-40.02-8.98-57.52-19.85-.41-.25-.82-.51-1.23-.76-.07-.05-.15-.1-.23-.15-13.92-8.88-26.03-20.06-35.99-33.23-.18-.23-.36-.46-.53-.69-.04-.06-.09-.11-.13-.18-6.56-8.78-12.05-18.34-16.34-28.43-.07-.18-.15-.35-.22-.53-.03-.07-.05-.13-.08-.2-3.5-8.36-6.18-17.1-7.96-26.01-.03-.14-.06-.29-.09-.43-.01-.09-.03-.17-.05-.26-1.6-8.17-2.46-16.56-2.55-24.95,0-.11,0-.23,0-.34v-.33c0-.32,0-.65,0-.98,0-8.02.69-16.07,2.06-23.92.01-.09.03-.18.05-.26.03-.14.05-.28.07-.42,1.59-8.84,4.06-17.55,7.34-25.9.03-.06.05-.13.07-.19.07-.18.14-.36.22-.53,3.98-9.95,9.14-19.46,15.34-28.25.02-.03.05-.07.07-.11l-.28-.2-.28-.2c-.15.22-.31.44-.46.67h0s0,0,0,0c-6.12,8.78-11.21,18.26-15.16,28.18-.03.06-.05.13-.07.19-.07.18-.14.36-.21.54-3.25,8.34-5.69,17.04-7.26,25.85-.02.08-.03.17-.05.25-.03.15-.05.29-.07.44-1.36,7.84-2.05,15.87-2.05,23.87,0,.32,0,.65,0,.98v.34c0,.11,0,.22,0,.34.09,8.37.95,16.74,2.53,24.9.03.15.06.3.09.44.01.08.03.16.05.24,1.76,8.88,4.41,17.61,7.89,25.96.07.19.15.37.23.55.03.05.05.11.07.17,4.24,10.05,9.67,19.6,16.15,28.36.18.25.36.5.55.75.03.04.06.08.09.12,9.85,13.15,21.8,24.33,35.55,33.28.34.22.69.45,1.04.67.05.03.1.06.15.09,22.23,14.14,47.96,21.61,74.42,21.61v-.67h-.38Z"/>
      <path class="cls-1" d="m468.92,23.19l-.44-.51c15.57-13.31,33.6-20.86,52.14-21.81h.07c.59-.03,1.21-.05,1.82-.07.28-.01.57-.02.86-.02.41,0,.79-.01,1.17-.01h.17v.67h-.17c-.38,0-.75,0-1.13.01-.32,0-.6,0-.88.02-.61.01-1.22.04-1.83.07h-.07c-18.37.95-36.26,8.44-51.72,21.65Z"/>
      <path class="cls-1" d="m524.71,278.4c-18.4,0-36.49-6.47-52.3-18.72-10.94-8.47-20.54-19.4-28.54-32.49-5.6-9.17-10.31-19.24-13.97-29.93-3.13-9.1-5.51-18.68-7.08-28.48-1.46-9.09-2.24-18.45-2.3-27.83,0-.45,0-.91,0-1.36,0-8.9.64-17.79,1.89-26.44,1.4-9.7,3.61-19.26,6.56-28.4,3.43-10.62,7.86-20.65,13.16-29.8l.58.34c-5.27,9.11-9.68,19.09-13.1,29.67-2.94,9.1-5.14,18.62-6.53,28.29-1.25,8.61-1.88,17.48-1.88,26.34,0,.45,0,.91,0,1.36.07,9.35.84,18.67,2.29,27.73,1.57,9.76,3.94,19.31,7.06,28.37,3.65,10.65,8.33,20.68,13.91,29.8,7.96,13.02,17.5,23.89,28.38,32.31,15.69,12.16,33.63,18.58,51.88,18.58v.67Z"/>
      <path class="cls-1" d="m461.21,82.46l.1-.44c2.45-10.76,5.61-20.9,9.38-30.13l.08-.19.2-.02c9-.79,18.14-1.41,27.16-1.84l.44-.02-.09.43c-1.95,9.23-3.58,19.39-4.86,30.21l-.03.29h-.29c-10.59.4-21.23.97-31.63,1.69l-.45.03Zm10.02-30.13c-3.67,9.02-6.75,18.91-9.16,29.4,10.16-.7,20.56-1.26,30.91-1.64,1.26-10.56,2.85-20.5,4.75-29.55-8.8.42-17.71,1.03-26.49,1.8Z"/>
      <path class="cls-1" d="m489.17,21.14l-.52-.43c10-12.08,21.5-18.95,33.23-19.87h.2c.13-.02.26-.03.39-.04l.09-.03.05.02c.32-.02.65-.04.98-.04.31-.01.63-.02.95-.02h.11v.67h-.11c-.31,0-.62,0-.93.02-.35,0-.69.02-1.03.05h-.1s-.01,0-.01,0c-.11,0-.23.01-.35.02h-.2c-11.55.92-22.88,7.71-32.76,19.65Z"/>
      <path class="cls-1" d="m524.66,278.37c-11.68,0-23.22-5.87-33.39-16.97-7.35-8.03-13.86-18.55-19.35-31.27-3.96-9.17-7.3-19.33-9.93-30.2-2.29-9.44-4.03-19.4-5.19-29.61-1.09-9.58-1.66-19.46-1.71-29.38,0-.46,0-.93,0-1.4,0-9.41.47-18.81,1.41-27.96,1.05-10.22,2.67-20.17,4.83-29.58l.66.15c-2.15,9.38-3.77,19.31-4.81,29.5-.93,9.12-1.41,18.51-1.41,27.89,0,.46,0,.93,0,1.39.05,9.89.62,19.75,1.7,29.31,1.15,10.18,2.9,20.12,5.17,29.53,2.62,10.83,5.95,20.95,9.89,30.09,5.46,12.65,11.93,23.11,19.23,31.08,10.04,10.96,21.41,16.75,32.89,16.75v.67Z"/>
      <path class="cls-1" d="m507.51,19.91l-.62-.27c4.93-11.51,10.37-17.85,16.17-18.83.08-.02.19-.04.28-.04.05-.01.14-.02.22-.03.33-.04.66-.06.99-.06l.06.67c-.36,0-.66.02-.96.06-.08,0-.14.01-.2.02-.1,0-.17.02-.24.04h-.08c-5.43.93-10.85,7.3-15.61,18.43Z"/>
      <path class="cls-1" d="m524.6,278.33c-5.82,0-11.34-5.39-16.39-16.01-3.7-7.79-6.99-18.05-9.76-30.49-2.05-9.18-3.78-19.37-5.15-30.28-1.2-9.59-2.12-19.78-2.74-30.27-.58-9.95-.89-20.16-.91-30.34,0-.48,0-.96,0-1.44,0-9.68.25-19.4.76-28.89.55-10.43,1.41-20.61,2.55-30.26l.67.08c-1.14,9.64-1.99,19.8-2.55,30.22-.5,9.48-.75,19.18-.75,28.85,0,.48,0,.95,0,1.43.02,10.17.33,20.37.91,30.3.61,10.47,1.53,20.64,2.73,30.22,1.37,10.89,3.1,21.06,5.14,30.22,2.76,12.39,6.03,22.6,9.71,30.35,4.86,10.22,10.32,15.62,15.78,15.62v.67Z"/>
      <polygon class="cls-1" points="524.21 277.95 524.21 1.07 524.88 .99 524.88 277.88 524.21 277.95"/>
      <path class="cls-1" d="m524.49,278.25v-.67c18.9,0,34.28-61.97,34.28-138.15S543.4,1.29,524.49,1.29v-.67c9.42,0,18.23,14.5,24.81,40.82,6.55,26.18,10.15,60.99,10.15,98s-3.6,71.82-10.15,98c-6.58,26.32-15.39,40.82-24.81,40.82Z"/>
      <path class="cls-1" d="m524.44,278.22v-.67c37.99,0,68.9-61.97,68.9-138.15S562.43,1.25,524.44,1.25v-.67c38.37,0,69.58,62.27,69.58,138.82s-31.21,138.82-69.58,138.82Z"/>
      <path class="cls-1" d="m524.38,278.18v-.67c57.08,0,103.53-61.97,103.53-138.15S581.47,1.21,524.38,1.21v-.67c57.46,0,104.2,62.27,104.2,138.82s-46.74,138.82-104.2,138.82Z"/>
      <path class="cls-1" d="m663.15,139.32c0,.43,0,.86,0,1.29,0,.22,0,.45,0,.67-.12,8.84-1.08,17.49-2.78,25.86-.05.23-.09.46-.15.68-1.95,9.33-4.85,18.31-8.57,26.85h0c-.1.24-.21.48-.32.72-4.62,10.43-10.49,20.18-17.42,29.08-.22.29-.44.57-.67.86h0c-10.51,13.28-23.38,24.59-37.99,33.3h0c-.38.23-.77.46-1.17.69h0c-19.54,11.4-42.09,18.16-66.14,18.77h0c-.24,0-.46.01-.7.01-.4.01-.8.02-1.19.02-.41,0-.83.01-1.24.01h-.44v-.67c.18,0,.37,0,.55,0,.36,0,.71,0,1.07,0,.4,0,.82,0,1.22-.02.24,0,.47,0,.7-.01h.01c.18,0,.36,0,.53-.01,1.48-.04,2.95-.11,4.41-.2,2.54-.15,5.06-.38,7.56-.67,18.71-2.18,36.28-8.1,51.96-17.01.4-.22.8-.45,1.19-.69h0c14.87-8.65,28-19.99,38.69-33.36.23-.29.46-.57.69-.86,7-8.9,12.94-18.67,17.61-29.13.11-.24.22-.48.32-.72,3.76-8.55,6.68-17.55,8.65-26.9.05-.22.09-.45.14-.68,1.73-8.39,2.69-17.05,2.81-25.9,0-.23,0-.45,0-.67,0-.43,0-.86,0-1.29,0-8.38-.75-16.59-2.19-24.56-.04-.23-.08-.46-.12-.69-1.73-9.29-4.38-18.26-7.86-26.79-.1-.24-.2-.49-.3-.72-4.29-10.34-9.8-20.05-16.34-28.94-.19-.26-.38-.51-.57-.76-9.57-12.82-21.31-23.93-34.66-32.78-.43-.29-.87-.57-1.31-.85-17.52-11.33-37.76-18.8-59.5-21.21-2.53-.28-5.09-.49-7.66-.63-1.38-.08-2.78-.14-4.17-.17-.96-.03-1.94-.04-2.91-.04-.04,0-.07,0-.11,0h-.44v-.67c28.18,0,54.42,8.44,76.33,22.92.43.28.86.57,1.29.86,13.13,8.9,24.68,19.97,34.09,32.72.19.26.38.51.57.77,6.48,8.9,11.92,18.58,16.17,28.89.1.24.2.48.29.72,3.46,8.53,6.09,17.48,7.8,26.75.04.23.08.46.13.69,1.42,7.96,2.16,16.15,2.16,24.52Z"/>
    </g>
    <g>
      <path class="cls-1" d="m470.48,52.39l.21-.51c5.07-12.41,11.11-22.9,17.96-31.17l.09-.11h.14c6.15-.5,12.3-.89,18.3-1.16l.54-.02-.21.49c-3.42,7.97-6.46,18.18-9.03,30.32l-.05.25h-.26c-9.01.44-18.14,1.06-27.13,1.85l-.55.05Zm18.6-31.14c-6.67,8.08-12.58,18.3-17.55,30.37,8.73-.76,17.59-1.36,26.35-1.78,2.51-11.83,5.48-21.82,8.81-29.7-5.77.27-11.69.64-17.6,1.11Z"/>
      <path class="cls-1" d="m468.75,23.27l-.08-.67c6.64-.79,13.44-1.47,20.22-2.01l.05.67c-6.76.54-13.56,1.22-20.19,2.01Z"/>
      <path class="cls-1" d="m601.95,24.27c-.44-.06-.88-.11-1.32-.18-.07,0-.13-.02-.2-.03-6.9-.91-13.87-1.68-20.71-2.3-.33-.03-.66-.06-.99-.09-.06,0-.13-.01-.19-.01-6.06-.55-12.22-.98-18.34-1.32-.24-.01-.47-.03-.71-.04-.06,0-.11,0-.18,0-5.72-.3-11.46-.51-17.06-.62-.18,0-.36,0-.53-.01h-.16c-5.59-.11-11.21-.13-16.69-.05h-.33c-.11,0-.23,0-.34,0-5.57.07-11.21.24-16.78.49-.07,0-.14,0-.22,0l-.03-.67c.18,0,.35-.01.53-.02,0,0,0,0,0,0,5.47-.25,11.02-.4,16.48-.48.11,0,.22,0,.33,0h.34c5.38-.08,10.89-.06,16.38.05.16,0,.32,0,.48,0,.07,0,.15,0,.23,0,5.5.11,11.13.31,16.75.59.27.01.55.03.82.04.02,0,.05,0,.07,0,6,.32,12.06.75,18.01,1.27.39.03.78.07,1.17.1h.01c6.71.6,13.54,1.35,20.32,2.22.51.06,1.02.13,1.54.2.43.28.86.57,1.29.86Z"/>
      <path class="cls-1" d="m445.25,26.59c-.48.08-.95.16-1.43.24.39-.29.78-.57,1.18-.85.02-.01.04-.03.06-.04.03,0,.05,0,.08-.01l.11.66Z"/>
      <path class="cls-1" d="m442.45,55.45l-.09-.67c9.52-1.24,19.14-2.29,28.61-3.11l.06.67c-9.46.82-19.08,1.87-28.59,3.1Z"/>
      <path class="cls-1" d="m636.6,57.76c-.24-.04-.49-.07-.73-.11-.07-.01-.14-.02-.22-.03-9.72-1.48-19.57-2.78-29.29-3.83-.2-.03-.4-.05-.6-.07-.07,0-.15-.01-.22-.03-9.11-.98-18.33-1.8-27.39-2.4-.16-.01-.32-.02-.48-.03-.08,0-.16-.01-.24-.01-8.63-.59-17.44-1-26.19-1.25-.14,0-.28,0-.42-.01-.08,0-.16,0-.24,0-8.59-.24-17.24-.32-25.72-.23h-.33c-.11,0-.23,0-.34,0-8.51.08-17.18.33-25.78.74-.09,0-.18,0-.26.01l-.03-.67c.14,0,.29-.01.43-.02h0c8.55-.4,17.17-.65,25.63-.73.11,0,.22,0,.34,0h.34c8.44-.09,17.04-.01,25.57.23.13,0,.26,0,.4,0,.09,0,.18,0,.27,0,8.7.24,17.45.66,26.04,1.24.19,0,.38.02.57.03.05,0,.1,0,.15.01,9.01.59,18.17,1.39,27.24,2.37.24.02.49.05.73.07.03,0,.06,0,.09.01,9.68,1.04,19.48,2.32,29.16,3.79.3.05.59.09.89.13.02,0,.03,0,.05,0,.19.26.38.51.57.77Z"/>
      <path class="cls-1" d="m411.63,60.17c-.27.05-.53.09-.8.14.16-.22.31-.44.46-.67.03-.03.05-.07.08-.11.05-.01.09-.02.13-.03l.06.33.06.33Z"/>
      <path class="cls-1" d="m653.06,87.37c-.18-.03-.35-.05-.53-.07-.08,0-.15-.02-.24-.03-10.78-1.31-21.67-2.45-32.39-3.38-.16-.01-.32-.03-.48-.04-.09,0-.17-.01-.26-.02-10.35-.9-20.93-1.66-31.48-2.24-.14-.01-.28-.02-.42-.03-.09,0-.18,0-.27-.01-10.3-.57-20.67-.98-30.84-1.22-.13,0-.27-.01-.4-.01-.09,0-.19,0-.28,0-10.29-.24-20.57-.34-30.59-.26h-.67c-10.24.07-20.53.3-30.62.68-.09,0-.2,0-.29.01v-.34s-.03-.34-.03-.34c.13,0,.26,0,.4-.01,10.06-.38,20.33-.61,30.54-.68h.67c9.99-.07,20.26.02,30.51.26.13,0,.25,0,.38,0,.1,0,.21,0,.31,0,10.15.25,20.49.65,30.76,1.21.15,0,.31.02.46.03.07,0,.15,0,.22.01,10.53.58,21.09,1.33,31.41,2.23.18.01.36.03.54.05.06,0,.13.01.19.01,10.7.94,21.58,2.07,32.33,3.36.2.03.41.05.61.07.05,0,.1.01.16.02.1.24.2.48.29.72Z"/>
      <path class="cls-1" d="m461.66,82.42c-.15.01-.3.02-.44.03h0c-10.67.73-21.33,1.64-31.68,2.71-.07,0-.15.01-.22.02-.17.02-.34.03-.51.05-10.94,1.11-21.93,2.41-32.66,3.87-.06,0-.13.02-.19.03-.19.03-.38.05-.57.08.07-.18.14-.36.21-.54.03-.06.05-.13.07-.19.07,0,.13-.02.2-.03.19-.03.38-.05.57-.07,10.71-1.45,21.68-2.74,32.59-3.85h0c.07,0,.14-.01.22-.02.18-.02.34-.03.52-.05,10.32-1.05,20.95-1.96,31.61-2.69.09,0,.17-.01.26-.02l.02.34.02.34Z"/>
      <path class="cls-1" d="m660.99,114.8c-.23-.02-.46-.04-.7-.05-11.19-.73-22.4-1.37-33.61-1.91-.23-.01-.46-.02-.68-.03-11.12-.53-22.25-.97-33.38-1.31-.22,0-.45-.01-.68-.02-11.07-.34-22.14-.59-33.22-.73-.23,0-.45,0-.68,0-11.05-.15-22.1-.21-33.15-.18-.23,0-.45,0-.67,0-11.05.04-22.1.17-33.15.4-.22,0-.45,0-.68.01-11.09.23-22.16.55-33.24.96-.23,0-.46.01-.69.03-11.15.42-22.29.93-33.42,1.54-.23,0-.45.02-.68.04-11.23.61-22.45,1.33-33.66,2.14-.23.01-.46.03-.69.05.02-.15.05-.29.07-.44.01-.08.03-.17.05-.25.23-.02.46-.03.69-.05,11.2-.81,22.42-1.52,33.64-2.13.23-.02.46-.03.68-.04,11.13-.61,22.26-1.13,33.4-1.54.23,0,.45-.01.68-.02,11.07-.42,22.14-.74,33.22-.96.23,0,.45-.01.67-.01,11.04-.23,22.08-.36,33.11-.4.22,0,.44,0,.67,0,11.04-.03,22.08.02,33.11.18.22,0,.45,0,.67,0,11.07.15,22.13.4,33.19.73.22,0,.45,0,.67.02,11.12.34,22.24.77,33.35,1.31.23,0,.46.02.69.03,11.21.53,22.41,1.17,33.59,1.89.23.01.46.03.69.05.04.23.08.46.13.69Z"/>
      <path class="cls-1" d="m385.95,140.61v.34c0,.11,0,.22,0,.34h277.18c0-.22,0-.45,0-.67h-277.19Z"/>
      <path class="cls-1" d="m659.65,167.19c-11.15.72-22.31,1.35-33.48,1.88-.23.01-.45.03-.68.03-11.07.53-22.15.96-33.23,1.29-.22.01-.45.02-.67.02-11.01.34-22.03.58-33.05.73-.22,0-.45,0-.68,0-10.99.16-21.99.21-32.98.18-.23,0-.45,0-.67,0-11-.04-22-.17-32.99-.39-.23,0-.45-.01-.67-.01-11.05-.23-22.08-.55-33.11-.96-.23,0-.46-.02-.68-.03-11.11-.42-22.21-.93-33.31-1.54-.23,0-.46-.02-.69-.03-11.2-.61-22.39-1.32-33.57-2.12-.24-.02-.46-.03-.7-.05.03.15.06.3.09.44.01.08.03.16.05.24.23.02.46.03.7.05,11.17.8,22.35,1.51,33.54,2.12.23.01.46.03.69.04,11.09.6,22.18,1.11,33.28,1.52.23.01.46.02.69.03,11.02.41,22.04.73,33.07.96.22,0,.44,0,.67.01,10.98.22,21.97.35,32.95.39.22,0,.45,0,.67,0,2.16,0,4.33,0,6.49,0,8.82,0,17.64-.06,26.46-.18.22,0,.44,0,.67-.01,11-.15,22.01-.39,33.01-.72.22,0,.44-.01.67-.02h0c11.07-.34,22.12-.77,33.18-1.29.23-.01.46-.02.69-.03,11.16-.53,22.31-1.16,33.45-1.88.23-.01.46-.03.69-.05.05-.22.1-.45.15-.68-.24.01-.46.03-.7.05Z"/>
      <path class="cls-1" d="m650.86,194.77c-10.66,1.27-21.35,2.37-32.06,3.29-.24.02-.49.04-.73.06-10.35.89-20.73,1.61-31.11,2.18-.23.01-.45.03-.68.04-10.15.55-20.3.94-30.47,1.18-.23.01-.46.01-.69.02-10.07.24-20.16.32-30.23.26-.23,0-.45,0-.67,0-10.1-.07-20.2-.29-30.28-.66-.23,0-.46-.01-.69-.03-10.24-.38-20.46-.92-30.67-1.6-.24-.02-.47-.03-.71-.05-10.49-.72-20.96-1.6-31.41-2.65-.24-.02-.49-.04-.73-.07-10.84-1.08-21.66-2.35-32.44-3.79-.26-.03-.51-.07-.77-.1.07.19.15.37.23.55.03.05.05.11.07.17.26.03.51.07.77.1,10.76,1.44,21.56,2.7,32.38,3.78.24.03.49.05.73.07,10.42,1.04,20.86,1.91,31.33,2.62.24.02.48.03.71.05,10.18.69,20.38,1.23,30.58,1.6.23,0,.46.02.69.02,10.06.37,20.13.59,30.2.66.22,0,.45,0,.67,0,2.16.01,4.33.02,6.49.02,7.88,0,15.77-.09,23.65-.28.23,0,.46,0,.69-.01,10.14-.24,20.27-.63,30.39-1.18.23,0,.45-.02.68-.04,10.36-.56,20.71-1.28,31.03-2.16.25-.01.49-.03.73-.06,10.69-.92,21.36-2,31.98-3.26.26-.03.53-.06.78-.09.11-.24.22-.48.32-.72-.26.04-.51.07-.77.09Z"/>
      <path class="cls-1" d="m632.92,224.62c-9.49,1.4-19.01,2.61-28.56,3.61-.28.03-.55.07-.84.09h0c-8.87.93-17.76,1.68-26.67,2.26-.24.02-.48.03-.71.04-8.49.55-17,.94-25.51,1.17-.22.01-.45.01-.67.02-8.36.22-16.73.3-25.08.22-.23,0-.45,0-.67,0-8.4-.08-16.79-.32-25.18-.71-.23,0-.46-.01-.7-.03-8.65-.4-17.3-.98-25.92-1.7-.26-.03-.51-.05-.76-.07-9.14-.78-18.25-1.75-27.33-2.9-.28-.03-.57-.07-.85-.1-9.89-1.26-19.74-2.73-29.54-4.42-.32-.05-.64-.11-.96-.17.18.25.36.5.55.75.03.04.06.08.09.12.32.05.65.11.98.16,9.75,1.68,19.55,3.15,29.39,4.4.29.04.58.07.87.11,9.02,1.14,18.08,2.1,27.16,2.88.25.03.51.05.76.07,8.56.73,17.14,1.29,25.75,1.69.23.01.46.03.7.03,8.32.39,16.65.63,24.99.71.22,0,.45,0,.67,0,2.14.02,4.28.03,6.42.03h.07c6.15,0,12.28-.08,18.41-.25.22,0,.45,0,.67-.02,8.46-.22,16.9-.61,25.32-1.15.24-.01.48-.03.72-.05,8.85-.57,17.69-1.31,26.49-2.24.28-.03.57-.05.85-.09,9.5-.99,18.97-2.19,28.4-3.59.32-.04.65-.09.98-.15h0c.23-.29.45-.57.67-.86-.32.05-.65.1-.97.15Z"/>
      <path class="cls-1" d="m595.22,258.64c-.38.23-.77.46-1.17.69h0c-.57.07-1.13.14-1.7.2-6.05.7-12.13,1.29-18.22,1.78-.42.03-.86.07-1.29.1-5.38.42-10.78.75-16.18,1h0c-.31.01-.61.03-.92.04-5.05.23-10.11.39-15.18.47-.24,0-.48.01-.71.01-2.82.05-5.65.07-8.47.07h-.11c-2.13,0-4.26-.01-6.38-.04-.23,0-.45,0-.67,0-5.05-.07-10.1-.2-15.14-.42h0c-.26,0-.51-.02-.76-.03-5.32-.22-10.63-.53-15.93-.92h0c-.33-.03-.66-.05-.99-.07-5.86-.44-11.71-.97-17.54-1.61h0c-.44-.04-.87-.09-1.31-.14-6.86-.75-13.69-1.65-20.5-2.68-.56-.08-1.12-.17-1.67-.25-.05-.03-.1-.06-.15-.09-.35-.22-.7-.45-1.04-.67.55.09,1.09.17,1.64.26,6.95,1.08,13.93,2.01,20.92,2.81.43.05.86.1,1.29.15,5.95.67,11.91,1.23,17.87,1.69.33.03.65.05.98.07,5.4.41,10.8.73,16.21.97h0c.25.01.51.03.75.03,5.12.22,10.25.36,15.38.43.22,0,.44.01.67.01,5.07.06,10.14.05,15.2-.03.24,0,.48,0,.71-.01,5.15-.09,10.29-.26,15.43-.51.3,0,.61-.03.92-.04,5.51-.27,11.01-.63,16.51-1.07h0c.42-.03.84-.07,1.26-.1h0c6.22-.52,12.42-1.15,18.62-1.89h0c.56-.07,1.11-.13,1.67-.2Z"/>
    </g>
  </g>
</svg>