<?xml version="1.0" encoding="UTF-8"?>
<svg id="Layer_2" data-name="Layer 2" xmlns="http://www.w3.org/2000/svg" xmlns:xlink="http://www.w3.org/1999/xlink" viewBox="0 0 768.17 377.09">
  <defs>
    <style>
      .cls-1, .cls-2, .cls-3 {
        stroke: #fff;
        stroke-miterlimit: 10;
      }

      .cls-1, .cls-3 {
        fill: none;
      }

      .cls-4 {
        isolation: isolate;
      }

      .cls-5 {
        clip-path: url(#clippath);
      }

      .cls-3 {
        stroke-width: .25px;
      }
    </style>
    <clipPath id="clippath">
      <path class="cls-1" d="m309.67,263.43c19.8,11.25,43.47,16.16,68.9,12.74-25.42,3.42-49.1-1.49-68.9-12.74-3.8-2.25-8.89-5.26-12.41-7.93-2.97-2.25-6.93-5.26-9.78-7.66-2.34-1.97-5.33-4.76-7.5-6.91-7.24-7.18-17.83-19.2-26.57-36.49-1.61-3.19-3.57-7.55-4.92-10.87-1.24-3.04-2.67-7.19-3.68-10.31-1.85-5.71-3.66-13.54-4.59-19.47-1.06-6.74-1.82-15.84-1.79-22.66.02-3.74.25-8.74.57-12.47.29-3.37,1-7.83,1.47-11.18.51-3.63,1.68-8.4,2.6-11.95.83-3.19,2.14-7.4,3.23-10.52,3.36-9.6,6.68-15.89,9.36-20.95,1.73-3.28,4.38-7.48,6.43-10.58,1.75-2.64,4.34-5.99,6.2-8.55,2.29-3.14,5.8-6.98,8.46-9.82,2.1-2.24,4.99-5.14,7.29-7.18,3.21-2.86,7.65-6.5,11.04-9.13,2.26-1.75,5.43-3.89,7.83-5.44,2.39-1.54,5.67-3.43,8.12-4.86,4.18-2.43,10.02-5.23,14.52-6.99,2.95-1.15,6.91-2.65,9.92-3.63s7.16-2.15,10.27-2.91c2.92-.71,6.84-1.55,9.8-2.03,1.39-.23,3.24-.53,4.64-.71,2.14-.27,5-.57,7.15-.77.16-.02,3.99-.37,9.51-.46,3.61-.06,6.93.07,9.1.17,2.09.1,6.65.44,9.79.85q3.12.4,7.5,1.12c1.2.2,2.79.54,3.99.77,4.02.77,11.89,2.84,16.76,4.58,2.9,1.03,6.74,2.49,9.59,3.67,2.19.91,5.07,2.23,7.19,3.31,3.07,1.56,7.11,3.75,10.08,5.5,2.46,1.46,5.69,3.51,8.01,5.18,4.74,3.42,10.11,7.3,16.9,13.8,2.24,2.15,5.15,5.1,7.21,7.41,2.4,2.69,5.52,6.36,7.68,9.25,2.45,3.27,7,9.35,12.15,18.96,3.08,5.74,6.37,13.81,8.69,19.89,1.29,3.38,2.56,8.06,3.46,11.57.83,3.24,1.67,7.62,2.29,10.9.68,3.63,1.22,8.53,1.51,12.21.33,4.21.64,9.86.41,14.07-.19,3.42-.33,7.99-.69,11.39-.39,3.69-1.03,8.61-1.79,12.24-1.27,6.02-2.7,12.84-6.33,22.53-1.14,3.05-2.81,7.07-4.2,10.02-1.61,3.4-3.86,7.9-5.8,11.13-3.27,5.44-8.13,12.39-11.96,17.45-2.35,3.12-5.99,6.87-8.6,9.77-2.05,2.27-5.03,5.07-7.34,7.07-3.28,2.85-7.74,6.54-11.26,9.09-2.73,1.99-6.45,4.54-9.36,6.25-4.18,2.46-9.9,5.51-14.26,7.63-3.09,1.5-7.35,3.19-10.57,4.38-3.02,1.11-7.11,2.44-10.22,3.29-6.17,1.68-8.96,2.28-14.75,3.32-2.63.48-7.88,1.18-11.77,1.48-2.75.21-4.92.34-6.44.38-4.53.12-4.7.12-9.13.03-.59-.01-5.99-.14-12.83-.97-4.08-.5-7.36-1.09-7.5-1.12-1.31-.24-3.06-.57-4.37-.84-1.4-.3-3.26-.74-4.65-1.06-1.8-.41-4.16-1.08-5.93-1.6s-4.07-1.27-5.8-1.84c-2.92-.97-6.78-2.41-9.59-3.67-4.39-1.97-10.12-4.86-14.37-7.11Z"/>
    </clipPath>
  </defs>
  <g>
    <polygon class="cls-1" points="211.3 229.58 556.22 229.58 766.58 376.59 1.58 376.59 211.3 229.58"/>
    <line class="cls-1" x1="47.1" y1="344.68" x2="720.92" y2="344.68"/>
    <line class="cls-1" x1="82.93" y1="319.57" x2="684.99" y2="319.57"/>
    <line class="cls-1" x1="111.86" y1="299.29" x2="655.97" y2="299.29"/>
    <line class="cls-1" x1="135.71" y1="282.57" x2="632.05" y2="282.57"/>
    <line class="cls-1" x1="155.7" y1="268.55" x2="611.99" y2="268.55"/>
    <line class="cls-1" x1="172.72" y1="256.63" x2="594.92" y2="256.63"/>
    <line class="cls-1" x1="187.36" y1="246.36" x2="580.23" y2="246.36"/>
    <line class="cls-1" x1="200.11" y1="237.43" x2="567.45" y2="237.43"/>
    <line class="cls-1" x1="517.9" y1="229.58" x2="681.58" y2="376.59"/>
    <line class="cls-1" x1="479.57" y1="229.58" x2="596.58" y2="376.59"/>
    <line class="cls-1" x1="441.25" y1="229.58" x2="511.58" y2="376.59"/>
    <line class="cls-1" x1="402.92" y1="229.58" x2="426.58" y2="376.59"/>
    <line class="cls-1" x1="364.6" y1="229.58" x2="341.58" y2="376.59"/>
    <line class="cls-1" x1="326.27" y1="229.58" x2="256.58" y2="376.59"/>
    <line class="cls-1" x1="287.95" y1="229.58" x2="171.58" y2="376.59"/>
    <line class="cls-1" x1="249.62" y1="229.58" x2="86.58" y2="376.59"/>
  </g>
  <ellipse class="cls-2" cx="378.58" cy="271.28" rx="87" ry="18.99"/>
  <g class="cls-4">
    <g class="cls-4">
      <g class="cls-5">
        <g class="cls-4">
          <g>
            <path class="cls-3" d="m378.56,276.17c-69.48,9.34-125.9-43.53-125.76-117.88,34.13,19.39,118.21,27.52,187.81,18.16-.14,74.35-27.97,119.08-62.04,99.72Z"/>
            <path class="cls-3" d="m315.05,266.29c17.21,9.78,59.61,13.88,94.71,9.16"/>
            <path class="cls-3" d="m269.9,223.97c29.46,16.74,102.05,23.76,162.13,15.68"/>
            <path class="cls-3" d="m378.56,276.17c-42.8,17.84-77.51-28.13-77.37-102.48"/>
            <path class="cls-3" d="m378.56,276.17c-5.65,21.43-10.14-21.61-10-95.96"/>
          </g>
          <g>
            <path class="cls-3" d="m378.56,276.17c34.07,19.36,61.9-25.37,62.04-99.72,69.6-9.36,98.35-32.66,64.22-52.05-.14,74.35-56.78,142.43-126.27,151.77Z"/>
            <path class="cls-3" d="m409.76,275.45c35.1-4.72,49.6-16.47,32.39-26.25"/>
            <path class="cls-3" d="m432.03,239.65c60.08-8.08,84.9-28.2,55.44-44.93"/>
            <path class="cls-3" d="m378.56,276.17c64.49,12,117.07-38.72,117.21-113.07"/>
            <path class="cls-3" d="m378.56,276.17c77.19,1.7,140.11-57.39,140.25-131.74"/>
          </g>
          <g>
            <path class="cls-3" d="m378.56,276.17c69.48-9.34,126.13-77.43,126.27-151.77-34.13-19.39-118.21-27.52-187.81-18.16-.14,74.35,27.47,150.58,61.54,169.93Z"/>
            <path class="cls-3" d="m442.15,249.2c-17.21-9.78-59.61-13.88-94.71-9.16"/>
            <path class="cls-3" d="m487.47,194.72c-29.46-16.74-102.05-23.76-162.13-15.68"/>
            <path class="cls-3" d="m378.56,276.17c42.8-17.84,77.74-92.83,77.87-167.18"/>
            <path class="cls-3" d="m378.56,276.17c5.65-21.43,10.36-99.35,10.5-173.69"/>
          </g>
          <g>
            <path class="cls-3" d="m378.56,276.17c-34.07-19.36-61.68-95.59-61.54-169.93-69.6,9.36-98.35,32.66-64.22,52.05-.14,74.35,56.28,127.22,125.76,117.88Z"/>
            <path class="cls-3" d="m347.43,240.04c-35.1,4.72-49.6,16.47-32.39,26.25"/>
            <path class="cls-3" d="m325.34,179.04c-60.08,8.08-84.9,28.2-55.44,44.93"/>
            <path class="cls-3" d="m378.56,276.17c-64.49-12-116.84-82.24-116.71-156.59"/>
            <path class="cls-3" d="m378.56,276.17c-77.19-1.7-139.89-63.57-139.75-137.91"/>
          </g>
          <g>
            <path class="cls-3" d="m252.8,158.29c.14-74.34,56.78-142.43,126.27-151.77,34.07,19.36,61.68,95.59,61.54,169.93-69.6,9.36-153.68,1.23-187.81-18.16Z"/>
            <path class="cls-3" d="m270.15,87.98c29.46,16.74,102.05,23.76,162.13,15.68"/>
            <path class="cls-3" d="m315.48,33.5c17.21,9.78,59.61,13.88,94.71,9.16"/>
            <path class="cls-3" d="m301.19,173.7c.14-74.34,35.07-149.34,77.87-167.18"/>
            <path class="cls-3" d="m368.56,180.21c.14-74.34,4.85-152.26,10.5-173.69"/>
          </g>
          <g>
            <path class="cls-3" d="m440.6,176.45c.14-74.34-27.47-150.58-61.54-169.93,69.48-9.34,125.9,43.54,125.76,117.88,34.13,19.39,5.37,42.69-64.22,52.05Z"/>
            <path class="cls-3" d="m432.28,103.66c60.08-8.08,84.9-28.2,55.44-44.93"/>
            <path class="cls-3" d="m410.19,42.66c35.1-4.72,49.6-16.47,32.39-26.25"/>
            <path class="cls-3" d="m495.77,163.11c.14-74.34-52.22-144.59-116.71-156.59"/>
            <path class="cls-3" d="m518.81,144.43c.14-74.34-62.56-136.21-139.75-137.91"/>
          </g>
          <g>
            <path class="cls-3" d="m504.83,124.4c.14-74.34-56.28-127.22-125.76-117.88-34.07-19.36-61.9,25.38-62.04,99.72,69.6-9.36,153.68-1.23,187.81,18.16Z"/>
            <path class="cls-3" d="m487.72,58.72c-29.46-16.74-102.05-23.76-162.13-15.68"/>
            <path class="cls-3" d="m442.58,16.41c-17.21-9.78-59.61-13.88-94.71-9.16"/>
            <path class="cls-3" d="m456.44,109c.14-74.34-34.57-120.31-77.37-102.48"/>
            <path class="cls-3" d="m389.06,102.48c.14-74.34-4.35-117.39-10-95.96"/>
          </g>
          <g>
            <path class="cls-3" d="m317.02,106.24c.14-74.34,27.97-119.08,62.04-99.72-69.48,9.34-126.13,77.43-126.27,151.77-34.13-19.39-5.37-42.69,64.22-52.05Z"/>
            <path class="cls-3" d="m325.6,43.05c-60.08,8.08-84.9,28.2-55.44,44.93"/>
            <path class="cls-3" d="m347.87,7.25c-35.1,4.72-49.6,16.47-32.39,26.25"/>
            <path class="cls-3" d="m261.86,119.59c.14-74.34,52.72-125.07,117.21-113.07"/>
            <path class="cls-3" d="m238.82,138.26c.14-74.34,63.06-133.44,140.25-131.74"/>
          </g>
        </g>
      </g>
      <path class="cls-1" d="m309.67,263.43c19.8,11.25,43.47,16.16,68.9,12.74-25.42,3.42-49.1-1.49-68.9-12.74-3.8-2.25-8.89-5.26-12.41-7.93-2.97-2.25-6.93-5.26-9.78-7.66-2.34-1.97-5.33-4.76-7.5-6.91-7.24-7.18-17.83-19.2-26.57-36.49-1.61-3.19-3.57-7.55-4.92-10.87-1.24-3.04-2.67-7.19-3.68-10.31-1.85-5.71-3.66-13.54-4.59-19.47-1.06-6.74-1.82-15.84-1.79-22.66.02-3.74.25-8.74.57-12.47.29-3.37,1-7.83,1.47-11.18.51-3.63,1.68-8.4,2.6-11.95.83-3.19,2.14-7.4,3.23-10.52,3.36-9.6,6.68-15.89,9.36-20.95,1.73-3.28,4.38-7.48,6.43-10.58,1.75-2.64,4.34-5.99,6.2-8.55,2.29-3.14,5.8-6.98,8.46-9.82,2.1-2.24,4.99-5.14,7.29-7.18,3.21-2.86,7.65-6.5,11.04-9.13,2.26-1.75,5.43-3.89,7.83-5.44,2.39-1.54,5.67-3.43,8.12-4.86,4.18-2.43,10.02-5.23,14.52-6.99,2.95-1.15,6.91-2.65,9.92-3.63s7.16-2.15,10.27-2.91c2.92-.71,6.84-1.55,9.8-2.03,1.39-.23,3.24-.53,4.64-.71,2.14-.27,5-.57,7.15-.77.16-.02,3.99-.37,9.51-.46,3.61-.06,6.93.07,9.1.17,2.09.1,6.65.44,9.79.85q3.12.4,7.5,1.12c1.2.2,2.79.54,3.99.77,4.02.77,11.89,2.84,16.76,4.58,2.9,1.03,6.74,2.49,9.59,3.67,2.19.91,5.07,2.23,7.19,3.31,3.07,1.56,7.11,3.75,10.08,5.5,2.46,1.46,5.69,3.51,8.01,5.18,4.74,3.42,10.11,7.3,16.9,13.8,2.24,2.15,5.15,5.1,7.21,7.41,2.4,2.69,5.52,6.36,7.68,9.25,2.45,3.27,7,9.35,12.15,18.96,3.08,5.74,6.37,13.81,8.69,19.89,1.29,3.38,2.56,8.06,3.46,11.57.83,3.24,1.67,7.62,2.29,10.9.68,3.63,1.22,8.53,1.51,12.21.33,4.21.64,9.86.41,14.07-.19,3.42-.33,7.99-.69,11.39-.39,3.69-1.03,8.61-1.79,12.24-1.27,6.02-2.7,12.84-6.33,22.53-1.14,3.05-2.81,7.07-4.2,10.02-1.61,3.4-3.86,7.9-5.8,11.13-3.27,5.44-8.13,12.39-11.96,17.45-2.35,3.12-5.99,6.87-8.6,9.77-2.05,2.27-5.03,5.07-7.34,7.07-3.28,2.85-7.74,6.54-11.26,9.09-2.73,1.99-6.45,4.54-9.36,6.25-4.18,2.46-9.9,5.51-14.26,7.63-3.09,1.5-7.35,3.19-10.57,4.38-3.02,1.11-7.11,2.44-10.22,3.29-6.17,1.68-8.96,2.28-14.75,3.32-2.63.48-7.88,1.18-11.77,1.48-2.75.21-4.92.34-6.44.38-4.53.12-4.7.12-9.13.03-.59-.01-5.99-.14-12.83-.97-4.08-.5-7.36-1.09-7.5-1.12-1.31-.24-3.06-.57-4.37-.84-1.4-.3-3.26-.74-4.65-1.06-1.8-.41-4.16-1.08-5.93-1.6s-4.07-1.27-5.8-1.84c-2.92-.97-6.78-2.41-9.59-3.67-4.39-1.97-10.12-4.86-14.37-7.11Z"/>
    </g>
    <g class="cls-4">
      <g class="cls-4">
        <g>
          <path class="cls-3" d="m378.56,276.17c-69.48,9.34-125.9-43.53-125.76-117.88,34.13,19.39,118.21,27.52,187.81,18.16-.14,74.35-27.97,119.08-62.04,99.72Z"/>
          <path class="cls-3" d="m315.05,266.29c17.21,9.78,59.61,13.88,94.71,9.16"/>
          <path class="cls-3" d="m269.9,223.97c29.46,16.74,102.05,23.76,162.13,15.68"/>
          <path class="cls-3" d="m378.56,276.17c-42.8,17.84-77.51-28.13-77.37-102.48"/>
          <path class="cls-3" d="m378.56,276.17c-5.65,21.43-10.14-21.61-10-95.96"/>
        </g>
        <g>
          <path class="cls-3" d="m378.56,276.17c34.07,19.36,61.9-25.37,62.04-99.72,69.6-9.36,98.35-32.66,64.22-52.05-.14,74.35-56.78,142.43-126.27,151.77Z"/>
          <path class="cls-3" d="m409.76,275.45c35.1-4.72,49.6-16.47,32.39-26.25"/>
          <path class="cls-3" d="m432.03,239.65c60.08-8.08,84.9-28.2,55.44-44.93"/>
          <path class="cls-3" d="m378.56,276.17c64.49,12,117.07-38.72,117.21-113.07"/>
          <path class="cls-3" d="m378.56,276.17c77.19,1.7,140.11-57.39,140.25-131.74"/>
        </g>
        <g>
          <path class="cls-3" d="m378.56,276.17c69.48-9.34,126.13-77.43,126.27-151.77-34.13-19.39-118.21-27.52-187.81-18.16-.14,74.35,27.47,150.58,61.54,169.93Z"/>
          <path class="cls-3" d="m442.15,249.2c-17.21-9.78-59.61-13.88-94.71-9.16"/>
          <path class="cls-3" d="m487.47,194.72c-29.46-16.74-102.05-23.76-162.13-15.68"/>
          <path class="cls-3" d="m378.56,276.17c42.8-17.84,77.74-92.83,77.87-167.18"/>
          <path class="cls-3" d="m378.56,276.17c5.65-21.43,10.36-99.35,10.5-173.69"/>
        </g>
        <g>
          <path class="cls-3" d="m378.56,276.17c-34.07-19.36-61.68-95.59-61.54-169.93-69.6,9.36-98.35,32.66-64.22,52.05-.14,74.35,56.28,127.22,125.76,117.88Z"/>
          <path class="cls-3" d="m347.43,240.04c-35.1,4.72-49.6,16.47-32.39,26.25"/>
          <path class="cls-3" d="m325.34,179.04c-60.08,8.08-84.9,28.2-55.44,44.93"/>
          <path class="cls-3" d="m378.56,276.17c-64.49-12-116.84-82.24-116.71-156.59"/>
          <path class="cls-3" d="m378.56,276.17c-77.19-1.7-139.89-63.57-139.75-137.91"/>
        </g>
        <g>
          <path class="cls-3" d="m252.8,158.29c.14-74.34,56.78-142.43,126.27-151.77,34.07,19.36,61.68,95.59,61.54,169.93-69.6,9.36-153.68,1.23-187.81-18.16Z"/>
          <path class="cls-3" d="m270.15,87.98c29.46,16.74,102.05,23.76,162.13,15.68"/>
          <path class="cls-3" d="m315.48,33.5c17.21,9.78,59.61,13.88,94.71,9.16"/>
          <path class="cls-3" d="m301.19,173.7c.14-74.34,35.07-149.34,77.87-167.18"/>
          <path class="cls-3" d="m368.56,180.21c.14-74.34,4.85-152.26,10.5-173.69"/>
        </g>
        <g>
          <path class="cls-3" d="m440.6,176.45c.14-74.34-27.47-150.58-61.54-169.93,69.48-9.34,125.9,43.54,125.76,117.88,34.13,19.39,5.37,42.69-64.22,52.05Z"/>
          <path class="cls-3" d="m432.28,103.66c60.08-8.08,84.9-28.2,55.44-44.93"/>
          <path class="cls-3" d="m410.19,42.66c35.1-4.72,49.6-16.47,32.39-26.25"/>
          <path class="cls-3" d="m495.77,163.11c.14-74.34-52.22-144.59-116.71-156.59"/>
          <path class="cls-3" d="m518.81,144.43c.14-74.34-62.56-136.21-139.75-137.91"/>
        </g>
        <g>
          <path class="cls-3" d="m504.83,124.4c.14-74.34-56.28-127.22-125.76-117.88-34.07-19.36-61.9,25.38-62.04,99.72,69.6-9.36,153.68-1.23,187.81,18.16Z"/>
          <path class="cls-3" d="m487.72,58.72c-29.46-16.74-102.05-23.76-162.13-15.68"/>
          <path class="cls-3" d="m442.58,16.41c-17.21-9.78-59.61-13.88-94.71-9.16"/>
          <path class="cls-3" d="m456.44,109c.14-74.34-34.57-120.31-77.37-102.48"/>
          <path class="cls-3" d="m389.06,102.48c.14-74.34-4.35-117.39-10-95.96"/>
        </g>
        <g>
          <path class="cls-3" d="m317.02,106.24c.14-74.34,27.97-119.08,62.04-99.72-69.48,9.34-126.13,77.43-126.27,151.77-34.13-19.39-5.37-42.69,64.22-52.05Z"/>
          <path class="cls-3" d="m325.6,43.05c-60.08,8.08-84.9,28.2-55.44,44.93"/>
          <path class="cls-3" d="m347.87,7.25c-35.1,4.72-49.6,16.47-32.39,26.25"/>
          <path class="cls-3" d="m261.86,119.59c.14-74.34,52.72-125.07,117.21-113.07"/>
          <path class="cls-3" d="m238.82,138.26c.14-74.34,63.06-133.44,140.25-131.74"/>
        </g>
      </g>
    </g>
    <g class="cls-4">
      <g class="cls-4">
        <g>
          <path class="cls-3" d="m379.06,6.52c-69.48,9.34-126.13,77.43-126.27,151.77,34.13,19.39,118.21,27.52,187.81,18.16.14-74.34-27.47-150.58-61.54-169.93Z"/>
          <path class="cls-3" d="m315.48,33.5c17.21,9.78,59.61,13.88,94.71,9.16"/>
          <path class="cls-3" d="m270.15,87.98c29.46,16.74,102.05,23.76,162.13,15.68"/>
          <path class="cls-3" d="m379.06,6.52c-42.8,17.84-77.74,92.84-77.87,167.18"/>
          <path class="cls-3" d="m379.06,6.52c-5.65,21.43-10.36,99.35-10.5,173.69"/>
        </g>
        <g>
          <path class="cls-3" d="m379.06,6.52c34.07,19.36,61.68,95.59,61.54,169.93,69.6-9.36,98.35-32.66,64.22-52.05.14-74.34-56.28-127.22-125.76-117.88Z"/>
          <path class="cls-3" d="m410.19,42.66c35.1-4.72,49.6-16.47,32.39-26.25"/>
          <path class="cls-3" d="m432.28,103.66c60.08-8.08,84.9-28.2,55.44-44.93"/>
          <path class="cls-3" d="m379.06,6.52c64.49,12,116.84,82.25,116.71,156.59"/>
          <path class="cls-3" d="m379.06,6.52c77.19,1.7,139.89,63.57,139.75,137.91"/>
        </g>
        <g>
          <path class="cls-3" d="m379.06,6.52c69.48-9.34,125.9,43.54,125.76,117.88-34.13-19.39-118.21-27.52-187.81-18.16.14-74.34,27.97-119.08,62.04-99.72Z"/>
          <path class="cls-3" d="m442.58,16.41c-17.21-9.78-59.61-13.88-94.71-9.16"/>
          <path class="cls-3" d="m487.72,58.72c-29.46-16.74-102.05-23.76-162.13-15.68"/>
          <path class="cls-3" d="m379.06,6.52c42.8-17.84,77.51,28.14,77.37,102.48"/>
          <path class="cls-3" d="m379.06,6.52c5.65-21.43,10.14,21.62,10,95.96"/>
        </g>
        <g>
          <path class="cls-3" d="m379.06,6.52c-34.07-19.36-61.9,25.38-62.04,99.72-69.6,9.36-98.35,32.66-64.22,52.05.14-74.34,56.78-142.43,126.27-151.77Z"/>
          <path class="cls-3" d="m347.87,7.25c-35.1,4.72-49.6,16.47-32.39,26.25"/>
          <path class="cls-3" d="m325.6,43.05c-60.08,8.08-84.9,28.2-55.44,44.93"/>
          <path class="cls-3" d="m379.06,6.52c-77.19-1.7-140.11,57.4-140.25,131.74"/>
        </g>
        <g>
          <path class="cls-3" d="m252.8,158.29c-.14,74.35,56.28,127.22,125.76,117.88,34.07,19.36,61.9-25.37,62.04-99.72-69.6,9.36-153.68,1.23-187.81-18.16Z"/>
          <path class="cls-3" d="m269.9,223.97c29.46,16.74,102.05,23.76,162.13,15.68"/>
          <path class="cls-3" d="m315.05,266.29c17.21,9.78,59.61,13.88,94.71,9.16"/>
          <path class="cls-3" d="m301.19,173.7c-.14,74.35,34.57,120.31,77.37,102.48"/>
          <path class="cls-3" d="m368.56,180.21c-.14,74.35,4.35,117.39,10,95.96"/>
        </g>
        <g>
          <path class="cls-3" d="m440.6,176.45c-.14,74.35-27.97,119.08-62.04,99.72,69.48-9.34,126.13-77.43,126.27-151.77,34.13,19.39,5.37,42.69-64.22,52.05Z"/>
          <path class="cls-3" d="m432.03,239.65c60.08-8.08,84.9-28.2,55.44-44.93"/>
          <path class="cls-3" d="m409.76,275.45c35.1-4.72,49.6-16.47,32.39-26.25"/>
          <path class="cls-3" d="m495.77,163.11c-.14,74.35-52.72,125.07-117.21,113.07"/>
        </g>
        <g>
          <path class="cls-3" d="m504.83,124.4c-.14,74.35-56.78,142.43-126.27,151.77-34.07-19.36-61.68-95.59-61.54-169.93,69.6-9.36,153.68-1.23,187.81,18.16Z"/>
          <path class="cls-3" d="m487.47,194.72c-29.46-16.74-102.05-23.76-162.13-15.68"/>
          <path class="cls-3" d="m442.15,249.2c-17.21-9.78-59.61-13.88-94.71-9.16"/>
          <path class="cls-3" d="m456.44,109c-.14,74.35-35.07,149.34-77.87,167.18"/>
          <path class="cls-3" d="m389.06,102.48c-.14,74.35-4.85,152.26-10.5,173.69"/>
        </g>
        <g>
          <path class="cls-3" d="m317.02,106.24c-.14,74.35,27.47,150.58,61.54,169.93-69.48,9.34-125.9-43.53-125.76-117.88-34.13-19.39-5.37-42.69,64.22-52.05Z"/>
          <path class="cls-3" d="m325.34,179.04c-60.08,8.08-84.9,28.2-55.44,44.93"/>
          <path class="cls-3" d="m347.43,240.04c-35.1,4.72-49.6,16.47-32.39,26.25"/>
          <path class="cls-3" d="m261.86,119.59c-.14,74.35,52.22,144.59,116.71,156.59"/>
          <path class="cls-3" d="m238.82,138.26c-.14,74.35,62.56,136.21,139.75,137.91"/>
        </g>
      </g>
    </g>
    <g class="cls-4">
      <g class="cls-4">
        <g>
          <path class="cls-3" d="m315.48,33.5c17.21,9.78,59.61,13.88,94.71,9.16"/>
          <path class="cls-3" d="m270.15,87.98c29.46,16.74,102.05,23.76,162.13,15.68"/>
          <path class="cls-3" d="m379.06,6.52c-42.8,17.84-77.74,92.84-77.87,167.18"/>
          <path class="cls-3" d="m379.06,6.52c-5.65,21.43-10.36,99.35-10.5,173.69"/>
        </g>
        <g>
          <path class="cls-3" d="m379.06,6.52c34.07,19.36,61.68,95.59,61.54,169.93,69.6-9.36,98.35-32.66,64.22-52.05.14-74.34-56.28-127.22-125.76-117.88Z"/>
          <path class="cls-3" d="m410.19,42.66c35.1-4.72,49.6-16.47,32.39-26.25"/>
          <path class="cls-3" d="m432.28,103.66c60.08-8.08,84.9-28.2,55.44-44.93"/>
          <path class="cls-3" d="m379.06,6.52c64.49,12,116.84,82.25,116.71,156.59"/>
          <path class="cls-3" d="m379.06,6.52c77.19,1.7,139.89,63.57,139.75,137.91"/>
        </g>
        <g>
          <path class="cls-3" d="m379.06,6.52c69.48-9.34,125.9,43.54,125.76,117.88-34.13-19.39-118.21-27.52-187.81-18.16.14-74.34,27.97-119.08,62.04-99.72Z"/>
          <path class="cls-3" d="m487.72,58.72c-29.46-16.74-102.05-23.76-162.13-15.68"/>
          <path class="cls-3" d="m379.06,6.52c42.8-17.84,77.51,28.14,77.37,102.48"/>
          <path class="cls-3" d="m379.06,6.52c5.65-21.43,10.14,21.62,10,95.96"/>
        </g>
        <g>
          <path class="cls-3" d="m347.87,7.25c-35.1,4.72-49.6,16.47-32.39,26.25"/>
          <path class="cls-3" d="m325.6,43.05c-60.08,8.08-84.9,28.2-55.44,44.93"/>
          <path class="cls-3" d="m379.06,6.52c-77.19-1.7-140.11,57.4-140.25,131.74"/>
        </g>
        <g>
          <path class="cls-3" d="m252.8,158.29c-.14,74.35,56.28,127.22,125.76,117.88,34.07,19.36,61.9-25.37,62.04-99.72-69.6,9.36-153.68,1.23-187.81-18.16Z"/>
          <path class="cls-3" d="m269.9,223.97c29.46,16.74,102.05,23.76,162.13,15.68"/>
          <path class="cls-3" d="m301.19,173.7c-.14,74.35,34.57,120.31,77.37,102.48"/>
          <path class="cls-3" d="m368.56,180.21c-.14,74.35,4.35,117.39,10,95.96"/>
        </g>
        <g>
          <path class="cls-3" d="m440.6,176.45c-.14,74.35-27.97,119.08-62.04,99.72,69.48-9.34,126.13-77.43,126.27-151.77,34.13,19.39,5.37,42.69-64.22,52.05Z"/>
          <path class="cls-3" d="m432.03,239.65c60.08-8.08,84.9-28.2,55.44-44.93"/>
          <path class="cls-3" d="m409.76,275.45c35.1-4.72,49.6-16.47,32.39-26.25"/>
          <path class="cls-3" d="m495.77,163.11c-.14,74.35-52.72,125.07-117.21,113.07"/>
        </g>
        <g>
          <path class="cls-3" d="m504.83,124.4c-.14,74.35-56.78,142.43-126.27,151.77-34.07-19.36-61.68-95.59-61.54-169.93,69.6-9.36,153.68-1.23,187.81,18.16Z"/>
          <path class="cls-3" d="m487.47,194.72c-29.46-16.74-102.05-23.76-162.13-15.68"/>
          <path class="cls-3" d="m442.15,249.2c-17.21-9.78-59.61-13.88-94.71-9.16"/>
          <path class="cls-3" d="m456.44,109c-.14,74.35-35.07,149.34-77.87,167.18"/>
          <path class="cls-3" d="m389.06,102.48c-.14,74.35-4.85,152.26-10.5,173.69"/>
        </g>
        <g>
          <path class="cls-3" d="m252.8,158.29c-34.13-19.39-5.37-42.69,64.22-52.05-.14,74.35,27.47,150.58,61.54,169.93"/>
          <path class="cls-3" d="m325.34,179.04c-60.08,8.08-84.9,28.2-55.44,44.93"/>
          <path class="cls-3" d="m347.43,240.04c-35.1,4.72-49.6,16.47-32.39,26.25"/>
          <path class="cls-3" d="m261.86,119.59c-.14,74.35,52.22,144.59,116.71,156.59"/>
          <path class="cls-3" d="m238.82,138.26c-.14,74.35,62.56,136.21,139.75,137.91"/>
        </g>
      </g>
    </g>
    <g class="cls-4">
      <g class="cls-4">
        <g>
          <path class="cls-3" d="m269.21,224.5c29.65,16.84,102.69,23.91,163.15,15.78"/>
          <path class="cls-3" d="m378.56,277.03c-43.07,17.95-78-28.31-77.86-103.13"/>
          <path class="cls-3" d="m378.56,277.03c-5.69,21.56-10.2-21.75-10.06-96.57"/>
        </g>
        <g>
          <path class="cls-3" d="m409.95,276.3c35.32-4.75,49.91-16.58,32.59-26.42"/>
          <path class="cls-3" d="m432.37,240.27c60.46-8.13,85.44-28.38,55.79-45.22"/>
        </g>
        <g>
          <path class="cls-3" d="m378.56,277.03c69.92-9.4,126.93-77.92,127.07-152.74-34.34-19.51-118.96-27.69-189-18.28-.14,74.82,27.65,151.53,61.93,171.01Z"/>
          <path class="cls-3" d="m442.55,249.88c-17.32-9.84-59.99-13.97-95.31-9.22"/>
          <path class="cls-3" d="m488.16,195.05c-29.65-16.84-102.69-23.91-163.15-15.78"/>
          <path class="cls-3" d="m378.56,277.03c43.07-17.95,78.23-93.42,78.37-168.24"/>
          <path class="cls-3" d="m378.56,277.03c5.69-21.56,10.43-99.98,10.56-174.79"/>
        </g>
        <g>
          <path class="cls-3" d="m347.24,240.66c-35.32,4.75-49.91,16.58-32.59,26.42"/>
          <path class="cls-3" d="m325.01,179.28c-60.46,8.13-85.44,28.38-55.79,45.22"/>
          <path class="cls-3" d="m378.56,277.03c-64.89-12.07-117.59-82.76-117.45-157.58"/>
        </g>
        <g>
          <path class="cls-3" d="m269.47,87.64c29.65,16.84,102.69,23.91,163.15,15.78"/>
          <path class="cls-3" d="m315.08,32.82c17.32,9.84,59.99,13.97,95.31,9.22"/>
          <path class="cls-3" d="m300.7,173.9c.14-74.82,35.3-150.29,78.37-168.24"/>
          <path class="cls-3" d="m368.5,180.46c.14-74.82,4.88-153.23,10.56-174.79"/>
        </g>
        <g>
          <path class="cls-3" d="m505.63,124.29c34.34,19.51,5.41,42.96-64.63,52.38.14-74.82-27.65-151.53-61.93-171.01"/>
          <path class="cls-3" d="m432.62,103.42c60.46-8.13,85.44-28.38,55.79-45.22"/>
          <path class="cls-3" d="m410.39,42.03c35.32-4.75,49.91-16.58,32.59-26.42"/>
          <path class="cls-3" d="m496.51,163.25c.14-74.82-52.55-145.51-117.45-157.58"/>
          <path class="cls-3" d="m519.7,144.45c.14-74.82-62.95-137.08-140.63-138.79"/>
        </g>
        <g>
          <path class="cls-3" d="m379.06,5.66c-34.28-19.48-62.3,25.54-62.43,100.35,70.04-9.42,154.65-1.24,189,18.28"/>
          <path class="cls-3" d="m488.41,58.2c-29.65-16.84-102.69-23.91-163.15-15.78"/>
          <path class="cls-3" d="m456.93,108.79c.14-74.82-34.79-121.08-77.86-103.13"/>
          <path class="cls-3" d="m389.13,102.23c.14-74.82-4.37-118.14-10.06-96.57"/>
        </g>
        <g>
          <path class="cls-3" d="m325.26,42.42c-60.46,8.13-85.44,28.38-55.79,45.22"/>
          <path class="cls-3" d="m347.67,6.4c-35.32,4.75-49.91,16.58-32.59,26.42"/>
          <path class="cls-3" d="m237.93,138.24c.14-74.82,63.46-134.29,141.14-132.58"/>
        </g>
      </g>
    </g>
    <g class="cls-4">
      <g class="cls-4">
        <g>
          <path class="cls-3" d="m269.21,224.5c29.65,16.84,102.69,23.91,163.15,15.78"/>
          <path class="cls-3" d="m378.56,277.03c-5.69,21.56-10.2-21.75-10.06-96.57"/>
        </g>
        <g>
          <path class="cls-3" d="m409.95,276.3c35.32-4.75,49.91-16.58,32.59-26.42"/>
          <path class="cls-3" d="m432.37,240.27c60.46-8.13,85.44-28.38,55.79-45.22"/>
        </g>
        <g>
          <path class="cls-3" d="m378.56,277.03c69.92-9.4,126.93-77.92,127.07-152.74-34.34-19.51-118.96-27.69-189-18.28-.14,74.82,27.65,151.53,61.93,171.01Z"/>
          <path class="cls-3" d="m442.55,249.88c-17.32-9.84-59.99-13.97-95.31-9.22"/>
          <path class="cls-3" d="m488.16,195.05c-29.65-16.84-102.69-23.91-163.15-15.78"/>
          <path class="cls-3" d="m378.56,277.03c43.07-17.95,78.23-93.42,78.37-168.24"/>
          <path class="cls-3" d="m378.56,277.03c5.69-21.56,10.43-99.98,10.56-174.79"/>
        </g>
        <path class="cls-3" d="m325.01,179.28c-60.46,8.13-85.44,28.38-55.79,45.22"/>
        <g>
          <path class="cls-3" d="m269.47,87.64c29.65,16.84,102.69,23.91,163.15,15.78"/>
          <path class="cls-3" d="m315.08,32.82c17.32,9.84,59.99,13.97,95.31,9.22"/>
          <path class="cls-3" d="m300.7,173.9c.14-74.82,35.3-150.29,78.37-168.24"/>
          <path class="cls-3" d="m368.5,180.46c.14-74.82,4.88-153.23,10.56-174.79"/>
        </g>
        <g>
          <path class="cls-3" d="m432.62,103.42c60.46-8.13,85.44-28.38,55.79-45.22"/>
          <path class="cls-3" d="m496.51,163.25c.14-74.82-52.55-145.51-117.45-157.58"/>
        </g>
        <g>
          <path class="cls-3" d="m488.41,58.2c-29.65-16.84-102.69-23.91-163.15-15.78"/>
          <path class="cls-3" d="m389.13,102.23c.14-74.82-4.37-118.14-10.06-96.57"/>
        </g>
        <g>
          <path class="cls-3" d="m325.26,42.42c-60.46,8.13-85.44,28.38-55.79,45.22"/>
          <path class="cls-3" d="m347.67,6.4c-35.32,4.75-49.91,16.58-32.59,26.42"/>
          <path class="cls-3" d="m237.93,138.24c.14-74.82,63.46-134.29,141.14-132.58"/>
        </g>
      </g>
    </g>
  </g>
</svg>