<svg width="1724" height="127" viewBox="0 0 1724 127" fill="none" xmlns="http://www.w3.org/2000/svg">
<circle cx="477" cy="62" r="24" fill="white"/>
<circle cx="477" cy="62" r="24" fill="white"/>
<circle cx="477" cy="62" r="24" fill="white"/>
<circle cx="414.5" cy="63.5" r="13" stroke="white"/>
<circle cx="347.5" cy="63.5" r="13" stroke="white"/>
<circle cx="202.5" cy="63.5" r="13" stroke="white"/>
<circle cx="135.5" cy="63.5" r="13" stroke="white"/>
<circle cx="1630.5" cy="63.5" r="13" stroke="white"/>
<circle cx="1572.5" cy="63.5" r="13" stroke="white"/>
<circle cx="1427.5" cy="63.5" r="13" stroke="white"/>
<circle cx="1369.5" cy="63.5" r="13" stroke="white"/>
<circle cx="68.5" cy="63.5" r="13.5" fill="white"/>
<circle cx="68.5" cy="63.5" r="13.5" fill="white"/>
<circle cx="68.5" cy="63.5" r="13.5" fill="white"/>
<circle cx="1691.5" cy="63.5" r="13.5" fill="white"/>
<circle cx="1691.5" cy="63.5" r="13.5" fill="white"/>
<circle cx="1691.5" cy="63.5" r="13.5" fill="white"/>
<circle cx="1296" cy="64" r="26" fill="white"/>
<circle cx="1296" cy="64" r="26" fill="white"/>
<circle cx="1296" cy="64" r="26" fill="white"/>
<path d="M517.735 90.0624L517.735 90.0632L517.732 90.0659C517.729 90.0684 517.723 90.0735 517.711 90.0799C517.686 90.0933 517.64 90.1114 517.563 90.1248C517.404 90.1524 517.165 90.1515 516.828 90.1004C516.158 89.9987 515.223 89.7171 514.038 89.2528C511.674 88.3274 508.416 86.7175 504.488 84.543C496.638 80.1968 486.171 73.6266 474.951 65.8622C463.73 58.0979 453.893 50.6179 447.059 44.8034C443.64 41.8942 440.985 39.4123 439.286 37.5263C438.433 36.5802 437.84 35.8045 437.509 35.2134C437.343 34.9167 437.257 34.6926 437.227 34.5344C437.213 34.4576 437.214 34.4082 437.217 34.3804C437.219 34.367 437.222 34.3592 437.223 34.3556L437.225 34.3521L437.225 34.3511L437.226 34.3503L437.229 34.3476C437.231 34.3451 437.238 34.3401 437.25 34.3336C437.274 34.3203 437.32 34.3021 437.397 34.2887C437.556 34.2611 437.796 34.262 438.132 34.3131C438.802 34.4149 439.737 34.6965 440.923 35.1607C443.287 36.0861 446.545 37.696 450.472 39.8706C458.322 44.2167 468.789 50.787 480.01 58.5513C491.23 66.3156 501.068 73.7956 507.901 79.6101C511.321 82.5193 513.976 85.0013 515.675 86.8873C516.527 87.8334 517.12 88.6091 517.451 89.2001C517.618 89.4968 517.703 89.721 517.733 89.8792C517.748 89.956 517.747 90.0053 517.743 90.0332C517.741 90.0465 517.739 90.0543 517.737 90.0579L517.736 90.0615L517.735 90.0624Z" stroke="white"/>
<path d="M594.062 49.125H565V30.375H630.578L596.875 77.25H625.938V96H560.359L594.062 49.125ZM696.25 30.375L685.422 49.125H649.375V53.8125H682.703L671.875 72.5625H649.375V77.25H669.156L658.328 96H630.625V30.375H696.25ZM702.438 96H683.688V30.375H702.438V96ZM739.938 30.375H782.125L771.297 49.125H739.938C730.562 49.125 725.875 53.8125 725.875 63.1875C725.875 72.5625 730.562 77.25 739.938 77.25H755.031L744.203 96H739.938C718.062 96 707.125 85.0625 707.125 63.1875C707.125 41.3125 718.062 30.375 739.938 30.375ZM785.031 77.25V91.3125L766.281 100.688V77.25H763.047L752.219 58.5H766.281V30.375H785.031V58.5H808.469V30.375H827.219V96H808.469V77.25H785.031ZM850.656 65.0625V96H831.906V22.125L874.094 61.3125V30.375H892.844V104.25L850.656 65.0625ZM884.969 67.875V30.375H903.719V67.875C903.719 74.125 906.844 77.25 913.094 77.25C919.344 77.25 922.469 74.125 922.469 67.875V30.375H941.219V67.875C941.219 86.625 931.844 96 913.094 96C894.344 96 884.969 86.625 884.969 67.875ZM964.656 65.0625V96H945.906V22.125L988.094 61.3125V30.375H1006.84V104.25L964.656 65.0625ZM1044.34 30.375H1077.16L1066.33 49.125H1044.34C1034.97 49.125 1030.28 53.8125 1030.28 63.1875C1030.28 72.5625 1034.97 77.25 1044.34 77.25H1053.72V53.8125H1072.47V96H1044.34C1022.47 96 1011.53 85.0625 1011.53 63.1875C1011.53 41.3125 1022.47 30.375 1044.34 30.375ZM1142.78 30.375L1131.95 49.125H1095.91V53.8125H1129.23L1118.41 72.5625H1095.91V77.25H1115.69L1104.86 96H1077.16V30.375H1142.78ZM1148.97 65.0625V96H1130.22V22.125L1172.41 61.3125V30.375H1191.16V104.25L1148.97 65.0625Z" fill="white"/>
<rect x="527.5" y="0.5" width="694" height="126" stroke="white"/>
<rect x="1222.5" y="0.5" width="289" height="126" stroke="white"/>
<rect x="283.5" y="0.5" width="243" height="126" stroke="white"/>
<rect x="0.5" y="0.5" width="282" height="126" stroke="white"/>
<rect x="1512.5" y="0.5" width="211" height="126" stroke="white"/>
<path d="M1353.89 40.8903C1353.9 40.9188 1353.92 41.0068 1353.84 41.2073C1353.75 41.4087 1353.58 41.6697 1353.29 41.9907C1352.72 42.6307 1351.78 43.4211 1350.49 44.3445C1347.91 46.1866 1344.01 48.495 1339.07 51.1157C1329.19 56.3543 1315.22 62.811 1299.48 69.2415C1283.75 75.6719 1269.25 80.853 1258.53 84.0321C1253.17 85.6225 1248.77 86.7072 1245.64 87.1992C1244.07 87.4458 1242.85 87.5389 1241.99 87.4818C1241.56 87.4532 1241.26 87.3885 1241.05 87.3053C1240.85 87.2224 1240.8 87.1445 1240.79 87.116C1240.78 87.0875 1240.76 86.9995 1240.85 86.799C1240.93 86.5976 1241.11 86.3366 1241.39 86.0155C1241.96 85.3755 1242.9 84.5852 1244.19 83.6617C1246.77 81.8196 1250.67 79.5112 1255.62 76.8905C1265.49 71.652 1279.47 65.1953 1295.2 58.7648C1310.93 52.3344 1325.43 47.1532 1336.15 43.9741C1341.51 42.3837 1345.91 41.299 1349.04 40.8071C1350.61 40.5605 1351.84 40.4674 1352.69 40.5244C1353.12 40.553 1353.43 40.6177 1353.63 40.701C1353.83 40.7839 1353.88 40.8618 1353.89 40.8903Z" stroke="white"/>
</svg>
