<svg width="1489" height="178" viewBox="0 0 1489 178" fill="none" xmlns="http://www.w3.org/2000/svg">
<path d="M1059.17 176L968.443 2H1487V176H1059.17Z" stroke="white" stroke-width="3"/>
<path d="M2 173.797V3.10107H945.498L1035.44 173.797H2Z" stroke="white" stroke-width="3"/>
<path d="M404.266 42.626H451.238L461.141 60.082L446.795 84.9014H436.258L441.971 93.2803L417.278 136H350.247L372.718 97.0254H397.41L388.968 111.625H406.678L417.596 93.4707L411.819 84.9014H422.801L433.592 67.001H411.883L419.437 78.5537H383.445L398.045 53.2266C399.632 50.5605 401.6 47.2598 404.266 42.626ZM529.886 42.8164L540.613 60.7168L505.701 118.163L483.929 136.127H424.451C431.814 123.559 439.686 110.038 448.128 95.6924C455.682 82.7432 462.918 70.4287 469.773 58.6221L456.888 42.8164C481.199 42.8164 505.574 42.8164 529.886 42.8164ZM511.351 67.2549V67.1914C505.765 67.1914 500.115 67.1279 494.529 67.1279C489.007 67.1279 483.421 67.1279 477.835 67.1279L483.484 76.0781C477.454 86.3613 471.487 96.5176 465.647 106.42C464.568 108.261 463.489 110.102 462.41 111.942C466.092 111.942 469.773 111.879 473.392 111.879C477.01 111.815 480.691 111.815 484.31 111.815L511.351 67.2549ZM542.771 81.8545H602.63L594.378 96.2002C570.701 96.2002 558.133 96.2002 534.456 96.2002L542.771 81.8545ZM710.604 67.1279H710.54H709.144L714.793 76.0781C708.763 86.3613 702.796 96.4541 696.956 106.356C691.18 116.195 685.34 126.098 679.5 136.127L666.043 118.227L696.004 67.1279C692.005 67.1279 688.323 67.1279 684.959 67.1279C681.087 73.793 677.215 80.3945 673.343 86.8691C667.566 96.7715 661.663 106.737 655.76 116.83L642.303 98.9297L660.965 67.1279C656.966 67.1279 653.919 67.1279 651.761 67.1279H640.843L646.492 76.0781C640.462 86.3613 634.559 96.3906 628.719 106.293C622.942 116.132 617.103 126.098 611.199 136.127L597.742 118.227C606.883 102.611 616.087 86.9326 625.354 71.127C630.94 61.6689 636.463 52.2109 641.985 42.8164H644.588H645.54H665.916H666.043H672.962H675.247H694.29H699.241H701.59H704.827H710.286H722.918H734.344L720.062 67.1279H710.604ZM816.165 42.8164L774.334 111.815L759.544 136.127H710.159L699.432 118.227L703.367 111.815L730.408 67.1279L745.198 42.8164C768.875 42.8164 792.552 42.8164 816.165 42.8164ZM749.07 111.815L776.175 67.1279H744.373L750.34 76.0146L728.631 111.815H749.07ZM881.165 42.8164L891.893 60.7168L856.98 118.163L835.208 136.127H775.73C783.094 123.559 790.965 110.038 799.407 95.6924C806.961 82.7432 814.197 70.4287 821.053 58.6221L808.167 42.8164C832.479 42.8164 856.854 42.8164 881.165 42.8164ZM862.63 67.2549V67.1914C857.044 67.1914 851.395 67.1279 845.809 67.1279C840.286 67.1279 834.7 67.1279 829.114 67.1279L834.764 76.0781C828.733 86.3613 822.767 96.5176 816.927 106.42C815.848 108.261 814.769 110.102 813.689 111.942C817.371 111.942 821.053 111.879 824.671 111.879C828.289 111.815 831.971 111.815 835.589 111.815L862.63 67.2549ZM979.808 42.8164L965.081 67.1279H909.793L915.823 76.0781H936.326L921.092 100.897H893.353L900.271 111.815H937.977L934.041 118.227L923.377 135.873L923.25 136.127H879.642L866.248 118.227L870.184 111.815L912.015 42.8164H979.808ZM1013.26 42.8164L998.978 67.1279H988.06L993.772 76.0781C987.742 86.2979 981.839 96.3906 975.999 106.229C973.65 110.229 971.302 114.228 968.953 118.227H989.837L1003.36 136.127H958.416L944.959 118.227C951.243 107.562 957.527 96.835 963.875 85.9805C972.317 71.5713 980.823 57.2256 989.266 42.8164H1013.26ZM1064.55 42.8164L1050.27 67.1279H1039.35L1045.06 76.0781C1039.03 86.2979 1033.13 96.3906 1027.29 106.229C1024.94 110.229 1022.59 114.228 1020.24 118.227H1041.13L1054.65 136.127H1009.71L996.248 118.227C1002.53 107.562 1008.82 96.835 1015.16 85.9805C1023.61 71.5713 1032.11 57.2256 1040.55 42.8164H1064.55ZM1161.1 42.8164L1146.37 67.1279H1091.08L1097.11 76.0781H1117.62L1102.38 100.897H1074.64L1081.56 111.815H1119.27L1115.33 118.227L1104.67 135.873L1104.54 136.127H1060.93L1047.54 118.227L1051.47 111.815L1093.3 42.8164H1161.1Z" fill="white"/>
</svg>
