<svg width="1724" height="132" viewBox="0 0 1724 132" fill="none" xmlns="http://www.w3.org/2000/svg">
<path d="M755.72 101V103H757.72V101H755.72ZM732.68 101L731.416 102.55L731.968 103H732.68V101ZM696.872 71.816H694.872V72.7661L695.608 73.3663L696.872 71.816ZM696.872 43.88V41.88H694.872V43.88H696.872ZM708.392 43.88H710.392V41.88H708.392V43.88ZM708.392 66.248H706.392V67.1987L707.129 67.7989L708.392 66.248ZM732.68 86.024L731.417 87.5749L734.68 90.2316V86.024H732.68ZM732.68 43.88V41.88H730.68V43.88H732.68ZM755.72 43.88H757.72V41.88H755.72V43.88ZM755.72 99H732.68V103H755.72V99ZM733.944 99.4497L698.136 70.2657L695.608 73.3663L731.416 102.55L733.944 99.4497ZM698.872 71.816V43.88H694.872V71.816H698.872ZM696.872 45.88H708.392V41.88H696.872V45.88ZM706.392 43.88V66.248H710.392V43.88H706.392ZM707.129 67.7989L731.417 87.5749L733.943 84.4731L709.655 64.6971L707.129 67.7989ZM734.68 86.024V43.88H730.68V86.024H734.68ZM732.68 45.88H755.72V41.88H732.68V45.88ZM753.72 43.88V101H757.72V43.88H753.72ZM788.485 39.464V41.464H790.485V39.464H788.485ZM766.405 39.464H764.405V41.464H766.405V39.464ZM766.405 32.264L766.414 30.264L764.405 30.2553V32.264H766.405ZM788.485 32.36H790.485V30.3687L788.494 30.36L788.485 32.36ZM788.485 101V103H790.485V101H788.485ZM766.405 101H764.405V103H766.405V101ZM766.405 43.88V41.88H764.405V43.88H766.405ZM788.485 43.88H790.485V41.88H788.485V43.88ZM788.485 37.464H766.405V41.464H788.485V37.464ZM768.405 39.464V32.264H764.405V39.464H768.405ZM766.397 34.264L788.477 34.36L788.494 30.36L766.414 30.264L766.397 34.264ZM786.485 32.36V39.464H790.485V32.36H786.485ZM788.485 99H766.405V103H788.485V99ZM768.405 101V43.88H764.405V101H768.405ZM766.405 45.88H788.485V41.88H766.405V45.88ZM786.485 43.88V101H790.485V43.88H786.485ZM858.412 101V103H860.412V101H858.412ZM799.564 101H797.564V103H799.564V101ZM799.564 43.88V41.88H797.564V43.88H799.564ZM835.372 43.88V45.88H837.372V43.88H835.372ZM835.372 32.36V30.36H833.372V32.36H835.372ZM858.412 32.36H860.412V30.36H858.412V32.36ZM835.468 90.44V92.44H837.468V90.44H835.468ZM835.468 54.92H837.468V52.92H835.468V54.92ZM811.084 54.92V52.92H809.084V54.92H811.084ZM811.084 90.44H809.084V92.44H811.084V90.44ZM858.412 99H799.564V103H858.412V99ZM801.564 101V43.88H797.564V101H801.564ZM799.564 45.88H835.372V41.88H799.564V45.88ZM837.372 43.88V32.36H833.372V43.88H837.372ZM835.372 34.36H858.412V30.36H835.372V34.36ZM856.412 32.36V101H860.412V32.36H856.412ZM837.468 90.44V54.92H833.468V90.44H837.468ZM835.468 52.92H811.084V56.92H835.468V52.92ZM809.084 54.92V90.44H813.084V54.92H809.084ZM811.084 92.44H835.468V88.44H811.084V92.44ZM927.778 101V103H929.778V101H927.778ZM868.93 101H866.93V103H868.93V101ZM868.93 43.88V41.88H866.93V43.88H868.93ZM927.778 43.88H929.778V41.88H927.778V43.88ZM927.778 77.576V79.576H929.778V77.576H927.778ZM880.45 77.576V75.576H878.45V77.576H880.45ZM880.45 90.44H878.45V92.44H880.45V90.44ZM904.738 90.44V92.44H906.738V90.44H904.738ZM904.738 82.664V80.664H902.738V82.664H904.738ZM927.778 82.664H929.778V80.664H927.778V82.664ZM904.738 66.536V68.536H906.738V66.536H904.738ZM904.738 54.92H906.738V52.92H904.738V54.92ZM880.45 54.92V52.92H878.45V54.92H880.45ZM880.45 66.536H878.45V68.536H880.45V66.536ZM927.778 99H868.93V103H927.778V99ZM870.93 101V43.88H866.93V101H870.93ZM868.93 45.88H927.778V41.88H868.93V45.88ZM925.778 43.88V77.576H929.778V43.88H925.778ZM927.778 75.576H880.45V79.576H927.778V75.576ZM878.45 77.576V90.44H882.45V77.576H878.45ZM880.45 92.44H904.738V88.44H880.45V92.44ZM906.738 90.44V82.664H902.738V90.44H906.738ZM904.738 84.664H927.778V80.664H904.738V84.664ZM925.778 82.664V101H929.778V82.664H925.778ZM906.738 66.536V54.92H902.738V66.536H906.738ZM904.738 52.92H880.45V56.92H904.738V52.92ZM878.45 54.92V66.536H882.45V54.92H878.45ZM880.45 68.536H904.738V64.536H880.45V68.536ZM997.354 101V103H999.354V101H997.354ZM938.506 101H936.506V103H938.506V101ZM938.506 43.88V41.88H936.506V43.88H938.506ZM997.354 43.88H999.354V41.88H997.354V43.88ZM974.314 90.44V92.44H976.314V90.44H974.314ZM974.314 54.92H976.314V52.92H974.314V54.92ZM950.026 54.92V52.92H948.026V54.92H950.026ZM950.026 90.44H948.026V92.44H950.026V90.44ZM997.354 99H938.506V103H997.354V99ZM940.506 101V43.88H936.506V101H940.506ZM938.506 45.88H997.354V41.88H938.506V45.88ZM995.354 43.88V101H999.354V43.88H995.354ZM976.314 90.44V54.92H972.314V90.44H976.314ZM974.314 52.92H950.026V56.92H974.314V52.92ZM948.026 54.92V90.44H952.026V54.92H948.026ZM950.026 92.44H974.314V88.44H950.026V92.44ZM1067.09 63.656V65.656H1069.09V63.656H1067.09ZM1044.05 63.656H1042.05V65.656H1044.05V63.656ZM1044.05 54.92H1046.05V52.92H1044.05V54.92ZM1019.77 54.92V52.92H1017.77V54.92H1019.77ZM1019.77 66.92H1017.77V68.92H1019.77V66.92ZM1067.09 66.92H1069.09V64.92H1067.09V66.92ZM1067.09 101V103H1069.09V101H1067.09ZM1008.25 101H1006.25V103H1008.25V101ZM1008.25 80.744V78.744H1006.25V80.744H1008.25ZM1019.48 80.744H1021.48V78.744H1019.48V80.744ZM1019.48 89.96H1017.48V91.96H1019.48V89.96ZM1044.05 89.96V91.96H1046.05V89.96H1044.05ZM1044.05 77.48H1046.05V75.48H1044.05V77.48ZM1008.25 77.48H1006.25V79.48H1008.25V77.48ZM1008.25 43.88V41.88H1006.25V43.88H1008.25ZM1067.09 43.88H1069.09V41.88H1067.09V43.88ZM1067.09 61.656H1044.05V65.656H1067.09V61.656ZM1046.05 63.656V54.92H1042.05V63.656H1046.05ZM1044.05 52.92H1019.77V56.92H1044.05V52.92ZM1017.77 54.92V66.92H1021.77V54.92H1017.77ZM1019.77 68.92H1067.09V64.92H1019.77V68.92ZM1065.09 66.92V101H1069.09V66.92H1065.09ZM1067.09 99H1008.25V103H1067.09V99ZM1010.25 101V80.744H1006.25V101H1010.25ZM1008.25 82.744H1019.48V78.744H1008.25V82.744ZM1017.48 80.744V89.96H1021.48V80.744H1017.48ZM1019.48 91.96H1044.05V87.96H1019.48V91.96ZM1046.05 89.96V77.48H1042.05V89.96H1046.05ZM1044.05 75.48H1008.25V79.48H1044.05V75.48ZM1010.25 77.48V43.88H1006.25V77.48H1010.25ZM1008.25 45.88H1067.09V41.88H1008.25V45.88ZM1065.09 43.88V63.656H1069.09V43.88H1065.09Z" fill="white"/>
<rect x="161.5" y="1.5" width="1396" height="129" stroke="white" stroke-width="3"/>
<rect x="1701" y="4" width="23" height="123" fill="white"/>
<rect x="1663" y="4" width="23" height="123" fill="white"/>
<rect x="1625" y="4" width="23" height="123" fill="white"/>
<rect x="1609" y="4" width="6" height="123" fill="white"/>
<rect x="1572" y="4" width="29" height="123" fill="white"/>
<rect x="129" y="4" width="23" height="123" fill="white"/>
<rect x="91" y="4" width="23" height="123" fill="white"/>
<rect x="53" y="4" width="23" height="123" fill="white"/>
<rect x="37" y="4" width="6" height="123" fill="white"/>
<rect y="4" width="29" height="123" fill="white"/>
</svg>
