<?xml version="1.0" encoding="UTF-8"?>
<svg id="Layer_2" data-name="Layer 2" xmlns="http://www.w3.org/2000/svg" viewBox="0 0 1673.14 2271.15">
  <defs>
    <style>
      .cls-1 {
        fill: none;
        stroke: #fff;
        stroke-miterlimit: 10;
      }
    </style>
  </defs>
  <path class="cls-1" d="m.56.56c422.78.2,845.56-.23,1268.34,0,134.55.07,269.11-.09,403.66,0-.05,181.4.05,362.8,0,544.2-.13,575.27.22,1150.53,0,1725.8-134.56-.02-269.11.02-403.67,0-422.78-.07-845.55.23-1268.33,0-.17-575.28.12-1150.55,0-1725.83-.04-181.39.05-362.78,0-544.17Z"/>
  <path class="cls-1" d="m.54,2108.45c131.62,5.28,257.27-45.3,387.44-55.95,51.57-4.22,105.73-3.8,156.84,4.6,45.39,7.46,89.41,21.04,133.93,32.29,44.75,11.31,90.22,19.83,136.54,19.69,46.74-.15,92.99-.58,139.69,2.76,91.23,6.52,181.07,15.28,272.67,15.7,148.56.68,296.33-21.11,444.92-19.12"/>
  <path class="cls-1" d="m.56,1946.26c79.51-4.99,154.37-40.68,225.86-73.19,71.63-32.57,143.22-69.25,219.55-89.72,53.39-14.32,102.84-13.77,151.4,14.64,39.22,22.94,70.56,56.76,104.73,86.18,33.2,28.58,70.22,53.83,114.47,60.42,39.78,5.92,78.8,3.76,118.16,14.49,29.56,8.06,57.73,20.27,87.03,29.11,39.99,12.06,81.54,16.78,123.26,15.5,177.03-5.43,350.34-53.75,527.53-57.4"/>
  <path class="cls-1" d="m.57,1784.1c90.06-10.22,172.78-67.63,248.04-114.11,79.45-49.06,158.52-104.46,246-138.53,27.34-10.65,59.3-22.04,88.86-14.71,23.01,5.7,42.36,20.28,58.1,37.55,34.8,38.18,54.35,88.3,79.48,132.76,22.04,39.01,50.21,81.93,96.25,94.05,34.89,9.18,69.22,3.19,101.52,23.2,19.89,12.32,34.23,31.27,53.14,44.81,30.11,21.57,68.28,26.07,104.4,24.24,200.97-10.18,394.91-81.77,596.18-89.21"/>
  <path class="cls-1" d="m.57,1621.96c90.04-10.22,172.74-67.58,248-114.03,79.43-49.03,158.49-104.39,245.94-138.43,27.34-10.64,59.29-22.03,88.85-14.7,23.01,5.7,42.36,20.27,58.11,37.53,34.81,38.15,54.39,88.23,79.53,132.66,22.06,39,50.26,81.87,96.28,93.98,34.9,9.18,69.23,3.2,101.55,23.19,19.91,12.31,34.29,31.24,53.22,44.78,30.13,21.54,68.3,26.05,104.43,24.22,200.92-10.18,394.82-81.71,596.04-89.15"/>
  <path class="cls-1" d="m.56,1459.84c79.47-4.96,154.3-40.58,225.78-73.03,71.6-32.51,143.16-69.12,219.45-89.54,53.38-14.29,102.84-13.73,151.42,14.6,39.24,22.89,70.62,56.65,104.82,86.01,33.24,28.53,70.29,53.72,114.54,60.29,39.8,5.9,78.84,3.75,118.23,14.45,29.59,8.04,57.81,20.23,87.16,29.05,40.03,12.03,81.59,16.74,123.33,15.46,176.94-5.41,350.16-53.65,527.27-57.28"/>
  <path class="cls-1" d="m.54,1297.74c131.55,5.3,257.18-45.09,387.29-55.66,51.57-4.19,105.73-3.78,156.86,4.57,45.41,7.42,89.47,20.94,134.01,32.14,44.77,11.26,90.27,19.74,136.6,19.58,46.76-.16,93.03-.59,139.74,2.73,91.28,6.49,181.19,15.19,272.84,15.62,148.48.7,296.19-21.02,444.71-19.02"/>
  <path class="cls-1" d="m.56,1135.56h1672"/>
  <path class="cls-1" d="m.57,973.45c113.78,3.9,218.88-40.43,331.04-49.24,111.39-8.74,218.96,13.12,327.96,32.47,51.57,9.16,103.87,17.53,156.39,17.32,51.8-.21,100.33,1.11,151.51,11.11,55.86,10.91,110.78,26.06,166.46,37.82,55.04,11.64,107.82,14.73,163.77,16.12,129.35,3.2,244.75-71.44,374.84-65.66"/>
  <path class="cls-1" d="m.55,811.27c114.91-6.77,177.54-110.04,280.95-143.81,55.54-18.14,112.23-4.67,166.17,12.92,65.4,21.33,128.09,50.18,191.73,76.08,56.09,22.83,114.77,46.68,175.46,53.33,26.73,2.93,51.99,3.63,78.13,10.97,30.58,8.58,60,21.12,88.7,34.6,65.89,30.95,128.64,68.09,193.89,100.31,53.28,26.31,118.77,60.13,180.13,53.38,133.2-14.65,179.66-187.26,316.84-197.76"/>
  <path class="cls-1" d="m.54,649.11c123.91-14.06,141.82-168.02,238.83-223.33,55.05-31.38,117.5-4.1,170.03,20.19,73.76,34.11,142.84,77.61,213.59,117.35,59.43,33.39,123.26,70.92,191.25,83.14,28.55,5.13,54.21,7.03,81.47,18.34,34.24,14.2,66.23,33.72,97.19,53.94,74.56,48.68,144.18,104.45,217.73,154.61,33.53,22.86,67.99,45.2,104.75,62.6,26.63,12.61,58.69,26.82,88.67,21.02,66.43-12.84,100.18-96.55,126.39-149.91,30.75-62.61,64.41-146.41,142.15-157.89"/>
  <path class="cls-1" d="m.54,486.96c123.94-14.05,141.74-168.15,238.75-223.49,55.04-31.4,117.52-4.09,170.03,20.2,73.78,34.13,142.87,77.67,213.63,117.45,59.44,33.41,123.28,70.97,191.28,83.19,28.56,5.13,54.21,7.03,81.47,18.34,34.24,14.21,66.24,33.75,97.21,53.98,74.58,48.72,144.22,104.53,217.78,154.73,33.53,22.88,68,45.23,104.77,62.65,26.63,12.62,58.69,26.83,88.67,21.03,66.44-12.85,100.17-96.64,126.34-150.02,30.71-62.63,64.34-146.52,142.1-158"/>
  <path class="cls-1" d="m.55,324.84c114.94-6.81,177.41-110.26,280.79-144.11,55.55-18.19,112.24-4.67,166.19,12.95,65.43,21.37,128.14,50.28,191.81,76.23,56.11,22.87,114.81,46.77,175.52,53.45,26.74,2.94,52.01,3.65,78.15,11,30.59,8.6,60.02,21.17,88.73,34.68,65.92,31.02,128.69,68.22,193.97,100.51,53.26,26.34,118.81,60.28,180.19,53.5,133.23-14.71,179.43-187.61,316.66-198.18"/>
  <path class="cls-1" d="m.57,162.73c113.77,3.88,218.78-40.63,330.91-49.49,111.43-8.81,219.03,13.19,328.04,32.63,51.58,9.2,103.9,17.61,156.44,17.42,51.82-.19,100.35,1.15,151.55,11.19,55.89,10.96,110.83,26.17,166.53,38,55.05,11.69,107.84,14.84,163.82,16.21,129.34,3.16,244.61-71.76,374.68-66.02"/>
  <path class="cls-1" d="m1553.12.54c-3.49,203.91,30.14,406.51,29.05,610.36-.35,66.12-.95,131.75-6.91,197.66-5,55.33-12.13,110.44-16.76,165.81-5.23,62.5-5.15,124.53-4.91,187.18.27,69.12-6.29,138.1-13.93,206.73-16.15,145.04-33.4,288.79-26.72,435.08,7.15,156.5,43.85,309.96,40.2,467.2"/>
  <path class="cls-1" d="m1433.7.57c4.83,249.49,77.24,492.97,86.9,742.11,2.13,54.91-3.2,110.06-22.68,161.74-13.21,35.04-32.03,67.67-44.29,103.1-17.59,50.82-17.52,101.75-20.99,154.72-4.89,74.73-23.42,148.14-42.94,220.18-39.7,146.51-100.39,302.69-72.98,456.52,26.43,148.38,112.5,278.14,116.98,431.62"/>
  <path class="cls-1" d="m1314.28.59c5.45,152.08,41.9,303.66,70.79,452.54,25.54,131.6,55.86,264.97,64.18,399.09,2.81,45.34.29,99.59-35.45,132.66-20.67,19.12-48.78,27.96-68.17,48.72-32.88,35.21-28.51,84.67-33.29,129.04-8.6,79.86-37.82,156.95-66.84,231.25-32.47,83.13-68.7,165.03-95.52,250.25-23.26,73.9-39.46,148.62-17.09,224.64,42.42,144.12,172.42,245.2,181.35,401.79"/>
  <path class="cls-1" d="m1194.85.59c5.45,152.03,41.86,303.55,70.73,452.39,25.52,131.56,55.8,264.87,64.12,398.95,2.81,45.36.27,99.59-35.42,132.73-20.64,19.17-48.73,28.09-68.09,48.89-32.83,35.27-28.49,84.7-33.26,129.09-8.59,79.84-37.79,156.92-66.78,231.22-32.43,83.11-68.63,165-95.42,250.2-23.24,73.9-39.43,148.61-17.07,224.63,42.38,144.12,172.24,245.3,181.18,401.87"/>
  <path class="cls-1" d="m1075.42.57c4.78,249.29,77.04,492.6,86.65,741.55,2.12,54.95-3.2,110.14-22.61,161.9-13.17,35.12-31.94,67.86-44.18,103.37-17.53,50.88-17.46,101.85-20.92,154.86-4.87,74.71-23.34,148.09-42.82,220.12-39.61,146.52-100.09,302.61-72.78,456.43,26.35,148.41,112.21,278.29,116.65,431.77"/>
  <path class="cls-1" d="m955.97.54c-3.51,203.74,29.95,406.2,28.84,609.88-.36,66.16-.94,131.83-6.86,197.79-4.97,55.41-12.05,110.6-16.66,166.04-5.2,62.54-5.11,124.61-4.85,187.29.29,69.11-6.23,138.06-13.82,206.68-16.05,145.02-33.17,288.75-26.55,435,7.08,156.54,43.59,310.06,39.92,467.33"/>
  <path class="cls-1" d="m836.56.56v2270"/>
  <path class="cls-1" d="m717.14.58c2.48,165.21-27.64,328.42-26.84,493.51.74,153.45,13.01,305.6,21.88,458.71,7.55,130.35,1.35,260.58,15.05,390.6,13.58,128.91,24.17,255.8,20.07,385.66-5.69,180.67-33.52,360.56-30.18,541.52"/>
  <path class="cls-1" d="m597.7.56c-1.44,74.23-18.07,141.84-42.26,211.51-20.46,58.92-35.66,117.81-38.37,180.44-3.65,84.27,9.48,169.9,21.04,253.14,13.05,93.96,28.49,187.58,41.11,281.6,10.44,77.81,14.8,154.83,19.28,233.04,2.79,48.75,13.88,95.43,32.37,140.54,16.28,39.71,35.62,78.03,46.77,119.67,17.71,66.12,15.08,133.99,8.26,201.48-21.89,216.64-83.66,430.31-88.2,648.57"/>
  <path class="cls-1" d="m478.26.54c-2.63,67.25-23.63,116.04-65.82,167.03-34.64,41.86-55.32,85.34-59.67,140.23-7.19,90.64,16.35,187.14,32.96,275.64,20.28,108.04,43.66,215.48,63.36,323.63,9.02,49.47,17.41,99.13,23.2,149.09,3.97,34.26,3.82,68.72,7.42,102.93,4.4,41.88,19.65,78.13,50.49,107.11,25.19,23.67,54.52,42.13,72.15,72.85,33.19,57.85,21.91,130.34,12.91,192.91-17.96,124.84-47.96,247.89-75.04,370.97-26.56,120.67-57.11,243.68-61.94,367.62"/>
  <path class="cls-1" d="m358.83.54c-2.62,67.24-23.63,115.99-65.88,166.91-34.68,41.81-55.38,85.25-59.73,140.13-7.19,90.66,16.36,187.18,32.99,275.69,20.31,108.08,43.7,215.56,63.43,323.75,9.02,49.48,17.42,99.15,23.22,149.13,3.97,34.26,3.82,68.72,7.42,102.93,4.4,41.87,19.66,78.09,50.54,107.02,25.21,23.62,54.58,42.01,72.23,72.71,33.23,57.81,21.92,130.35,12.92,192.88-17.98,124.89-48.01,247.99-75.12,371.11-26.58,120.7-57.17,243.74-62,367.73"/>
  <path class="cls-1" d="m239.41.55c-1.45,74.18-18.12,141.7-42.38,211.28-20.52,58.84-35.76,117.66-38.48,180.24-3.67,84.31,9.52,169.99,21.11,253.26,13.09,94.03,28.57,187.72,41.22,281.81,10.47,77.85,14.83,154.89,19.34,233.14,2.81,48.7,13.91,95.33,32.47,140.37,16.33,39.64,35.72,77.86,46.9,119.44,17.77,66.09,15.12,133.96,8.28,201.44-21.96,216.8-83.87,430.61-88.45,649.03"/>
  <path class="cls-1" d="m120,.58c2.46,165.1-27.81,328.17-27.03,493.14.73,153.55,13.1,305.79,22.03,458.99,7.6,130.33,1.38,260.55,15.17,390.54,13.67,128.83,24.33,255.62,20.2,385.42-5.75,180.8-33.72,360.81-30.39,541.91"/>
</svg>