<svg width="1633" height="277" viewBox="0 0 1633 277" fill="none" xmlns="http://www.w3.org/2000/svg">
<path d="M530.513 22.783C625.756 22.759 721.267 24.1247 816.491 22.7471C915.101 21.3215 1010.22 0.668612 1109.06 1.00404C1154.72 33.6605 1190.9 67.5508 1242.82 96.6493C1280.58 117.829 1325.39 131.199 1366.23 149.599C1455.89 190.007 1542.23 234.235 1630 276.451H3C90.9159 234.163 178.832 191.887 266.766 149.599C301.821 132.744 341.372 107.155 383.772 99.8C408.724 95.4753 431.939 100.854 454.384 89.9647C486.538 74.3792 504.88 42.8608 530.531 22.783H530.513Z" stroke="white" stroke-opacity="0.5" stroke-miterlimit="10"/>
<path d="M82.6403 238.152H1550.36" stroke="white" stroke-opacity="0.5" stroke-miterlimit="10"/>
<path d="M148.058 206.694C211.523 206.694 275.274 208.083 338.56 204.286C397.941 200.728 456.874 194.199 516.416 191.743C616.728 187.61 716.52 203.292 816.491 206.682C917.931 210.132 1015.84 237.937 1118.09 231.036C1177.61 227.023 1235.56 216.409 1294.67 210.599C1357.51 204.43 1421.6 206.682 1484.92 206.682" stroke="white" stroke-opacity="0.5" stroke-miterlimit="10"/>
<path d="M202.781 180.375C319.304 180.375 432.62 163.867 548.516 162.585C638.725 161.591 726.103 181.717 816.061 184.556C907.327 187.443 994.257 214.96 1085.85 213.523C1137.9 212.708 1188.9 202.106 1239.02 193.685C1303.52 182.843 1364 180.363 1430.24 180.363" stroke="white" stroke-opacity="0.5" stroke-miterlimit="10"/>
<path d="M249.211 158.045C352.783 158.081 457.035 153.313 560.535 155.972C646.158 158.176 728.45 177.164 814.342 177.955C899.714 178.745 985.14 182.088 1070.49 181.836C1176.48 181.525 1277.58 158.021 1383.75 158.033" stroke="white" stroke-opacity="0.5" stroke-miterlimit="10"/>
<path d="M289.175 138.817C383.682 139.033 480.411 137.14 574.668 141.728C655.025 145.645 733.322 160.248 814.144 161.123C895.916 162.009 977.222 152.318 1059.01 154.283C1156.39 156.619 1246.85 146.508 1343.48 139.751" stroke="white" stroke-opacity="0.5" stroke-miterlimit="10"/>
<path d="M322.492 123.065C407.238 126.095 492.126 128.503 576.8 131.75C655.831 134.781 734.755 145.61 814.091 144.472C898.8 143.25 978.888 118.596 1063.53 117.973C1099.08 117.71 1132.99 125.52 1168.24 127.868C1215.03 130.983 1261.78 128.731 1308.47 125.904" stroke="white" stroke-opacity="0.5" stroke-miterlimit="10"/>
<path d="M350.311 110.211C427.676 115.338 503.895 118.201 581.457 120.741C658.697 123.28 736.708 131.391 814.127 129.749C895.2 128.024 967.549 98.77 1047.53 93.2714C1086.04 90.6239 1114.24 99.9919 1150.42 106.461C1191.8 113.864 1233.59 115.314 1276.2 114.463" stroke="white" stroke-opacity="0.5" stroke-miterlimit="10"/>
<path d="M375.89 101.178C520.984 118.141 667.725 114.391 814.61 112.271C885.402 111.252 952.163 94.0377 1021.86 87.9281C1097.11 81.3154 1174.1 100.65 1250.36 100.866" stroke="white" stroke-opacity="0.5" stroke-miterlimit="10"/>
<path d="M400.879 98.3387C475.682 111.792 542.121 117.362 619.289 109.719C684.76 103.238 749.175 93.5468 815.542 92.0973C878.953 90.7196 940.859 83.5319 1003.98 79.9859C1078.23 75.817 1152.48 86.7304 1226.89 87.557" stroke="white" stroke-opacity="0.5" stroke-miterlimit="10"/>
<path d="M424.076 97.5954C497.679 113.588 558.224 117.278 633.136 103.609C693.556 92.5759 753.026 76.7508 816.258 75.0018C946.609 71.384 1075.49 73.8757 1205.79 75.0018" stroke="white" stroke-opacity="0.5" stroke-miterlimit="10"/>
<path d="M444.102 94.673C512.69 109.372 569.85 110.402 638.51 95.4157C697.246 82.5856 753.832 65.1432 816.491 63.6697C939.767 60.7707 1064.03 63.3942 1187.38 63.502" stroke="white" stroke-opacity="0.5" stroke-miterlimit="10"/>
<path d="M461.621 85.3162C527.343 95.9421 582.371 93.4144 646.785 81.1473C702.799 70.4854 757.683 56.7568 816.473 55.3192C934.196 52.4561 1052.81 51.2222 1170.59 52.7556" stroke="white" stroke-opacity="0.5" stroke-miterlimit="10"/>
<path d="M477.832 71.7082C595.465 83.4602 700.452 49.9532 816.491 47.5932C929.718 45.2931 1042.69 37.5543 1156.05 40.669" stroke="white" stroke-opacity="0.5" stroke-miterlimit="10"/>
<path d="M492.771 56.6735C602.147 61.7169 707.671 42.6813 816.509 40.5249C925.723 38.3686 1033.61 24.5082 1143.08 28.5453" stroke="white" stroke-opacity="0.5" stroke-miterlimit="10"/>
<path d="M506.493 42.4535C610.118 43.328 713.009 35.7089 816.509 34.1037C922.087 32.4744 1025.23 13.4987 1131.16 17.4161" stroke="white" stroke-opacity="0.5" stroke-miterlimit="10"/>
<path d="M519.049 30.7614C618.214 29.9707 717.362 29.0124 816.509 28.0899C918.594 27.1316 1017.45 5.38857 1119.92 8.072" stroke="white" stroke-opacity="0.5" stroke-miterlimit="10"/>
<path d="M1075.37 1.17188C1099.94 19.4887 1114.54 41.9864 1138.96 60.2673C1158.23 74.7148 1181.23 87.497 1202.64 100.495C1233.86 119.447 1266.16 136.973 1301.26 152.283C1383.82 188.27 1458.06 234.906 1534.27 276.452" stroke="white" stroke-opacity="0.5" stroke-miterlimit="10"/>
<path d="M1041.15 3.05273C1064.1 21.8128 1076.12 45.245 1099.89 63.3462C1113.97 74.0679 1132.4 83.2323 1148.25 92.7322C1182.5 113.265 1202.71 139.572 1235.85 159.231C1302.98 199.051 1372.95 235.182 1438.58 276.464" stroke="white" stroke-opacity="0.5" stroke-miterlimit="10"/>
<path d="M1006.58 6.14355C1024.96 23.0228 1034.51 43.6997 1053.75 59.8242C1067.16 71.0611 1084.91 78.5723 1101.91 87.3773C1125.2 99.4408 1139.6 108.186 1147.77 127.94C1153.9 142.699 1156.94 154.032 1170.34 166.862C1189.81 185.514 1211.54 203.915 1241.2 215.044C1283.85 231.049 1309.58 251.714 1342.88 276.452" stroke="white" stroke-opacity="0.5" stroke-miterlimit="10"/>
<path d="M971.777 9.94043C999.757 39.8296 1008 65.3222 1055.25 83.8188C1081.01 93.8936 1089.55 93.7499 1095.09 116.284C1099.82 135.547 1093.62 153.241 1105.17 171.581C1119.45 194.223 1131.31 219.224 1166.4 226.724C1180.87 229.826 1188.36 227.826 1201.42 235.541C1219.39 246.155 1233.02 263.585 1247.19 276.451" stroke="white" stroke-opacity="0.5" stroke-miterlimit="10"/>
<path d="M936.918 13.9785C956.999 40.2738 965.292 68.6655 1003.75 86.3474C1021.93 94.7092 1031.71 95.5717 1036.6 111.409C1042.77 131.319 1032.39 152.092 1040.47 171.894C1045.54 184.341 1058.03 229.049 1078.98 232.786C1102.86 237.051 1096.66 222.34 1118.14 237.506C1132.19 247.425 1141.48 264.772 1151.48 276.452" stroke="white" stroke-opacity="0.5" stroke-miterlimit="10"/>
<path d="M902.132 17.7393C916.838 43.5673 926.511 69.7069 949.225 93.2348C960.152 104.556 969.699 110.426 973.353 124.502C977.42 140.171 971.508 156.152 975.789 171.893C979.802 186.688 987.2 215.93 1003.12 225.418C1011.29 230.282 1021.38 227.922 1029.71 233.935C1042.51 243.16 1048.89 265.214 1055.77 276.451" stroke="white" stroke-opacity="0.5" stroke-miterlimit="10"/>
<path d="M867.578 20.7461C876.427 45.5319 883.001 70.7371 892.513 95.4151C897.242 107.646 905.339 119.554 908.205 132.097C911.142 144.963 908.115 158.116 911.626 170.983C921.532 207.413 946.842 240.392 960.062 276.451" stroke="white" stroke-opacity="0.5" stroke-miterlimit="10"/>
<path d="M833.401 22.4951C839.437 71.6235 835.747 122.537 846.567 171.222C854.323 206.155 860.019 241.003 864.354 276.451" stroke="white" stroke-opacity="0.5" stroke-miterlimit="10"/>
<path d="M799.671 22.7354C789.353 107.323 778.982 191.876 768.646 276.464" stroke="white" stroke-opacity="0.5" stroke-miterlimit="10"/>
<path d="M766.031 22.7119C736.976 107.887 704.052 191.672 672.938 276.452" stroke="white" stroke-opacity="0.5" stroke-miterlimit="10"/>
<path d="M732.39 22.7227C709.032 68.8562 684.653 113.756 653.95 157.625C626.777 196.463 601.717 236.427 577.23 276.451" stroke="white" stroke-opacity="0.5" stroke-miterlimit="10"/>
<path d="M698.75 22.7471C676.306 58.626 671.738 88.4673 627.404 113.253C606.947 124.694 604.135 137.176 589.859 151.097C549.34 190.558 517.545 234.403 481.54 276.463" stroke="white" stroke-opacity="0.5" stroke-miterlimit="10"/>
<path d="M665.092 22.7715C648.469 45.6286 640.516 71.9838 622.299 94.0742C607.127 112.487 596.809 107.419 573.988 113.805C547.19 121.304 542.909 135.044 525.373 149.384C506.958 164.442 487.648 175.392 471.688 192.619C444.837 221.573 415.997 249.019 385.814 276.452" stroke="white" stroke-opacity="0.5" stroke-miterlimit="10"/>
<path d="M631.452 22.7949C612.088 46.2031 602.953 84.1306 575.636 103.082C556.344 116.464 548.641 111.264 522.901 114.08C494.24 117.218 480.179 136.17 460.707 149.467C401.13 190.162 347.373 233.9 290.124 276.439" stroke="white" stroke-opacity="0.5" stroke-miterlimit="10"/>
<path d="M597.812 22.8066C582.801 36.7749 570.889 51.8452 562.058 68.0417C554.445 83.0761 543.321 96.7808 528.686 109.18C511.401 117.242 491.929 109.192 473.73 111.42C442.257 115.265 419.168 135.667 396.06 149.587C327.526 190.905 261.696 234.139 194.416 276.451" stroke="white" stroke-opacity="0.5" stroke-miterlimit="10"/>
<path d="M564.154 22.7949C539.774 44.8614 523.76 85.9754 489.977 101.753C470.147 111.025 448.312 104.316 426.584 106.784C391.277 110.797 358.658 134.864 331.431 149.635C253.707 191.791 176.27 234.175 98.708 276.451" stroke="white" stroke-opacity="0.5" stroke-miterlimit="10"/>
</svg>
