<svg width="1638" height="150" viewBox="0 0 1638 150" fill="none" xmlns="http://www.w3.org/2000/svg">
<rect x="2" y="5" width="1634" height="142" stroke="white" stroke-width="4"/>
<path d="M736 3V147" stroke="white" stroke-width="3"/>
<path d="M1116.62 45.375L1118.36 46.3752L1120.09 43.375H1116.62V45.375ZM1105.8 64.125V66.125H1106.95L1107.53 65.1252L1105.8 64.125ZM1069.75 64.125V62.125H1067.75V64.125H1069.75ZM1069.75 68.8125H1067.75V70.8125H1069.75V68.8125ZM1103.08 68.8125L1104.81 69.8127L1106.54 66.8125H1103.08V68.8125ZM1092.25 87.5625V89.5625H1093.4L1093.98 88.5627L1092.25 87.5625ZM1069.75 87.5625V85.5625H1067.75V87.5625H1069.75ZM1069.75 106.312L1070.64 108.101L1071.75 107.549V106.312H1069.75ZM1051 115.688H1049V118.924L1051.89 117.476L1051 115.688ZM1051 45.375V43.375H1049V45.375H1051ZM1114.89 44.3748L1104.06 63.1248L1107.53 65.1252L1118.36 46.3752L1114.89 44.3748ZM1105.8 62.125H1069.75V66.125H1105.8V62.125ZM1067.75 64.125V68.8125H1071.75V64.125H1067.75ZM1069.75 70.8125H1103.08V66.8125H1069.75V70.8125ZM1101.35 67.8123L1090.52 86.5623L1093.98 88.5627L1104.81 69.8127L1101.35 67.8123ZM1092.25 85.5625H1069.75V89.5625H1092.25V85.5625ZM1067.75 87.5625V106.312H1071.75V87.5625H1067.75ZM1068.86 104.524L1050.11 113.899L1051.89 117.476L1070.64 108.101L1068.86 104.524ZM1053 115.688V45.375H1049V115.688H1053ZM1051 47.375H1116.62V43.375H1051V47.375ZM1109.81 78.1875C1109.81 67.5583 1112.47 59.9537 1117.43 54.9923C1122.39 50.0309 1130 47.375 1140.62 47.375V43.375C1129.38 43.375 1120.58 46.1878 1114.6 52.1639C1108.63 58.14 1105.81 66.9417 1105.81 78.1875H1109.81ZM1140.62 47.375C1151.25 47.375 1158.86 50.0309 1163.82 54.9923C1168.78 59.9537 1171.44 67.5583 1171.44 78.1875H1175.44C1175.44 66.9417 1172.62 58.14 1166.65 52.1639C1160.67 46.1878 1151.87 43.375 1140.62 43.375V47.375ZM1171.44 78.1875C1171.44 88.8167 1168.78 96.4213 1163.82 101.383C1158.86 106.344 1151.25 109 1140.62 109V113C1151.87 113 1160.67 110.187 1166.65 104.211C1172.62 98.235 1175.44 89.4333 1175.44 78.1875H1171.44ZM1140.62 109C1130 109 1122.39 106.344 1117.43 101.383C1112.47 96.4213 1109.81 88.8167 1109.81 78.1875H1105.81C1105.81 89.4333 1108.63 98.235 1114.6 104.211C1120.58 110.187 1129.38 113 1140.62 113V109ZM1140.62 62.125C1135.63 62.125 1131.52 63.3753 1128.66 66.2264C1125.81 69.0775 1124.56 73.1917 1124.56 78.1875H1128.56C1128.56 73.8083 1129.66 70.8912 1131.49 69.0548C1133.33 67.2184 1136.25 66.125 1140.62 66.125V62.125ZM1124.56 78.1875C1124.56 83.1833 1125.81 87.2975 1128.66 90.1486C1131.52 92.9997 1135.63 94.25 1140.62 94.25V90.25C1136.25 90.25 1133.33 89.1566 1131.49 87.3202C1129.66 85.4838 1128.56 82.5667 1128.56 78.1875H1124.56ZM1140.62 94.25C1145.62 94.25 1149.73 92.9997 1152.59 90.1486C1155.44 87.2975 1156.69 83.1833 1156.69 78.1875H1152.69C1152.69 82.5667 1151.59 85.4838 1149.76 87.3202C1147.92 89.1566 1145 90.25 1140.62 90.25V94.25ZM1156.69 78.1875C1156.69 73.1917 1155.44 69.0775 1152.59 66.2264C1149.73 63.3753 1145.62 62.125 1140.62 62.125V66.125C1145 66.125 1147.92 67.2184 1149.76 69.0548C1151.59 70.8912 1152.69 73.8083 1152.69 78.1875H1156.69ZM1209.06 64.125V62.125H1207.06V64.125H1209.06ZM1209.06 106.312L1209.96 108.101L1211.06 107.549V106.312H1209.06ZM1190.31 115.688H1188.31V118.924L1191.21 117.476L1190.31 115.688ZM1190.31 64.125H1192.31V62.125H1190.31V64.125ZM1175.36 64.125L1173.63 65.1252L1174.2 66.125H1175.36V64.125ZM1164.53 45.375V43.375H1161.07L1162.8 46.3752L1164.53 45.375ZM1234.84 45.375L1236.58 46.3752L1238.31 43.375H1234.84V45.375ZM1224.02 64.125V66.125H1225.17L1225.75 65.1252L1224.02 64.125ZM1207.06 64.125V106.312H1211.06V64.125H1207.06ZM1208.17 104.524L1189.42 113.899L1191.21 117.476L1209.96 108.101L1208.17 104.524ZM1192.31 115.688V64.125H1188.31V115.688H1192.31ZM1190.31 62.125H1175.36V66.125H1190.31V62.125ZM1177.09 63.1248L1166.26 44.3748L1162.8 46.3752L1173.63 65.1252L1177.09 63.1248ZM1164.53 47.375H1234.84V43.375H1164.53V47.375ZM1233.11 44.3748L1222.28 63.1248L1225.75 65.1252L1236.58 46.3752L1233.11 44.3748ZM1224.02 62.125H1209.06V66.125H1224.02V62.125ZM1228.03 78.1875C1228.03 67.5583 1230.69 59.9537 1235.65 54.9923C1240.61 50.0309 1248.21 47.375 1258.84 47.375V43.375C1247.6 43.375 1238.8 46.1878 1232.82 52.1639C1226.84 58.14 1224.03 66.9417 1224.03 78.1875H1228.03ZM1258.84 47.375C1269.47 47.375 1277.08 50.0309 1282.04 54.9923C1287 59.9537 1289.66 67.5583 1289.66 78.1875H1293.66C1293.66 66.9417 1290.84 58.14 1284.87 52.1639C1278.89 46.1878 1270.09 43.375 1258.84 43.375V47.375ZM1289.66 78.1875C1289.66 88.8167 1287 96.4213 1282.04 101.383C1277.08 106.344 1269.47 109 1258.84 109V113C1270.09 113 1278.89 110.187 1284.87 104.211C1290.84 98.235 1293.66 89.4333 1293.66 78.1875H1289.66ZM1258.84 109C1248.21 109 1240.61 106.344 1235.65 101.383C1230.69 96.4213 1228.03 88.8167 1228.03 78.1875H1224.03C1224.03 89.4333 1226.84 98.235 1232.82 104.211C1238.8 110.187 1247.6 113 1258.84 113V109ZM1258.84 62.125C1253.85 62.125 1249.73 63.3753 1246.88 66.2264C1244.03 69.0775 1242.78 73.1917 1242.78 78.1875H1246.78C1246.78 73.8083 1247.87 70.8912 1249.71 69.0548C1251.55 67.2184 1254.46 66.125 1258.84 66.125V62.125ZM1242.78 78.1875C1242.78 83.1833 1244.03 87.2975 1246.88 90.1486C1249.73 92.9997 1253.85 94.25 1258.84 94.25V90.25C1254.46 90.25 1251.55 89.1566 1249.71 87.3202C1247.87 85.4838 1246.78 82.5667 1246.78 78.1875H1242.78ZM1258.84 94.25C1263.84 94.25 1267.95 92.9997 1270.8 90.1486C1273.66 87.2975 1274.91 83.1833 1274.91 78.1875H1270.91C1270.91 82.5667 1269.81 85.4838 1267.98 87.3202C1266.14 89.1566 1263.22 90.25 1258.84 90.25V94.25ZM1274.91 78.1875C1274.91 73.1917 1273.66 69.0775 1270.8 66.2264C1267.95 63.3753 1263.84 62.125 1258.84 62.125V66.125C1263.22 66.125 1266.14 67.2184 1267.98 69.0548C1269.81 70.8912 1270.91 73.8083 1270.91 78.1875H1274.91ZM1302.48 111L1300.75 112L1301.33 113H1302.48V111ZM1291.66 92.25V90.25H1288.19L1289.92 93.2502L1291.66 92.25ZM1361.97 45.375L1363.7 46.3752L1365.43 43.375H1361.97V45.375ZM1351.14 64.125V66.125H1352.3L1352.87 65.1252L1351.14 64.125ZM1304.22 110L1293.39 91.2498L1289.92 93.2502L1300.75 112L1304.22 110ZM1291.66 94.25H1336.19V90.25H1291.66V94.25ZM1336.19 94.25C1337.28 94.25 1338.46 93.9763 1339.36 93.0783C1340.26 92.1803 1340.53 90.9958 1340.53 89.9062H1336.53C1336.53 90.1362 1336.5 90.2559 1336.49 90.2992C1336.48 90.3327 1336.48 90.2989 1336.53 90.2498C1336.58 90.2008 1336.61 90.195 1336.58 90.2061C1336.54 90.2206 1336.42 90.25 1336.19 90.25V94.25ZM1340.53 89.9062C1340.53 88.8167 1340.26 87.6322 1339.36 86.7342C1338.46 85.8362 1337.28 85.5625 1336.19 85.5625V89.5625C1336.42 89.5625 1336.54 89.5919 1336.58 89.6064C1336.61 89.6175 1336.58 89.6117 1336.53 89.5627C1336.48 89.5136 1336.48 89.4798 1336.49 89.5133C1336.5 89.5566 1336.53 89.6763 1336.53 89.9062H1340.53ZM1336.19 85.5625H1317.44V89.5625H1336.19V85.5625ZM1317.44 85.5625C1310.71 85.5625 1306.04 83.8831 1303.03 80.8748C1300.02 77.8666 1298.34 73.1917 1298.34 66.4688H1294.34C1294.34 73.8083 1296.18 79.6803 1300.2 83.7033C1304.23 87.7263 1310.1 89.5625 1317.44 89.5625V85.5625ZM1298.34 66.4688C1298.34 59.7458 1300.02 55.0709 1303.03 52.0627C1306.04 49.0544 1310.71 47.375 1317.44 47.375V43.375C1310.1 43.375 1304.23 45.2112 1300.2 49.2342C1296.18 53.2572 1294.34 59.1292 1294.34 66.4688H1298.34ZM1317.44 47.375H1361.97V43.375H1317.44V47.375ZM1360.24 44.3748L1349.41 63.1248L1352.87 65.1252L1363.7 46.3752L1360.24 44.3748ZM1351.14 62.125H1317.44V66.125H1351.14V62.125ZM1317.44 62.125C1316.35 62.125 1315.16 62.3987 1314.27 63.2967C1313.37 64.1947 1313.09 65.3792 1313.09 66.4688H1317.09C1317.09 66.2388 1317.12 66.1191 1317.14 66.0758C1317.15 66.0423 1317.14 66.0761 1317.09 66.1252C1317.04 66.1742 1317.01 66.18 1317.04 66.1689C1317.09 66.1544 1317.21 66.125 1317.44 66.125V62.125ZM1313.09 66.4688C1313.09 67.5583 1313.37 68.7428 1314.27 69.6408C1315.16 70.5388 1316.35 70.8125 1317.44 70.8125V66.8125C1317.21 66.8125 1317.09 66.7831 1317.04 66.7686C1317.01 66.7575 1317.04 66.7633 1317.09 66.8123C1317.14 66.8614 1317.15 66.8952 1317.14 66.8617C1317.12 66.8184 1317.09 66.6987 1317.09 66.4688H1313.09ZM1317.44 70.8125H1336.19V66.8125H1317.44V70.8125ZM1336.19 70.8125C1342.91 70.8125 1347.59 72.4919 1350.59 75.5002C1353.6 78.5084 1355.28 83.1833 1355.28 89.9062H1359.28C1359.28 82.5667 1357.45 76.6947 1353.42 72.6717C1349.4 68.6487 1343.53 66.8125 1336.19 66.8125V70.8125ZM1355.28 89.9062C1355.28 96.6292 1353.6 101.304 1350.59 104.312C1347.59 107.321 1342.91 109 1336.19 109V113C1343.53 113 1349.4 111.164 1353.42 107.141C1357.45 103.118 1359.28 97.2458 1359.28 89.9062H1355.28ZM1336.19 109H1302.48V113H1336.19V109Z" fill="white"/>
<path d="M1371 81H1638" stroke="white" stroke-width="2"/>
<path d="M735.992 82.5254H1038.01" stroke="white" stroke-width="2"/>
<path d="M734.243 3.21003V147.79H0.764143L4.11574 3.30034L734.243 3.21003ZM735 3L3.35917 3.09031L0 148H735V3Z" fill="white"/>
<path d="M496.242 52.2066V101.793H240.758V52.2066H496.242ZM497 52H240V102H497V52Z" fill="white"/>
<path d="M240.881 102.276L496.239 102.159L735.455 149H1.22583L240.881 102.276Z" stroke="white" stroke-miterlimit="10"/>
<path d="M70.2739 135.42L665.068 135.34" stroke="white" stroke-miterlimit="10"/>
<path d="M117.852 126.161L617.724 126.05" stroke="white" stroke-miterlimit="10"/>
<path d="M152.361 119.448L583.434 119.322" stroke="white" stroke-miterlimit="10"/>
<path d="M178.538 114.354L557.462 114.226" stroke="white" stroke-miterlimit="10"/>
<path d="M199.077 110.359L537.105 110.231" stroke="white" stroke-miterlimit="10"/>
<path d="M215.62 107.141L520.713 107.015" stroke="white" stroke-miterlimit="10"/>
<path d="M229.227 104.494L507.242 104.373" stroke="white" stroke-miterlimit="10"/>
<path d="M463.978 102.173L642.327 149" stroke="white" stroke-miterlimit="10"/>
<path d="M432.011 102.188L550.136 149" stroke="white" stroke-miterlimit="10"/>
<path d="M400.061 102.203L458.105 149" stroke="white" stroke-miterlimit="10"/>
<path d="M368.132 102.218L366.248 149" stroke="white" stroke-miterlimit="10"/>
<path d="M336.227 102.232L274.557 149" stroke="white" stroke-miterlimit="10"/>
<path d="M304.336 102.247L183.026 149" stroke="white" stroke-miterlimit="10"/>
<path d="M272.469 102.262L91.6678 149" stroke="white" stroke-miterlimit="10"/>
<path d="M496.669 98.1648L496.878 47.8524L733.784 4.70524L736 149L496.669 98.1648Z" stroke="white" stroke-miterlimit="10"/>
<path d="M666.269 134.311L665.136 17.3281" stroke="white" stroke-miterlimit="10"/>
<path d="M618.811 124.212L618.249 25.8486" stroke="white" stroke-miterlimit="10"/>
<path d="M584.436 116.897L584.182 32.0388" stroke="white" stroke-miterlimit="10"/>
<path d="M558.384 111.352L558.319 36.7388" stroke="white" stroke-miterlimit="10"/>
<path d="M537.956 107.006L538.011 40.4294" stroke="white" stroke-miterlimit="10"/>
<path d="M521.507 103.506L521.641 43.406" stroke="white" stroke-miterlimit="10"/>
<path d="M507.984 100.628L508.164 45.8535" stroke="white" stroke-miterlimit="10"/>
<path d="M496.853 54.1705L734.061 22.7041" stroke="white" stroke-miterlimit="10"/>
<path d="M496.829 60.444L734.331 40.6086" stroke="white" stroke-miterlimit="10"/>
<path d="M496.798 66.7237L734.609 58.5656" stroke="white" stroke-miterlimit="10"/>
<path d="M496.773 73.0089L734.885 76.5749" stroke="white" stroke-miterlimit="10"/>
<path d="M496.749 79.302L735.161 94.6387" stroke="white" stroke-miterlimit="10"/>
<path d="M496.717 85.6008L735.443 112.755" stroke="white" stroke-miterlimit="10"/>
<path d="M496.693 91.9058L735.725 130.926" stroke="white" stroke-miterlimit="10"/>
<path d="M241.062 102.417L240.328 51.6519L4.74482 4.28125L1.40747 148.832L241.062 102.417Z" stroke="white" stroke-miterlimit="10"/>
<path d="M71.0759 135.462L72.5138 18.0269" stroke="white" stroke-miterlimit="10"/>
<path d="M118.563 126.245L119.033 27.3638" stroke="white" stroke-miterlimit="10"/>
<path d="M153.005 119.561L152.951 34.1694" stroke="white" stroke-miterlimit="10"/>
<path d="M179.121 114.491L178.765 39.3491" stroke="white" stroke-miterlimit="10"/>
<path d="M199.614 110.514L199.084 43.4263" stroke="white" stroke-miterlimit="10"/>
<path d="M216.119 107.311L215.484 46.7178" stroke="white" stroke-miterlimit="10"/>
<path d="M229.696 104.675L229 49.4297" stroke="white" stroke-miterlimit="10"/>
<path d="M240.419 58.006L4.33618 22.1377" stroke="white" stroke-miterlimit="10"/>
<path d="M240.51 64.32L3.91992 39.95" stroke="white" stroke-miterlimit="10"/>
<path d="M240.601 70.6447L3.51135 57.8652" stroke="white" stroke-miterlimit="10"/>
<path d="M240.699 76.984L3.09497 75.8792" stroke="white" stroke-miterlimit="10"/>
<path d="M240.79 83.3359L2.67126 94.0002" stroke="white" stroke-miterlimit="10"/>
<path d="M240.881 89.7004L2.25513 112.222" stroke="white" stroke-miterlimit="10"/>
<path d="M240.972 96.0798L1.8313 130.551" stroke="white" stroke-miterlimit="10"/>
<path d="M240.449 51.6814L496.769 51.6226L732.632 4.15527L5.52429 4.32752L240.449 51.6814Z" stroke="white" stroke-miterlimit="10"/>
<path d="M72.6577 17.9829L663.993 17.8442" stroke="white" stroke-miterlimit="10"/>
<path d="M119.184 27.3427L617.482 27.2251" stroke="white" stroke-miterlimit="10"/>
<path d="M153.057 34.1567L583.609 34.0559" stroke="white" stroke-miterlimit="10"/>
<path d="M178.825 39.3387L557.848 39.2505" stroke="white" stroke-miterlimit="10"/>
<path d="M199.084 43.4137L537.589 43.3359" stroke="white" stroke-miterlimit="10"/>
<path d="M215.431 46.7033L521.25 46.6318" stroke="white" stroke-miterlimit="10"/>
<path d="M228.901 49.4108L507.787 49.3457" stroke="white" stroke-miterlimit="10"/>
<path d="M464.462 51.6289L640.98 4.17627" stroke="white" stroke-miterlimit="10"/>
<path d="M432.42 51.6373L550.091 4.19946" stroke="white" stroke-miterlimit="10"/>
<path d="M400.378 51.6436L459.202 4.22046" stroke="white" stroke-miterlimit="10"/>
<path d="M368.345 51.652L368.314 4.24146" stroke="white" stroke-miterlimit="10"/>
<path d="M336.303 51.6583L277.426 4.26245" stroke="white" stroke-miterlimit="10"/>
<path d="M304.261 51.6667L186.537 4.28345" stroke="white" stroke-miterlimit="10"/>
<path d="M272.226 51.675L95.656 4.3064" stroke="white" stroke-miterlimit="10"/>
</svg>
