<?xml version="1.0" encoding="UTF-8"?>
<svg id="Layer_3" data-name="Layer 3" xmlns="http://www.w3.org/2000/svg" xmlns:xlink="http://www.w3.org/1999/xlink" viewBox="0 0 512.49 619.99">
  <defs>
    <style>
      .cls-1 {
        clip-path: url(#clippath-20);
      }

      .cls-2 {
        clip-path: url(#clippath-11);
      }

      .cls-3 {
        clip-path: url(#clippath-16);
      }

      .cls-4 {
        clip-path: url(#clippath-32);
      }

      .cls-5, .cls-6 {
        fill: none;
        stroke: #fff;
        stroke-miterlimit: 10;
      }

      .cls-7 {
        clip-path: url(#clippath-2);
      }

      .cls-8 {
        clip-path: url(#clippath-13);
      }

      .cls-9 {
        isolation: isolate;
      }

      .cls-10 {
        clip-path: url(#clippath-25);
      }

      .cls-11 {
        clip-path: url(#clippath-15);
      }

      .cls-12 {
        clip-path: url(#clippath-6);
      }

      .cls-13 {
        clip-path: url(#clippath-26);
      }

      .cls-14 {
        clip-path: url(#clippath-7);
      }

      .cls-15 {
        clip-path: url(#clippath-21);
      }

      .cls-16 {
        clip-path: url(#clippath-1);
      }

      .cls-17 {
        clip-path: url(#clippath-4);
      }

      .cls-18 {
        clip-path: url(#clippath-27);
      }

      .cls-19 {
        clip-path: url(#clippath-12);
      }

      .cls-20 {
        clip-path: url(#clippath-24);
      }

      .cls-21 {
        clip-path: url(#clippath-30);
      }

      .cls-22 {
        clip-path: url(#clippath-22);
      }

      .cls-23 {
        clip-path: url(#clippath-9);
      }

      .cls-24 {
        clip-path: url(#clippath);
      }

      .cls-25 {
        clip-path: url(#clippath-19);
      }

      .cls-26 {
        clip-path: url(#clippath-31);
      }

      .cls-27 {
        clip-path: url(#clippath-3);
      }

      .cls-28 {
        clip-path: url(#clippath-8);
      }

      .cls-29 {
        clip-path: url(#clippath-29);
      }

      .cls-30 {
        clip-path: url(#clippath-18);
      }

      .cls-31 {
        clip-path: url(#clippath-14);
      }

      .cls-32 {
        clip-path: url(#clippath-17);
      }

      .cls-33 {
        clip-path: url(#clippath-5);
      }

      .cls-6 {
        stroke-width: .25px;
      }

      .cls-34 {
        clip-path: url(#clippath-10);
      }

      .cls-35 {
        clip-path: url(#clippath-23);
      }

      .cls-36 {
        clip-path: url(#clippath-28);
      }
    </style>
    <clipPath id="clippath">
      <path class="cls-5" d="m109.07,243.78c3.79.18,8.86-.05,12.64-.34,3.11-.24,7.24-.77,10.29-1.42,3.52-.75,8.21-1.9,11.59-3.12,5.98-2.16,8.56-3.91,9.41-4.48-.83.64-2,1.83-2.01,1.84-1.3,1.39-2.98,3.3-4.16,4.79-1.74,2.19-2.55,3.47-5.22,7.7-.87,1.38-1.89,3.3-2.63,4.75s-1.7,3.55-2.42,5.08-1.54,3.77-2.19,5.4-1.42,3.88-1.88,5.59c-.86,3.18-1.96,7.43-2.52,10.68-.65,3.8-.79,6.25-.92,8.61-.01.25-.13,2.49.15,5.26-.37-1.45-.78-2.64-.78-2.66-.4-1.12-.95-2.61-1.46-3.68-.59-1.22-1.33-2.88-1.99-4.07-1.11-1.99-2.61-4.66-3.92-6.52-2.42-3.46-5.88-7.92-8.68-11.08-2.52-2.84-6.27-6.27-9.03-8.88-3.5-3.3-8.61-7.25-12.72-9.74-7.02-4.26-16.79-9.26-24.26-12.68.82,1.64,3.98,1.57,5.73,2.12,3.71,1.17,8.67,2.71,12.45,3.6,7.23,1.71,17.13,2.93,24.55,3.27Z"/>
    </clipPath>
    <clipPath id="clippath-1">
      <path class="cls-5" d="m66.35,234.79c7.34,2.5,17.27,5.51,24.85,7.11,5.28,1.11,12.48,1.9,17.87,1.88,5.04-.02,11.77-.29,16.79-.78,3.07-.3,7.09-1.2,10.1-1.84,1.74-.37,4.02-1.05,5.71-1.61s3.97-1.46,5.66-2.12c.03-.01,3.86-1.67,5.67-3.01-.21.17-.49.39-.68.57-.38.34-.89.8-1.24,1.17-1.29,1.38-2.96,3.26-4.14,4.73-1.85,2.32-2.78,3.8-5.28,7.76-.88,1.4-1.92,3.35-2.67,4.82s-1.7,3.55-2.43,5.08-1.55,3.79-2.2,5.42-1.4,3.85-1.86,5.54c-.86,3.18-1.97,7.43-2.52,10.68-.66,3.86-.8,6.34-.92,8.53,0,.03-.14,2.62.14,5.39-.34-1.27-.63-2.18-.63-2.19-.31-.92-.74-2.16-1.15-3.05-.54-1.18-1.22-2.78-1.82-3.94-.91-1.73-2.13-4.05-3.22-5.68-2.28-3.41-5.5-7.84-8.12-11-2.17-2.62-5.35-5.87-7.82-8.21-2.89-2.73-6.96-6.15-10.13-8.54s-7.69-5.3-11.08-7.43c-5.34-3.36-13.07-6.8-18.87-9.28,104.71,41.48,127.61,203.53,51.04,361.25C31.24,548.52-16.26,434.13,5.94,302.53,34.76,131.65,170.2-3.53,308.44.59c14.82.44,29.06,2.47,42.66,5.94-52.3,167.33-180.04,269.72-284.76,228.26Z"/>
    </clipPath>
    <clipPath id="clippath-2">
      <path class="cls-5" d="m66.35,234.79c104.72,41.46,232.46-60.93,284.76-228.26,113.25,28.93,181.19,158.36,155.46,310.93-138.02-4.11-335.49-41.2-440.21-82.67Z"/>
    </clipPath>
    <clipPath id="clippath-3">
      <path class="cls-5" d="m117.39,596.04c76.57-157.72,53.67-319.77-51.04-361.25,104.72,41.47,302.19,78.55,440.21,82.67-28.83,170.88-164.26,306.06-302.51,301.94-31.78-.95-60.94-9.18-86.66-23.36Z"/>
    </clipPath>
    <clipPath id="clippath-4">
      <path class="cls-5" d="m66.35,234.79c3.54,1.37,10.14,3.92,19.69,6.07,6.56,1.48,13.21,2.42,19.77,2.81-13.3-.78-26.57-3.77-39.46-8.88Z"/>
    </clipPath>
    <clipPath id="clippath-5">
      <path class="cls-5" d="m105.81,243.67c.41.02.79.11,1.15.24-14.06-.94-27.72-4.02-40.61-9.12,6.38,2.52,13.02,4.57,19.73,6.08,9.56,2.15,17.21,2.64,19.73,2.8Z"/>
    </clipPath>
    <clipPath id="clippath-6">
      <path class="cls-5" d="m106.95,243.91c2.06.78,3.25,3.28,2.75,6.19-15.89-5.06-30.47-10.21-43.36-15.31,12.89,5.1,26.54,8.18,40.61,9.12Z"/>
    </clipPath>
    <clipPath id="clippath-7">
      <path class="cls-5" d="m66.35,234.79c12.89,5.1,26.16,8.1,39.46,8.88-.04,0-.08,0-.12,0-.45-.01-.9.05-1.35.17-2.29.65-4.31,3.05-4.8,5.96-.29,1.7,0,3.26.69,4.41.26.44.58.82.96,1.13-10.23-8.54-21.95-15.45-34.84-20.55Z"/>
    </clipPath>
    <clipPath id="clippath-8">
      <path class="cls-5" d="m66.35,234.79c12.89,5.1,24.94,12.21,35.84,21.15-.36-.15-.69-.35-.99-.6-5.05-4.21-10.54-8.08-16.34-11.5-8.43-4.97-14.98-7.63-18.51-9.05Z"/>
    </clipPath>
    <clipPath id="clippath-9">
      <path class="cls-5" d="m101.19,255.34c-2.41-1.98-8.05-6.61-16.29-11.47-5.93-3.5-12.17-6.55-18.55-9.08,12.89,5.1,24.61,12.01,34.84,20.55Z"/>
    </clipPath>
    <clipPath id="clippath-10">
      <path class="cls-5" d="m66.35,234.79c12.89,5.1,27.47,10.25,43.36,15.31-.59,3.47-3.34,6.22-6.15,6.13-.49-.01-.96-.12-1.38-.29-10.89-8.94-22.95-16.05-35.84-21.15Z"/>
    </clipPath>
    <clipPath id="clippath-11">
      <path class="cls-5" d="m105.81,243.67c2.35.12,5.02.26,8.93.19,4.27-.08,7.3-.38,8.77-.52,3.7-.36,9.41-1.16,15.66-2.92-11.1,3.15-22.82,4.3-34.83,3.42.44-.12.89-.19,1.35-.17.04,0,.08,0,.12,0Z"/>
    </clipPath>
    <clipPath id="clippath-12">
      <path class="cls-5" d="m109.27,243.82c2.82.09,5.94.04,7.35-.02,2.66-.11,4.84-.23,8.65-.66,6.76-.77,11.95-2.19,13.9-2.73,1.71-.48,3.45-.72,5.21-.66.16,0,.32.01.48.02-12.95,3.36-26.09,4.67-39.04,3.89,1.04.05,2.42.12,3.46.16Z"/>
    </clipPath>
    <clipPath id="clippath-13">
      <path class="cls-5" d="m144.85,239.77c10.59.63,17.32,11.65,15.09,24.88-17.86-4.73-34.76-9.63-50.23-14.55.49-2.91-.7-5.41-2.75-6.19-.36-.14-.74-.22-1.15-.24,12.96.78,26.09-.54,39.04-3.89Z"/>
    </clipPath>
    <clipPath id="clippath-14">
      <path class="cls-5" d="m104.34,243.83c12.01.88,23.73-.27,34.83-3.42-2.79.79-5.47,2.25-7.89,4.22-5.3,4.32-9.37,11.11-10.67,18.84-.51,3-.55,5.89-.2,8.56.42,3.19,1.42,6.08,2.88,8.51-5.94-9.9-13.69-18.76-23.05-26.34-.7-1.16-.98-2.72-.69-4.41.49-2.91,2.51-5.31,4.8-5.96Z"/>
    </clipPath>
    <clipPath id="clippath-15">
      <path class="cls-5" d="m101.19,255.34c9.97,8.31,18.65,18.26,25.79,29.58-1.44-1.2-2.68-2.67-3.7-4.36-3.62-6.02-7.67-10.86-9.25-12.66-1.09-1.24-3.12-3.56-6.01-6.39-2.95-2.88-5.1-4.71-6.83-6.17Z"/>
    </clipPath>
    <clipPath id="clippath-16">
      <path class="cls-5" d="m123.28,280.56c-2.1-3.43-8.5-13.89-22.1-25.22-.37-.31-.69-.69-.96-1.13,9.36,7.58,17.11,16.44,23.05,26.34Z"/>
    </clipPath>
    <clipPath id="clippath-17">
      <path class="cls-5" d="m101.19,255.34c.3.25.63.45.99.6.42.18.89.28,1.38.29,2.81.08,5.56-2.66,6.15-6.13,15.47,4.93,32.38,9.82,50.23,14.55-2.27,13.43-12.91,24.05-23.77,23.73-3.54-.11-6.66-1.36-9.19-3.46-7.14-11.32-15.82-21.27-25.79-29.58Z"/>
    </clipPath>
    <clipPath id="clippath-18">
      <path class="cls-5" d="m139.16,240.42c1.81-.53,4.56-1.33,8.01-2.8,2.65-1.12,5.01-2.43,5.98-3.13-.06.04-.12.09-.17.14-6.02,4.91-13.32,8.28-21.7,10.02,2.42-1.98,5.1-3.43,7.89-4.22Z"/>
    </clipPath>
    <clipPath id="clippath-19">
      <path class="cls-5" d="m152.97,234.62c5.27-4.3,11.09-7.47,17.15-9.18-9.64,6.86-20.06,11.89-30.96,14.98,9.14-2.59,13.51-5.6,13.98-5.93-.06.04-.12.09-.17.14Z"/>
    </clipPath>
    <clipPath id="clippath-20">
      <path class="cls-5" d="m170.12,225.44c3.71-1.05,7.51-1.56,11.31-1.44,23.61.7,38.76,24.93,33.84,54.12-19.2-4.29-37.81-8.82-55.34-13.46,2.23-13.23-4.5-24.25-15.09-24.88-.16,0-.32-.02-.48-.02-1.75-.05-3.5.18-5.21.66,10.9-3.09,21.32-8.12,30.96-14.98Z"/>
    </clipPath>
    <clipPath id="clippath-21">
      <path class="cls-5" d="m131.27,244.64c8.38-1.74,15.69-5.11,21.7-10.02-11.51,9.38-20.37,24.16-23.2,40.94-1.1,6.52-1.2,12.79-.42,18.61-1.02-7.69-4.03-15.13-8.95-22.13-.36-2.68-.31-5.56.2-8.56,1.3-7.72,5.38-14.52,10.67-18.84Z"/>
    </clipPath>
    <clipPath id="clippath-22">
      <path class="cls-5" d="m123.28,280.56c5.84,9.72,9.98,20.52,12.33,32.12-3.18-5.29-5.34-11.58-6.26-18.5,0,.07.02.13.03.2-.21-1.13-.99-3.6-2.19-6.33-1.5-3.41-2.95-5.86-3.9-7.48Z"/>
    </clipPath>
    <clipPath id="clippath-23">
      <path class="cls-5" d="m129.35,294.17c0,.07.02.13.03.2-.11-.56-1.23-5.71-6.1-13.82-1.46-2.43-2.46-5.33-2.88-8.51,4.92,7,7.93,14.44,8.95,22.13Z"/>
    </clipPath>
    <clipPath id="clippath-24">
      <path class="cls-5" d="m159.94,264.65c17.53,4.64,36.14,9.17,55.34,13.46-4.92,29.18-28.05,52.27-51.66,51.57-12.05-.36-21.9-6.85-28-17.01-2.34-11.6-6.49-22.41-12.33-32.12,1.02,1.69,2.26,3.17,3.7,4.36,2.53,2.1,5.65,3.36,9.19,3.46"/>
    </clipPath>
    <clipPath id="clippath-25">
      <path class="cls-5" d="m152.97,234.62c-4.34,3.66-8.38,9.71-9.15,10.88-1.07,1.64-2.47,3.84-3.38,5.57-.73,1.39-1.73,3.22-2.4,4.64-.79,1.65-1.8,3.87-2.47,5.56-1.24,3.12-2.66,7.37-3.59,10.59-.81,2.8-1.27,5.26-1.86,8.38,0,.03-.66,3.71-.87,7.42-.19,3.36-.05,5.39.1,6.51-.77-5.82-.68-12.09.42-18.61,2.83-16.79,11.69-31.56,23.2-40.94Z"/>
    </clipPath>
    <clipPath id="clippath-26">
      <path class="cls-5" d="m130.12,280.28c-.15.83-1.43,8.28-.76,13.89,1.01,7.61.09,15.52-2.76,23.52-1.33-9.98-1.16-20.73.73-31.91,4.86-28.79,20.05-54.12,39.78-70.22-3.41,7.79-8.17,14.19-14.13,19.05-2.72,2.23-6.06,6.45-7.26,8.15-1.07,1.52-2.49,3.55-3.43,5.15q-2.22,3.77-4.54,8.41c-1.21,2.41-3.36,7.77-4.27,10.61-1.2,3.76-2.23,7.01-3.36,13.34Z"/>
    </clipPath>
    <clipPath id="clippath-27">
      <path class="cls-5" d="m167.1,215.57c14.57-11.88,31.62-18.73,48.82-18.22,40.49,1.21,66.47,42.76,58.03,92.81-19.93-3.74-39.66-7.79-58.67-12.04,4.92-29.18-10.23-53.41-33.84-54.12-3.81-.11-7.61.39-11.31,1.44-6.06,1.72-11.88,4.88-17.15,9.18,5.96-4.86,10.72-11.27,14.13-19.05Z"/>
    </clipPath>
    <clipPath id="clippath-28">
      <path class="cls-5" d="m129.35,294.17c.92,6.93,3.08,13.21,6.26,18.5,6.1,10.15,15.95,16.65,28,17.01,23.61.7,46.74-22.38,51.66-51.57,19.01,4.25,38.74,8.3,58.67,12.04-8.44,50.05-48.11,89.64-88.6,88.44-31.45-.94-54.14-26.21-58.75-60.9,2.85-8,3.77-15.91,2.76-23.52Z"/>
    </clipPath>
    <clipPath id="clippath-29">
      <path class="cls-5" d="m273.95,290.16c8.44-50.05-17.54-91.6-58.03-92.81-17.2-.51-34.25,6.33-48.82,18.22-19.74,16.09-34.93,41.43-39.78,70.22-1.89,11.18-2.05,21.93-.73,31.91,4.61,34.69,27.31,59.96,58.75,60.9,40.49,1.21,80.16-38.39,88.6-88.44,19.92,3.74,40.19,7.2,60.23,10.29-12.71,75.34-72.42,134.93-133.37,133.12s-100.05-64.36-87.34-139.7c12.71-75.34,72.42-134.93,133.37-133.12s100.05,64.36,87.34,139.7c-20.04-3.09-40.31-6.55-60.23-10.29Z"/>
    </clipPath>
    <clipPath id="clippath-30">
      <path class="cls-5" d="m334.17,300.44c12.71-75.34-26.4-137.88-87.34-139.7s-120.66,57.78-133.37,133.12c-12.71,75.34,26.4,137.88,87.34,139.7s120.66-57.78,133.37-133.12c20.24,3.11,40.44,5.87,60.03,8.2-17.61,104.37-100.33,186.93-184.76,184.41-84.43-2.52-138.61-89.16-121-193.53,17.61-104.37,100.33-186.93,184.76-184.41,84.43,2.52,138.61,89.16,121,193.53-19.59-2.33-39.79-5.09-60.03-8.2Z"/>
    </clipPath>
    <clipPath id="clippath-31">
      <path class="cls-5" d="m394.21,308.65c17.61-104.37-36.57-191.01-121-193.53-84.43-2.52-167.15,80.05-184.76,184.41-17.61,104.37,36.57,191.01,121,193.53,84.43,2.52,167.15-80.05,184.76-184.41,19.95,2.37,39.49,4.32,58.05,5.78-23.02,136.44-131.16,244.38-241.54,241.09S29.51,438.95,52.53,302.51C75.55,166.07,183.69,58.13,294.07,61.42s181.21,116.57,158.19,253.01c-18.57-1.47-38.1-3.41-58.05-5.78Z"/>
    </clipPath>
    <clipPath id="clippath-32">
      <path class="cls-5" d="m452.26,314.43c23.02-136.44-47.81-249.72-158.19-253.01S75.55,166.07,52.53,302.51c-23.02,136.44,47.81,249.72,158.19,253.01s218.53-104.65,241.54-241.09c19.05,1.51,37.32,2.53,54.3,3.03-28.83,170.88-164.26,306.06-302.51,301.94S-22.89,473.41,5.94,302.53,170.2-3.53,308.44.59c138.24,4.12,226.94,145.99,198.11,316.87-16.98-.5-35.25-1.52-54.3-3.03Z"/>
    </clipPath>
  </defs>
  <g class="cls-9">
    <g class="cls-9">
      <g class="cls-24">
        <g class="cls-9">
          <g>
            <path class="cls-6" d="m506.56,317.46c-138.02-4.11-335.49-41.2-440.21-82.67,104.72,41.46,213.32-63.6,242.1-234.2,138.24,4.12,226.94,145.99,198.11,316.87Z"/>
            <path class="cls-6" d="m196.35,273.74c3.94-23.37-8.19-42.77-27.09-43.33"/>
          </g>
          <g>
            <path class="cls-6" d="m308.44.59c-28.78,170.6-137.38,275.66-242.1,234.2,104.71,41.47,77.61,71.86-60.41,67.74C34.76,131.65,170.2-3.53,308.44.59Z"/>
            <path class="cls-6" d="m169.26,230.41c-18.9-.56-37.42,17.92-41.37,41.29"/>
            <path class="cls-6" d="m174.98,39.07c44.81,149.39-3.92,237.18-108.63,195.72"/>
            <path class="cls-6" d="m66.46,147.39c104.65,89.66,104.6,128.87-.11,87.4"/>
          </g>
          <g>
            <path class="cls-6" d="m5.94,302.53c138.02,4.11,165.12-26.27,60.41-67.74,104.71,41.48,166.49,214.01,137.71,384.61C65.81,615.28-22.89,473.41,5.94,302.53Z"/>
            <path class="cls-6" d="m127.89,271.7c-3.94,23.37,8.19,42.77,27.09,43.33"/>
            <path class="cls-6" d="m13.77,459.71c133.7-82.55,157.29-183.45,52.58-224.92"/>
            <path class="cls-6" d="m84.84,573.39c94.51-145.23,86.21-297.12-18.49-338.6"/>
          </g>
        </g>
        <path class="cls-6" d="m109.07,243.78c3.79.18,8.86-.05,12.64-.34,3.11-.24,7.24-.77,10.29-1.42,3.52-.75,8.21-1.9,11.59-3.12,5.98-2.16,8.56-3.91,9.41-4.48-.83.64-2,1.83-2.01,1.84-1.3,1.39-2.98,3.3-4.16,4.79-1.74,2.19-2.55,3.47-5.22,7.7-.87,1.38-1.89,3.3-2.63,4.75s-1.7,3.55-2.42,5.08-1.54,3.77-2.19,5.4-1.42,3.88-1.88,5.59c-.86,3.18-1.96,7.43-2.52,10.68-.65,3.8-.79,6.25-.92,8.61-.01.25-.13,2.49.15,5.26-.37-1.45-.78-2.64-.78-2.66-.4-1.12-.95-2.61-1.46-3.68-.59-1.22-1.33-2.88-1.99-4.07-1.11-1.99-2.61-4.66-3.92-6.52-2.42-3.46-5.88-7.92-8.68-11.08-2.52-2.84-6.27-6.27-9.03-8.88-3.5-3.3-8.61-7.25-12.72-9.74-7.02-4.26-16.79-9.26-24.26-12.68.82,1.64,3.98,1.57,5.73,2.12,3.71,1.17,8.67,2.71,12.45,3.6,7.23,1.71,17.13,2.93,24.55,3.27Z"/>
      </g>
      <path class="cls-5" d="m109.07,243.78c3.79.18,8.86-.05,12.64-.34,3.11-.24,7.24-.77,10.29-1.42,3.52-.75,8.21-1.9,11.59-3.12,5.98-2.16,8.56-3.91,9.41-4.48-.83.64-2,1.83-2.01,1.84-1.3,1.39-2.98,3.3-4.16,4.79-1.74,2.19-2.55,3.47-5.22,7.7-.87,1.38-1.89,3.3-2.63,4.75s-1.7,3.55-2.42,5.08-1.54,3.77-2.19,5.4-1.42,3.88-1.88,5.59c-.86,3.18-1.96,7.43-2.52,10.68-.65,3.8-.79,6.25-.92,8.61-.01.25-.13,2.49.15,5.26-.37-1.45-.78-2.64-.78-2.66-.4-1.12-.95-2.61-1.46-3.68-.59-1.22-1.33-2.88-1.99-4.07-1.11-1.99-2.61-4.66-3.92-6.52-2.42-3.46-5.88-7.92-8.68-11.08-2.52-2.84-6.27-6.27-9.03-8.88-3.5-3.3-8.61-7.25-12.72-9.74-7.02-4.26-16.79-9.26-24.26-12.68.82,1.64,3.98,1.57,5.73,2.12,3.71,1.17,8.67,2.71,12.45,3.6,7.23,1.71,17.13,2.93,24.55,3.27Z"/>
    </g>
    <g class="cls-9">
      <g class="cls-16">
        <g class="cls-9">
          <g>
            <path class="cls-6" d="m506.56,317.46c-138.02-4.11-335.49-41.2-440.21-82.67,104.72,41.46,213.32-63.6,242.1-234.2,138.24,4.12,226.94,145.99,198.11,316.87Z"/>
            <path class="cls-6" d="m354.36,303.41c14.29-84.7-29.68-155.02-98.2-157.07"/>
            <path class="cls-6" d="m196.35,273.74c3.94-23.37-8.19-42.77-27.09-43.33"/>
          </g>
          <g>
            <path class="cls-6" d="m308.44.59c-28.78,170.6-137.38,275.66-242.1,234.2,104.71,41.47,77.61,71.86-60.41,67.74C34.76,131.65,170.2-3.53,308.44.59Z"/>
            <path class="cls-6" d="m256.16,146.35c-68.53-2.04-135.66,64.97-149.95,149.67"/>
            <path class="cls-6" d="m169.26,230.41c-18.9-.56-37.42,17.92-41.37,41.29"/>
            <path class="cls-6" d="m174.98,39.07c44.81,149.39-3.92,237.18-108.63,195.72"/>
            <path class="cls-6" d="m66.46,147.39c104.65,89.66,104.6,128.87-.11,87.4"/>
          </g>
          <g>
            <path class="cls-6" d="m5.94,302.53c138.02,4.11,165.12-26.27,60.41-67.74,104.71,41.48,166.49,214.01,137.71,384.61C65.81,615.28-22.89,473.41,5.94,302.53Z"/>
            <path class="cls-6" d="m106.21,296.01c-14.29,84.7,29.68,155.02,98.2,157.07"/>
            <path class="cls-6" d="m127.89,271.7c-3.94,23.37,8.19,42.77,27.09,43.33"/>
            <path class="cls-6" d="m13.77,459.71c133.7-82.55,157.29-183.45,52.58-224.92"/>
            <path class="cls-6" d="m84.84,573.39c94.51-145.23,86.21-297.12-18.49-338.6"/>
          </g>
        </g>
        <path class="cls-6" d="m66.35,234.79c7.34,2.5,17.27,5.51,24.85,7.11,5.28,1.11,12.48,1.9,17.87,1.88,5.04-.02,11.77-.29,16.79-.78,3.07-.3,7.09-1.2,10.1-1.84,1.74-.37,4.02-1.05,5.71-1.61s3.97-1.46,5.66-2.12c.03-.01,3.86-1.67,5.67-3.01-.21.17-.49.39-.68.57-.38.34-.89.8-1.24,1.17-1.29,1.38-2.96,3.26-4.14,4.73-1.85,2.32-2.78,3.8-5.28,7.76-.88,1.4-1.92,3.35-2.67,4.82s-1.7,3.55-2.43,5.08-1.55,3.79-2.2,5.42-1.4,3.85-1.86,5.54c-.86,3.18-1.97,7.43-2.52,10.68-.66,3.86-.8,6.34-.92,8.53,0,.03-.14,2.62.14,5.39-.34-1.27-.63-2.18-.63-2.19-.31-.92-.74-2.16-1.15-3.05-.54-1.18-1.22-2.78-1.82-3.94-.91-1.73-2.13-4.05-3.22-5.68-2.28-3.41-5.5-7.84-8.12-11-2.17-2.62-5.35-5.87-7.82-8.21-2.89-2.73-6.96-6.15-10.13-8.54s-7.69-5.3-11.08-7.43c-5.34-3.36-13.07-6.8-18.87-9.28,104.71,41.48,127.61,203.53,51.04,361.25C31.24,548.52-16.26,434.13,5.94,302.53,34.76,131.65,170.2-3.53,308.44.59c14.82.44,29.06,2.47,42.66,5.94-52.3,167.33-180.04,269.72-284.76,228.26Z"/>
      </g>
      <path class="cls-5" d="m66.35,234.79c7.34,2.5,17.27,5.51,24.85,7.11,5.28,1.11,12.48,1.9,17.87,1.88,5.04-.02,11.77-.29,16.79-.78,3.07-.3,7.09-1.2,10.1-1.84,1.74-.37,4.02-1.05,5.71-1.61s3.97-1.46,5.66-2.12c.03-.01,3.86-1.67,5.67-3.01-.21.17-.49.39-.68.57-.38.34-.89.8-1.24,1.17-1.29,1.38-2.96,3.26-4.14,4.73-1.85,2.32-2.78,3.8-5.28,7.76-.88,1.4-1.92,3.35-2.67,4.82s-1.7,3.55-2.43,5.08-1.55,3.79-2.2,5.42-1.4,3.85-1.86,5.54c-.86,3.18-1.97,7.43-2.52,10.68-.66,3.86-.8,6.34-.92,8.53,0,.03-.14,2.62.14,5.39-.34-1.27-.63-2.18-.63-2.19-.31-.92-.74-2.16-1.15-3.05-.54-1.18-1.22-2.78-1.82-3.94-.91-1.73-2.13-4.05-3.22-5.68-2.28-3.41-5.5-7.84-8.12-11-2.17-2.62-5.35-5.87-7.82-8.21-2.89-2.73-6.96-6.15-10.13-8.54s-7.69-5.3-11.08-7.43c-5.34-3.36-13.07-6.8-18.87-9.28,104.71,41.48,127.61,203.53,51.04,361.25C31.24,548.52-16.26,434.13,5.94,302.53,34.76,131.65,170.2-3.53,308.44.59c14.82.44,29.06,2.47,42.66,5.94-52.3,167.33-180.04,269.72-284.76,228.26Z"/>
    </g>
    <g class="cls-9">
      <g class="cls-7">
        <g class="cls-9">
          <path class="cls-6" d="m506.56,317.46c-138.02-4.11-335.49-41.2-440.21-82.67,104.72,41.46,213.32-63.6,242.1-234.2,138.24,4.12,226.94,145.99,198.11,316.87Z"/>
          <path class="cls-6" d="m354.36,303.41c14.29-84.7-29.68-155.02-98.2-157.07"/>
          <path class="cls-6" d="m196.35,273.74c3.94-23.37-8.19-42.77-27.09-43.33"/>
          <path class="cls-6" d="m498.73,160.28c-133.7,82.55-327.66,115.98-432.38,74.51"/>
          <path class="cls-6" d="m427.65,46.6c-94.51,145.23-256.59,229.65-361.31,188.19"/>
        </g>
        <path class="cls-6" d="m66.35,234.79c104.72,41.46,232.46-60.93,284.76-228.26,113.25,28.93,181.19,158.36,155.46,310.93-138.02-4.11-335.49-41.2-440.21-82.67Z"/>
      </g>
      <path class="cls-5" d="m66.35,234.79c104.72,41.46,232.46-60.93,284.76-228.26,113.25,28.93,181.19,158.36,155.46,310.93-138.02-4.11-335.49-41.2-440.21-82.67Z"/>
    </g>
    <g class="cls-9">
      <g class="cls-27">
        <g class="cls-9">
          <g>
            <path class="cls-6" d="m5.94,302.53c138.02,4.11,165.12-26.27,60.41-67.74,104.71,41.48,166.49,214.01,137.71,384.61C65.81,615.28-22.89,473.41,5.94,302.53Z"/>
            <path class="cls-6" d="m106.21,296.01c-14.29,84.7,29.68,155.02,98.2,157.07"/>
            <path class="cls-6" d="m127.89,271.7c-3.94,23.37,8.19,42.77,27.09,43.33"/>
          </g>
          <g>
            <path class="cls-6" d="m204.05,619.4c28.78-170.6-32.99-343.13-137.71-384.61,104.72,41.47,302.19,78.55,440.21,82.67-28.83,170.88-164.26,306.06-302.51,301.94Z"/>
            <path class="cls-6" d="m204.41,453.08c68.53,2.04,135.66-64.97,149.95-149.67"/>
            <path class="cls-6" d="m154.98,315.03c18.9.56,37.42-17.92,41.37-41.29"/>
            <path class="cls-6" d="m337.51,580.93c-44.81-149.39-166.45-304.66-271.17-346.13"/>
            <path class="cls-6" d="m446.04,472.6c-104.65-89.66-274.97-196.34-379.69-237.81"/>
          </g>
        </g>
        <path class="cls-6" d="m117.39,596.04c76.57-157.72,53.67-319.77-51.04-361.25,104.72,41.47,302.19,78.55,440.21,82.67-28.83,170.88-164.26,306.06-302.51,301.94-31.78-.95-60.94-9.18-86.66-23.36Z"/>
      </g>
      <path class="cls-5" d="m117.39,596.04c76.57-157.72,53.67-319.77-51.04-361.25,104.72,41.47,302.19,78.55,440.21,82.67-28.83,170.88-164.26,306.06-302.51,301.94-31.78-.95-60.94-9.18-86.66-23.36Z"/>
    </g>
    <g class="cls-9">
      <g class="cls-17">
        <g class="cls-9">
          <g>
            <path class="cls-6" d="m66.35,234.79c12.89,5.1,27.47,10.25,43.36,15.31.59-3.47-1.22-6.35-4.03-6.44-13.22-.78-26.45-3.77-39.34-8.87Z"/>
            <path class="cls-6" d="m79.78,239.9c.07-.39-.14-.71-.45-.72"/>
            <path class="cls-6" d="m94.27,245.02c.26-1.55-.54-2.83-1.79-2.87"/>
          </g>
          <path class="cls-6" d="m109.71,250.1c15.47,4.93,32.38,9.82,50.23,14.55,2.27-13.43-4.7-24.58-15.57-24.9-12.8,3.36-25.81,4.68-38.69,3.91,2.81.08,4.61,2.97,4.03,6.44Z"/>
        </g>
        <path class="cls-6" d="m66.35,234.79c3.54,1.37,10.14,3.92,19.69,6.07,6.56,1.48,13.21,2.42,19.77,2.81-13.3-.78-26.57-3.77-39.46-8.88Z"/>
      </g>
      <path class="cls-5" d="m66.35,234.79c3.54,1.37,10.14,3.92,19.69,6.07,6.56,1.48,13.21,2.42,19.77,2.81-13.3-.78-26.57-3.77-39.46-8.88Z"/>
    </g>
    <g class="cls-9">
      <g class="cls-33">
        <g class="cls-9">
          <g>
            <path class="cls-6" d="m66.35,234.79c12.89,5.1,27.47,10.25,43.36,15.31.59-3.47-1.22-6.35-4.03-6.44-13.22-.78-26.45-3.77-39.34-8.87Z"/>
            <path class="cls-6" d="m79.78,239.9c.07-.39-.14-.71-.45-.72"/>
            <path class="cls-6" d="m94.27,245.02c.26-1.55-.54-2.83-1.79-2.87"/>
          </g>
          <path class="cls-6" d="m109.71,250.1c15.47,4.93,32.38,9.82,50.23,14.55,2.27-13.43-4.7-24.58-15.57-24.9-12.8,3.36-25.81,4.68-38.69,3.91,2.81.08,4.61,2.97,4.03,6.44Z"/>
        </g>
        <path class="cls-6" d="m105.81,243.67c.41.02.79.11,1.15.24-14.06-.94-27.72-4.02-40.61-9.12,6.38,2.52,13.02,4.57,19.73,6.08,9.56,2.15,17.21,2.64,19.73,2.8Z"/>
      </g>
      <path class="cls-5" d="m105.81,243.67c.41.02.79.11,1.15.24-14.06-.94-27.72-4.02-40.61-9.12,6.38,2.52,13.02,4.57,19.73,6.08,9.56,2.15,17.21,2.64,19.73,2.8Z"/>
    </g>
    <g class="cls-9">
      <g class="cls-12">
        <g class="cls-9">
          <g>
            <path class="cls-6" d="m66.35,234.79c12.89,5.1,27.47,10.25,43.36,15.31.59-3.47-1.22-6.35-4.03-6.44-13.22-.78-26.45-3.77-39.34-8.87Z"/>
            <path class="cls-6" d="m79.78,239.9c.07-.39-.14-.71-.45-.72"/>
            <path class="cls-6" d="m94.27,245.02c.26-1.55-.54-2.83-1.79-2.87"/>
            <path class="cls-6" d="m66.35,234.79c12.89,5.1,27.41,9.18,43.2,12.12"/>
            <path class="cls-6" d="m66.35,234.79c12.89,5.1,26.93,8.41,41.76,9.81"/>
          </g>
          <g>
            <path class="cls-6" d="m109.71,250.1c15.47,4.93,32.38,9.82,50.23,14.55,2.27-13.43-4.7-24.58-15.57-24.9-12.8,3.36-25.81,4.68-38.69,3.91,2.81.08,4.61,2.97,4.03,6.44Z"/>
            <path class="cls-6" d="m109.55,246.91c15.37,2.87,32.12,4.68,49.78,5.39"/>
            <path class="cls-6" d="m108.1,244.6c14.44,1.37,29.79.96,45.63-1.23"/>
          </g>
        </g>
        <path class="cls-6" d="m106.95,243.91c2.06.78,3.25,3.28,2.75,6.19-15.89-5.06-30.47-10.21-43.36-15.31,12.89,5.1,26.54,8.18,40.61,9.12Z"/>
      </g>
      <path class="cls-5" d="m106.95,243.91c2.06.78,3.25,3.28,2.75,6.19-15.89-5.06-30.47-10.21-43.36-15.31,12.89,5.1,26.54,8.18,40.61,9.12Z"/>
    </g>
    <g class="cls-9">
      <g class="cls-14">
        <g class="cls-9">
          <g>
            <path class="cls-6" d="m66.35,234.79c12.89,5.1,27.47,10.25,43.36,15.31.59-3.47-1.22-6.35-4.03-6.44-13.22-.78-26.45-3.77-39.34-8.87Z"/>
            <path class="cls-6" d="m79.78,239.9c.07-.39-.14-.71-.45-.72"/>
            <path class="cls-6" d="m94.27,245.02c.26-1.55-.54-2.83-1.79-2.87"/>
          </g>
          <g>
            <path class="cls-6" d="m66.35,234.79c12.89,5.1,26.12,8.1,39.34,8.87-2.81-.08-5.56,2.66-6.15,6.13-9.13-4.85-20.3-9.9-33.19-15.01Z"/>
            <path class="cls-6" d="m79.33,239.19c-.31,0-.62.3-.69.68"/>
            <path class="cls-6" d="m92.47,242.15c-1.25-.04-2.48,1.19-2.74,2.73"/>
            <path class="cls-6" d="m66.35,234.79c12.89,5.1,25.21,8.36,36.63,9.65"/>
            <path class="cls-6" d="m66.35,234.79c12.89,5.1,24.47,9.1,34.42,11.85"/>
          </g>
          <g>
            <path class="cls-6" d="m66.35,234.79c12.89,5.1,24.06,10.15,33.19,15.01-.59,3.47,1.22,6.35,4.03,6.44-11.81-9.13-24.33-16.34-37.22-21.44Z"/>
            <path class="cls-6" d="m78.65,239.87c-.07.39.14.71.45.72"/>
            <path class="cls-6" d="m89.74,244.88c-.26,1.55.54,2.83,1.79,2.87"/>
            <path class="cls-6" d="m66.35,234.79c12.89,5.1,24.11,11.22,33.35,18.2"/>
            <path class="cls-6" d="m66.35,234.79c12.89,5.1,24.6,12,34.79,20.51"/>
          </g>
          <path class="cls-6" d="m109.71,250.1c15.47,4.93,32.38,9.82,50.23,14.55,2.27-13.43-4.7-24.58-15.57-24.9-12.8,3.36-25.81,4.68-38.69,3.91,2.81.08,4.61,2.97,4.03,6.44Z"/>
          <g>
            <path class="cls-6" d="m105.68,243.66c12.88.77,25.89-.55,38.69-3.91-10.86-.32-21.51,10.3-23.77,23.73-5.07-4.35-12.15-8.95-21.06-13.68.59-3.47,3.34-6.22,6.15-6.13Z"/>
            <path class="cls-6" d="m102.97,244.44c11.13,1.28,21.53.71,30.91-1.67"/>
            <path class="cls-6" d="m100.77,246.65c9.7,2.7,17.97,4.26,24.59,4.64"/>
          </g>
          <g>
            <path class="cls-6" d="m99.54,249.8c8.91,4.73,15.99,9.33,21.06,13.68-2.27,13.43,4.7,24.58,15.57,24.9-10.13-12.44-21.1-23.26-32.61-32.15-2.81-.08-4.61-2.97-4.03-6.44Z"/>
            <path class="cls-6" d="m99.7,252.99c9.01,6.79,16.25,14.48,21.52,22.84"/>
            <path class="cls-6" d="m101.14,255.3c9.94,8.28,18.58,18.2,25.66,29.46"/>
          </g>
        </g>
        <path class="cls-6" d="m66.35,234.79c12.89,5.1,26.16,8.1,39.46,8.88-.04,0-.08,0-.12,0-.45-.01-.9.05-1.35.17-2.29.65-4.31,3.05-4.8,5.96-.29,1.7,0,3.26.69,4.41.26.44.58.82.96,1.13-10.23-8.54-21.95-15.45-34.84-20.55Z"/>
      </g>
      <path class="cls-5" d="m66.35,234.79c12.89,5.1,26.16,8.1,39.46,8.88-.04,0-.08,0-.12,0-.45-.01-.9.05-1.35.17-2.29.65-4.31,3.05-4.8,5.96-.29,1.7,0,3.26.69,4.41.26.44.58.82.96,1.13-10.23-8.54-21.95-15.45-34.84-20.55Z"/>
    </g>
    <g class="cls-9">
      <g class="cls-28">
        <g class="cls-9">
          <g>
            <path class="cls-6" d="m66.35,234.79c12.89,5.1,24.06,10.15,33.19,15.01-.59,3.47,1.22,6.35,4.03,6.44-11.81-9.13-24.33-16.34-37.22-21.44Z"/>
            <path class="cls-6" d="m78.65,239.87c-.07.39.14.71.45.72"/>
            <path class="cls-6" d="m89.74,244.88c-.26,1.55.54,2.83,1.79,2.87"/>
          </g>
          <path class="cls-6" d="m99.54,249.8c8.91,4.73,15.99,9.33,21.06,13.68-2.27,13.43,4.7,24.58,15.57,24.9-10.13-12.44-21.1-23.26-32.61-32.15-2.81-.08-4.61-2.97-4.03-6.44Z"/>
        </g>
        <path class="cls-6" d="m66.35,234.79c12.89,5.1,24.94,12.21,35.84,21.15-.36-.15-.69-.35-.99-.6-5.05-4.21-10.54-8.08-16.34-11.5-8.43-4.97-14.98-7.63-18.51-9.05Z"/>
      </g>
      <path class="cls-5" d="m66.35,234.79c12.89,5.1,24.94,12.21,35.84,21.15-.36-.15-.69-.35-.99-.6-5.05-4.21-10.54-8.08-16.34-11.5-8.43-4.97-14.98-7.63-18.51-9.05Z"/>
    </g>
    <g class="cls-9">
      <g class="cls-23">
        <g class="cls-9">
          <g>
            <path class="cls-6" d="m66.35,234.79c12.89,5.1,24.06,10.15,33.19,15.01-.59,3.47,1.22,6.35,4.03,6.44-11.81-9.13-24.33-16.34-37.22-21.44Z"/>
            <path class="cls-6" d="m78.65,239.87c-.07.39.14.71.45.72"/>
            <path class="cls-6" d="m89.74,244.88c-.26,1.55.54,2.83,1.79,2.87"/>
          </g>
          <path class="cls-6" d="m99.54,249.8c8.91,4.73,15.99,9.33,21.06,13.68-2.27,13.43,4.7,24.58,15.57,24.9-10.13-12.44-21.1-23.26-32.61-32.15-2.81-.08-4.61-2.97-4.03-6.44Z"/>
        </g>
        <path class="cls-6" d="m101.19,255.34c-2.41-1.98-8.05-6.61-16.29-11.47-5.93-3.5-12.17-6.55-18.55-9.08,12.89,5.1,24.61,12.01,34.84,20.55Z"/>
      </g>
      <path class="cls-5" d="m101.19,255.34c-2.41-1.98-8.05-6.61-16.29-11.47-5.93-3.5-12.17-6.55-18.55-9.08,12.89,5.1,24.61,12.01,34.84,20.55Z"/>
    </g>
    <g class="cls-9">
      <g class="cls-34">
        <g class="cls-9">
          <g>
            <path class="cls-6" d="m66.35,234.79c12.89,5.1,24.06,10.15,33.19,15.01-.59,3.47,1.22,6.35,4.03,6.44-11.81-9.13-24.33-16.34-37.22-21.44Z"/>
            <path class="cls-6" d="m78.65,239.87c-.07.39.14.71.45.72"/>
            <path class="cls-6" d="m89.74,244.88c-.26,1.55.54,2.83,1.79,2.87"/>
          </g>
          <g>
            <path class="cls-6" d="m66.35,234.79c12.89,5.1,25.41,12.31,37.22,21.44,2.81.08,5.56-2.66,6.15-6.13-15.89-5.06-30.47-10.21-43.36-15.31Z"/>
            <path class="cls-6" d="m79.1,240.59c.31,0,.62-.3.69-.68"/>
            <path class="cls-6" d="m91.53,247.75c1.25.04,2.48-1.19,2.74-2.73"/>
            <path class="cls-6" d="m66.35,234.79c12.89,5.1,26.32,12.05,39.93,20.66"/>
            <path class="cls-6" d="m66.35,234.79c12.89,5.1,27.06,11.31,42.13,18.46"/>
          </g>
          <path class="cls-6" d="m99.54,249.8c8.91,4.73,15.99,9.33,21.06,13.68-2.27,13.43,4.7,24.58,15.57,24.9-10.13-12.44-21.1-23.26-32.61-32.15-2.81-.08-4.61-2.97-4.03-6.44Z"/>
          <g>
            <path class="cls-6" d="m103.56,256.24c11.51,8.89,22.48,19.7,32.61,32.15,10.86.32,21.51-10.3,23.77-23.73-17.86-4.73-34.76-9.63-50.23-14.55-.59,3.47-3.34,6.22-6.15,6.13Z"/>
            <path class="cls-6" d="m106.27,255.45c13.26,8.38,26.84,18.44,40.38,29.9"/>
            <path class="cls-6" d="m108.48,253.25c14.68,6.96,30.4,14.9,46.71,23.59"/>
          </g>
        </g>
        <path class="cls-6" d="m66.35,234.79c12.89,5.1,27.47,10.25,43.36,15.31-.59,3.47-3.34,6.22-6.15,6.13-.49-.01-.96-.12-1.38-.29-10.89-8.94-22.95-16.05-35.84-21.15Z"/>
      </g>
      <path class="cls-5" d="m66.35,234.79c12.89,5.1,27.47,10.25,43.36,15.31-.59,3.47-3.34,6.22-6.15,6.13-.49-.01-.96-.12-1.38-.29-10.89-8.94-22.95-16.05-35.84-21.15Z"/>
    </g>
    <g class="cls-9">
      <g class="cls-2">
        <g class="cls-9">
          <path class="cls-6" d="m66.35,234.79c12.89,5.1,27.47,10.25,43.36,15.31.59-3.47-1.22-6.35-4.03-6.44-13.22-.78-26.45-3.77-39.34-8.87Z"/>
          <path class="cls-6" d="m66.35,234.79c12.89,5.1,26.12,8.1,39.34,8.87-2.81-.08-5.56,2.66-6.15,6.13-9.13-4.85-20.3-9.9-33.19-15.01Z"/>
          <g>
            <path class="cls-6" d="m109.71,250.1c15.47,4.93,32.38,9.82,50.23,14.55,2.27-13.43-4.7-24.58-15.57-24.9-12.8,3.36-25.81,4.68-38.69,3.91,2.81.08,4.61,2.97,4.03,6.44Z"/>
            <path class="cls-6" d="m125.64,255.01c1.03-6.08-2.13-11.13-7.05-11.27"/>
            <path class="cls-6" d="m142.42,259.87c1.59-9.4-3.3-17.21-10.9-17.44"/>
          </g>
          <g>
            <path class="cls-6" d="m105.68,243.66c12.88.77,25.89-.55,38.69-3.91-10.86-.32-21.51,10.3-23.77,23.73-5.07-4.35-12.15-8.95-21.06-13.68.59-3.47,3.34-6.22,6.15-6.13Z"/>
            <path class="cls-6" d="m118.59,243.74c-4.92-.15-9.74,4.66-10.76,10.74"/>
            <path class="cls-6" d="m131.51,242.43c-7.61-.23-15.06,7.21-16.65,16.62"/>
          </g>
          <path class="cls-6" d="m159.94,264.65c17.53,4.64,36.14,9.17,55.34,13.46,4.92-29.18-10.23-53.41-33.84-54.12-12.04,7.16-24.51,12.46-37.07,15.75,10.86.32,17.83,11.47,15.57,24.9Z"/>
          <path class="cls-6" d="m144.37,239.75c12.56-3.3,25.03-8.59,37.07-15.75-23.61-.7-46.74,22.38-51.66,51.57-1.11-3.75-4.2-7.82-9.18-12.09,2.27-13.43,12.91-24.05,23.77-23.73Z"/>
        </g>
        <path class="cls-6" d="m105.81,243.67c2.35.12,5.02.26,8.93.19,4.27-.08,7.3-.38,8.77-.52,3.7-.36,9.41-1.16,15.66-2.92-11.1,3.15-22.82,4.3-34.83,3.42.44-.12.89-.19,1.35-.17.04,0,.08,0,.12,0Z"/>
      </g>
      <path class="cls-5" d="m105.81,243.67c2.35.12,5.02.26,8.93.19,4.27-.08,7.3-.38,8.77-.52,3.7-.36,9.41-1.16,15.66-2.92-11.1,3.15-22.82,4.3-34.83,3.42.44-.12.89-.19,1.35-.17.04,0,.08,0,.12,0Z"/>
    </g>
    <g class="cls-9">
      <g class="cls-19">
        <g class="cls-9">
          <path class="cls-6" d="m66.35,234.79c12.89,5.1,27.47,10.25,43.36,15.31.59-3.47-1.22-6.35-4.03-6.44-13.22-.78-26.45-3.77-39.34-8.87Z"/>
          <path class="cls-6" d="m66.35,234.79c12.89,5.1,26.12,8.1,39.34,8.87-2.81-.08-5.56,2.66-6.15,6.13-9.13-4.85-20.3-9.9-33.19-15.01Z"/>
          <g>
            <path class="cls-6" d="m109.71,250.1c15.47,4.93,32.38,9.82,50.23,14.55,2.27-13.43-4.7-24.58-15.57-24.9-12.8,3.36-25.81,4.68-38.69,3.91,2.81.08,4.61,2.97,4.03,6.44Z"/>
            <path class="cls-6" d="m125.64,255.01c1.03-6.08-2.13-11.13-7.05-11.27"/>
            <path class="cls-6" d="m142.42,259.87c1.59-9.4-3.3-17.21-10.9-17.44"/>
          </g>
          <g>
            <path class="cls-6" d="m105.68,243.66c12.88.77,25.89-.55,38.69-3.91-10.86-.32-21.51,10.3-23.77,23.73-5.07-4.35-12.15-8.95-21.06-13.68.59-3.47,3.34-6.22,6.15-6.13Z"/>
            <path class="cls-6" d="m118.59,243.74c-4.92-.15-9.74,4.66-10.76,10.74"/>
            <path class="cls-6" d="m131.51,242.43c-7.61-.23-15.06,7.21-16.65,16.62"/>
          </g>
          <path class="cls-6" d="m159.94,264.65c17.53,4.64,36.14,9.17,55.34,13.46,4.92-29.18-10.23-53.41-33.84-54.12-12.04,7.16-24.51,12.46-37.07,15.75,10.86.32,17.83,11.47,15.57,24.9Z"/>
          <path class="cls-6" d="m144.37,239.75c12.56-3.3,25.03-8.59,37.07-15.75-23.61-.7-46.74,22.38-51.66,51.57-1.11-3.75-4.2-7.82-9.18-12.09,2.27-13.43,12.91-24.05,23.77-23.73Z"/>
        </g>
        <path class="cls-6" d="m109.27,243.82c2.82.09,5.94.04,7.35-.02,2.66-.11,4.84-.23,8.65-.66,6.76-.77,11.95-2.19,13.9-2.73,1.71-.48,3.45-.72,5.21-.66.16,0,.32.01.48.02-12.95,3.36-26.09,4.67-39.04,3.89,1.04.05,2.42.12,3.46.16Z"/>
      </g>
      <path class="cls-5" d="m109.27,243.82c2.82.09,5.94.04,7.35-.02,2.66-.11,4.84-.23,8.65-.66,6.76-.77,11.95-2.19,13.9-2.73,1.71-.48,3.45-.72,5.21-.66.16,0,.32.01.48.02-12.95,3.36-26.09,4.67-39.04,3.89,1.04.05,2.42.12,3.46.16Z"/>
    </g>
    <g class="cls-9">
      <g class="cls-8">
        <g class="cls-9">
          <g>
            <path class="cls-6" d="m66.35,234.79c12.89,5.1,27.47,10.25,43.36,15.31.59-3.47-1.22-6.35-4.03-6.44-13.22-.78-26.45-3.77-39.34-8.87Z"/>
            <path class="cls-6" d="m66.35,234.79c12.89,5.1,27.41,9.18,43.2,12.12"/>
            <path class="cls-6" d="m66.35,234.79c12.89,5.1,26.93,8.41,41.76,9.81"/>
          </g>
          <g>
            <path class="cls-6" d="m109.71,250.1c15.47,4.93,32.38,9.82,50.23,14.55,2.27-13.43-4.7-24.58-15.57-24.9-12.8,3.36-25.81,4.68-38.69,3.91,2.81.08,4.61,2.97,4.03,6.44Z"/>
            <path class="cls-6" d="m125.64,255.01c1.03-6.08-2.13-11.13-7.05-11.27"/>
            <path class="cls-6" d="m142.42,259.87c1.59-9.4-3.3-17.21-10.9-17.44"/>
            <path class="cls-6" d="m109.55,246.91c15.37,2.87,32.12,4.68,49.78,5.39"/>
            <path class="cls-6" d="m108.1,244.6c14.44,1.37,29.79.96,45.63-1.23"/>
          </g>
          <g>
            <path class="cls-6" d="m159.94,264.65c17.53,4.64,36.14,9.17,55.34,13.46,4.92-29.18-10.23-53.41-33.84-54.12-12.04,7.16-24.51,12.46-37.07,15.75,10.86.32,17.83,11.47,15.57,24.9Z"/>
            <path class="cls-6" d="m159.32,252.3c17.33.7,35.7.36,54.61-1.03"/>
            <path class="cls-6" d="m153.74,243.37c15.55-2.15,31.71-6.01,48.06-11.51"/>
          </g>
        </g>
        <path class="cls-6" d="m144.85,239.77c10.59.63,17.32,11.65,15.09,24.88-17.86-4.73-34.76-9.63-50.23-14.55.49-2.91-.7-5.41-2.75-6.19-.36-.14-.74-.22-1.15-.24,12.96.78,26.09-.54,39.04-3.89Z"/>
      </g>
      <path class="cls-5" d="m144.85,239.77c10.59.63,17.32,11.65,15.09,24.88-17.86-4.73-34.76-9.63-50.23-14.55.49-2.91-.7-5.41-2.75-6.19-.36-.14-.74-.22-1.15-.24,12.96.78,26.09-.54,39.04-3.89Z"/>
    </g>
    <g class="cls-9">
      <g class="cls-31">
        <g class="cls-9">
          <g>
            <path class="cls-6" d="m66.35,234.79c12.89,5.1,26.12,8.1,39.34,8.87-2.81-.08-5.56,2.66-6.15,6.13-9.13-4.85-20.3-9.9-33.19-15.01Z"/>
            <path class="cls-6" d="m66.35,234.79c12.89,5.1,25.21,8.36,36.63,9.65"/>
            <path class="cls-6" d="m66.35,234.79c12.89,5.1,24.47,9.1,34.42,11.85"/>
          </g>
          <g>
            <path class="cls-6" d="m66.35,234.79c12.89,5.1,24.06,10.15,33.19,15.01-.59,3.47,1.22,6.35,4.03,6.44-11.81-9.13-24.33-16.34-37.22-21.44Z"/>
            <path class="cls-6" d="m66.35,234.79c12.89,5.1,24.11,11.22,33.35,18.2"/>
          </g>
          <g>
            <path class="cls-6" d="m105.68,243.66c12.88.77,25.89-.55,38.69-3.91-10.86-.32-21.51,10.3-23.77,23.73-5.07-4.35-12.15-8.95-21.06-13.68.59-3.47,3.34-6.22,6.15-6.13Z"/>
            <path class="cls-6" d="m118.59,243.74c-4.92-.15-9.74,4.66-10.76,10.74"/>
            <path class="cls-6" d="m131.51,242.43c-7.61-.23-15.06,7.21-16.65,16.62"/>
            <path class="cls-6" d="m102.97,244.44c11.13,1.28,21.53.71,30.91-1.67"/>
            <path class="cls-6" d="m100.77,246.65c9.7,2.7,17.97,4.26,24.59,4.64"/>
          </g>
          <g>
            <path class="cls-6" d="m99.54,249.8c8.91,4.73,15.99,9.33,21.06,13.68-2.27,13.43,4.7,24.58,15.57,24.9-10.13-12.44-21.1-23.26-32.61-32.15-2.81-.08-4.61-2.97-4.03-6.44Z"/>
            <path class="cls-6" d="m107.83,254.48c-1.03,6.08,2.13,11.13,7.05,11.27"/>
            <path class="cls-6" d="m114.87,259.05c-1.59,9.4,3.3,17.21,10.9,17.44"/>
            <path class="cls-6" d="m99.7,252.99c9.01,6.79,16.25,14.48,21.52,22.84"/>
          </g>
          <g>
            <path class="cls-6" d="m144.37,239.75c12.56-3.3,25.03-8.59,37.07-15.75-23.61-.7-46.74,22.38-51.66,51.57-1.11-3.75-4.2-7.82-9.18-12.09,2.27-13.43,12.91-24.05,23.77-23.73Z"/>
            <path class="cls-6" d="m133.88,242.78c9.22-2.33,17.55-6.44,24.76-12.21"/>
            <path class="cls-6" d="m125.35,251.29c6.5.38,11.46-.36,14.76-2.22"/>
          </g>
          <g>
            <path class="cls-6" d="m120.6,263.48c4.98,4.27,8.07,8.33,9.18,12.09-4.92,29.18,10.23,53.41,33.84,54.12-8.27-15.2-17.5-29.09-27.44-41.3-10.86-.32-17.83-11.47-15.57-24.9Z"/>
            <path class="cls-6" d="m121.21,275.83c5.18,8.21,8.51,17.15,9.9,26.58"/>
          </g>
        </g>
        <path class="cls-6" d="m104.34,243.83c12.01.88,23.73-.27,34.83-3.42-2.79.79-5.47,2.25-7.89,4.22-5.3,4.32-9.37,11.11-10.67,18.84-.51,3-.55,5.89-.2,8.56.42,3.19,1.42,6.08,2.88,8.51-5.94-9.9-13.69-18.76-23.05-26.34-.7-1.16-.98-2.72-.69-4.41.49-2.91,2.51-5.31,4.8-5.96Z"/>
      </g>
      <path class="cls-5" d="m104.34,243.83c12.01.88,23.73-.27,34.83-3.42-2.79.79-5.47,2.25-7.89,4.22-5.3,4.32-9.37,11.11-10.67,18.84-.51,3-.55,5.89-.2,8.56.42,3.19,1.42,6.08,2.88,8.51-5.94-9.9-13.69-18.76-23.05-26.34-.7-1.16-.98-2.72-.69-4.41.49-2.91,2.51-5.31,4.8-5.96Z"/>
    </g>
    <g class="cls-9">
      <g class="cls-11">
        <g class="cls-9">
          <g>
            <path class="cls-6" d="m66.35,234.79c12.89,5.1,24.06,10.15,33.19,15.01-.59,3.47,1.22,6.35,4.03,6.44-11.81-9.13-24.33-16.34-37.22-21.44Z"/>
            <path class="cls-6" d="m66.35,234.79c12.89,5.1,24.6,12,34.79,20.51"/>
          </g>
          <g>
            <path class="cls-6" d="m99.54,249.8c8.91,4.73,15.99,9.33,21.06,13.68-2.27,13.43,4.7,24.58,15.57,24.9-10.13-12.44-21.1-23.26-32.61-32.15-2.81-.08-4.61-2.97-4.03-6.44Z"/>
            <path class="cls-6" d="m107.83,254.48c-1.03,6.08,2.13,11.13,7.05,11.27"/>
            <path class="cls-6" d="m114.87,259.05c-1.59,9.4,3.3,17.21,10.9,17.44"/>
            <path class="cls-6" d="m101.14,255.3c9.94,8.28,18.58,18.2,25.66,29.46"/>
          </g>
          <g>
            <path class="cls-6" d="m120.6,263.48c4.98,4.27,8.07,8.33,9.18,12.09-4.92,29.18,10.23,53.41,33.84,54.12-8.27-15.2-17.5-29.09-27.44-41.3-10.86-.32-17.83-11.47-15.57-24.9Z"/>
            <path class="cls-6" d="m126.8,284.76c6.96,11.06,12.49,23.52,16.45,37.06"/>
          </g>
        </g>
        <path class="cls-6" d="m101.19,255.34c9.97,8.31,18.65,18.26,25.79,29.58-1.44-1.2-2.68-2.67-3.7-4.36-3.62-6.02-7.67-10.86-9.25-12.66-1.09-1.24-3.12-3.56-6.01-6.39-2.95-2.88-5.1-4.71-6.83-6.17Z"/>
      </g>
      <path class="cls-5" d="m101.19,255.34c9.97,8.31,18.65,18.26,25.79,29.58-1.44-1.2-2.68-2.67-3.7-4.36-3.62-6.02-7.67-10.86-9.25-12.66-1.09-1.24-3.12-3.56-6.01-6.39-2.95-2.88-5.1-4.71-6.83-6.17Z"/>
    </g>
    <g class="cls-9">
      <g class="cls-3">
        <g class="cls-9">
          <g>
            <path class="cls-6" d="m66.35,234.79c12.89,5.1,24.06,10.15,33.19,15.01-.59,3.47,1.22,6.35,4.03,6.44-11.81-9.13-24.33-16.34-37.22-21.44Z"/>
            <path class="cls-6" d="m66.35,234.79c12.89,5.1,24.6,12,34.79,20.51"/>
          </g>
          <g>
            <path class="cls-6" d="m99.54,249.8c8.91,4.73,15.99,9.33,21.06,13.68-2.27,13.43,4.7,24.58,15.57,24.9-10.13-12.44-21.1-23.26-32.61-32.15-2.81-.08-4.61-2.97-4.03-6.44Z"/>
            <path class="cls-6" d="m107.83,254.48c-1.03,6.08,2.13,11.13,7.05,11.27"/>
            <path class="cls-6" d="m114.87,259.05c-1.59,9.4,3.3,17.21,10.9,17.44"/>
            <path class="cls-6" d="m101.14,255.3c9.94,8.28,18.58,18.2,25.66,29.46"/>
          </g>
          <g>
            <path class="cls-6" d="m120.6,263.48c4.98,4.27,8.07,8.33,9.18,12.09-4.92,29.18,10.23,53.41,33.84,54.12-8.27-15.2-17.5-29.09-27.44-41.3-10.86-.32-17.83-11.47-15.57-24.9Z"/>
            <path class="cls-6" d="m126.8,284.76c6.96,11.06,12.49,23.52,16.45,37.06"/>
          </g>
        </g>
        <path class="cls-6" d="m123.28,280.56c-2.1-3.43-8.5-13.89-22.1-25.22-.37-.31-.69-.69-.96-1.13,9.36,7.58,17.11,16.44,23.05,26.34Z"/>
      </g>
      <path class="cls-5" d="m123.28,280.56c-2.1-3.43-8.5-13.89-22.1-25.22-.37-.31-.69-.69-.96-1.13,9.36,7.58,17.11,16.44,23.05,26.34Z"/>
    </g>
    <g class="cls-9">
      <g class="cls-32">
        <g class="cls-9">
          <path class="cls-6" d="m66.35,234.79c12.89,5.1,24.06,10.15,33.19,15.01-.59,3.47,1.22,6.35,4.03,6.44-11.81-9.13-24.33-16.34-37.22-21.44Z"/>
          <g>
            <path class="cls-6" d="m66.35,234.79c12.89,5.1,25.41,12.31,37.22,21.44,2.81.08,5.56-2.66,6.15-6.13-15.89-5.06-30.47-10.21-43.36-15.31Z"/>
            <path class="cls-6" d="m66.35,234.79c12.89,5.1,26.32,12.05,39.93,20.66"/>
            <path class="cls-6" d="m66.35,234.79c12.89,5.1,27.06,11.31,42.13,18.46"/>
          </g>
          <g>
            <path class="cls-6" d="m99.54,249.8c8.91,4.73,15.99,9.33,21.06,13.68-2.27,13.43,4.7,24.58,15.57,24.9-10.13-12.44-21.1-23.26-32.61-32.15-2.81-.08-4.61-2.97-4.03-6.44Z"/>
            <path class="cls-6" d="m107.83,254.48c-1.03,6.08,2.13,11.13,7.05,11.27"/>
            <path class="cls-6" d="m114.87,259.05c-1.59,9.4,3.3,17.21,10.9,17.44"/>
          </g>
          <g>
            <path class="cls-6" d="m159.94,264.65c-17.86-4.73-34.76-9.63-50.23-14.55-.59,3.47-3.34,6.22-6.15,6.13,11.51,8.89,22.48,19.7,32.61,32.15"/>
            <path class="cls-6" d="m114.88,265.75c4.92.15,9.74-4.66,10.76-10.74"/>
            <path class="cls-6" d="m125.77,276.49c7.61.23,15.06-7.21,16.65-16.62"/>
            <path class="cls-6" d="m106.27,255.45c13.26,8.38,26.84,18.44,40.38,29.9"/>
            <path class="cls-6" d="m108.48,253.25c14.68,6.96,30.4,14.9,46.71,23.59"/>
          </g>
          <path class="cls-6" d="m120.6,263.48c4.98,4.27,8.07,8.33,9.18,12.09-4.92,29.18,10.23,53.41,33.84,54.12-8.27-15.2-17.5-29.09-27.44-41.3-10.86-.32-17.83-11.47-15.57-24.9Z"/>
          <g>
            <path class="cls-6" d="m136.17,288.38c9.94,12.21,19.18,26.1,27.44,41.3,23.61.7,46.74-22.38,51.66-51.57-19.2-4.29-37.81-8.82-55.34-13.46"/>
            <path class="cls-6" d="m146.66,285.36c13.29,11.25,26.66,23.94,39.75,37.75"/>
            <path class="cls-6" d="m155.18,276.84c16.01,8.53,32.74,17.87,49.76,27.77"/>
          </g>
        </g>
        <path class="cls-6" d="m136.17,288.38c-3.54-.11-6.66-1.36-9.19-3.46-7.14-11.32-15.82-21.27-25.79-29.58.3.25.63.45.99.6.42.18.89.28,1.38.29,2.81.08,5.56-2.66,6.15-6.13,15.47,4.93,32.38,9.82,50.23,14.55"/>
      </g>
      <path class="cls-5" d="m101.19,255.34c.3.25.63.45.99.6.42.18.89.28,1.38.29,2.81.08,5.56-2.66,6.15-6.13,15.47,4.93,32.38,9.82,50.23,14.55-2.27,13.43-12.91,24.05-23.77,23.73-3.54-.11-6.66-1.36-9.19-3.46-7.14-11.32-15.82-21.27-25.79-29.58Z"/>
    </g>
    <g class="cls-9">
      <g class="cls-30">
        <g class="cls-9">
          <g>
            <path class="cls-6" d="m105.68,243.66c12.88.77,25.89-.55,38.69-3.91-10.86-.32-21.51,10.3-23.77,23.73-5.07-4.35-12.15-8.95-21.06-13.68.59-3.47,3.34-6.22,6.15-6.13Z"/>
            <path class="cls-6" d="m102.97,244.44c11.13,1.28,21.53.71,30.91-1.67"/>
          </g>
          <g>
            <path class="cls-6" d="m144.37,239.75c12.56-3.3,25.03-8.59,37.07-15.75-23.61-.7-46.74,22.38-51.66,51.57-1.11-3.75-4.2-7.82-9.18-12.09,2.27-13.43,12.91-24.05,23.77-23.73Z"/>
            <path class="cls-6" d="m156.89,235.79c-14.6-.44-28.9,13.84-31.94,31.88"/>
            <path class="cls-6" d="m169.27,230.53c-18.85-.56-37.33,17.88-41.26,41.18"/>
            <path class="cls-6" d="m133.88,242.78c9.22-2.33,17.55-6.44,24.76-12.21"/>
          </g>
          <g>
            <path class="cls-6" d="m181.44,224c11.92-7.09,23.52-16.05,34.48-26.65-40.49-1.21-80.16,38.39-88.6,88.44,2.73-3.07,3.56-6.5,2.46-10.22,4.92-29.18,28.05-52.27,51.66-51.57Z"/>
            <path class="cls-6" d="m158.65,230.57c7.15-5.71,13.27-13.09,18.19-21.95"/>
          </g>
        </g>
        <path class="cls-6" d="m139.16,240.42c1.81-.53,4.56-1.33,8.01-2.8,2.65-1.12,5.01-2.43,5.98-3.13-.06.04-.12.09-.17.14-6.02,4.91-13.32,8.28-21.7,10.02,2.42-1.98,5.1-3.43,7.89-4.22Z"/>
      </g>
      <path class="cls-5" d="m139.16,240.42c1.81-.53,4.56-1.33,8.01-2.8,2.65-1.12,5.01-2.43,5.98-3.13-.06.04-.12.09-.17.14-6.02,4.91-13.32,8.28-21.7,10.02,2.42-1.98,5.1-3.43,7.89-4.22Z"/>
    </g>
    <g class="cls-9">
      <g class="cls-25">
        <g class="cls-9">
          <g>
            <path class="cls-6" d="m105.68,243.66c12.88.77,25.89-.55,38.69-3.91-10.86-.32-21.51,10.3-23.77,23.73-5.07-4.35-12.15-8.95-21.06-13.68.59-3.47,3.34-6.22,6.15-6.13Z"/>
            <path class="cls-6" d="m102.97,244.44c11.13,1.28,21.53.71,30.91-1.67"/>
          </g>
          <g>
            <path class="cls-6" d="m144.37,239.75c12.56-3.3,25.03-8.59,37.07-15.75-23.61-.7-46.74,22.38-51.66,51.57-1.11-3.75-4.2-7.82-9.18-12.09,2.27-13.43,12.91-24.05,23.77-23.73Z"/>
            <path class="cls-6" d="m156.89,235.79c-14.6-.44-28.9,13.84-31.94,31.88"/>
            <path class="cls-6" d="m169.27,230.53c-18.85-.56-37.33,17.88-41.26,41.18"/>
            <path class="cls-6" d="m133.88,242.78c9.22-2.33,17.55-6.44,24.76-12.21"/>
          </g>
          <g>
            <path class="cls-6" d="m181.44,224c11.92-7.09,23.52-16.05,34.48-26.65-40.49-1.21-80.16,38.39-88.6,88.44,2.73-3.07,3.56-6.5,2.46-10.22,4.92-29.18,28.05-52.27,51.66-51.57Z"/>
            <path class="cls-6" d="m158.65,230.57c7.15-5.71,13.27-13.09,18.19-21.95"/>
          </g>
        </g>
        <path class="cls-6" d="m152.97,234.62c5.27-4.3,11.09-7.47,17.15-9.18-9.64,6.86-20.06,11.89-30.96,14.98,9.14-2.59,13.51-5.6,13.98-5.93-.06.04-.12.09-.17.14Z"/>
      </g>
      <path class="cls-5" d="m152.97,234.62c5.27-4.3,11.09-7.47,17.15-9.18-9.64,6.86-20.06,11.89-30.96,14.98,9.14-2.59,13.51-5.6,13.98-5.93-.06.04-.12.09-.17.14Z"/>
    </g>
    <g class="cls-9">
      <g class="cls-1">
        <g class="cls-9">
          <g>
            <path class="cls-6" d="m109.71,250.1c15.47,4.93,32.38,9.82,50.23,14.55,2.27-13.43-4.7-24.58-15.57-24.9-12.8,3.36-25.81,4.68-38.69,3.91,2.81.08,4.61,2.97,4.03,6.44Z"/>
            <path class="cls-6" d="m109.55,246.91c15.37,2.87,32.12,4.68,49.78,5.39"/>
            <path class="cls-6" d="m108.1,244.6c14.44,1.37,29.79.96,45.63-1.23"/>
          </g>
          <path class="cls-6" d="m105.68,243.66c12.88.77,25.89-.55,38.69-3.91-10.86-.32-21.51,10.3-23.77,23.73-5.07-4.35-12.15-8.95-21.06-13.68.59-3.47,3.34-6.22,6.15-6.13Z"/>
          <g>
            <path class="cls-6" d="m159.94,264.65c17.53,4.64,36.14,9.17,55.34,13.46,4.92-29.18-10.23-53.41-33.84-54.12-12.04,7.16-24.51,12.46-37.07,15.75,10.86.32,17.83,11.47,15.57,24.9Z"/>
            <path class="cls-6" d="m177.81,269.25c3.04-18.04-6.32-33.02-20.92-33.46"/>
            <path class="cls-6" d="m196.29,273.75c3.93-23.31-8.17-42.66-27.02-43.22"/>
            <path class="cls-6" d="m159.32,252.3c17.33.7,35.7.36,54.61-1.03"/>
            <path class="cls-6" d="m153.74,243.37c15.55-2.15,31.71-6.01,48.06-11.51"/>
          </g>
          <g>
            <path class="cls-6" d="m144.37,239.75c12.56-3.3,25.03-8.59,37.07-15.75-23.61-.7-46.74,22.38-51.66,51.57-1.11-3.75-4.2-7.82-9.18-12.09,2.27-13.43,12.91-24.05,23.77-23.73Z"/>
            <path class="cls-6" d="m156.89,235.79c-14.6-.44-28.9,13.84-31.94,31.88"/>
            <path class="cls-6" d="m169.27,230.53c-18.85-.56-37.33,17.88-41.26,41.18"/>
          </g>
          <g>
            <path class="cls-6" d="m215.27,278.11c19.01,4.25,38.74,8.3,58.67,12.04,8.44-50.05-17.54-91.6-58.03-92.81-10.96,10.6-22.56,19.56-34.48,26.65,23.61.7,38.76,24.93,33.84,54.12Z"/>
            <path class="cls-6" d="m213.94,251.27c18.73-1.37,38.14-3.78,57.71-7.15"/>
            <path class="cls-6" d="m201.8,231.86c16.19-5.44,32.68-12.51,49.04-21.03"/>
          </g>
          <path class="cls-6" d="m181.44,224c11.92-7.09,23.52-16.05,34.48-26.65-40.49-1.21-80.16,38.39-88.6,88.44,2.73-3.07,3.56-6.5,2.46-10.22,4.92-29.18,28.05-52.27,51.66-51.57Z"/>
        </g>
        <path class="cls-6" d="m170.12,225.44c3.71-1.05,7.51-1.56,11.31-1.44,23.61.7,38.76,24.93,33.84,54.12-19.2-4.29-37.81-8.82-55.34-13.46,2.23-13.23-4.5-24.25-15.09-24.88-.16,0-.32-.02-.48-.02-1.75-.05-3.5.18-5.21.66,10.9-3.09,21.32-8.12,30.96-14.98Z"/>
      </g>
      <path class="cls-5" d="m170.12,225.44c3.71-1.05,7.51-1.56,11.31-1.44,23.61.7,38.76,24.93,33.84,54.12-19.2-4.29-37.81-8.82-55.34-13.46,2.23-13.23-4.5-24.25-15.09-24.88-.16,0-.32-.02-.48-.02-1.75-.05-3.5.18-5.21.66,10.9-3.09,21.32-8.12,30.96-14.98Z"/>
    </g>
    <g class="cls-9">
      <g class="cls-15">
        <g class="cls-9">
          <g>
            <path class="cls-6" d="m105.68,243.66c12.88.77,25.89-.55,38.69-3.91-10.86-.32-21.51,10.3-23.77,23.73-5.07-4.35-12.15-8.95-21.06-13.68.59-3.47,3.34-6.22,6.15-6.13Z"/>
            <path class="cls-6" d="m100.77,246.65c9.7,2.7,17.97,4.26,24.59,4.64"/>
          </g>
          <path class="cls-6" d="m99.54,249.8c8.91,4.73,15.99,9.33,21.06,13.68-2.27,13.43,4.7,24.58,15.57,24.9-10.13-12.44-21.1-23.26-32.61-32.15-2.81-.08-4.61-2.97-4.03-6.44Z"/>
          <g>
            <path class="cls-6" d="m144.37,239.75c12.56-3.3,25.03-8.59,37.07-15.75-23.61-.7-46.74,22.38-51.66,51.57-1.11-3.75-4.2-7.82-9.18-12.09,2.27-13.43,12.91-24.05,23.77-23.73Z"/>
            <path class="cls-6" d="m156.89,235.79c-14.6-.44-28.9,13.84-31.94,31.88"/>
            <path class="cls-6" d="m169.27,230.53c-18.85-.56-37.33,17.88-41.26,41.18"/>
            <path class="cls-6" d="m125.35,251.29c6.5.38,11.46-.36,14.76-2.22"/>
          </g>
          <g>
            <path class="cls-6" d="m120.6,263.48c4.98,4.27,8.07,8.33,9.18,12.09-4.92,29.18,10.23,53.41,33.84,54.12-8.27-15.2-17.5-29.09-27.44-41.3-10.86-.32-17.83-11.47-15.57-24.9Z"/>
            <path class="cls-6" d="m124.94,267.68c-3.04,18.04,6.32,33.02,20.92,33.46"/>
            <path class="cls-6" d="m128.01,271.71c-3.93,23.31,8.17,42.66,27.02,43.22"/>
          </g>
          <g>
            <path class="cls-6" d="m181.44,224c11.92-7.09,23.52-16.05,34.48-26.65-40.49-1.21-80.16,38.39-88.6,88.44,2.73-3.07,3.56-6.5,2.46-10.22,4.92-29.18,28.05-52.27,51.66-51.57Z"/>
            <path class="cls-6" d="m140.11,249.07c3.27-1.83,4.93-4.77,4.93-8.72"/>
          </g>
          <path class="cls-6" d="m129.77,275.57c1.1,3.72.28,7.15-2.46,10.22-8.44,50.05,17.54,91.6,58.03,92.81-6.23-17.41-13.55-33.86-21.73-48.91-23.61-.7-38.76-24.93-33.84-54.12Z"/>
        </g>
        <path class="cls-6" d="m131.27,244.64c8.38-1.74,15.69-5.11,21.7-10.02-11.51,9.38-20.37,24.16-23.2,40.94-1.1,6.52-1.2,12.79-.42,18.61-1.02-7.69-4.03-15.13-8.95-22.13-.36-2.68-.31-5.56.2-8.56,1.3-7.72,5.38-14.52,10.67-18.84Z"/>
      </g>
      <path class="cls-5" d="m131.27,244.64c8.38-1.74,15.69-5.11,21.7-10.02-11.51,9.38-20.37,24.16-23.2,40.94-1.1,6.52-1.2,12.79-.42,18.61-1.02-7.69-4.03-15.13-8.95-22.13-.36-2.68-.31-5.56.2-8.56,1.3-7.72,5.38-14.52,10.67-18.84Z"/>
    </g>
    <g class="cls-9">
      <g class="cls-22">
        <g class="cls-9">
          <g>
            <path class="cls-6" d="m99.54,249.8c8.91,4.73,15.99,9.33,21.06,13.68-2.27,13.43,4.7,24.58,15.57,24.9-10.13-12.44-21.1-23.26-32.61-32.15-2.81-.08-4.61-2.97-4.03-6.44Z"/>
            <path class="cls-6" d="m99.7,252.99c9.01,6.79,16.25,14.48,21.52,22.84"/>
          </g>
          <g>
            <path class="cls-6" d="m120.6,263.48c4.98,4.27,8.07,8.33,9.18,12.09-4.92,29.18,10.23,53.41,33.84,54.12-8.27-15.2-17.5-29.09-27.44-41.3-10.86-.32-17.83-11.47-15.57-24.9Z"/>
            <path class="cls-6" d="m124.94,267.68c-3.04,18.04,6.32,33.02,20.92,33.46"/>
            <path class="cls-6" d="m128.01,271.71c-3.93,23.31,8.17,42.66,27.02,43.22"/>
            <path class="cls-6" d="m121.21,275.83c5.18,8.21,8.51,17.15,9.9,26.58"/>
          </g>
          <g>
            <path class="cls-6" d="m129.77,275.57c1.1,3.72.28,7.15-2.46,10.22-8.44,50.05,17.54,91.6,58.03,92.81-6.23-17.41-13.55-33.86-21.73-48.91-23.61-.7-38.76-24.93-33.84-54.12Z"/>
            <path class="cls-6" d="m131.11,302.41c1.38,9.34.88,19.23-1.5,29.41"/>
          </g>
        </g>
        <path class="cls-6" d="m123.28,280.56c5.84,9.72,9.98,20.52,12.33,32.12-3.18-5.29-5.34-11.58-6.26-18.5,0,.07.02.13.03.2-.21-1.13-.99-3.6-2.19-6.33-1.5-3.41-2.95-5.86-3.9-7.48Z"/>
      </g>
      <path class="cls-5" d="m123.28,280.56c5.84,9.72,9.98,20.52,12.33,32.12-3.18-5.29-5.34-11.58-6.26-18.5,0,.07.02.13.03.2-.21-1.13-.99-3.6-2.19-6.33-1.5-3.41-2.95-5.86-3.9-7.48Z"/>
    </g>
    <g class="cls-9">
      <g class="cls-35">
        <g class="cls-9">
          <g>
            <path class="cls-6" d="m99.54,249.8c8.91,4.73,15.99,9.33,21.06,13.68-2.27,13.43,4.7,24.58,15.57,24.9-10.13-12.44-21.1-23.26-32.61-32.15-2.81-.08-4.61-2.97-4.03-6.44Z"/>
            <path class="cls-6" d="m99.7,252.99c9.01,6.79,16.25,14.48,21.52,22.84"/>
          </g>
          <g>
            <path class="cls-6" d="m120.6,263.48c4.98,4.27,8.07,8.33,9.18,12.09-4.92,29.18,10.23,53.41,33.84,54.12-8.27-15.2-17.5-29.09-27.44-41.3-10.86-.32-17.83-11.47-15.57-24.9Z"/>
            <path class="cls-6" d="m124.94,267.68c-3.04,18.04,6.32,33.02,20.92,33.46"/>
            <path class="cls-6" d="m128.01,271.71c-3.93,23.31,8.17,42.66,27.02,43.22"/>
            <path class="cls-6" d="m121.21,275.83c5.18,8.21,8.51,17.15,9.9,26.58"/>
          </g>
          <g>
            <path class="cls-6" d="m129.77,275.57c1.1,3.72.28,7.15-2.46,10.22-8.44,50.05,17.54,91.6,58.03,92.81-6.23-17.41-13.55-33.86-21.73-48.91-23.61-.7-38.76-24.93-33.84-54.12Z"/>
            <path class="cls-6" d="m131.11,302.41c1.38,9.34.88,19.23-1.5,29.41"/>
          </g>
        </g>
        <path class="cls-6" d="m129.35,294.17c0,.07.02.13.03.2-.11-.56-1.23-5.71-6.1-13.82-1.46-2.43-2.46-5.33-2.88-8.51,4.92,7,7.93,14.44,8.95,22.13Z"/>
      </g>
      <path class="cls-5" d="m129.35,294.17c0,.07.02.13.03.2-.11-.56-1.23-5.71-6.1-13.82-1.46-2.43-2.46-5.33-2.88-8.51,4.92,7,7.93,14.44,8.95,22.13Z"/>
    </g>
    <g class="cls-9">
      <g class="cls-20">
        <g class="cls-9">
          <g>
            <path class="cls-6" d="m99.54,249.8c8.91,4.73,15.99,9.33,21.06,13.68-2.27,13.43,4.7,24.58,15.57,24.9-10.13-12.44-21.1-23.26-32.61-32.15-2.81-.08-4.61-2.97-4.03-6.44Z"/>
            <path class="cls-6" d="m101.14,255.3c9.94,8.28,18.58,18.2,25.66,29.46"/>
          </g>
          <g>
            <path class="cls-6" d="m159.94,264.65c-17.86-4.73-34.76-9.63-50.23-14.55-.59,3.47-3.34,6.22-6.15,6.13,11.51,8.89,22.48,19.7,32.61,32.15"/>
            <path class="cls-6" d="m106.27,255.45c13.26,8.38,26.84,18.44,40.38,29.9"/>
            <path class="cls-6" d="m108.48,253.25c14.68,6.96,30.4,14.9,46.71,23.59"/>
          </g>
          <g>
            <path class="cls-6" d="m120.6,263.48c4.98,4.27,8.07,8.33,9.18,12.09-4.92,29.18,10.23,53.41,33.84,54.12-8.27-15.2-17.5-29.09-27.44-41.3-10.86-.32-17.83-11.47-15.57-24.9Z"/>
            <path class="cls-6" d="m124.94,267.68c-3.04,18.04,6.32,33.02,20.92,33.46"/>
            <path class="cls-6" d="m128.01,271.71c-3.93,23.31,8.17,42.66,27.02,43.22"/>
            <path class="cls-6" d="m126.8,284.76c6.96,11.06,12.49,23.52,16.45,37.06"/>
          </g>
          <g>
            <path class="cls-6" d="m136.17,288.38c9.94,12.21,19.18,26.1,27.44,41.3,23.61.7,46.74-22.38,51.66-51.57-19.2-4.29-37.81-8.82-55.34-13.46"/>
            <path class="cls-6" d="m145.86,301.14c14.6.44,28.9-13.84,31.94-31.88"/>
            <path class="cls-6" d="m155.03,314.93c18.85.56,37.33-17.88,41.26-41.18"/>
            <path class="cls-6" d="m146.66,285.36c13.29,11.25,26.66,23.94,39.75,37.75"/>
            <path class="cls-6" d="m155.18,276.84c16.01,8.53,32.74,17.87,49.76,27.77"/>
          </g>
          <g>
            <path class="cls-6" d="m129.77,275.57c1.1,3.72.28,7.15-2.46,10.22-8.44,50.05,17.54,91.6,58.03,92.81-6.23-17.41-13.55-33.86-21.73-48.91-23.61-.7-38.76-24.93-33.84-54.12Z"/>
            <path class="cls-6" d="m143.25,321.83c3.92,13.41,6.34,27.96,7.18,43.29"/>
          </g>
          <g>
            <path class="cls-6" d="m163.61,329.68c8.19,15.05,15.5,31.5,21.73,48.91,40.49,1.21,80.16-38.39,88.6-88.44-19.93-3.74-39.66-7.79-58.67-12.04-4.92,29.18-28.05,52.27-51.66,51.57Z"/>
            <path class="cls-6" d="m186.4,323.11c12.96,13.67,25.76,28.54,38.03,44.21"/>
            <path class="cls-6" d="m204.94,304.61c16.85,9.8,34.09,20.22,51.28,30.99"/>
          </g>
        </g>
        <path class="cls-6" d="m159.94,264.65c17.53,4.64,36.14,9.17,55.34,13.46-4.92,29.18-28.05,52.27-51.66,51.57-12.05-.36-21.9-6.85-28-17.01-2.34-11.6-6.49-22.41-12.33-32.12,1.02,1.69,2.26,3.17,3.7,4.36,2.53,2.1,5.65,3.36,9.19,3.46"/>
      </g>
      <path class="cls-5" d="m159.94,264.65c17.53,4.64,36.14,9.17,55.34,13.46-4.92,29.18-28.05,52.27-51.66,51.57-12.05-.36-21.9-6.85-28-17.01-2.34-11.6-6.49-22.41-12.33-32.12,1.02,1.69,2.26,3.17,3.7,4.36,2.53,2.1,5.65,3.36,9.19,3.46"/>
    </g>
    <g class="cls-9">
      <g class="cls-10">
        <g class="cls-9">
          <g>
            <path class="cls-6" d="m144.37,239.75c12.56-3.3,25.03-8.59,37.07-15.75-23.61-.7-46.74,22.38-51.66,51.57-1.11-3.75-4.2-7.82-9.18-12.09,2.27-13.43,12.91-24.05,23.77-23.73Z"/>
            <path class="cls-6" d="m125.35,251.29c6.5.38,11.46-.36,14.76-2.22"/>
          </g>
          <path class="cls-6" d="m120.6,263.48c4.98,4.27,8.07,8.33,9.18,12.09-4.92,29.18,10.23,53.41,33.84,54.12-8.27-15.2-17.5-29.09-27.44-41.3-10.86-.32-17.83-11.47-15.57-24.9Z"/>
          <g>
            <path class="cls-6" d="m181.44,224c11.92-7.09,23.52-16.05,34.48-26.65-40.49-1.21-80.16,38.39-88.6,88.44,2.73-3.07,3.56-6.5,2.46-10.22,4.92-29.18,28.05-52.27,51.66-51.57Z"/>
            <path class="cls-6" d="m193.24,216.3c-28.79-.86-57,27.3-63.01,62.89"/>
            <path class="cls-6" d="m140.11,249.07c3.27-1.83,4.93-4.77,4.93-8.72"/>
          </g>
          <g>
            <path class="cls-6" d="m129.77,275.57c1.1,3.72.28,7.15-2.46,10.22-8.44,50.05,17.54,91.6,58.03,92.81-6.23-17.41-13.55-33.86-21.73-48.91-23.61-.7-38.76-24.93-33.84-54.12Z"/>
            <path class="cls-6" d="m130.24,279.19c-6,35.59,12.47,65.14,41.26,66"/>
          </g>
        </g>
        <path class="cls-6" d="m152.97,234.62c-4.34,3.66-8.38,9.71-9.15,10.88-1.07,1.64-2.47,3.84-3.38,5.57-.73,1.39-1.73,3.22-2.4,4.64-.79,1.65-1.8,3.87-2.47,5.56-1.24,3.12-2.66,7.37-3.59,10.59-.81,2.8-1.27,5.26-1.86,8.38,0,.03-.66,3.71-.87,7.42-.19,3.36-.05,5.39.1,6.51-.77-5.82-.68-12.09.42-18.61,2.83-16.79,11.69-31.56,23.2-40.94Z"/>
      </g>
      <path class="cls-5" d="m152.97,234.62c-4.34,3.66-8.38,9.71-9.15,10.88-1.07,1.64-2.47,3.84-3.38,5.57-.73,1.39-1.73,3.22-2.4,4.64-.79,1.65-1.8,3.87-2.47,5.56-1.24,3.12-2.66,7.37-3.59,10.59-.81,2.8-1.27,5.26-1.86,8.38,0,.03-.66,3.71-.87,7.42-.19,3.36-.05,5.39.1,6.51-.77-5.82-.68-12.09.42-18.61,2.83-16.79,11.69-31.56,23.2-40.94Z"/>
    </g>
    <g class="cls-9">
      <g class="cls-13">
        <g class="cls-9">
          <g>
            <path class="cls-6" d="m144.37,239.75c12.56-3.3,25.03-8.59,37.07-15.75-23.61-.7-46.74,22.38-51.66,51.57-1.11-3.75-4.2-7.82-9.18-12.09,2.27-13.43,12.91-24.05,23.77-23.73Z"/>
            <path class="cls-6" d="m125.35,251.29c6.5.38,11.46-.36,14.76-2.22"/>
          </g>
          <path class="cls-6" d="m120.6,263.48c4.98,4.27,8.07,8.33,9.18,12.09-4.92,29.18,10.23,53.41,33.84,54.12-8.27-15.2-17.5-29.09-27.44-41.3-10.86-.32-17.83-11.47-15.57-24.9Z"/>
          <g>
            <path class="cls-6" d="m181.44,224c11.92-7.09,23.52-16.05,34.48-26.65-40.49-1.21-80.16,38.39-88.6,88.44,2.73-3.07,3.56-6.5,2.46-10.22,4.92-29.18,28.05-52.27,51.66-51.57Z"/>
            <path class="cls-6" d="m193.24,216.3c-28.79-.86-57,27.3-63.01,62.89"/>
            <path class="cls-6" d="m204.76,207.4c-34.43-1.03-68.16,32.64-75.34,75.2"/>
            <path class="cls-6" d="m140.11,249.07c3.27-1.83,4.93-4.77,4.93-8.72"/>
          </g>
          <g>
            <path class="cls-6" d="m129.77,275.57c1.1,3.72.28,7.15-2.46,10.22-8.44,50.05,17.54,91.6,58.03,92.81-6.23-17.41-13.55-33.86-21.73-48.91-23.61-.7-38.76-24.93-33.84-54.12Z"/>
            <path class="cls-6" d="m130.24,279.19c-6,35.59,12.47,65.14,41.26,66"/>
            <path class="cls-6" d="m129.42,282.6c-7.18,42.56,14.91,77.89,49.34,78.92"/>
          </g>
          <g>
            <path class="cls-6" d="m215.92,197.35c10.95-10.6,21.36-22.92,30.91-36.6-60.95-1.82-120.66,57.78-133.37,133.12,6.45-2.3,11.12-5.01,13.85-8.08,8.44-50.05,48.11-89.64,88.6-88.44Z"/>
            <path class="cls-6" d="m145.04,240.35c0-3.95-1.65-8.96-4.9-14.88"/>
          </g>
          <path class="cls-6" d="m127.32,285.79c-2.73,3.06-7.4,5.78-13.85,8.08-12.71,75.34,26.4,137.88,87.34,139.7-4.03-19.07-9.23-37.57-15.46-54.97-40.49-1.21-66.47-42.76-58.03-92.81Z"/>
        </g>
        <path class="cls-6" d="m130.12,280.28c-.15.83-1.43,8.28-.76,13.89,1.01,7.61.09,15.52-2.76,23.52-1.33-9.98-1.16-20.73.73-31.91,4.86-28.79,20.05-54.12,39.78-70.22-3.41,7.79-8.17,14.19-14.13,19.05-2.72,2.23-6.06,6.45-7.26,8.15-1.07,1.52-2.49,3.55-3.43,5.15q-2.22,3.77-4.54,8.41c-1.21,2.41-3.36,7.77-4.27,10.61-1.2,3.76-2.23,7.01-3.36,13.34Z"/>
      </g>
      <path class="cls-5" d="m130.12,280.28c-.15.83-1.43,8.28-.76,13.89,1.01,7.61.09,15.52-2.76,23.52-1.33-9.98-1.16-20.73.73-31.91,4.86-28.79,20.05-54.12,39.78-70.22-3.41,7.79-8.17,14.19-14.13,19.05-2.72,2.23-6.06,6.45-7.26,8.15-1.07,1.52-2.49,3.55-3.43,5.15q-2.22,3.77-4.54,8.41c-1.21,2.41-3.36,7.77-4.27,10.61-1.2,3.76-2.23,7.01-3.36,13.34Z"/>
    </g>
    <g class="cls-9">
      <g class="cls-18">
        <g class="cls-9">
          <g>
            <path class="cls-6" d="m159.94,264.65c17.53,4.64,36.14,9.17,55.34,13.46,4.92-29.18-10.23-53.41-33.84-54.12-12.04,7.16-24.51,12.46-37.07,15.75,10.86.32,17.83,11.47,15.57,24.9Z"/>
            <path class="cls-6" d="m159.32,252.3c17.33.7,35.7.36,54.61-1.03"/>
            <path class="cls-6" d="m153.74,243.37c15.55-2.15,31.71-6.01,48.06-11.51"/>
          </g>
          <g>
            <path class="cls-6" d="m144.37,239.75c12.56-3.3,25.03-8.59,37.07-15.75-23.61-.7-46.74,22.38-51.66,51.57-1.11-3.75-4.2-7.82-9.18-12.09,2.27-13.43,12.91-24.05,23.77-23.73Z"/>
            <path class="cls-6" d="m133.88,242.78c9.22-2.33,17.55-6.44,24.76-12.21"/>
          </g>
          <g>
            <path class="cls-6" d="m215.27,278.11c19.01,4.25,38.74,8.3,58.67,12.04,8.44-50.05-17.54-91.6-58.03-92.81-10.96,10.6-22.56,19.56-34.48,26.65,23.61.7,38.76,24.93,33.84,54.12Z"/>
            <path class="cls-6" d="m234.51,282.29c6-35.59-12.47-65.14-41.26-66"/>
            <path class="cls-6" d="m254.1,286.32c7.18-42.56-14.91-77.89-49.34-78.92"/>
            <path class="cls-6" d="m213.94,251.27c18.73-1.37,38.14-3.78,57.71-7.15"/>
            <path class="cls-6" d="m201.8,231.86c16.19-5.44,32.68-12.51,49.04-21.03"/>
          </g>
          <g>
            <path class="cls-6" d="m181.44,224c11.92-7.09,23.52-16.05,34.48-26.65-40.49-1.21-80.16,38.39-88.6,88.44,2.73-3.07,3.56-6.5,2.46-10.22,4.92-29.18,28.05-52.27,51.66-51.57Z"/>
            <path class="cls-6" d="m193.24,216.3c-28.79-.86-57,27.3-63.01,62.89"/>
            <path class="cls-6" d="m204.76,207.4c-34.43-1.03-68.16,32.64-75.34,75.2"/>
            <path class="cls-6" d="m158.65,230.57c7.15-5.71,13.27-13.09,18.19-21.95"/>
          </g>
          <g>
            <path class="cls-6" d="m273.95,290.16c19.92,3.74,40.19,7.2,60.23,10.29,12.71-75.34-26.4-137.88-87.34-139.7-9.56,13.69-19.96,26.01-30.91,36.6,40.49,1.21,66.47,42.76,58.03,92.81Z"/>
            <path class="cls-6" d="m271.65,244.12c19.56-3.37,39.44-7.74,59.07-12.97"/>
            <path class="cls-6" d="m250.84,210.83c16.35-8.51,32.69-18.55,48.55-29.8"/>
          </g>
          <g>
            <path class="cls-6" d="m215.92,197.35c10.95-10.6,21.36-22.92,30.91-36.6-60.95-1.82-120.66,57.78-133.37,133.12,6.45-2.3,11.12-5.01,13.85-8.08,8.44-50.05,48.11-89.64,88.6-88.44Z"/>
            <path class="cls-6" d="m176.83,208.62c4.91-8.85,8.67-19.26,11.16-30.91"/>
          </g>
        </g>
        <path class="cls-6" d="m167.1,215.57c14.57-11.88,31.62-18.73,48.82-18.22,40.49,1.21,66.47,42.76,58.03,92.81-19.93-3.74-39.66-7.79-58.67-12.04,4.92-29.18-10.23-53.41-33.84-54.12-3.81-.11-7.61.39-11.31,1.44-6.06,1.72-11.88,4.88-17.15,9.18,5.96-4.86,10.72-11.27,14.13-19.05Z"/>
      </g>
      <path class="cls-5" d="m167.1,215.57c14.57-11.88,31.62-18.73,48.82-18.22,40.49,1.21,66.47,42.76,58.03,92.81-19.93-3.74-39.66-7.79-58.67-12.04,4.92-29.18-10.23-53.41-33.84-54.12-3.81-.11-7.61.39-11.31,1.44-6.06,1.72-11.88,4.88-17.15,9.18,5.96-4.86,10.72-11.27,14.13-19.05Z"/>
    </g>
    <g class="cls-9">
      <g class="cls-36">
        <g class="cls-9">
          <g>
            <path class="cls-6" d="m120.6,263.48c4.98,4.27,8.07,8.33,9.18,12.09-4.92,29.18,10.23,53.41,33.84,54.12-8.27-15.2-17.5-29.09-27.44-41.3-10.86-.32-17.83-11.47-15.57-24.9Z"/>
            <path class="cls-6" d="m121.21,275.83c5.18,8.21,8.51,17.15,9.9,26.58"/>
            <path class="cls-6" d="m126.8,284.76c6.96,11.06,12.49,23.52,16.45,37.06"/>
          </g>
          <g>
            <path class="cls-6" d="m136.17,288.38c9.94,12.21,19.18,26.1,27.44,41.3,23.61.7,46.74-22.38,51.66-51.57-19.2-4.29-37.81-8.82-55.34-13.46-2.27,13.43-12.91,24.05-23.77,23.73Z"/>
            <path class="cls-6" d="m146.66,285.36c13.29,11.25,26.66,23.94,39.75,37.75"/>
            <path class="cls-6" d="m155.18,276.84c16.01,8.53,32.74,17.87,49.76,27.77"/>
          </g>
          <g>
            <path class="cls-6" d="m129.77,275.57c1.1,3.72.28,7.15-2.46,10.22-8.44,50.05,17.54,91.6,58.03,92.81-6.23-17.41-13.55-33.86-21.73-48.91-23.61-.7-38.76-24.93-33.84-54.12Z"/>
            <path class="cls-6" d="m130.24,279.19c-6,35.59,12.47,65.14,41.26,66"/>
            <path class="cls-6" d="m129.42,282.6c-7.18,42.56,14.91,77.89,49.34,78.92"/>
            <path class="cls-6" d="m131.11,302.41c1.38,9.34.88,19.23-1.5,29.41"/>
            <path class="cls-6" d="m143.25,321.83c3.92,13.41,6.34,27.96,7.18,43.29"/>
          </g>
          <g>
            <path class="cls-6" d="m163.61,329.68c8.19,15.05,15.5,31.5,21.73,48.91,40.49,1.21,80.16-38.39,88.6-88.44-19.93-3.74-39.66-7.79-58.67-12.04-4.92,29.18-28.05,52.27-51.66,51.57Z"/>
            <path class="cls-6" d="m171.5,345.18c28.79.86,57-27.3,63.01-62.89"/>
            <path class="cls-6" d="m178.76,361.52c34.43,1.03,68.16-32.64,75.34-75.2"/>
            <path class="cls-6" d="m186.4,323.11c12.96,13.67,25.76,28.54,38.03,44.21"/>
            <path class="cls-6" d="m204.94,304.61c16.85,9.8,34.09,20.22,51.28,30.99"/>
          </g>
          <g>
            <path class="cls-6" d="m127.32,285.79c-2.73,3.06-7.4,5.78-13.85,8.08-12.71,75.34,26.4,137.88,87.34,139.7-4.03-19.07-9.23-37.57-15.46-54.97-40.49-1.21-66.47-42.76-58.03-92.81Z"/>
            <path class="cls-6" d="m129.61,331.82c-2.38,10.18-6.66,20.72-12.7,31.34"/>
            <path class="cls-6" d="m150.43,365.12c.84,15.32.1,31.53-2.18,48.16"/>
          </g>
          <g>
            <path class="cls-6" d="m185.34,378.59c6.23,17.4,11.43,35.9,15.46,54.97,60.95,1.82,120.66-57.78,133.37-133.12-20.04-3.09-40.31-6.55-60.23-10.29-8.44,50.05-48.11,89.64-88.6,88.44Z"/>
            <path class="cls-6" d="m224.43,367.32c12.27,15.66,24.12,32.25,35.21,49.28"/>
            <path class="cls-6" d="m256.22,335.6c17.18,10.76,34.43,21.95,51.27,33.25"/>
          </g>
        </g>
        <path class="cls-6" d="m129.35,294.17c.92,6.93,3.08,13.21,6.26,18.5,6.1,10.15,15.95,16.65,28,17.01,23.61.7,46.74-22.38,51.66-51.57,19.01,4.25,38.74,8.3,58.67,12.04-8.44,50.05-48.11,89.64-88.6,88.44-31.45-.94-54.14-26.21-58.75-60.9,2.85-8,3.77-15.91,2.76-23.52Z"/>
      </g>
      <path class="cls-5" d="m129.35,294.17c.92,6.93,3.08,13.21,6.26,18.5,6.1,10.15,15.95,16.65,28,17.01,23.61.7,46.74-22.38,51.66-51.57,19.01,4.25,38.74,8.3,58.67,12.04-8.44,50.05-48.11,89.64-88.6,88.44-31.45-.94-54.14-26.21-58.75-60.9,2.85-8,3.77-15.91,2.76-23.52Z"/>
    </g>
    <g class="cls-9">
      <g class="cls-29">
        <g class="cls-9">
          <g>
            <path class="cls-6" d="m215.27,278.11c19.01,4.25,38.74,8.3,58.67,12.04,8.44-50.05-17.54-91.6-58.03-92.81-10.96,10.6-22.56,19.56-34.48,26.65,23.61.7,38.76,24.93,33.84,54.12Z"/>
            <path class="cls-6" d="m213.94,251.27c18.73-1.37,38.14-3.78,57.71-7.15"/>
            <path class="cls-6" d="m201.8,231.86c16.19-5.44,32.68-12.51,49.04-21.03"/>
          </g>
          <g>
            <path class="cls-6" d="m181.44,224c11.92-7.09,23.52-16.05,34.48-26.65-40.49-1.21-80.16,38.39-88.6,88.44,2.73-3.07,3.56-6.5,2.46-10.22,4.92-29.18,28.05-52.27,51.66-51.57Z"/>
            <path class="cls-6" d="m158.65,230.57c7.15-5.71,13.27-13.09,18.19-21.95"/>
            <path class="cls-6" d="m140.11,249.07c3.27-1.83,4.93-4.77,4.93-8.72"/>
          </g>
          <g>
            <path class="cls-6" d="m129.77,275.57c1.1,3.72.28,7.15-2.46,10.22-8.44,50.05,17.54,91.6,58.03,92.81-6.23-17.41-13.55-33.86-21.73-48.91-23.61-.7-38.76-24.93-33.84-54.12Z"/>
            <path class="cls-6" d="m131.11,302.41c1.38,9.34.88,19.23-1.5,29.41"/>
            <path class="cls-6" d="m143.25,321.83c3.92,13.41,6.34,27.96,7.18,43.29"/>
          </g>
          <g>
            <path class="cls-6" d="m163.61,329.68c8.19,15.05,15.5,31.5,21.73,48.91,40.49,1.21,80.16-38.39,88.6-88.44-19.93-3.74-39.66-7.79-58.67-12.04-4.92,29.18-28.05,52.27-51.66,51.57Z"/>
            <path class="cls-6" d="m186.4,323.11c12.96,13.67,25.76,28.54,38.03,44.21"/>
            <path class="cls-6" d="m204.94,304.61c16.85,9.8,34.09,20.22,51.28,30.99"/>
          </g>
          <g>
            <path class="cls-6" d="m273.95,290.16c19.92,3.74,40.19,7.2,60.23,10.29,12.71-75.34-26.4-137.88-87.34-139.7-9.56,13.69-19.96,26.01-30.91,36.6,40.49,1.21,66.47,42.76,58.03,92.81Z"/>
            <path class="cls-6" d="m293.96,293.8c9.79-58.03-20.33-106.21-67.28-107.61"/>
            <path class="cls-6" d="m314.08,297.24c11.21-66.48-23.29-121.67-77.07-123.27"/>
            <path class="cls-6" d="m271.65,244.12c19.56-3.37,39.44-7.74,59.07-12.97"/>
            <path class="cls-6" d="m250.84,210.83c16.35-8.51,32.69-18.55,48.55-29.8"/>
          </g>
          <g>
            <path class="cls-6" d="m215.92,197.35c10.95-10.6,21.36-22.92,30.91-36.6-60.95-1.82-120.66,57.78-133.37,133.12,6.45-2.3,11.12-5.01,13.85-8.08,8.44-50.05,48.11-89.64,88.6-88.44Z"/>
            <path class="cls-6" d="m226.68,186.19c-46.95-1.4-92.94,44.51-102.73,102.54"/>
            <path class="cls-6" d="m237,173.96c-53.78-1.6-106.47,50.99-117.69,117.47"/>
            <path class="cls-6" d="m176.83,208.62c4.91-8.85,8.67-19.26,11.16-30.91"/>
            <path class="cls-6" d="m145.04,240.35c0-3.95-1.65-8.96-4.9-14.88"/>
          </g>
          <g>
            <path class="cls-6" d="m127.32,285.79c-2.73,3.06-7.4,5.78-13.85,8.08-12.71,75.34,26.4,137.88,87.34,139.7-4.03-19.07-9.23-37.57-15.46-54.97-40.49-1.21-66.47-42.76-58.03-92.81Z"/>
            <path class="cls-6" d="m123.95,288.73c-9.79,58.03,20.33,106.21,67.28,107.61"/>
            <path class="cls-6" d="m119.32,291.43c-11.21,66.48,23.29,121.67,77.07,123.27"/>
            <path class="cls-6" d="m129.61,331.82c-2.38,10.18-6.66,20.72-12.7,31.34"/>
            <path class="cls-6" d="m150.43,365.12c.84,15.32.1,31.53-2.18,48.16"/>
          </g>
          <g>
            <path class="cls-6" d="m185.34,378.59c6.23,17.4,11.43,35.9,15.46,54.97,60.95,1.82,120.66-57.78,133.37-133.12-20.04-3.09-40.31-6.55-60.23-10.29-8.44,50.05-48.11,89.64-88.6,88.44Z"/>
            <path class="cls-6" d="m191.23,396.34c46.95,1.4,92.94-44.51,102.73-102.54"/>
            <path class="cls-6" d="m196.39,414.7c53.78,1.6,106.47-50.99,117.69-117.47"/>
            <path class="cls-6" d="m224.43,367.32c12.27,15.66,24.12,32.25,35.21,49.28"/>
            <path class="cls-6" d="m256.22,335.6c17.18,10.76,34.43,21.95,51.27,33.25"/>
          </g>
          <g>
            <path class="cls-6" d="m334.17,300.44c20.24,3.11,40.44,5.87,60.03,8.2,17.61-104.37-36.57-191.01-121-193.53-7.85,16.45-16.73,31.8-26.38,45.63,60.95,1.82,100.05,64.36,87.34,139.7Z"/>
            <path class="cls-6" d="m330.72,231.15c19.82-5.29,39.57-11.51,58.7-18.5"/>
            <path class="cls-6" d="m299.39,181.03c16.02-11.37,31.71-24.09,46.63-37.81"/>
          </g>
          <g>
            <path class="cls-6" d="m246.83,160.75c9.65-13.83,18.52-29.18,26.38-45.63-84.43-2.52-167.15,80.05-184.76,184.41,10.07-1.44,18.49-3.35,25.01-5.67,12.71-75.34,72.42-134.93,133.37-133.12Z"/>
            <path class="cls-6" d="m187.99,177.71c2.51-11.77,3.76-24.92,3.7-39.09"/>
            <path class="cls-6" d="m140.15,225.47c-3.29-5.98-8.25-12.94-14.73-20.69"/>
          </g>
          <g>
            <path class="cls-6" d="m113.46,293.86c-6.52,2.32-14.94,4.22-25.01,5.67-17.61,104.37,36.57,191.01,121,193.53-1.67-20.22-4.58-40.24-8.64-59.5-60.95-1.82-100.05-64.36-87.34-139.7Z"/>
            <path class="cls-6" d="m116.92,363.16c-6.11,10.72-14.08,21.61-23.68,32.37"/>
            <path class="cls-6" d="m148.25,413.28c-2.31,16.8-6.21,34.19-11.61,51.68"/>
          </g>
          <g>
            <path class="cls-6" d="m200.81,433.56c4.07,19.26,6.98,39.28,8.64,59.5,84.43,2.52,167.15-80.05,184.76-184.41-19.59-2.33-39.79-5.09-60.03-8.2-12.71,75.34-72.42,134.93-133.37,133.12Z"/>
            <path class="cls-6" d="m259.65,416.6c11.2,17.2,21.74,35.02,31.32,52.96"/>
            <path class="cls-6" d="m307.49,368.84c17,11.41,33.75,23.04,49.75,34.56"/>
          </g>
        </g>
        <path class="cls-6" d="m273.95,290.16c8.44-50.05-17.54-91.6-58.03-92.81-17.2-.51-34.25,6.33-48.82,18.22-19.74,16.09-34.93,41.43-39.78,70.22-1.89,11.18-2.05,21.93-.73,31.91,4.61,34.69,27.31,59.96,58.75,60.9,40.49,1.21,80.16-38.39,88.6-88.44,19.92,3.74,40.19,7.2,60.23,10.29-12.71,75.34-72.42,134.93-133.37,133.12s-100.05-64.36-87.34-139.7c12.71-75.34,72.42-134.93,133.37-133.12s100.05,64.36,87.34,139.7c-20.04-3.09-40.31-6.55-60.23-10.29Z"/>
      </g>
      <path class="cls-5" d="m273.95,290.16c8.44-50.05-17.54-91.6-58.03-92.81-17.2-.51-34.25,6.33-48.82,18.22-19.74,16.09-34.93,41.43-39.78,70.22-1.89,11.18-2.05,21.93-.73,31.91,4.61,34.69,27.31,59.96,58.75,60.9,40.49,1.21,80.16-38.39,88.6-88.44,19.92,3.74,40.19,7.2,60.23,10.29-12.71,75.34-72.42,134.93-133.37,133.12s-100.05-64.36-87.34-139.7c12.71-75.34,72.42-134.93,133.37-133.12s100.05,64.36,87.34,139.7c-20.04-3.09-40.31-6.55-60.23-10.29Z"/>
    </g>
    <g class="cls-9">
      <g class="cls-21">
        <g class="cls-9">
          <g>
            <path class="cls-6" d="m273.95,290.16c19.92,3.74,40.19,7.2,60.23,10.29,12.71-75.34-26.4-137.88-87.34-139.7-9.56,13.69-19.96,26.01-30.91,36.6,40.49,1.21,66.47,42.76,58.03,92.81Z"/>
            <path class="cls-6" d="m271.65,244.12c19.56-3.37,39.44-7.74,59.07-12.97"/>
            <path class="cls-6" d="m250.84,210.83c16.35-8.51,32.69-18.55,48.55-29.8"/>
          </g>
          <g>
            <path class="cls-6" d="m215.92,197.35c10.95-10.6,21.36-22.92,30.91-36.6-60.95-1.82-120.66,57.78-133.37,133.12,6.45-2.3,11.12-5.01,13.85-8.08,8.44-50.05,48.11-89.64,88.6-88.44Z"/>
            <path class="cls-6" d="m176.83,208.62c4.91-8.85,8.67-19.26,11.16-30.91"/>
            <path class="cls-6" d="m145.04,240.35c0-3.95-1.65-8.96-4.9-14.88"/>
          </g>
          <g>
            <path class="cls-6" d="m127.32,285.79c-2.73,3.06-7.4,5.78-13.85,8.08-12.71,75.34,26.4,137.88,87.34,139.7-4.03-19.07-9.23-37.57-15.46-54.97-40.49-1.21-66.47-42.76-58.03-92.81Z"/>
            <path class="cls-6" d="m129.61,331.82c-2.38,10.18-6.66,20.72-12.7,31.34"/>
            <path class="cls-6" d="m150.43,365.12c.84,15.32.1,31.53-2.18,48.16"/>
          </g>
          <g>
            <path class="cls-6" d="m185.34,378.59c6.23,17.4,11.43,35.9,15.46,54.97,60.95,1.82,120.66-57.78,133.37-133.12-20.04-3.09-40.31-6.55-60.23-10.29-8.44,50.05-48.11,89.64-88.6,88.44Z"/>
            <path class="cls-6" d="m224.43,367.32c12.27,15.66,24.12,32.25,35.21,49.28"/>
            <path class="cls-6" d="m256.22,335.6c17.18,10.76,34.43,21.95,51.27,33.25"/>
          </g>
          <g>
            <path class="cls-6" d="m334.17,300.44c20.24,3.11,40.44,5.87,60.03,8.2,17.61-104.37-36.57-191.01-121-193.53-7.85,16.45-16.73,31.8-26.38,45.63,60.95,1.82,100.05,64.36,87.34,139.7Z"/>
            <path class="cls-6" d="m354.38,303.44c14.28-84.67-29.67-154.97-98.17-157.01"/>
            <path class="cls-6" d="m374.43,306.18c15.92-94.37-33.06-172.72-109.41-174.99"/>
            <path class="cls-6" d="m330.72,231.15c19.82-5.29,39.57-11.51,58.7-18.5"/>
            <path class="cls-6" d="m299.39,181.03c16.02-11.37,31.71-24.09,46.63-37.81"/>
          </g>
          <g>
            <path class="cls-6" d="m246.83,160.75c9.65-13.83,18.52-29.18,26.38-45.63-84.43-2.52-167.15,80.05-184.76,184.41,10.07-1.44,18.49-3.35,25.01-5.67,12.71-75.34,72.42-134.93,133.37-133.12Z"/>
            <path class="cls-6" d="m256.21,146.43c-68.5-2.04-135.61,64.94-149.9,149.61"/>
            <path class="cls-6" d="m265.02,131.19c-76.35-2.28-151.14,72.38-167.06,166.75"/>
            <path class="cls-6" d="m187.99,177.71c2.51-11.77,3.76-24.92,3.7-39.09"/>
            <path class="cls-6" d="m140.15,225.47c-3.29-5.98-8.25-12.94-14.73-20.69"/>
          </g>
          <g>
            <path class="cls-6" d="m113.46,293.86c-6.52,2.32-14.94,4.22-25.01,5.67-17.61,104.37,36.57,191.01,121,193.53-1.67-20.22-4.58-40.24-8.64-59.5-60.95-1.82-100.05-64.36-87.34-139.7Z"/>
            <path class="cls-6" d="m106.32,296.04c-14.28,84.67,29.67,154.97,98.17,157.01"/>
            <path class="cls-6" d="m97.96,297.94c-15.92,94.37,33.06,172.72,109.41,174.99"/>
            <path class="cls-6" d="m116.92,363.16c-6.11,10.72-14.08,21.61-23.68,32.37"/>
            <path class="cls-6" d="m148.25,413.28c-2.31,16.8-6.21,34.19-11.61,51.68"/>
          </g>
          <g>
            <path class="cls-6" d="m200.81,433.56c4.07,19.26,6.98,39.28,8.64,59.5,84.43,2.52,167.15-80.05,184.76-184.41-19.59-2.33-39.79-5.09-60.03-8.2-12.71,75.34-72.42,134.93-133.37,133.12Z"/>
            <path class="cls-6" d="m204.49,453.05c68.5,2.04,135.61-64.94,149.9-149.61"/>
            <path class="cls-6" d="m207.37,472.93c76.35,2.28,151.14-72.38,167.06-166.75"/>
            <path class="cls-6" d="m259.65,416.6c11.2,17.2,21.74,35.02,31.32,52.96"/>
            <path class="cls-6" d="m307.49,368.84c17,11.41,33.75,23.04,49.75,34.56"/>
          </g>
          <g>
            <path class="cls-6" d="m394.21,308.65c19.95,2.37,39.49,4.32,58.05,5.78,23.02-136.44-47.81-249.72-158.19-253.01-5.85,18.88-12.87,36.94-20.86,53.7,84.43,2.52,138.61,89.16,121,193.53Z"/>
            <path class="cls-6" d="m389.43,212.65c19.48-7.12,38.52-15.1,56.58-23.72"/>
            <path class="cls-6" d="m346.02,143.22c15.19-13.98,29.74-29.14,43.24-45.06"/>
          </g>
          <g>
            <path class="cls-6" d="m273.21,115.12c8-16.76,15.02-34.82,20.86-53.7-110.38-3.29-218.53,104.65-241.54,241.09,13.57-.51,25.66-1.51,35.92-2.98,17.61-104.37,100.33-186.93,184.76-184.41Z"/>
            <path class="cls-6" d="m191.7,138.62c-.06-14.43-1.47-30.07-4.19-46.47"/>
            <path class="cls-6" d="m125.41,204.78c-6.61-7.9-14.87-16.69-24.56-26.14"/>
          </g>
          <g>
            <path class="cls-6" d="m88.45,299.53c-10.26,1.47-22.35,2.47-35.92,2.98-23.02,136.44,47.81,249.72,158.19,253.01.86-20.85.43-41.87-1.27-62.46-84.43-2.52-138.61-89.16-121-193.53Z"/>
            <path class="cls-6" d="m93.23,395.53c-9.79,10.96-21.38,21.89-34.45,32.49"/>
            <path class="cls-6" d="m136.64,464.96c-5.5,17.82-12.6,35.93-21.11,53.82"/>
          </g>
          <g>
            <path class="cls-6" d="m209.45,493.06c1.7,20.59,2.12,41.61,1.27,62.46,110.38,3.29,218.53-104.65,241.54-241.09-18.57-1.47-38.1-3.41-58.05-5.78-17.61,104.37-100.33,186.93-184.76,184.41Z"/>
            <path class="cls-6" d="m290.96,469.56c9.75,18.27,18.61,36.86,26.32,55.24"/>
            <path class="cls-6" d="m357.25,403.4c16.3,11.73,32.01,23.48,46.69,34.91"/>
          </g>
        </g>
        <path class="cls-6" d="m334.17,300.44c12.71-75.34-26.4-137.88-87.34-139.7s-120.66,57.78-133.37,133.12c-12.71,75.34,26.4,137.88,87.34,139.7s120.66-57.78,133.37-133.12c20.24,3.11,40.44,5.87,60.03,8.2-17.61,104.37-100.33,186.93-184.76,184.41-84.43-2.52-138.61-89.16-121-193.53,17.61-104.37,100.33-186.93,184.76-184.41,84.43,2.52,138.61,89.16,121,193.53-19.59-2.33-39.79-5.09-60.03-8.2Z"/>
      </g>
      <path class="cls-5" d="m334.17,300.44c12.71-75.34-26.4-137.88-87.34-139.7s-120.66,57.78-133.37,133.12c-12.71,75.34,26.4,137.88,87.34,139.7s120.66-57.78,133.37-133.12c20.24,3.11,40.44,5.87,60.03,8.2-17.61,104.37-100.33,186.93-184.76,184.41-84.43-2.52-138.61-89.16-121-193.53,17.61-104.37,100.33-186.93,184.76-184.41,84.43,2.52,138.61,89.16,121,193.53-19.59-2.33-39.79-5.09-60.03-8.2Z"/>
    </g>
    <g class="cls-9">
      <g class="cls-26">
        <g class="cls-9">
          <g>
            <path class="cls-6" d="m334.17,300.44c20.24,3.11,40.44,5.87,60.03,8.2,17.61-104.37-36.57-191.01-121-193.53-7.85,16.45-16.73,31.8-26.38,45.63,60.95,1.82,100.05,64.36,87.34,139.7Z"/>
            <path class="cls-6" d="m330.72,231.15c19.82-5.29,39.57-11.51,58.7-18.5"/>
            <path class="cls-6" d="m299.39,181.03c16.02-11.37,31.71-24.09,46.63-37.81"/>
          </g>
          <g>
            <path class="cls-6" d="m246.83,160.75c9.65-13.83,18.52-29.18,26.38-45.63-84.43-2.52-167.15,80.05-184.76,184.41,10.07-1.44,18.49-3.35,25.01-5.67,12.71-75.34,72.42-134.93,133.37-133.12Z"/>
            <path class="cls-6" d="m187.99,177.71c2.51-11.77,3.76-24.92,3.7-39.09"/>
            <path class="cls-6" d="m140.15,225.47c-3.29-5.98-8.25-12.94-14.73-20.69"/>
          </g>
          <g>
            <path class="cls-6" d="m113.46,293.86c-6.52,2.32-14.94,4.22-25.01,5.67-17.61,104.37,36.57,191.01,121,193.53-1.67-20.22-4.58-40.24-8.64-59.5-60.95-1.82-100.05-64.36-87.34-139.7Z"/>
            <path class="cls-6" d="m116.92,363.16c-6.11,10.72-14.08,21.61-23.68,32.37"/>
            <path class="cls-6" d="m148.25,413.28c-2.31,16.8-6.21,34.19-11.61,51.68"/>
          </g>
          <g>
            <path class="cls-6" d="m200.81,433.56c4.07,19.26,6.98,39.28,8.64,59.5,84.43,2.52,167.15-80.05,184.76-184.41-19.59-2.33-39.79-5.09-60.03-8.2-12.71,75.34-72.42,134.93-133.37,133.12Z"/>
            <path class="cls-6" d="m259.65,416.6c11.2,17.2,21.74,35.02,31.32,52.96"/>
            <path class="cls-6" d="m307.49,368.84c17,11.41,33.75,23.04,49.75,34.56"/>
          </g>
          <g>
            <path class="cls-6" d="m394.21,308.65c19.95,2.37,39.49,4.32,58.05,5.78,23.02-136.44-47.81-249.72-158.19-253.01-5.85,18.88-12.87,36.94-20.86,53.7,84.43,2.52,138.61,89.16,121,193.53Z"/>
            <path class="cls-6" d="m414,310.87c19.37-114.83-40.23-210.16-133.13-212.93"/>
            <path class="cls-6" d="m433.39,312.8c21.18-125.54-43.99-229.77-145.55-232.8"/>
            <path class="cls-6" d="m389.43,212.65c19.48-7.12,38.52-15.1,56.58-23.72"/>
            <path class="cls-6" d="m346.02,143.22c15.19-13.98,29.74-29.14,43.24-45.06"/>
          </g>
          <g>
            <path class="cls-6" d="m273.21,115.12c8-16.76,15.02-34.82,20.86-53.7-110.38-3.29-218.53,104.65-241.54,241.09,13.57-.51,25.66-1.51,35.92-2.98,17.61-104.37,100.33-186.93,184.76-184.41Z"/>
            <path class="cls-6" d="m280.87,97.94c-92.9-2.77-183.91,88.07-203.28,202.9"/>
            <path class="cls-6" d="m287.84,80.01c-101.56-3.03-201.07,96.29-222.25,221.83"/>
            <path class="cls-6" d="m191.7,138.62c-.06-14.43-1.47-30.07-4.19-46.47"/>
            <path class="cls-6" d="m125.41,204.78c-6.61-7.9-14.87-16.69-24.56-26.14"/>
          </g>
          <g>
            <path class="cls-6" d="m88.45,299.53c-10.26,1.47-22.35,2.47-35.92,2.98-23.02,136.44,47.81,249.72,158.19,253.01.86-20.85.43-41.87-1.27-62.46-84.43-2.52-138.61-89.16-121-193.53Z"/>
            <path class="cls-6" d="m77.59,300.84c-19.37,114.83,40.23,210.16,133.13,212.93"/>
            <path class="cls-6" d="m65.59,301.84c-21.18,125.54,43.99,229.77,145.55,232.8"/>
            <path class="cls-6" d="m93.23,395.53c-9.79,10.96-21.38,21.89-34.45,32.49"/>
            <path class="cls-6" d="m136.64,464.96c-5.5,17.82-12.6,35.93-21.11,53.82"/>
          </g>
          <g>
            <path class="cls-6" d="m209.45,493.06c1.7,20.59,2.12,41.61,1.27,62.46,110.38,3.29,218.53-104.65,241.54-241.09-18.57-1.47-38.1-3.41-58.05-5.78-17.61,104.37-100.33,186.93-184.76,184.41Z"/>
            <path class="cls-6" d="m210.72,513.77c92.9,2.77,183.91-88.07,203.28-202.9"/>
            <path class="cls-6" d="m211.15,534.64c101.56,3.03,201.07-96.29,222.25-221.83"/>
            <path class="cls-6" d="m290.96,469.56c9.75,18.27,18.61,36.86,26.32,55.24"/>
            <path class="cls-6" d="m357.25,403.4c16.3,11.73,32.01,23.48,46.69,34.91"/>
          </g>
          <g>
            <path class="cls-6" d="m452.26,314.43c19.05,1.51,37.32,2.53,54.3,3.03C535.39,146.58,446.69,4.71,308.44.59c-3.54,20.99-8.37,41.46-14.37,60.83,110.38,3.29,181.21,116.57,158.19,253.01Z"/>
            <path class="cls-6" d="m446.01,188.93c18.53-8.85,36.27-18.49,52.72-28.65"/>
            <path class="cls-6" d="m389.26,98.16c13.85-16.34,26.77-33.68,38.4-51.56"/>
          </g>
          <g>
            <path class="cls-6" d="m294.07,61.42c6-19.37,10.84-39.83,14.37-60.83C170.2-3.53,34.76,131.65,5.94,302.53c16.99.51,32.66.5,46.59-.02C75.55,166.07,183.69,58.13,294.07,61.42Z"/>
            <path class="cls-6" d="m187.51,92.14c-2.79-16.83-7.01-34.69-12.52-53.07"/>
            <path class="cls-6" d="m100.85,178.63c-9.94-9.7-21.51-20.21-34.4-31.24"/>
          </g>
          <g>
            <path class="cls-6" d="m52.53,302.51c-13.93.52-29.6.53-46.59.02-28.83,170.88,59.87,312.75,198.11,316.87,3.55-20.99,5.79-42.49,6.67-63.88-110.38-3.29-181.21-116.57-158.19-253.01Z"/>
            <path class="cls-6" d="m58.78,428.02c-13.41,10.88-28.56,21.54-45.01,31.7"/>
            <path class="cls-6" d="m115.53,518.78c-8.73,18.36-19.06,36.74-30.69,54.61"/>
          </g>
          <g>
            <path class="cls-6" d="m210.72,555.52c-.88,21.39-3.12,42.89-6.67,63.88,138.24,4.12,273.68-131.06,302.51-301.94-16.98-.5-35.25-1.52-54.3-3.03-23.02,136.44-131.16,244.38-241.54,241.09Z"/>
            <path class="cls-6" d="m317.28,524.8c7.91,18.86,14.72,37.75,20.23,56.13"/>
            <path class="cls-6" d="m403.94,438.31c15.06,11.72,29.23,23.27,42.1,34.3"/>
          </g>
        </g>
        <path class="cls-6" d="m394.21,308.65c17.61-104.37-36.57-191.01-121-193.53-84.43-2.52-167.15,80.05-184.76,184.41-17.61,104.37,36.57,191.01,121,193.53,84.43,2.52,167.15-80.05,184.76-184.41,19.95,2.37,39.49,4.32,58.05,5.78-23.02,136.44-131.16,244.38-241.54,241.09S29.51,438.95,52.53,302.51C75.55,166.07,183.69,58.13,294.07,61.42s181.21,116.57,158.19,253.01c-18.57-1.47-38.1-3.41-58.05-5.78Z"/>
      </g>
      <path class="cls-5" d="m394.21,308.65c17.61-104.37-36.57-191.01-121-193.53-84.43-2.52-167.15,80.05-184.76,184.41-17.61,104.37,36.57,191.01,121,193.53,84.43,2.52,167.15-80.05,184.76-184.41,19.95,2.37,39.49,4.32,58.05,5.78-23.02,136.44-131.16,244.38-241.54,241.09S29.51,438.95,52.53,302.51C75.55,166.07,183.69,58.13,294.07,61.42s181.21,116.57,158.19,253.01c-18.57-1.47-38.1-3.41-58.05-5.78Z"/>
    </g>
    <g class="cls-9">
      <g class="cls-4">
        <g class="cls-9">
          <g>
            <path class="cls-6" d="m394.21,308.65c19.95,2.37,39.49,4.32,58.05,5.78,23.02-136.44-47.81-249.72-158.19-253.01-5.85,18.88-12.87,36.94-20.86,53.7,84.43,2.52,138.61,89.16,121,193.53Z"/>
            <path class="cls-6" d="m389.43,212.65c19.48-7.12,38.52-15.1,56.58-23.72"/>
            <path class="cls-6" d="m346.02,143.22c15.19-13.98,29.74-29.14,43.24-45.06"/>
          </g>
          <g>
            <path class="cls-6" d="m273.21,115.12c8-16.76,15.02-34.82,20.86-53.7-110.38-3.29-218.53,104.65-241.54,241.09,13.57-.51,25.66-1.51,35.92-2.98,17.61-104.37,100.33-186.93,184.76-184.41Z"/>
            <path class="cls-6" d="m191.7,138.62c-.06-14.43-1.47-30.07-4.19-46.47"/>
            <path class="cls-6" d="m125.41,204.78c-6.61-7.9-14.87-16.69-24.56-26.14"/>
          </g>
          <g>
            <path class="cls-6" d="m88.45,299.53c-10.26,1.47-22.35,2.47-35.92,2.98-23.02,136.44,47.81,249.72,158.19,253.01.86-20.85.43-41.87-1.27-62.46-84.43-2.52-138.61-89.16-121-193.53Z"/>
            <path class="cls-6" d="m93.23,395.53c-9.79,10.96-21.38,21.89-34.45,32.49"/>
            <path class="cls-6" d="m136.64,464.96c-5.5,17.82-12.6,35.93-21.11,53.82"/>
          </g>
          <g>
            <path class="cls-6" d="m209.45,493.06c1.7,20.59,2.12,41.61,1.27,62.46,110.38,3.29,218.53-104.65,241.54-241.09-18.57-1.47-38.1-3.41-58.05-5.78-17.61,104.37-100.33,186.93-184.76,184.41Z"/>
            <path class="cls-6" d="m290.96,469.56c9.75,18.27,18.61,36.86,26.32,55.24"/>
            <path class="cls-6" d="m357.25,403.4c16.3,11.73,32.01,23.48,46.69,34.91"/>
          </g>
          <g>
            <path class="cls-6" d="m452.26,314.43c19.05,1.51,37.32,2.53,54.3,3.03C535.39,146.58,446.69,4.71,308.44.59c-3.54,20.99-8.37,41.46-14.37,60.83,110.38,3.29,181.21,116.57,158.19,253.01Z"/>
            <path class="cls-6" d="m471.03,315.77c24.93-147.8-51.78-270.5-171.35-274.06"/>
            <path class="cls-6" d="m489.17,316.78c26.87-159.3-55.81-291.55-184.69-295.4"/>
            <path class="cls-6" d="m446.01,188.93c18.53-8.85,36.27-18.49,52.72-28.65"/>
            <path class="cls-6" d="m389.26,98.16c13.85-16.34,26.77-33.68,38.4-51.56"/>
          </g>
          <g>
            <path class="cls-6" d="m294.07,61.42c6-19.37,10.84-39.83,14.37-60.83C170.2-3.53,34.76,131.65,5.94,302.53c16.99.51,32.66.5,46.59-.02C75.55,166.07,183.69,58.13,294.07,61.42Z"/>
            <path class="cls-6" d="m299.68,41.71c-119.57-3.56-236.71,113.36-261.64,261.15"/>
            <path class="cls-6" d="m304.48,21.39C175.6,17.55,49.34,143.57,22.47,302.87"/>
            <path class="cls-6" d="m187.51,92.14c-2.79-16.83-7.01-34.69-12.52-53.07"/>
            <path class="cls-6" d="m100.85,178.63c-9.94-9.7-21.51-20.21-34.4-31.24"/>
          </g>
          <g>
            <path class="cls-6" d="m52.53,302.51c-13.93.52-29.6.53-46.59.02-28.83,170.88,59.87,312.75,198.11,316.87,3.55-20.99,5.79-42.49,6.67-63.88-110.38-3.29-181.21-116.57-158.19-253.01Z"/>
            <path class="cls-6" d="m38.03,302.86c-24.93,147.8,51.78,270.5,171.35,274.06"/>
            <path class="cls-6" d="m22.47,302.87c-26.87,159.3,55.81,291.55,184.69,295.4"/>
            <path class="cls-6" d="m58.78,428.02c-13.41,10.88-28.56,21.54-45.01,31.7"/>
            <path class="cls-6" d="m115.53,518.78c-8.73,18.36-19.06,36.74-30.69,54.61"/>
          </g>
          <g>
            <path class="cls-6" d="m210.72,555.52c-.88,21.39-3.12,42.89-6.67,63.88,138.24,4.12,273.68-131.06,302.51-301.94-16.98-.5-35.25-1.52-54.3-3.03-23.02,136.44-131.16,244.38-241.54,241.09Z"/>
            <path class="cls-6" d="m209.39,576.93c119.57,3.56,236.71-113.36,261.64-261.15"/>
            <path class="cls-6" d="m207.16,598.26c128.88,3.84,255.13-122.18,282.01-281.48"/>
            <path class="cls-6" d="m317.28,524.8c7.91,18.86,14.72,37.75,20.23,56.13"/>
            <path class="cls-6" d="m403.94,438.31c15.06,11.72,29.23,23.27,42.1,34.3"/>
          </g>
        </g>
        <path class="cls-6" d="m452.26,314.43c23.02-136.44-47.81-249.72-158.19-253.01S75.55,166.07,52.53,302.51c-23.02,136.44,47.81,249.72,158.19,253.01s218.53-104.65,241.54-241.09c19.05,1.51,37.32,2.53,54.3,3.03-28.83,170.88-164.26,306.06-302.51,301.94S-22.89,473.41,5.94,302.53,170.2-3.53,308.44.59c138.24,4.12,226.94,145.99,198.11,316.87-16.98-.5-35.25-1.52-54.3-3.03Z"/>
      </g>
      <path class="cls-5" d="m452.26,314.43c23.02-136.44-47.81-249.72-158.19-253.01S75.55,166.07,52.53,302.51c-23.02,136.44,47.81,249.72,158.19,253.01s218.53-104.65,241.54-241.09c19.05,1.51,37.32,2.53,54.3,3.03-28.83,170.88-164.26,306.06-302.51,301.94S-22.89,473.41,5.94,302.53,170.2-3.53,308.44.59c138.24,4.12,226.94,145.99,198.11,316.87-16.98-.5-35.25-1.52-54.3-3.03Z"/>
    </g>
  </g>
</svg>