<svg width="1668" height="1797" viewBox="0 0 1668 1797" fill="none" xmlns="http://www.w3.org/2000/svg">
<path d="M0.837341 1667.81C140.825 1669.83 278.251 1637.27 418.524 1638.59C557.507 1639.91 694.866 1667.72 834 1667.81C966.519 1667.9 1094.25 1626.93 1226.25 1622.52C1375.87 1617.52 1518.37 1671.17 1667.16 1667.81" stroke="#F0FFF3" stroke-opacity="0.5" stroke-miterlimit="10"/>
<path d="M0.837341 1539.53C127.612 1533.62 229.618 1441.84 359.139 1452.69C518.537 1466.04 673.514 1541.42 834 1539.53C982.579 1537.76 1113.31 1430.56 1258.13 1405.86C1410.93 1379.8 1519.74 1529.08 1667.16 1539.53" stroke="#F0FFF3" stroke-opacity="0.5" stroke-miterlimit="10"/>
<path d="M0.837341 1411.24C67.3731 1405.52 105.406 1370.74 154.424 1326.64C200.662 1285.03 249.262 1268.5 309.501 1276.26C400.605 1287.99 489.498 1321.37 577.084 1349.44C657.755 1375.29 748.59 1412.99 834.017 1411.24C909.948 1409.69 985.979 1359.33 1050.66 1321.69C1125.48 1278.16 1201.4 1225.54 1284.86 1203.57C1447.17 1160.85 1517.48 1392.02 1667.18 1411.26" stroke="#F0FFF3" stroke-opacity="0.5" stroke-miterlimit="10"/>
<path d="M0.837341 1282.96C67.3731 1277.24 105.406 1242.45 154.424 1198.36C200.662 1156.75 249.262 1140.21 309.501 1147.98C400.605 1159.71 489.498 1193.08 577.084 1221.15C657.755 1247 748.59 1284.71 834.017 1282.96C909.948 1281.41 985.979 1231.04 1050.66 1193.41C1125.48 1149.87 1201.4 1097.25 1284.86 1075.29C1447.17 1032.56 1517.48 1263.73 1667.18 1282.98" stroke="#F0FFF3" stroke-opacity="0.5" stroke-miterlimit="10"/>
<path d="M0.837341 1154.67C127.612 1148.77 229.618 1056.98 359.139 1067.83C518.537 1081.19 673.514 1156.57 834 1154.67C982.579 1152.9 1113.31 1045.7 1258.13 1021.01C1410.93 994.944 1519.74 1144.22 1667.16 1154.67" stroke="#F0FFF3" stroke-opacity="0.5" stroke-miterlimit="10"/>
<path d="M0.837341 1026.39C140.825 1028.41 278.251 995.847 418.524 997.164C557.507 998.482 694.866 1026.3 834 1026.39C966.519 1026.48 1094.25 985.504 1226.25 981.099C1375.87 976.099 1518.37 1029.75 1667.16 1026.39" stroke="#F0FFF3" stroke-opacity="0.5" stroke-miterlimit="10"/>
<path d="M0.837341 898.085H1667.16" stroke="#F0FFF3" stroke-opacity="0.5" stroke-miterlimit="10"/>
<path d="M0.837341 769.8C160.838 770.396 320.738 761.118 480.756 762.453C599.793 763.446 717.474 784.854 836.663 785.179C957.408 785.504 1070.37 738.193 1190.23 733.771C1350.56 727.851 1507.23 772.706 1667.16 769.782" stroke="#F0FFF3" stroke-opacity="0.5" stroke-miterlimit="10"/>
<path d="M0.837341 641.515C101.152 640.468 201.332 633.717 301.496 628.067C381.58 623.555 464.16 614.421 544.294 621.046C646.534 629.493 738.308 690.991 842.122 688.591C963.538 685.775 1038.01 562.309 1152.09 536.894C1229.8 519.584 1315.61 551.244 1389.58 574.331C1480.82 602.797 1571.6 636.443 1667.16 641.533" stroke="#F0FFF3" stroke-opacity="0.5" stroke-miterlimit="10"/>
<path d="M0.837341 513.23C112.305 511.226 223.505 500.829 334.672 492.346C419.445 485.865 512.609 469.187 597.365 481.569C689.641 495.053 749.394 590.36 846.661 586.551C976.132 581.497 1007.97 393.302 1120.11 350.848C1197.64 321.498 1298.76 377.797 1369.18 408.79C1465.39 451.118 1562.28 503.537 1667.16 513.23" stroke="#F0FFF3" stroke-opacity="0.5" stroke-miterlimit="10"/>
<path d="M0.837341 384.945C112.305 382.941 223.505 372.544 334.672 364.061C419.445 357.581 512.609 340.902 597.365 353.284C689.641 366.768 749.394 462.075 846.661 458.266C976.132 453.212 1007.97 265.018 1120.11 222.563C1197.64 193.213 1298.76 249.512 1369.18 280.505C1465.39 322.833 1562.28 375.252 1667.16 384.945" stroke="#F0FFF3" stroke-opacity="0.5" stroke-miterlimit="10"/>
<path d="M0.837341 256.66C101.152 255.613 201.332 248.862 301.496 243.213C381.58 238.7 464.16 229.566 544.294 236.191C646.534 244.639 738.308 306.137 842.122 303.736C963.538 300.92 1038.01 177.455 1152.09 152.039C1229.8 134.729 1315.61 166.39 1389.58 189.476C1480.82 217.942 1571.6 251.588 1667.16 256.678" stroke="#F0FFF3" stroke-opacity="0.5" stroke-miterlimit="10"/>
<path d="M0.837341 128.375C160.838 128.971 320.738 119.693 480.756 121.029C599.793 122.022 717.474 143.429 836.663 143.754C957.408 144.079 1070.37 96.7689 1190.23 92.3465C1350.56 86.426 1507.23 131.281 1667.16 128.357" stroke="#F0FFF3" stroke-opacity="0.5" stroke-miterlimit="10"/>
<path d="M1548.14 0.0722656C1549.52 152.852 1526.44 303.971 1528.46 456.967C1530.42 604.277 1548.93 750.666 1548.14 898.085C1547.47 1021.8 1563.83 1144.37 1564.54 1267.98C1565.54 1444.29 1546.77 1619.85 1548.14 1796.1" stroke="#F0FFF3" stroke-opacity="0.5" stroke-miterlimit="10"/>
<path d="M1429.12 0.0722656C1427.11 68.249 1411.02 127.978 1392.34 192.418C1373.76 256.498 1366.74 319.729 1371.06 386.84C1382.11 558.32 1423.85 726.009 1429.14 898.103C1432.14 995.612 1472.19 1082 1477.87 1178.37C1483.21 1269.1 1469.58 1362.04 1459.68 1451.89C1447.07 1566.28 1431.65 1680.81 1429.14 1796.1" stroke="#F0FFF3" stroke-opacity="0.5" stroke-miterlimit="10"/>
<path d="M1310.1 0.0722656C1306.6 64.3862 1285.11 103.664 1252.93 155.162C1219.57 208.538 1213.77 264.837 1219.87 328.086C1238.36 519.927 1301.29 704.944 1310.1 898.085C1312.08 941.569 1319.01 976.298 1344.78 1010.2C1367.21 1039.69 1381.58 1064.24 1385.85 1103.46C1396.53 1201.17 1371.56 1308.93 1357.58 1404.94C1338.69 1534.56 1314.94 1664.74 1310.1 1796.1" stroke="#F0FFF3" stroke-opacity="0.5" stroke-miterlimit="10"/>
<path d="M1191.06 0.0722656C1187.38 64.3501 1165.46 105.541 1134.39 158.068C1102.07 212.725 1095.47 268.79 1101.65 332.743C1120.04 523.031 1182.19 706.497 1191.06 898.067C1193.09 941.569 1199.96 976.262 1225.75 1010.18C1248.17 1039.67 1262.54 1064.22 1266.81 1103.45C1277.49 1201.15 1252.52 1308.91 1238.54 1404.93C1219.65 1534.55 1195.9 1664.73 1191.06 1796.08" stroke="#F0FFF3" stroke-opacity="0.5" stroke-miterlimit="10"/>
<path d="M1072.04 0.0722656C1068.04 142.292 1010.31 273.032 1019.14 416.75C1029.05 578.212 1067.15 736.082 1072.04 898.085C1074.99 995.612 1115.1 1081.98 1120.78 1178.36C1126.12 1269.08 1112.5 1362.02 1102.59 1451.87C1089.98 1566.26 1074.55 1680.79 1072.04 1796.08" stroke="#F0FFF3" stroke-opacity="0.5" stroke-miterlimit="10"/>
<path d="M953.021 0.0722656C955.516 172.382 943.86 344.693 943.71 517.057C943.609 644.186 954.16 770.901 953.021 898.085C951.899 1021.82 968.713 1144.37 969.416 1267.98C970.421 1444.29 951.648 1619.85 953.021 1796.1" stroke="#F0FFF3" stroke-opacity="0.5" stroke-miterlimit="10"/>
<path d="M834 0.0722656C834.888 189.566 850.261 378.952 847.046 568.465C845.17 678.5 834.352 787.977 834 898.085C833.045 1197.42 834 1496.77 834 1796.1" stroke="#F0FFF3" stroke-opacity="0.5" stroke-miterlimit="10"/>
<path d="M714.979 0.0722656C713.405 183.411 764.266 361.985 757.366 545.811C752.894 664.981 714.276 778.067 714.979 898.085C715.733 1028.05 686.174 1154.58 684.851 1284.22C683.093 1455.85 717.408 1624.76 714.979 1796.1" stroke="#F0FFF3" stroke-opacity="0.5" stroke-miterlimit="10"/>
<path d="M595.958 0.0722656C603.93 171.372 717.525 327.978 695.62 501.624C678.27 639.024 603.712 758.013 595.958 898.085C589.393 1016.75 518.118 1110.34 506.446 1226.6C497.905 1311.64 521.25 1400.29 539.839 1482.13C563.352 1585.63 591.587 1689.08 595.958 1796.1" stroke="#F0FFF3" stroke-opacity="0.5" stroke-miterlimit="10"/>
<path d="M476.937 0.0722656C490.318 165.451 655.946 292.996 624.545 464.62C596.511 617.869 491.708 740.269 476.937 898.085C471.344 957.85 449.606 999.872 413.232 1044.55C380.291 1084.98 347.399 1123.73 337.787 1178.46C322.296 1266.69 364.113 1370.12 389.719 1451.96C424.771 1564.02 468.564 1677.16 476.937 1796.12" stroke="#F0FFF3" stroke-opacity="0.5" stroke-miterlimit="10"/>
<path d="M357.9 0.0722656C371.364 164.224 536.004 289.476 504.704 459.945C476.385 614.241 372.939 739.385 357.9 898.085C352.223 957.868 330.602 999.836 294.194 1044.55C261.253 1084.98 228.362 1123.73 218.749 1178.46C203.258 1266.69 245.075 1370.12 270.682 1451.96C305.733 1564.02 349.526 1677.16 357.9 1796.12" stroke="#F0FFF3" stroke-opacity="0.5" stroke-miterlimit="10"/>
<path d="M238.879 0.0722656C246.331 162.87 352.641 306.101 333.366 471.696C316.351 617.851 246.918 749.836 238.879 898.085C232.431 1016.77 161.039 1110.34 149.366 1226.6C140.825 1311.64 164.171 1400.29 182.76 1482.13C206.273 1585.63 234.508 1689.08 238.879 1796.1" stroke="#F0FFF3" stroke-opacity="0.5" stroke-miterlimit="10"/>
<path d="M119.858 0.0722656C117.43 163.032 155.496 322.274 151.878 485.721C148.814 623.988 118.552 759.421 119.858 898.085C121.081 1028.07 91.0534 1154.56 89.7304 1284.22C87.9719 1455.85 122.287 1624.76 119.858 1796.1" stroke="#F0FFF3" stroke-opacity="0.5" stroke-miterlimit="10"/>
<path d="M1667.16 1.8772H0.837341V1796.1H1667.16V1.8772Z" stroke="white" stroke-opacity="0.5" stroke-miterlimit="10"/>
</svg>
