<svg width="137" height="105" viewBox="0 0 137 105" fill="none" xmlns="http://www.w3.org/2000/svg">
<ellipse cx="66.951" cy="70.2149" rx="30.0126" ry="31.1798" fill="white"/>
<ellipse cx="66.951" cy="70.2149" rx="30.0126" ry="31.1798" fill="white"/>
<ellipse cx="66.951" cy="70.2149" rx="30.0126" ry="31.1798" fill="white"/>
<path d="M132.302 42.9749C132.411 42.9824 132.508 42.9921 132.594 43.0031C132.54 43.0735 132.478 43.151 132.405 43.2358C131.815 43.9227 130.799 44.8207 129.326 45.9138C126.399 48.085 121.94 50.8294 116.249 53.9651C104.884 60.2275 88.7819 67.9568 70.6407 75.6599C52.4994 83.363 35.7956 89.564 23.462 93.3644C17.2864 95.2673 12.2534 96.5537 8.70083 97.1336C6.91233 97.4255 5.58166 97.524 4.69779 97.4628C4.58867 97.4552 4.49162 97.4455 4.40569 97.4345C4.4596 97.3642 4.52234 97.2866 4.59512 97.2018C5.18469 96.515 6.20081 95.617 7.67411 94.5239C10.6006 92.3526 15.06 89.6083 20.7506 86.4726C32.1156 80.2102 48.2181 72.4809 66.3593 64.7777C84.5006 57.0746 101.204 50.8737 113.538 47.0732C119.714 45.1703 124.747 43.884 128.299 43.3041C130.088 43.0122 131.418 42.9137 132.302 42.9749Z" stroke="white" stroke-width="3"/>
<path d="M17.1224 28.875C16.6336 47.6835 12.5836 52.6692 0 53.6047C12.5111 54.4559 16.3078 60.0305 17.1224 78.75C16.8931 60.9662 20.2903 54.7758 35.5673 53.6047C21.6736 53.5957 17.7105 48.2031 17.1224 28.875Z" fill="white"/>
<path d="M48.0491 4C47.7051 17.364 44.8552 20.9064 36 21.5711C44.8041 22.1759 47.4759 26.1368 48.0491 39.4375C47.8877 26.8016 50.2783 22.4032 61.0288 21.5711C51.2518 21.5647 48.463 17.7332 48.0491 4Z" fill="white"/>
</svg>
