<svg width="560" height="513" viewBox="0 0 560 513" fill="none" xmlns="http://www.w3.org/2000/svg">
<g opacity="0.5">
<path d="M559 90.594C559 102.652 551.447 114.309 537.389 125.063C523.345 135.806 502.961 145.523 477.682 153.702C427.136 170.056 357.245 180.188 280 180.188C202.755 180.188 132.864 170.056 82.3179 153.702C57.0394 145.523 36.655 135.806 22.6114 125.063C8.55291 114.309 1 102.652 1 90.594C1 78.5364 8.55291 66.8791 22.6114 56.125C36.655 45.3822 57.0394 35.6647 82.3179 27.4858C132.864 11.1316 202.755 1 280 1C357.245 1 427.136 11.1316 477.682 27.4858C502.961 35.6647 523.345 45.3822 537.389 56.125C551.447 66.8791 559 78.5364 559 90.594Z" stroke="white" stroke-width="2"/>
<path d="M559 134.633C559 146.69 551.447 158.348 537.389 169.102C523.345 179.844 502.961 189.562 477.682 197.741C427.136 214.095 357.245 224.227 280 224.227C202.755 224.227 132.864 214.095 82.3179 197.741C57.0394 189.562 36.655 179.844 22.6114 169.102C8.55291 158.348 1 146.69 1 134.633C1 122.575 8.55291 110.918 22.6114 100.164C36.655 89.4208 57.0394 79.7033 82.3179 71.5244C132.864 55.1702 202.755 45.0386 280 45.0386C357.245 45.0386 427.136 55.1702 477.682 71.5244C502.961 79.7033 523.345 89.4208 537.389 100.164C551.447 110.918 559 122.575 559 134.633Z" stroke="white" stroke-width="2"/>
<path d="M559 181.188C559 193.246 551.447 204.903 537.389 215.657C523.345 226.4 502.961 236.118 477.682 244.296C427.136 260.651 357.245 270.782 280 270.782C202.755 270.782 132.864 260.651 82.3179 244.296C57.0394 236.118 36.655 226.4 22.6114 215.657C8.55291 204.903 1 193.246 1 181.188C1 169.131 8.55291 157.473 22.6114 146.719C36.655 135.976 57.0394 126.259 82.3179 118.08C132.864 101.726 202.755 91.5942 280 91.5942C357.245 91.5942 427.136 101.726 477.682 118.08C502.961 126.259 523.345 135.976 537.389 146.719C551.447 157.473 559 169.131 559 181.188Z" stroke="white" stroke-width="2"/>
<path d="M559 225.227C559 237.285 551.447 248.942 537.389 259.696C523.345 270.439 502.961 280.156 477.682 288.335C427.136 304.689 357.245 314.821 280 314.821C202.755 314.821 132.864 304.689 82.3179 288.335C57.0394 280.156 36.655 270.439 22.6114 259.696C8.55291 248.942 1 237.285 1 225.227C1 213.169 8.55291 201.512 22.6114 190.758C36.655 180.015 57.0394 170.298 82.3179 162.119C132.864 145.764 202.755 135.633 280 135.633C357.245 135.633 427.136 145.764 477.682 162.119C502.961 170.298 523.345 180.015 537.389 190.758C551.447 201.512 559 213.169 559 225.227Z" stroke="white" stroke-width="2"/>
</g>
<g opacity="0.5">
<path d="M559 287.773C559 299.831 551.447 311.488 537.389 322.242C523.345 332.985 502.961 342.703 477.682 350.881C427.136 367.236 357.245 377.367 280 377.367C202.755 377.367 132.864 367.236 82.3179 350.881C57.0394 342.703 36.655 332.985 22.6114 322.242C8.55291 311.488 1 299.831 1 287.773C1 275.716 8.55291 264.058 22.6114 253.304C36.655 242.561 57.0394 232.844 82.3179 224.665C132.864 208.311 202.755 198.179 280 198.179C357.245 198.179 427.136 208.311 477.682 224.665C502.961 232.844 523.345 242.561 537.389 253.304C551.447 264.058 559 275.716 559 287.773Z" stroke="white" stroke-width="2"/>
<path d="M559 331.812C559 343.869 551.447 355.527 537.389 366.281C523.345 377.024 502.961 386.741 477.682 394.92C427.136 411.274 357.245 421.406 280 421.406C202.755 421.406 132.864 411.274 82.3179 394.92C57.0394 386.741 36.655 377.024 22.6114 366.281C8.55291 355.527 1 343.869 1 331.812C1 319.754 8.55291 308.097 22.6114 297.343C36.655 286.6 57.0394 276.882 82.3179 268.704C132.864 252.349 202.755 242.218 280 242.218C357.245 242.218 427.136 252.349 477.682 268.704C502.961 276.882 523.345 286.6 537.389 297.343C551.447 308.097 559 319.754 559 331.812Z" stroke="white" stroke-width="2"/>
<path d="M559 378.367C559 390.425 551.447 402.082 537.389 412.837C523.345 423.579 502.961 433.297 477.682 441.476C427.136 457.83 357.245 467.962 280 467.962C202.755 467.962 132.864 457.83 82.3179 441.476C57.0394 433.297 36.655 423.579 22.6114 412.837C8.55291 402.082 1 390.425 1 378.367C1 366.31 8.55291 354.653 22.6114 343.898C36.655 333.156 57.0394 323.438 82.3179 315.259C132.864 298.905 202.755 288.773 280 288.773C357.245 288.773 427.136 298.905 477.682 315.259C502.961 323.438 523.345 333.156 537.389 343.898C551.447 354.653 559 366.31 559 378.367Z" stroke="white" stroke-width="2"/>
<path d="M559 422.406C559 434.464 551.447 446.121 537.389 456.875C523.345 467.618 502.961 477.335 477.682 485.514C427.136 501.868 357.245 512 280 512C202.755 512 132.864 501.868 82.3179 485.514C57.0394 477.335 36.655 467.618 22.6114 456.875C8.55291 446.121 1 434.464 1 422.406C1 410.348 8.55291 398.691 22.6114 387.937C36.655 377.194 57.0394 367.477 82.3179 359.298C132.864 342.944 202.755 332.812 280 332.812C357.245 332.812 427.136 342.944 477.682 359.298C502.961 367.477 523.345 377.194 537.389 387.937C551.447 398.691 559 410.348 559 422.406Z" stroke="white" stroke-width="2"/>
</g>
</svg>
