<?xml version="1.0" encoding="UTF-8"?>
<svg id="Layer_2" data-name="Layer 2" xmlns="http://www.w3.org/2000/svg" viewBox="0 0 1119.2 807">
  <defs>
    <style>
      .cls-1 {
        stroke: #fff;
        stroke-miterlimit: 10;
      }

      .cls-1, .cls-2 {
        fill: none;
      }

      .cls-2 {
        stroke-width: 0px;
      }
    </style>
  </defs>
  <rect class="cls-2" x="248.2" width="871" height="807"/>
  <g>
    <path class="cls-1" d="m296.04,154.36c53.17-.02,106.49,1.12,159.65-.03,55.05-1.19,108.15-18.43,163.33-18.15,25.49,27.26,45.69,55.55,74.67,79.84,21.08,17.68,46.1,28.84,68.9,44.2,50.05,33.73,98.25,70.65,147.25,105.89H1.55c49.08-35.3,98.16-70.59,147.25-105.89,19.57-14.07,41.65-35.43,65.32-41.57,13.93-3.61,26.89.88,39.42-8.21,17.95-13.01,28.19-39.32,42.51-56.08Z"/>
    <path class="cls-1" d="m46.01,334.14h819.37"/>
    <path class="cls-1" d="m82.53,307.88c35.43,0,71.02,1.16,106.35-2.01,33.15-2.97,66.05-8.42,99.29-10.47,56-3.45,111.71,9.64,167.52,12.47,56.63,2.88,111.29,26.09,168.37,20.33,33.23-3.35,65.58-12.21,98.58-17.06,35.08-5.15,70.86-3.27,106.21-3.27"/>
    <path class="cls-1" d="m113.08,285.91c65.05,0,128.31-13.78,193.01-14.85,50.36-.83,99.14,15.97,149.36,18.34,50.95,2.41,99.48,25.38,150.61,24.18,29.06-.68,57.53-9.53,85.51-16.56,36.01-9.05,69.77-11.12,106.75-11.12"/>
    <path class="cls-1" d="m139,267.27c57.82.03,116.02-3.95,173.8-1.73,47.8,1.84,93.74,17.69,141.69,18.35,47.66.66,95.35,3.45,143,3.24,59.17-.26,115.61-19.88,174.88-19.87"/>
    <path class="cls-1" d="m161.31,251.22c52.76.18,106.76-1.4,159.38,2.43,44.86,3.27,88.57,15.46,133.69,16.19,45.65.74,91.04-7.35,136.7-5.71,54.36,1.95,104.86-6.49,158.81-12.13"/>
    <path class="cls-1" d="m179.91,238.07c47.31,2.53,94.7,4.54,141.97,7.25,44.12,2.53,88.18,11.57,132.47,10.62,47.29-1.02,92-21.6,139.25-22.12,19.85-.22,38.78,6.3,58.46,8.26,26.12,2.6,52.22.72,78.28-1.64"/>
    <path class="cls-1" d="m195.44,227.34c43.19,4.28,85.74,6.67,129.04,8.79,43.12,2.12,86.67,8.89,129.89,7.52,45.26-1.44,85.65-25.86,130.3-30.45,21.5-2.21,37.24,5.61,57.44,11.01,23.1,6.18,46.43,7.39,70.22,6.68"/>
    <path class="cls-1" d="m209.72,219.8c81,14.16,162.92,11.03,244.92,9.26,39.52-.85,76.79-15.22,115.7-20.32,42.01-5.52,84.99,10.62,127.56,10.8"/>
    <path class="cls-1" d="m223.67,217.43c41.76,11.23,78.85,15.88,121.93,9.5,36.55-5.41,72.51-13.5,109.56-14.71,35.4-1.15,69.96-7.15,105.2-10.11,41.45-3.48,82.9,5.63,124.44,6.32"/>
    <path class="cls-1" d="m236.62,216.81c41.09,13.35,74.89,16.43,116.71,5.02,33.73-9.21,66.93-22.42,102.23-23.88,72.77-3.02,144.72-.94,217.46,0"/>
    <path class="cls-1" d="m247.8,214.37c38.29,12.27,70.2,13.13,108.53.62,32.79-10.71,64.38-25.27,99.36-26.5,68.82-2.42,138.19-.23,207.05-.14"/>
    <path class="cls-1" d="m257.58,206.56c36.69,8.87,67.41,6.76,103.37-3.48,31.27-8.9,61.91-20.36,94.73-21.56,65.72-2.39,131.94-3.42,197.69-2.14"/>
    <path class="cls-1" d="m266.63,195.2c65.67,9.81,124.28-18.16,189.06-20.13,63.21-1.92,126.28-8.38,189.56-5.78"/>
    <path class="cls-1" d="m274.97,182.65c61.06,4.21,119.97-11.68,180.73-13.48,60.97-1.8,121.2-13.37,182.31-10"/>
    <path class="cls-1" d="m282.63,170.78c57.85.73,115.29-5.63,173.07-6.97,58.94-1.36,116.52-17.2,175.66-13.93"/>
    <path class="cls-1" d="m289.64,161.02c55.36-.66,110.71-1.46,166.06-2.23,56.99-.8,112.18-18.95,169.38-16.71"/>
    <path class="cls-1" d="m600.21,136.32c13.72,15.29,21.87,34.07,35.5,49.33,10.76,12.06,23.6,22.73,35.55,33.58,17.43,15.82,35.46,30.45,55.06,43.23,46.09,30.04,87.53,68.97,130.08,103.65"/>
    <path class="cls-1" d="m581.11,137.89c12.81,15.66,19.52,35.22,32.79,50.33,7.86,8.95,18.15,16.6,27,24.53,19.12,17.14,30.4,39.1,48.9,55.51,37.48,33.24,76.54,63.4,113.18,97.86"/>
    <path class="cls-1" d="m561.81,140.47c10.26,14.09,15.59,31.35,26.33,44.81,7.49,9.38,17.4,15.65,26.89,23,13,10.07,21.04,17.37,25.6,33.86,3.42,12.32,5.12,21.78,12.6,32.49,10.87,15.57,23,30.93,39.56,40.22,23.81,13.36,38.17,30.61,56.76,51.26"/>
    <path class="cls-1" d="m542.38,143.64c15.62,24.95,20.22,46.23,46.6,61.67,14.38,8.41,19.15,8.29,22.24,27.1,2.64,16.08-.82,30.85,5.63,46.16,7.97,18.9,14.59,39.77,34.18,46.03,8.08,2.59,12.26.92,19.55,7.36,10.03,8.86,17.64,23.41,25.55,34.15"/>
    <path class="cls-1" d="m522.92,147.01c11.21,21.95,15.84,45.65,37.31,60.41,10.15,6.98,15.61,7.7,18.34,20.92,3.44,16.62-2.35,33.96,2.16,50.49,2.83,10.39,9.8,47.71,21.5,50.83,13.33,3.56,9.87-8.72,21.86,3.94,7.84,8.28,13.03,22.76,18.61,32.51"/>
    <path class="cls-1" d="m503.5,150.15c8.21,21.56,13.61,43.38,26.29,63.02,6.1,9.45,11.43,14.35,13.47,26.1,2.27,13.08-1.03,26.42,1.36,39.56,2.24,12.35,6.37,36.76,15.26,44.68,4.56,4.06,10.19,2.09,14.84,7.11,7.15,7.7,10.71,26.11,14.55,35.49"/>
    <path class="cls-1" d="m484.21,152.66c4.94,20.69,8.61,41.73,13.92,62.33,2.64,10.21,7.16,20.15,8.76,30.62,1.64,10.74-.05,21.72,1.91,32.46,5.53,30.41,19.66,57.94,27.04,88.04"/>
    <path class="cls-1" d="m465.13,154.12c3.37,41.01,1.31,83.51,7.35,124.15,4.33,29.16,7.51,58.25,9.93,87.84"/>
    <path class="cls-1" d="m446.3,154.32c-5.76,70.61-11.55,141.19-17.32,211.8"/>
    <path class="cls-1" d="m427.52,154.3c-16.22,71.1-34.6,141.04-51.97,211.81"/>
    <path class="cls-1" d="m408.74,154.31c-13.04,38.51-26.65,75.99-43.79,112.61-15.17,32.42-29.16,65.78-42.83,99.19"/>
    <path class="cls-1" d="m389.96,154.33c-12.53,29.95-15.08,54.86-39.83,75.55-11.42,9.55-12.99,19.97-20.96,31.59-22.62,32.94-40.37,69.54-60.47,104.65"/>
    <path class="cls-1" d="m371.17,154.35c-9.28,19.08-13.72,41.08-23.89,59.52-8.47,15.37-14.23,11.14-26.97,16.47-14.96,6.26-17.35,17.73-27.14,29.7-10.28,12.57-21.06,21.71-29.97,36.09-14.99,24.17-31.09,47.08-47.94,69.98"/>
    <path class="cls-1" d="m352.39,154.37c-10.81,19.54-15.91,51.2-31.16,67.02-10.77,11.17-15.07,6.83-29.44,9.18-16,2.62-23.85,18.44-34.72,29.54-33.26,33.97-63.27,70.48-95.23,105.99"/>
    <path class="cls-1" d="m333.61,154.38c-8.38,11.66-15.03,24.24-19.96,37.76-4.25,12.55-10.46,23.99-18.63,34.34-9.65,6.73-20.52.01-30.68,1.87-17.57,3.21-30.46,20.24-43.36,31.86-38.26,34.49-75.01,70.58-112.57,105.9"/>
    <path class="cls-1" d="m314.82,154.37c-13.61,18.42-22.55,52.74-41.41,65.91-11.07,7.74-23.26,2.14-35.39,4.2-19.71,3.35-37.92,23.44-53.12,35.77-43.39,35.19-86.62,70.57-129.92,105.86"/>
  </g>
</svg>