<?xml version="1.0" encoding="UTF-8"?>
<svg id="Layer_2" data-name="Layer 2" xmlns="http://www.w3.org/2000/svg" xmlns:xlink="http://www.w3.org/1999/xlink" viewBox="0 0 485.92 658.44">
  <defs>
    <style>
      .cls-1, .cls-2 {
        fill: none;
        stroke: #fff;
        stroke-miterlimit: 10;
      }

      .cls-3 {
        clip-path: url(#clippath-2);
      }

      .cls-4 {
        isolation: isolate;
      }

      .cls-5 {
        clip-path: url(#clippath-1);
      }

      .cls-6 {
        fill: #fff;
        stroke-width: 0px;
      }

      .cls-7 {
        clip-path: url(#clippath);
      }

      .cls-8 {
        clip-path: url(#clippath-3);
      }

      .cls-2 {
        stroke-width: .25px;
      }
    </style>
    <clipPath id="clippath">
      <path class="cls-1" d="m112.81,330.92c27.72-38.28,68.89-67.12,118.58-78.75-49.7,11.63-90.86,40.47-118.58,78.75,5.12-7.03,19.06-25.74,42.79-43.76,16.67-12.66,35.13-22.67,54.88-29.74,14.02-5.02,25.37-7.2,26.61-7.43,8.38-1.56,13.35-2.13,19.07-2.78.08,0,7.71-.87,15.6-1.17,6.68-.25,9.95-.11,17.85.22,3.56.15,8.28.63,11.82,1.04,4.46.52,10.39,1.43,14.81,2.27s10.12,2.24,14.43,3.3c.55.13,13.67,3.38,29.7,10.37,3.17,1.38,14.77,6.46,28.03,14.87,6.23,3.95,15.37,10.16,25.5,18.99,3.63,3.17,8.32,7.58,11.7,11.01s7.51,8.21,10.69,11.76c.35.39,8.68,9.71,18.76,26.23,4.66,7.64,10.05,18.34,13.47,26.61,3.83,9.26,7.62,22.12,10.32,31.76,1.38,4.92,2.48,11.66,3.26,16.71s1.6,11.65,1.85,16.67.53,11.45.48,16.36-.3,11.51-.84,16.4c-1.06,9.54-3.06,22.23-5.41,31.53-3.89,15.36-8.66,26.58-10.23,30.26-3.59,8.44-9.22,19.35-14.04,27.15-2.47,4-5.94,9.22-8.7,13.03s-6.68,8.86-9.78,12.47c-5.86,6.81-14.16,15.51-20.97,21.36-3.39,2.91-7.93,6.79-11.53,9.44-4.85,3.59-11.45,8.23-16.61,11.37s-12.65,7.14-18.21,9.95c-1.9.96-4.51,2.11-6.46,2.97-1.69.75-3.97,1.67-5.67,2.39-1.15.48-6.79,2.72-13.45,4.9-6.23,2.03-11.15,3.29-13.52,3.89-.5.13-1.17.31-1.68.41,0,0,0,0,0,0-1.02.23-2.38.56-3.4.79-.53.12-1.24.27-1.77.38-1.67.34-3.91.74-5.6,1.02-5.46.91-12.09,1.7-15.21,2-5.14.51-18.8,1.85-32.63,1.32-11.86-.45-24.02-2.6-24.14-2.63-4.58-.85-10.68-2.06-15.2-3.19s-10.23-2.79-14.54-4.21c-14.6-4.81-34.91-13.32-56.19-28.66-3.9-2.81-9.08-6.63-12.63-9.87-7.01-6.4-16.16-15.17-22.52-22.22-3.25-3.6-7.23-8.72-10.12-12.63s-6.63-9.26-9.12-13.45-5.77-9.77-8-14.08-5.17-10.38-6.99-15-4.41-10.76-5.76-15.55c-2.67-9.44-6.09-22.12-7.64-31.81-2.87-17.99-2.52-32.93-2.51-33.07.21-4.86.13-11.37.73-16.2s1.3-11.18,1.99-15.95,2.11-11.16,3.27-15.89c4.33-17.52,10.04-30.29,10.09-30.41,2.07-4.45,4.52-10.54,6.93-14.82,4.61-8.2,11.06-18.99,16.43-26.71Z"/>
    </clipPath>
    <clipPath id="clippath-1">
      <path class="cls-1" d="m425.42,307.92c6.22,6.56,12.65,13.34,20.67,24.55,5.64,7.88,12.17,19.08,16.67,27.65,1.12,2.15,7.01,13.71,12.38,30.82,2.77,8.82,5.52,20.9,6.92,30.04,2.47,16.08,2.39,28.59,2.36,33.02-.13,15.58-2.18,28.05-2.9,32.3-4.4,25.78-12.99,46.24-20.3,60.31-9.33,17.95-21.22,34.41-35.34,48.9-6.25,6.42-15.25,14.32-22.31,19.83-3.51,2.74-8.39,6.11-12.09,8.59-2.83,1.9-6.76,4.19-9.67,5.97-3.97,2.43-9.51,5.26-13.71,7.26-7.38,3.51-11.19,5-16,6.88-.62.24-6.32,2.45-14.07,4.78-7.65,2.3-14.09,3.69-14.1,3.69-.69-.03-1.59.34-2.27.48-.8.16-1.88.36-2.68.5-1.94.34-4.54.75-6.49,1.04-4.92.73-10.26,1.28-12.02,1.47-3.61.37-13.12,1.25-23.33,1.34-6.69.06-10.9-.22-12.92-.36-4-.27-9.32-.78-13.28-1.4-5.9-.93-13.74-2.36-19.57-3.69-4.43-1-10.26-2.65-14.58-4.06-9.2-3-18.66-6.51-30.3-12.38-6.52-3.29-16.36-8.67-27.45-16.63-3.95-2.83-9.18-6.68-12.78-9.95-7.02-6.39-16.18-15.15-22.55-22.19-8.24-9.11-15.38-20.06-19.22-25.94-.33-.51-8.21-12.67-15.14-29.28-7.02-16.83-10.06-30.43-10.39-31.93-2.12-9.79-4.72-23-5.08-33.01-.34-9.49-.24-22.16.2-31.64.23-4.88,1.12-11.35,2.01-16.16,1.74-9.39,4.97-21.74,7.61-30.92,1.33-4.63,3.76-10.61,5.62-15.05s4.56-10.06,6.63-14.31,5.49-9.81,7.84-14.01,6.16-9.58,9.02-13.53c-33.38,46.1-47.25,105.9-33.01,165.81,26.06,109.65,136.58,178.8,246.35,154.14-109.78,24.66-220.29-44.49-246.35-154.14-14.24-59.91-.37-119.71,33.01-165.81,5.55-7.11,13.07-16.54,19.36-23.02s15.23-14.44,22.35-19.92c3.53-2.72,8.4-6.16,12.1-8.64,2.98-2,7.02-4.57,10.16-6.29,4.13-2.26,9.61-5.3,13.85-7.34,3.39-1.63,7.99-3.64,11.46-5.09,2.59-1.09,5.86-2.28,8.25-3.16,1.2-.44,5.6-2.02,11.85-3.84,5.93-1.73,11.29-2.9,11.3-2.9,0,0,0,0,0,0,.62-.09,1.42-.3,2.03-.43.17-.04,4.23-.9,11.14-1.9,2.69-.39,8.15-1.13,14.55-1.68,8.21-.72,13.45-.78,15.69-.81,4.29-.05,10.01.1,14.28.45,6.65.54,15.5,1.63,22.09,2.67,4.38.69,10.16,2.03,14.47,3.09,5.2,1.27,12.08,3.27,17.12,5.09,4.37,1.58,10.18,3.74,14.44,5.58,4.59,1.99,10.65,4.78,15.03,7.19,7.78,4.28,15.82,8.71,27,17.02"/>
    </clipPath>
    <clipPath id="clippath-2">
      <path class="cls-1" d="m323.76,652.75c-6.8,1.49-13.15,2.4-14.36,2.57-7.32,1.02-10.99,1.47-19.36,2.11-3.55.27-9.11.51-12.14.51-4.41,0-10.29-.25-14.69-.5-6.67-.38-15.56-1.42-22.1-2.79-4.36-.91-10.19-2.05-14.49-3.19-5.17-1.38-12.05-3.35-17.06-5.22-4.36-1.62-10.16-3.83-14.41-5.73-4.57-2.03-10.61-4.88-14.96-7.34-4.1-2.32-9.55-5.44-13.51-8s-9.51-6.33-13.34-9.37c-7.02-5.56-14.29-11.32-23.87-21.33-6.64-6.93-14.7-16.93-20.26-24.75-2.12-2.98-9.57-13.82-16.57-28.46-4.3-9-9.01-21.5-11.89-31.05-2.4-7.96-4.87-18.82-6.01-27.05-1.3-9.34-2.5-19.14-2.37-33.19.05-4.94.28-11.54.83-16.45.77-7.01,2.21-20.06,5.46-31.91,2.52-9.2,6.43-21.36,10.16-30.14,4.17-9.81,8.97-19.05,14.66-28.26,2.35-3.8,5.82-8.67,8.31-12.38,27.89-38.51,69.41-67.4,119.61-78.67-50.2,11.28-91.72,40.16-119.61,78.67,5.57-7.12,13.1-16.58,19.41-23.06s15.28-14.45,22.42-19.93c3.55-2.72,8.43-6.14,12.15-8.63,2.85-1.9,6.73-4.33,9.72-5.99,4.09-2.28,9.56-5.29,13.78-7.3,1.73-.82,4.04-1.93,5.8-2.68,5.16-2.22,7.1-3.05,10.28-4.23,4.03-1.5,7.84-2.91,14.14-4.8,7.64-2.3,14.11-3.7,14.17-3.71,3.51-.74,3.8-.8,8.06-1.51,2.15-.36,5.03-.76,7.2-1.04,6.63-.87,13.35-1.46,17.43-1.73,2.64-.17,8.13-.53,14.33-.58,7.21-.06,11.76.26,12.98.36,4.01.33,9.37.79,13.34,1.41,5.93.92,13.83,2.29,19.67,3.7,6.87,1.67,17.55,4.52,30.9,10.02,4.33,1.79,10.02,4.39,14.2,6.51,4.42,2.24,10.25,5.37,14.44,8.02,7.52,4.76,15.3,9.69,25.99,18.69,7.29,6.14,16.26,15.22,22.66,22.29.4.44,9.97,11.07,19.43,26.27,5.19,8.33,11.04,20.07,15.02,29.04,2.05,4.62,4.31,10.99,5.88,15.8s3.31,11.37,4.59,16.29,2.51,11.72,3.29,16.79,1.68,11.56,1.86,16.56c.34,9.26.26,21.62-.13,30.87,0,.13-.83,14.25-5.12,31.96-4.25,17.54-9.9,30.34-9.95,30.45-2.03,4.41-4.42,10.44-6.78,14.68-4.59,8.23-11.02,19.05-16.36,26.81-2.66,3.87-6.6,8.74-9.62,12.34s-6.95,7.9-10.1,11.13c-14.26,14.62-27.2,23.61-34.52,28.41-11.43,7.5-22.42,12.69-22.89,12.91-3.08,1.45-7.74,3.64-12.18,5.38-4.27,1.68-5.04,1.98-7.9,3.01-4.07,1.46-7.18,2.43-8.2,2.74-4.76,1.49-8.39,2.44-10.13,2.9-3.57.94-7.24,1.75-7.28,1.76Z"/>
    </clipPath>
    <clipPath id="clippath-3">
      <path class="cls-1" d="m77.98,499.78c-1.29-4.97-2.5-11.72-3.27-16.79s-1.69-11.7-1.86-16.76-.73-11.51-.48-16.44.38-11.39.82-16.26,1.16-11.41,2.13-16.23,2.02-11.28,3.41-15.98c2.7-9.15,6.47-21.34,10.2-30.12s9.57-19.26,14.11-27.28c2.33-4.11,6.12-9.16,8.74-13.09-33.39,46.12-47.22,106.05-32.95,166.1,26.19,110.18,137.24,179.66,247.32,153.92-110.08,25.75-221.13-43.74-247.32-153.92-14.27-60.05-.44-119.98,32.95-166.1,8.13-11.18,15.3-18.86,19.99-23.65,6.29-6.43,15.33-14.39,22.49-19.83,3.56-2.7,8.43-6.15,12.18-8.58,3.99-2.59,9.46-5.82,13.62-8.13,10.22-5.67,21.27-10.15,25.41-11.69,3.23-1.2,6.89-2.56,11.78-4.07,7.73-2.39,12.92-3.58,12.96-3.59,0,0,0,0,0,0,.51-.1,1.18-.28,1.69-.4,2.23-.53,2.75-.63,6.12-1.28,1.9-.37,4.46-.77,6.38-1.05,5.27-.75,6.63-.91,11.91-1.49,2.71-.29,6.33-.62,9.04-.79,4-.26,8.97-.58,14.31-.64,8.45-.09,12.6.24,13.96.35,5.94.47,13.84,1.48,19.73,2.39,4.02.62,9.32,1.78,13.28,2.72,10.33,2.45,20.72,5.82,30.9,10.02,12.79,5.27,20.85,9.98,28.64,14.53.51.3,12.6,7.39,25.99,18.69,10.62,8.96,16.56,15.55,22.86,22.53,3.27,3.62,7.27,8.76,10.17,12.69s6.35,9.34,9.07,13.35,5.87,9.93,8.14,14.32c6.36,12.32,10.19,22.74,12.82,30.7,3,9.1,6.01,21.57,7.52,31.03.79,4.94,1.61,11.58,2.01,16.57,1.48,18.37,0,32.81,0,32.94-.57,4.81-1.26,11.24-1.94,16.03s-2.07,11.22-3.23,15.96c-3.3,13.57-7.44,24.32-10.03,30.54-9.56,22.92-21.76,40.65-32.81,53.73-5.81,6.87-14.16,15.57-20.98,21.44-3.4,2.92-7.94,6.81-11.54,9.47-4.84,3.58-11.39,8.26-16.55,11.35-2.7,1.61-6.29,3.8-9.07,5.26s-6.38,3.34-9.15,4.7c-1.92.94-4.5,2.15-6.47,2.98-1.71.72-3.98,1.7-5.7,2.4-1.22.5-2.85,1.12-4.08,1.6-1.47.57-3.75,1.39-6.8,2.45-5.48,1.89-12.4,3.87-15.35,4.6-1.2.3-2.4.61-3.6.91-.54.13-1.27.3-1.82.43-1.05.25-2.46.56-3.52.79-3.11.66-5.83,1.11-8.45,1.56-3.82.64-8.08,1.18-10.63,1.51-2.35.3-5.5.61-7.86.84-1.8.18-8.29.77-16.23.92-4.2.08-9.79-.17-13.98-.37-10.99-.52-24.27-2.93-26.73-3.45-4.36-.93-10.16-2.21-14.45-3.4-4.63-1.28-10.77-3.15-15.27-4.84-6.38-2.39-16.02-5.99-28.8-12.96-8.28-4.51-18.75-11.52-26.35-17.1-.48-.35-11.82-8.71-24.05-21.51-12.26-12.83-20.03-24.46-20.35-24.94-2.69-4.04-6.35-9.4-8.68-13.66-3.86-7.06-8.65-16.66-11.92-24.01-4.09-9.2-7.84-22.17-10.37-31.91Z"/>
    </clipPath>
  </defs>
  <g class="cls-4">
    <g class="cls-4">
      <g class="cls-7">
        <g class="cls-4">
          <g>
            <path class="cls-2" d="m231.39,252.17c-109.55,25.63-177.66,134.9-151.59,244.56-10.46,14.45,70.2,6.13,180.15-18.57-26.06-109.66-38.77-210.6-28.56-225.99Z"/>
            <path class="cls-2" d="m137.61,302.59c-5.27,7.29,35.4,3.09,90.85-9.36"/>
            <path class="cls-2" d="m83.18,390.28c-9.03,12.47,60.6,5.3,155.52-16.03"/>
            <path class="cls-2" d="m231.39,252.17c-99.83,29.54-160.03,141.99-133.97,251.65"/>
            <path class="cls-2" d="m231.39,252.17c-64.19,25.87-95.4,135.33-69.34,244.99"/>
          </g>
          <g>
            <path class="cls-2" d="m231.39,252.17c-10.21,15.39,2.49,116.33,28.56,225.99,109.95-24.7,207.57-56.43,218.03-70.88-26.06-109.66-136.58-178.8-246.59-155.11Z"/>
            <path class="cls-2" d="m228.47,293.23c55.45-12.46,104.68-28.46,109.96-35.75"/>
            <path class="cls-2" d="m238.69,374.25c94.92-21.32,179.19-48.72,188.22-61.19"/>
            <path class="cls-2" d="m231.39,252.17c46.62.97,105.56,90.19,131.63,199.85"/>
            <path class="cls-2" d="m231.39,252.17c89.75-13.05,183.78,64.76,209.85,174.42"/>
          </g>
          <g>
            <path class="cls-2" d="m231.39,252.17c110.01-23.69,220.52,45.45,246.59,155.11,10.46-14.45-70.2-6.13-180.15,18.57-26.06-109.66-55.76-187.13-66.44-173.68Z"/>
            <path class="cls-2" d="m338.42,257.49c5.27-7.29-35.4-3.09-90.85,9.36"/>
            <path class="cls-2" d="m426.91,313.07c9.03-12.47-60.6-5.3-155.52,16.03"/>
            <path class="cls-2" d="m231.39,252.17c100.29-27.61,202.9,38.36,228.96,148.02"/>
            <path class="cls-2" d="m231.39,252.17c64.65-23.93,138.27,45.02,164.33,154.68"/>
          </g>
          <g>
            <path class="cls-2" d="m231.39,252.17c10.67-13.46,40.37,64.02,66.44,173.68-109.95,24.7-207.57,56.43-218.03,70.88-26.06-109.66,42.05-218.93,151.59-244.56Z"/>
            <path class="cls-2" d="m247.57,266.85c-55.45,12.46-104.68,28.46-109.96,35.75"/>
            <path class="cls-2" d="m271.39,329.09c-94.92,21.32-179.19,48.72-188.22,61.19"/>
            <path class="cls-2" d="m231.39,252.17c-46.16.96-62.7,90.16-36.63,199.82"/>
            <path class="cls-2" d="m231.39,252.17c-89.29,14.98-140.92,115.59-114.85,225.25"/>
          </g>
          <g>
            <path class="cls-2" d="m79.8,496.73c26.06,109.65,136.58,178.8,246.35,154.14-10.44,14.42-40.14-63.05-66.2-172.7-109.95,24.7-190.61,33.01-180.15,18.57Z"/>
            <path class="cls-2" d="m130.86,590.9c-9.03,12.47,60.6,5.3,155.52-16.03"/>
            <path class="cls-2" d="m219.29,646.23c-5.27,7.29,35.4,3.09,90.85-9.36"/>
            <path class="cls-2" d="m97.42,503.82c26.06,109.65,128.67,175.61,228.73,147.04"/>
            <path class="cls-2" d="m162.05,497.16c26.06,109.65,99.68,178.6,164.1,153.7"/>
          </g>
          <g>
            <path class="cls-2" d="m259.95,478.16c26.06,109.65,55.76,187.12,66.2,172.7,109.78-24.66,177.89-133.93,151.82-243.58-10.46,14.45-108.07,46.18-218.03,70.88Z"/>
            <path class="cls-2" d="m286.38,574.87c94.92-21.32,179.19-48.72,188.22-61.19"/>
            <path class="cls-2" d="m310.14,636.86c55.45-12.46,104.68-28.46,109.96-35.75"/>
            <path class="cls-2" d="m363.02,452.02c26.06,109.65,9.52,198.85-36.87,198.85"/>
            <path class="cls-2" d="m441.24,426.59c26.06,109.65-25.57,210.26-115.08,224.27"/>
          </g>
          <g>
            <path class="cls-2" d="m477.98,407.28c26.06,109.65-42.05,218.92-151.82,243.58,10.44-14.42-2.26-115.37-28.33-225.02,109.95-24.7,190.61-33.01,180.15-18.57Z"/>
            <path class="cls-2" d="m474.6,513.69c9.03-12.47-60.6-5.3-155.52,16.03"/>
            <path class="cls-2" d="m420.1,601.12c5.27-7.29-35.4-3.09-90.85,9.36"/>
            <path class="cls-2" d="m460.36,400.19c26.06,109.65-34.14,222.1-134.2,250.68"/>
            <path class="cls-2" d="m395.73,406.85c26.06,109.65-5.15,219.12-69.57,244.02"/>
          </g>
          <g>
            <path class="cls-2" d="m297.83,425.85c26.06,109.65,38.77,210.59,28.33,225.02-109.78,24.66-220.29-44.49-246.35-154.14,10.46-14.45,108.07-46.18,218.03-70.88Z"/>
            <path class="cls-2" d="m319.08,529.71c-94.92,21.32-179.19,48.72-188.22,61.19"/>
            <path class="cls-2" d="m329.24,610.48c-55.45,12.46-104.68,28.46-109.96,35.75"/>
            <path class="cls-2" d="m194.76,451.99c26.06,109.65,85.01,198.86,131.4,198.87"/>
            <path class="cls-2" d="m116.54,477.42c26.06,109.65,120.1,187.46,209.61,173.44"/>
          </g>
        </g>
        <path class="cls-2" d="m112.81,330.92c27.72-38.28,68.89-67.12,118.58-78.75-49.7,11.63-90.86,40.47-118.58,78.75,5.12-7.03,19.06-25.74,42.79-43.76,16.67-12.66,35.13-22.67,54.88-29.74,14.02-5.02,25.37-7.2,26.61-7.43,8.38-1.56,13.35-2.13,19.07-2.78.08,0,7.71-.87,15.6-1.17,6.68-.25,9.95-.11,17.85.22,3.56.15,8.28.63,11.82,1.04,4.46.52,10.39,1.43,14.81,2.27s10.12,2.24,14.43,3.3c.55.13,13.67,3.38,29.7,10.37,3.17,1.38,14.77,6.46,28.03,14.87,6.23,3.95,15.37,10.16,25.5,18.99,3.63,3.17,8.32,7.58,11.7,11.01s7.51,8.21,10.69,11.76c.35.39,8.68,9.71,18.76,26.23,4.66,7.64,10.05,18.34,13.47,26.61,3.83,9.26,7.62,22.12,10.32,31.76,1.38,4.92,2.48,11.66,3.26,16.71s1.6,11.65,1.85,16.67.53,11.45.48,16.36-.3,11.51-.84,16.4c-1.06,9.54-3.06,22.23-5.41,31.53-3.89,15.36-8.66,26.58-10.23,30.26-3.59,8.44-9.22,19.35-14.04,27.15-2.47,4-5.94,9.22-8.7,13.03s-6.68,8.86-9.78,12.47c-5.86,6.81-14.16,15.51-20.97,21.36-3.39,2.91-7.93,6.79-11.53,9.44-4.85,3.59-11.45,8.23-16.61,11.37s-12.65,7.14-18.21,9.95c-1.9.96-4.51,2.11-6.46,2.97-1.69.75-3.97,1.67-5.67,2.39-1.15.48-6.79,2.72-13.45,4.9-6.23,2.03-11.15,3.29-13.52,3.89-.5.13-1.17.31-1.68.41,0,0,0,0,0,0-1.02.23-2.38.56-3.4.79-.53.12-1.24.27-1.77.38-1.67.34-3.91.74-5.6,1.02-5.46.91-12.09,1.7-15.21,2-5.14.51-18.8,1.85-32.63,1.32-11.86-.45-24.02-2.6-24.14-2.63-4.58-.85-10.68-2.06-15.2-3.19s-10.23-2.79-14.54-4.21c-14.6-4.81-34.91-13.32-56.19-28.66-3.9-2.81-9.08-6.63-12.63-9.87-7.01-6.4-16.16-15.17-22.52-22.22-3.25-3.6-7.23-8.72-10.12-12.63s-6.63-9.26-9.12-13.45-5.77-9.77-8-14.08-5.17-10.38-6.99-15-4.41-10.76-5.76-15.55c-2.67-9.44-6.09-22.12-7.64-31.81-2.87-17.99-2.52-32.93-2.51-33.07.21-4.86.13-11.37.73-16.2s1.3-11.18,1.99-15.95,2.11-11.16,3.27-15.89c4.33-17.52,10.04-30.29,10.09-30.41,2.07-4.45,4.52-10.54,6.93-14.82,4.61-8.2,11.06-18.99,16.43-26.71Z"/>
      </g>
      <path class="cls-1" d="m112.81,330.92c27.72-38.28,68.89-67.12,118.58-78.75-49.7,11.63-90.86,40.47-118.58,78.75,5.12-7.03,19.06-25.74,42.79-43.76,16.67-12.66,35.13-22.67,54.88-29.74,14.02-5.02,25.37-7.2,26.61-7.43,8.38-1.56,13.35-2.13,19.07-2.78.08,0,7.71-.87,15.6-1.17,6.68-.25,9.95-.11,17.85.22,3.56.15,8.28.63,11.82,1.04,4.46.52,10.39,1.43,14.81,2.27s10.12,2.24,14.43,3.3c.55.13,13.67,3.38,29.7,10.37,3.17,1.38,14.77,6.46,28.03,14.87,6.23,3.95,15.37,10.16,25.5,18.99,3.63,3.17,8.32,7.58,11.7,11.01s7.51,8.21,10.69,11.76c.35.39,8.68,9.71,18.76,26.23,4.66,7.64,10.05,18.34,13.47,26.61,3.83,9.26,7.62,22.12,10.32,31.76,1.38,4.92,2.48,11.66,3.26,16.71s1.6,11.65,1.85,16.67.53,11.45.48,16.36-.3,11.51-.84,16.4c-1.06,9.54-3.06,22.23-5.41,31.53-3.89,15.36-8.66,26.58-10.23,30.26-3.59,8.44-9.22,19.35-14.04,27.15-2.47,4-5.94,9.22-8.7,13.03s-6.68,8.86-9.78,12.47c-5.86,6.81-14.16,15.51-20.97,21.36-3.39,2.91-7.93,6.79-11.53,9.44-4.85,3.59-11.45,8.23-16.61,11.37s-12.65,7.14-18.21,9.95c-1.9.96-4.51,2.11-6.46,2.97-1.69.75-3.97,1.67-5.67,2.39-1.15.48-6.79,2.72-13.45,4.9-6.23,2.03-11.15,3.29-13.52,3.89-.5.13-1.17.31-1.68.41,0,0,0,0,0,0-1.02.23-2.38.56-3.4.79-.53.12-1.24.27-1.77.38-1.67.34-3.91.74-5.6,1.02-5.46.91-12.09,1.7-15.21,2-5.14.51-18.8,1.85-32.63,1.32-11.86-.45-24.02-2.6-24.14-2.63-4.58-.85-10.68-2.06-15.2-3.19s-10.23-2.79-14.54-4.21c-14.6-4.81-34.91-13.32-56.19-28.66-3.9-2.81-9.08-6.63-12.63-9.87-7.01-6.4-16.16-15.17-22.52-22.22-3.25-3.6-7.23-8.72-10.12-12.63s-6.63-9.26-9.12-13.45-5.77-9.77-8-14.08-5.17-10.38-6.99-15-4.41-10.76-5.76-15.55c-2.67-9.44-6.09-22.12-7.64-31.81-2.87-17.99-2.52-32.93-2.51-33.07.21-4.86.13-11.37.73-16.2s1.3-11.18,1.99-15.95,2.11-11.16,3.27-15.89c4.33-17.52,10.04-30.29,10.09-30.41,2.07-4.45,4.52-10.54,6.93-14.82,4.61-8.2,11.06-18.99,16.43-26.71Z"/>
    </g>
    <g class="cls-4">
      <g class="cls-5">
        <g class="cls-4">
          <g>
            <path class="cls-2" d="m231.39,252.17c-109.55,25.63-177.66,134.9-151.59,244.56-10.46,14.45,70.2,6.13,180.15-18.57-26.06-109.66-38.77-210.6-28.56-225.99Z"/>
            <path class="cls-2" d="m137.61,302.59c-5.27,7.29,35.4,3.09,90.85-9.36"/>
            <path class="cls-2" d="m83.18,390.28c-9.03,12.47,60.6,5.3,155.52-16.03"/>
            <path class="cls-2" d="m231.39,252.17c-99.83,29.54-160.03,141.99-133.97,251.65"/>
            <path class="cls-2" d="m231.39,252.17c-64.19,25.87-95.4,135.33-69.34,244.99"/>
          </g>
          <g>
            <path class="cls-2" d="m231.39,252.17c-10.21,15.39,2.49,116.33,28.56,225.99,109.95-24.7,207.57-56.43,218.03-70.88-26.06-109.66-136.58-178.8-246.59-155.11Z"/>
            <path class="cls-2" d="m228.47,293.23c55.45-12.46,104.68-28.46,109.96-35.75"/>
            <path class="cls-2" d="m238.69,374.25c94.92-21.32,179.19-48.72,188.22-61.19"/>
            <path class="cls-2" d="m231.39,252.17c46.62.97,105.56,90.19,131.63,199.85"/>
            <path class="cls-2" d="m231.39,252.17c89.75-13.05,183.78,64.76,209.85,174.42"/>
          </g>
          <g>
            <path class="cls-2" d="m231.39,252.17c110.01-23.69,220.52,45.45,246.59,155.11,10.46-14.45-70.2-6.13-180.15,18.57-26.06-109.66-55.76-187.13-66.44-173.68Z"/>
            <path class="cls-2" d="m338.42,257.49c5.27-7.29-35.4-3.09-90.85,9.36"/>
            <path class="cls-2" d="m426.91,313.07c9.03-12.47-60.6-5.3-155.52,16.03"/>
            <path class="cls-2" d="m231.39,252.17c100.29-27.61,202.9,38.36,228.96,148.02"/>
            <path class="cls-2" d="m231.39,252.17c64.65-23.93,138.27,45.02,164.33,154.68"/>
          </g>
          <g>
            <path class="cls-2" d="m231.39,252.17c10.67-13.46,40.37,64.02,66.44,173.68-109.95,24.7-207.57,56.43-218.03,70.88-26.06-109.66,42.05-218.93,151.59-244.56Z"/>
            <path class="cls-2" d="m247.57,266.85c-55.45,12.46-104.68,28.46-109.96,35.75"/>
            <path class="cls-2" d="m271.39,329.09c-94.92,21.32-179.19,48.72-188.22,61.19"/>
            <path class="cls-2" d="m231.39,252.17c-46.16.96-62.7,90.16-36.63,199.82"/>
            <path class="cls-2" d="m231.39,252.17c-89.29,14.98-140.92,115.59-114.85,225.25"/>
          </g>
          <g>
            <path class="cls-2" d="m79.8,496.73c26.06,109.65,136.58,178.8,246.35,154.14-10.44,14.42-40.14-63.05-66.2-172.7-109.95,24.7-190.61,33.01-180.15,18.57Z"/>
            <path class="cls-2" d="m130.86,590.9c-9.03,12.47,60.6,5.3,155.52-16.03"/>
            <path class="cls-2" d="m219.29,646.23c-5.27,7.29,35.4,3.09,90.85-9.36"/>
            <path class="cls-2" d="m97.42,503.82c26.06,109.65,128.67,175.61,228.73,147.04"/>
            <path class="cls-2" d="m162.05,497.16c26.06,109.65,99.68,178.6,164.1,153.7"/>
          </g>
          <g>
            <path class="cls-2" d="m259.95,478.16c26.06,109.65,55.76,187.12,66.2,172.7,109.78-24.66,177.89-133.93,151.82-243.58-10.46,14.45-108.07,46.18-218.03,70.88Z"/>
            <path class="cls-2" d="m286.38,574.87c94.92-21.32,179.19-48.72,188.22-61.19"/>
            <path class="cls-2" d="m310.14,636.86c55.45-12.46,104.68-28.46,109.96-35.75"/>
            <path class="cls-2" d="m363.02,452.02c26.06,109.65,9.52,198.85-36.87,198.85"/>
            <path class="cls-2" d="m441.24,426.59c26.06,109.65-25.57,210.26-115.08,224.27"/>
          </g>
          <g>
            <path class="cls-2" d="m477.98,407.28c26.06,109.65-42.05,218.92-151.82,243.58,10.44-14.42-2.26-115.37-28.33-225.02,109.95-24.7,190.61-33.01,180.15-18.57Z"/>
            <path class="cls-2" d="m474.6,513.69c9.03-12.47-60.6-5.3-155.52,16.03"/>
            <path class="cls-2" d="m420.1,601.12c5.27-7.29-35.4-3.09-90.85,9.36"/>
            <path class="cls-2" d="m460.36,400.19c26.06,109.65-34.14,222.1-134.2,250.68"/>
            <path class="cls-2" d="m395.73,406.85c26.06,109.65-5.15,219.12-69.57,244.02"/>
          </g>
          <g>
            <path class="cls-2" d="m297.83,425.85c26.06,109.65,38.77,210.59,28.33,225.02-109.78,24.66-220.29-44.49-246.35-154.14,10.46-14.45,108.07-46.18,218.03-70.88Z"/>
            <path class="cls-2" d="m319.08,529.71c-94.92,21.32-179.19,48.72-188.22,61.19"/>
            <path class="cls-2" d="m329.24,610.48c-55.45,12.46-104.68,28.46-109.96,35.75"/>
            <path class="cls-2" d="m194.76,451.99c26.06,109.65,85.01,198.86,131.4,198.87"/>
            <path class="cls-2" d="m116.54,477.42c26.06,109.65,120.1,187.46,209.61,173.44"/>
          </g>
        </g>
      </g>
      <path class="cls-1" d="m425.42,307.92c6.22,6.56,12.65,13.34,20.67,24.55,5.64,7.88,12.17,19.08,16.67,27.65,1.12,2.15,7.01,13.71,12.38,30.82,2.77,8.82,5.52,20.9,6.92,30.04,2.47,16.08,2.39,28.59,2.36,33.02-.13,15.58-2.18,28.05-2.9,32.3-4.4,25.78-12.99,46.24-20.3,60.31-9.33,17.95-21.22,34.41-35.34,48.9-6.25,6.42-15.25,14.32-22.31,19.83-3.51,2.74-8.39,6.11-12.09,8.59-2.83,1.9-6.76,4.19-9.67,5.97-3.97,2.43-9.51,5.26-13.71,7.26-7.38,3.51-11.19,5-16,6.88-.62.24-6.32,2.45-14.07,4.78-7.65,2.3-14.09,3.69-14.1,3.69-.69-.03-1.59.34-2.27.48-.8.16-1.88.36-2.68.5-1.94.34-4.54.75-6.49,1.04-4.92.73-10.26,1.28-12.02,1.47-3.61.37-13.12,1.25-23.33,1.34-6.69.06-10.9-.22-12.92-.36-4-.27-9.32-.78-13.28-1.4-5.9-.93-13.74-2.36-19.57-3.69-4.43-1-10.26-2.65-14.58-4.06-9.2-3-18.66-6.51-30.3-12.38-6.52-3.29-16.36-8.67-27.45-16.63-3.95-2.83-9.18-6.68-12.78-9.95-7.02-6.39-16.18-15.15-22.55-22.19-8.24-9.11-15.38-20.06-19.22-25.94-.33-.51-8.21-12.67-15.14-29.28-7.02-16.83-10.06-30.43-10.39-31.93-2.12-9.79-4.72-23-5.08-33.01-.34-9.49-.24-22.16.2-31.64.23-4.88,1.12-11.35,2.01-16.16,1.74-9.39,4.97-21.74,7.61-30.92,1.33-4.63,3.76-10.61,5.62-15.05s4.56-10.06,6.63-14.31,5.49-9.81,7.84-14.01,6.16-9.58,9.02-13.53c-33.38,46.1-47.25,105.9-33.01,165.81,26.06,109.65,136.58,178.8,246.35,154.14-109.78,24.66-220.29-44.49-246.35-154.14-14.24-59.91-.37-119.71,33.01-165.81,5.55-7.11,13.07-16.54,19.36-23.02s15.23-14.44,22.35-19.92c3.53-2.72,8.4-6.16,12.1-8.64,2.98-2,7.02-4.57,10.16-6.29,4.13-2.26,9.61-5.3,13.85-7.34,3.39-1.63,7.99-3.64,11.46-5.09,2.59-1.09,5.86-2.28,8.25-3.16,1.2-.44,5.6-2.02,11.85-3.84,5.93-1.73,11.29-2.9,11.3-2.9,0,0,0,0,0,0,.62-.09,1.42-.3,2.03-.43.17-.04,4.23-.9,11.14-1.9,2.69-.39,8.15-1.13,14.55-1.68,8.21-.72,13.45-.78,15.69-.81,4.29-.05,10.01.1,14.28.45,6.65.54,15.5,1.63,22.09,2.67,4.38.69,10.16,2.03,14.47,3.09,5.2,1.27,12.08,3.27,17.12,5.09,4.37,1.58,10.18,3.74,14.44,5.58,4.59,1.99,10.65,4.78,15.03,7.19,7.78,4.28,15.82,8.71,27,17.02"/>
    </g>
    <g class="cls-4">
      <g class="cls-3">
        <g class="cls-4">
          <g>
            <path class="cls-2" d="m326.16,650.86c-110.08,25.75-221.13-43.74-247.32-153.92-10.51,14.52,70.54,6.16,181.03-18.66,26.19,110.18,56.03,188.03,66.3,172.57Z"/>
            <path class="cls-2" d="m218.93,646.88c-5.3,7.32,35.57,3.11,91.3-9.41"/>
            <path class="cls-2" d="m130.13,591.54c-9.07,12.53,60.89,5.32,156.27-16.1"/>
            <path class="cls-2" d="m326.16,650.86c-100.31,29.68-203.43-36.61-229.61-146.79"/>
            <path class="cls-2" d="m326.16,650.86c-64.51,25.99-138.48-43.3-164.67-153.48"/>
          </g>
          <g>
            <path class="cls-2" d="m326.16,650.86c-10.26,15.46-40.11-62.39-66.3-172.57,110.49-24.82,208.58-56.71,219.09-71.22,26.19,110.18-42.25,219.99-152.79,243.8Z"/>
            <path class="cls-2" d="m310.23,637.48c55.72-12.52,105.19-28.6,110.49-35.92"/>
            <path class="cls-2" d="m286.41,575.43c95.38-21.43,180.06-48.95,189.13-61.49"/>
            <path class="cls-2" d="m326.16,650.86c46.84.97,63.46-88.66,37.28-198.85"/>
            <path class="cls-2" d="m326.16,650.86c90.18-13.11,142.06-114.22,115.87-224.4"/>
          </g>
          <g>
            <path class="cls-2" d="m326.16,650.86c110.54-23.81,178.98-133.62,152.79-243.8,10.51-14.52-70.54-6.16-181.03,18.66,26.19,110.18,38.96,211.62,28.23,225.14Z"/>
            <path class="cls-2" d="m420.72,601.56c5.3-7.32-35.57-3.11-91.3,9.41"/>
            <path class="cls-2" d="m475.54,513.95c9.07-12.53-60.89-5.32-156.27,16.1"/>
            <path class="cls-2" d="m326.16,650.86c100.77-27.74,161.27-140.75,135.08-250.93"/>
            <path class="cls-2" d="m326.16,650.86c64.97-24.05,96.33-134.06,70.14-244.24"/>
          </g>
          <g>
            <path class="cls-2" d="m326.16,650.86c10.72-13.53-2.05-114.96-28.23-225.14-110.49,24.82-208.58,56.71-219.09,71.22,26.19,110.18,137.24,179.66,247.32,153.92Z"/>
            <path class="cls-2" d="m329.42,610.97c-55.72,12.52-105.19,28.6-110.49,35.92"/>
            <path class="cls-2" d="m319.26,530.05c-95.38,21.43-180.06,48.95-189.13,61.49"/>
            <path class="cls-2" d="m326.16,650.86c-46.38.96-105.62-88.69-131.81-198.87"/>
            <path class="cls-2" d="m326.16,650.86c-89.72,15.05-184.22-63.14-210.4-173.32"/>
          </g>
          <g>
            <path class="cls-2" d="m78.83,496.94c-26.19-110.19,42.25-219.99,152.56-244.77-10.49,14.49,2.28,115.93,28.47,226.12-110.49,24.82-191.54,33.17-181.03,18.66Z"/>
            <path class="cls-2" d="m82.23,390.02c-9.07,12.53,60.89,5.32,156.27-16.1"/>
            <path class="cls-2" d="m136.99,302.16c-5.3,7.32,35.57,3.11,91.3-9.41"/>
            <path class="cls-2" d="m96.54,504.07c-26.19-110.19,34.31-223.19,134.85-251.9"/>
            <path class="cls-2" d="m161.49,497.38c-26.19-110.19,5.17-220.19,69.91-245.21"/>
          </g>
          <g>
            <path class="cls-2" d="m259.86,478.29c-26.19-110.19-38.96-211.63-28.47-226.12,110.31-24.78,221.36,44.7,247.55,154.89-10.51,14.52-108.6,46.4-219.09,71.22Z"/>
            <path class="cls-2" d="m238.51,373.91c95.38-21.43,180.06-48.95,189.13-61.49"/>
            <path class="cls-2" d="m228.29,292.75c55.72-12.52,105.19-28.6,110.49-35.92"/>
            <path class="cls-2" d="m363.43,452.02c-26.19-110.19-85.42-199.84-132.04-199.85"/>
            <path class="cls-2" d="m442.03,426.47c-26.19-110.19-120.68-188.38-210.63-174.3"/>
          </g>
          <g>
            <path class="cls-2" d="m478.95,407.06c-26.19-110.19-137.25-179.67-247.55-154.89,10.49-14.49,40.34,63.36,66.53,173.55,110.49-24.82,191.54-33.17,181.03-18.66Z"/>
            <path class="cls-2" d="m427.64,312.43c9.07-12.53-60.89-5.32-156.27,16.1"/>
            <path class="cls-2" d="m338.78,256.83c5.3-7.32-35.57-3.11-91.3,9.41"/>
            <path class="cls-2" d="m461.24,399.93c-26.19-110.19-129.3-176.47-229.84-147.76"/>
            <path class="cls-2" d="m396.29,406.63c-26.19-110.19-100.17-179.48-164.9-154.46"/>
          </g>
          <g>
            <path class="cls-2" d="m297.92,425.72c-26.19-110.19-56.03-188.04-66.53-173.55-110.31,24.78-178.75,134.58-152.56,244.77,10.51-14.52,108.6-46.4,219.09-71.22Z"/>
            <path class="cls-2" d="m271.36,328.53c-95.38,21.43-180.06,48.95-189.13,61.49"/>
            <path class="cls-2" d="m247.48,266.24c-55.72,12.52-105.19,28.6-110.49,35.92"/>
            <path class="cls-2" d="m194.35,451.99c-26.19-110.19-9.57-199.83,37.04-199.82"/>
            <path class="cls-2" d="m115.75,477.54c-26.19-110.19,25.69-211.29,115.64-225.37"/>
          </g>
        </g>
        <path class="cls-2" d="m323.76,652.75c-6.8,1.49-13.15,2.4-14.36,2.57-7.32,1.02-10.99,1.47-19.36,2.11-3.55.27-9.11.51-12.14.51-4.41,0-10.29-.25-14.69-.5-6.67-.38-15.56-1.42-22.1-2.79-4.36-.91-10.19-2.05-14.49-3.19-5.17-1.38-12.05-3.35-17.06-5.22-4.36-1.62-10.16-3.83-14.41-5.73-4.57-2.03-10.61-4.88-14.96-7.34-4.1-2.32-9.55-5.44-13.51-8s-9.51-6.33-13.34-9.37c-7.02-5.56-14.29-11.32-23.87-21.33-6.64-6.93-14.7-16.93-20.26-24.75-2.12-2.98-9.57-13.82-16.57-28.46-4.3-9-9.01-21.5-11.89-31.05-2.4-7.96-4.87-18.82-6.01-27.05-1.3-9.34-2.5-19.14-2.37-33.19.05-4.94.28-11.54.83-16.45.77-7.01,2.21-20.06,5.46-31.91,2.52-9.2,6.43-21.36,10.16-30.14,4.17-9.81,8.97-19.05,14.66-28.26,2.35-3.8,5.82-8.67,8.31-12.38,27.89-38.51,69.41-67.4,119.61-78.67-50.2,11.28-91.72,40.16-119.61,78.67,5.57-7.12,13.1-16.58,19.41-23.06s15.28-14.45,22.42-19.93c3.55-2.72,8.43-6.14,12.15-8.63,2.85-1.9,6.73-4.33,9.72-5.99,4.09-2.28,9.56-5.29,13.78-7.3,1.73-.82,4.04-1.93,5.8-2.68,5.16-2.22,7.1-3.05,10.28-4.23,4.03-1.5,7.84-2.91,14.14-4.8,7.64-2.3,14.11-3.7,14.17-3.71,3.51-.74,3.8-.8,8.06-1.51,2.15-.36,5.03-.76,7.2-1.04,6.63-.87,13.35-1.46,17.43-1.73,2.64-.17,8.13-.53,14.33-.58,7.21-.06,11.76.26,12.98.36,4.01.33,9.37.79,13.34,1.41,5.93.92,13.83,2.29,19.67,3.7,6.87,1.67,17.55,4.52,30.9,10.02,4.33,1.79,10.02,4.39,14.2,6.51,4.42,2.24,10.25,5.37,14.44,8.02,7.52,4.76,15.3,9.69,25.99,18.69,7.29,6.14,16.26,15.22,22.66,22.29.4.44,9.97,11.07,19.43,26.27,5.19,8.33,11.04,20.07,15.02,29.04,2.05,4.62,4.31,10.99,5.88,15.8s3.31,11.37,4.59,16.29,2.51,11.72,3.29,16.79,1.68,11.56,1.86,16.56c.34,9.26.26,21.62-.13,30.87,0,.13-.83,14.25-5.12,31.96-4.25,17.54-9.9,30.34-9.95,30.45-2.03,4.41-4.42,10.44-6.78,14.68-4.59,8.23-11.02,19.05-16.36,26.81-2.66,3.87-6.6,8.74-9.62,12.34s-6.95,7.9-10.1,11.13c-14.26,14.62-27.2,23.61-34.52,28.41-11.43,7.5-22.42,12.69-22.89,12.91-3.08,1.45-7.74,3.64-12.18,5.38-4.27,1.68-5.04,1.98-7.9,3.01-4.07,1.46-7.18,2.43-8.2,2.74-4.76,1.49-8.39,2.44-10.13,2.9-3.57.94-7.24,1.75-7.28,1.76Z"/>
      </g>
      <path class="cls-1" d="m323.76,652.75c-6.8,1.49-13.15,2.4-14.36,2.57-7.32,1.02-10.99,1.47-19.36,2.11-3.55.27-9.11.51-12.14.51-4.41,0-10.29-.25-14.69-.5-6.67-.38-15.56-1.42-22.1-2.79-4.36-.91-10.19-2.05-14.49-3.19-5.17-1.38-12.05-3.35-17.06-5.22-4.36-1.62-10.16-3.83-14.41-5.73-4.57-2.03-10.61-4.88-14.96-7.34-4.1-2.32-9.55-5.44-13.51-8s-9.51-6.33-13.34-9.37c-7.02-5.56-14.29-11.32-23.87-21.33-6.64-6.93-14.7-16.93-20.26-24.75-2.12-2.98-9.57-13.82-16.57-28.46-4.3-9-9.01-21.5-11.89-31.05-2.4-7.96-4.87-18.82-6.01-27.05-1.3-9.34-2.5-19.14-2.37-33.19.05-4.94.28-11.54.83-16.45.77-7.01,2.21-20.06,5.46-31.91,2.52-9.2,6.43-21.36,10.16-30.14,4.17-9.81,8.97-19.05,14.66-28.26,2.35-3.8,5.82-8.67,8.31-12.38,27.89-38.51,69.41-67.4,119.61-78.67-50.2,11.28-91.72,40.16-119.61,78.67,5.57-7.12,13.1-16.58,19.41-23.06s15.28-14.45,22.42-19.93c3.55-2.72,8.43-6.14,12.15-8.63,2.85-1.9,6.73-4.33,9.72-5.99,4.09-2.28,9.56-5.29,13.78-7.3,1.73-.82,4.04-1.93,5.8-2.68,5.16-2.22,7.1-3.05,10.28-4.23,4.03-1.5,7.84-2.91,14.14-4.8,7.64-2.3,14.11-3.7,14.17-3.71,3.51-.74,3.8-.8,8.06-1.51,2.15-.36,5.03-.76,7.2-1.04,6.63-.87,13.35-1.46,17.43-1.73,2.64-.17,8.13-.53,14.33-.58,7.21-.06,11.76.26,12.98.36,4.01.33,9.37.79,13.34,1.41,5.93.92,13.83,2.29,19.67,3.7,6.87,1.67,17.55,4.52,30.9,10.02,4.33,1.79,10.02,4.39,14.2,6.51,4.42,2.24,10.25,5.37,14.44,8.02,7.52,4.76,15.3,9.69,25.99,18.69,7.29,6.14,16.26,15.22,22.66,22.29.4.44,9.97,11.07,19.43,26.27,5.19,8.33,11.04,20.07,15.02,29.04,2.05,4.62,4.31,10.99,5.88,15.8s3.31,11.37,4.59,16.29,2.51,11.72,3.29,16.79,1.68,11.56,1.86,16.56c.34,9.26.26,21.62-.13,30.87,0,.13-.83,14.25-5.12,31.96-4.25,17.54-9.9,30.34-9.95,30.45-2.03,4.41-4.42,10.44-6.78,14.68-4.59,8.23-11.02,19.05-16.36,26.81-2.66,3.87-6.6,8.74-9.62,12.34s-6.95,7.9-10.1,11.13c-14.26,14.62-27.2,23.61-34.52,28.41-11.43,7.5-22.42,12.69-22.89,12.91-3.08,1.45-7.74,3.64-12.18,5.38-4.27,1.68-5.04,1.98-7.9,3.01-4.07,1.46-7.18,2.43-8.2,2.74-4.76,1.49-8.39,2.44-10.13,2.9-3.57.94-7.24,1.75-7.28,1.76Z"/>
    </g>
    <g class="cls-4">
      <g class="cls-8">
        <g class="cls-4">
          <g>
            <path class="cls-2" d="m326.16,650.86c-110.08,25.75-221.13-43.74-247.32-153.92-10.51,14.52,70.54,6.16,181.03-18.66,26.19,110.18,56.03,188.03,66.3,172.57Z"/>
            <path class="cls-2" d="m218.93,646.88c-5.3,7.32,35.57,3.11,91.3-9.41"/>
            <path class="cls-2" d="m130.13,591.54c-9.07,12.53,60.89,5.32,156.27-16.1"/>
            <path class="cls-2" d="m326.16,650.86c-100.31,29.68-203.43-36.61-229.61-146.79"/>
            <path class="cls-2" d="m326.16,650.86c-64.51,25.99-138.48-43.3-164.67-153.48"/>
          </g>
          <g>
            <path class="cls-2" d="m326.16,650.86c-10.26,15.46-40.11-62.39-66.3-172.57,110.49-24.82,208.58-56.71,219.09-71.22,26.19,110.18-42.25,219.99-152.79,243.8Z"/>
            <path class="cls-2" d="m310.23,637.48c55.72-12.52,105.19-28.6,110.49-35.92"/>
            <path class="cls-2" d="m286.41,575.43c95.38-21.43,180.06-48.95,189.13-61.49"/>
            <path class="cls-2" d="m326.16,650.86c46.84.97,63.46-88.66,37.28-198.85"/>
            <path class="cls-2" d="m326.16,650.86c90.18-13.11,142.06-114.22,115.87-224.4"/>
          </g>
          <g>
            <path class="cls-2" d="m326.16,650.86c110.54-23.81,178.98-133.62,152.79-243.8,10.51-14.52-70.54-6.16-181.03,18.66,26.19,110.18,38.96,211.62,28.23,225.14Z"/>
            <path class="cls-2" d="m420.72,601.56c5.3-7.32-35.57-3.11-91.3,9.41"/>
            <path class="cls-2" d="m475.54,513.95c9.07-12.53-60.89-5.32-156.27,16.1"/>
            <path class="cls-2" d="m326.16,650.86c100.77-27.74,161.27-140.75,135.08-250.93"/>
            <path class="cls-2" d="m326.16,650.86c64.97-24.05,96.33-134.06,70.14-244.24"/>
          </g>
          <g>
            <path class="cls-2" d="m326.16,650.86c10.72-13.53-2.05-114.96-28.23-225.14-110.49,24.82-208.58,56.71-219.09,71.22,26.19,110.18,137.24,179.66,247.32,153.92Z"/>
            <path class="cls-2" d="m329.42,610.97c-55.72,12.52-105.19,28.6-110.49,35.92"/>
            <path class="cls-2" d="m319.26,530.05c-95.38,21.43-180.06,48.95-189.13,61.49"/>
            <path class="cls-2" d="m326.16,650.86c-46.38.96-105.62-88.69-131.81-198.87"/>
            <path class="cls-2" d="m326.16,650.86c-89.72,15.05-184.22-63.14-210.4-173.32"/>
          </g>
          <g>
            <path class="cls-2" d="m78.83,496.94c-26.19-110.19,42.25-219.99,152.56-244.77-10.49,14.49,2.28,115.93,28.47,226.12-110.49,24.82-191.54,33.17-181.03,18.66Z"/>
            <path class="cls-2" d="m82.23,390.02c-9.07,12.53,60.89,5.32,156.27-16.1"/>
            <path class="cls-2" d="m136.99,302.16c-5.3,7.32,35.57,3.11,91.3-9.41"/>
            <path class="cls-2" d="m96.54,504.07c-26.19-110.19,34.31-223.19,134.85-251.9"/>
            <path class="cls-2" d="m161.49,497.38c-26.19-110.19,5.17-220.19,69.91-245.21"/>
          </g>
          <g>
            <path class="cls-2" d="m259.86,478.29c-26.19-110.19-38.96-211.63-28.47-226.12,110.31-24.78,221.36,44.7,247.55,154.89-10.51,14.52-108.6,46.4-219.09,71.22Z"/>
            <path class="cls-2" d="m238.51,373.91c95.38-21.43,180.06-48.95,189.13-61.49"/>
            <path class="cls-2" d="m228.29,292.75c55.72-12.52,105.19-28.6,110.49-35.92"/>
            <path class="cls-2" d="m363.43,452.02c-26.19-110.19-85.42-199.84-132.04-199.85"/>
            <path class="cls-2" d="m442.03,426.47c-26.19-110.19-120.68-188.38-210.63-174.3"/>
          </g>
          <g>
            <path class="cls-2" d="m478.95,407.06c-26.19-110.19-137.25-179.67-247.55-154.89,10.49-14.49,40.34,63.36,66.53,173.55,110.49-24.82,191.54-33.17,181.03-18.66Z"/>
            <path class="cls-2" d="m338.78,256.83c5.3-7.32-35.57-3.11-91.3,9.41"/>
            <path class="cls-2" d="m461.24,399.93c-26.19-110.19-129.3-176.47-229.84-147.76"/>
            <path class="cls-2" d="m396.29,406.63c-26.19-110.19-100.17-179.48-164.9-154.46"/>
          </g>
          <g>
            <path class="cls-2" d="m297.92,425.72c-26.19-110.19-56.03-188.04-66.53-173.55-110.31,24.78-178.75,134.58-152.56,244.77,10.51-14.52,108.6-46.4,219.09-71.22Z"/>
            <path class="cls-2" d="m271.36,328.53c-95.38,21.43-180.06,48.95-189.13,61.49"/>
            <path class="cls-2" d="m247.48,266.24c-55.72,12.52-105.19,28.6-110.49,35.92"/>
            <path class="cls-2" d="m194.35,451.99c-26.19-110.19-9.57-199.83,37.04-199.82"/>
            <path class="cls-2" d="m115.75,477.54c-26.19-110.19,25.69-211.29,115.64-225.37"/>
          </g>
        </g>
      </g>
      <path class="cls-1" d="m77.98,499.78c-1.29-4.97-2.5-11.72-3.27-16.79s-1.69-11.7-1.86-16.76-.73-11.51-.48-16.44.38-11.39.82-16.26,1.16-11.41,2.13-16.23,2.02-11.28,3.41-15.98c2.7-9.15,6.47-21.34,10.2-30.12s9.57-19.26,14.11-27.28c2.33-4.11,6.12-9.16,8.74-13.09-33.39,46.12-47.22,106.05-32.95,166.1,26.19,110.18,137.24,179.66,247.32,153.92-110.08,25.75-221.13-43.74-247.32-153.92-14.27-60.05-.44-119.98,32.95-166.1,8.13-11.18,15.3-18.86,19.99-23.65,6.29-6.43,15.33-14.39,22.49-19.83,3.56-2.7,8.43-6.15,12.18-8.58,3.99-2.59,9.46-5.82,13.62-8.13,10.22-5.67,21.27-10.15,25.41-11.69,3.23-1.2,6.89-2.56,11.78-4.07,7.73-2.39,12.92-3.58,12.96-3.59,0,0,0,0,0,0,.51-.1,1.18-.28,1.69-.4,2.23-.53,2.75-.63,6.12-1.28,1.9-.37,4.46-.77,6.38-1.05,5.27-.75,6.63-.91,11.91-1.49,2.71-.29,6.33-.62,9.04-.79,4-.26,8.97-.58,14.31-.64,8.45-.09,12.6.24,13.96.35,5.94.47,13.84,1.48,19.73,2.39,4.02.62,9.32,1.78,13.28,2.72,10.33,2.45,20.72,5.82,30.9,10.02,12.79,5.27,20.85,9.98,28.64,14.53.51.3,12.6,7.39,25.99,18.69,10.62,8.96,16.56,15.55,22.86,22.53,3.27,3.62,7.27,8.76,10.17,12.69s6.35,9.34,9.07,13.35,5.87,9.93,8.14,14.32c6.36,12.32,10.19,22.74,12.82,30.7,3,9.1,6.01,21.57,7.52,31.03.79,4.94,1.61,11.58,2.01,16.57,1.48,18.37,0,32.81,0,32.94-.57,4.81-1.26,11.24-1.94,16.03s-2.07,11.22-3.23,15.96c-3.3,13.57-7.44,24.32-10.03,30.54-9.56,22.92-21.76,40.65-32.81,53.73-5.81,6.87-14.16,15.57-20.98,21.44-3.4,2.92-7.94,6.81-11.54,9.47-4.84,3.58-11.39,8.26-16.55,11.35-2.7,1.61-6.29,3.8-9.07,5.26s-6.38,3.34-9.15,4.7c-1.92.94-4.5,2.15-6.47,2.98-1.71.72-3.98,1.7-5.7,2.4-1.22.5-2.85,1.12-4.08,1.6-1.47.57-3.75,1.39-6.8,2.45-5.48,1.89-12.4,3.87-15.35,4.6-1.2.3-2.4.61-3.6.91-.54.13-1.27.3-1.82.43-1.05.25-2.46.56-3.52.79-3.11.66-5.83,1.11-8.45,1.56-3.82.64-8.08,1.18-10.63,1.51-2.35.3-5.5.61-7.86.84-1.8.18-8.29.77-16.23.92-4.2.08-9.79-.17-13.98-.37-10.99-.52-24.27-2.93-26.73-3.45-4.36-.93-10.16-2.21-14.45-3.4-4.63-1.28-10.77-3.15-15.27-4.84-6.38-2.39-16.02-5.99-28.8-12.96-8.28-4.51-18.75-11.52-26.35-17.1-.48-.35-11.82-8.71-24.05-21.51-12.26-12.83-20.03-24.46-20.35-24.94-2.69-4.04-6.35-9.4-8.68-13.66-3.86-7.06-8.65-16.66-11.92-24.01-4.09-9.2-7.84-22.17-10.37-31.91Z"/>
    </g>
  </g>
  <path class="cls-6" d="m2.5,0C1.12,0,0,.22,0,.5s1.12.5,2.5.5,2.5-.22,2.5-.5-1.12-.5-2.5-.5h0Z"/>
</svg>