<?xml version="1.0" encoding="UTF-8"?>
<svg id="Layer_2" data-name="Layer 2" xmlns="http://www.w3.org/2000/svg" xmlns:xlink="http://www.w3.org/1999/xlink" viewBox="0 0 551.44 551.38">
  <defs>
    <style>
      .cls-1, .cls-2 {
        fill: none;
        stroke: #fff;
        stroke-miterlimit: 10;
      }

      .cls-3 {
        clip-path: url(#clippath-2);
      }

      .cls-4 {
        isolation: isolate;
      }

      .cls-5 {
        clip-path: url(#clippath-1);
      }

      .cls-6 {
        clip-path: url(#clippath);
      }

      .cls-7 {
        clip-path: url(#clippath-3);
      }

      .cls-2 {
        stroke-width: .25px;
      }
    </style>
    <clipPath id="clippath">
      <path class="cls-1" d="m464.41,75.35c.07.07,7.03,6.59,13.36,13.49,2.68,2.92,6.17,6.91,8.75,9.93,1.51,1.77,3.46,4.19,4.9,6.02,4.1,5.18,8.1,10.63,11.88,16.19,1.16,1.7,2.69,3.98,3.78,5.72,4.32,6.89,4.88,7.77,6.69,10.96.97,1.7,2.28,3.96,3.2,5.69,3.09,5.78,4.24,7.95,5.7,10.99,1.55,3.24,3.59,7.56,5.03,10.85,2.25,5.16,3.67,8.79,4.61,11.2,2.23,5.72,4.78,13.14,5.95,17.01q2.24,7.39,3.3,11.34c1.36,5.06,2.05,8.12,2.79,11.36,1.59,6.98,3,15.38,3.26,17.13,1.05,7.14,1.09,7.42,1.55,11.38.39,3.38.81,7.91,1.06,11.31,1.22,16.54.68,30.76,0,39.78-.38,5.13-1.55,20.75-5.91,40.24-2.15,9.6-4.33,16.8-4.35,16.87q-2.24,7.36-3.49,11.05t-3.95,10.89c-1.54,4.1-5.02,12.28-6.81,16.04q-3.3,6.96-5.1,10.46c-1.6,3.11-3.81,7.2-5.53,10.24-1.92,3.38-3.93,6.76-5.97,10.04q-2.07,3.32-6.36,9.75c-1.62,2.43-2.81,4.06-6.75,9.45-1.03,1.41-2.46,3.25-3.53,4.63-3.12,3.99-12.62,16.14-27.26,30.03-4.91,4.66-10.68,9.67-13.03,11.59q-5.94,4.85-9.14,7.29c-3.28,2.51-3.62,2.75-9.31,6.81-.04.03-4.05,2.87-9.42,6.32q-3.24,2.08-9.69,5.93c-2.59,1.55-8.73,4.99-15.04,8.16-17.45,8.75-31.3,13.4-37.22,15.39-6.75,2.27-14.8,4.46-16.97,5-3.42.86-7.98,1.98-11.43,2.72s-7.85,1.58-11.23,2.19c-5.05.91-12.2,1.92-18.23,2.56-4.24.45-10.9,1.05-18.51,1.34-1.6.06-6.48.25-12.79.2q-4.77-.04-13.16-.42c-2.18-.1-5.09-.3-7.26-.51-3.81-.36-8.89-.88-12.68-1.35-5.13-.65-9.04-1.33-14.44-2.28-2.75-.48-6.4-1.26-9.13-1.85-10.92-2.36-21.11-5.54-21.22-5.57-5.23-1.63-11.74-3.67-22.16-7.82-2.23-.89-5.2-2.11-7.39-3.09-6.65-2.98-8.89-3.98-12.59-5.87-6.31-3.21-7.45-3.78-12.01-6.34-4.82-2.71-5.92-3.38-11.99-7.13-2.06-1.27-4.78-3.03-6.78-4.41-3.57-2.46-8.28-5.81-11.78-8.37-1.38-1.04-2.69-2.18-3.92-3.43-8.95-9.08-13.54-23.32-13.62-42.35-.08-19.03,4.33-41.87,13.13-67.89,9.1-26.94,22.53-56.13,39.9-86.76,17.37-30.63,37.65-60.86,60.28-89.87,21.85-28.01,44.96-53.7,68.68-76.35s46.86-41.12,68.78-54.9c22.32-14.03,42.4-22.57,59.6-25.19.74.56,1.73.95,2.2.88s.25-.58-.5-1.14-1.73-.95-2.2-.88-.25.58.5,1.14c-17.2,2.62-37.28,11.16-59.6,25.19-21.92,13.78-45.06,32.25-68.78,54.9-23.73,22.66-46.83,48.34-68.68,76.35-22.63,29-42.91,59.24-60.28,89.87-17.37,30.63-30.8,59.82-39.9,86.76-8.8,26.02-13.22,48.86-13.13,67.89.08,19.02,4.67,33.27,13.62,42.34,1.23,1.25,2.54,2.39,3.92,3.43-2.79-2.13-6.49-4.99-9.21-7.21s-6.37-5.4-9.07-7.76c-.98-.86-7.12-6.38-12.52-11.91-3.04-3.12-8.14-8.33-14.89-16.37-6.2-7.38-10.38-13.16-13.15-16.99-1.24-1.71-2.85-4.02-4.01-5.78-2.05-3.11-4.77-7.27-6.71-10.44-3.27-5.35-6.97-11.9-9.41-16.67-.87-1.7-2.05-3.96-2.87-5.69-2.8-5.86-3.84-8.06-5.12-11.07-1.39-3.28-3.23-7.65-4.51-10.97-1.77-4.58-2.64-7.1-4.08-11.28-1.44-4.16-3.95-12.34-5.17-17.07q-1.91-7.42-2.79-11.36c-1.21-5.43-1.92-9.3-2.29-11.38-1.56-8.63-2.51-17.06-2.52-17.13-.36-3.39-.81-7.91-1.06-11.31-.4-5.53-.54-9.78-.59-11.38-.02-.56-.18-5.68-.12-11.43.04-3.39.21-7.9.35-11.29.09-2.12.54-9.56,1.42-17.18,1.17-10.1,2.53-17.3,2.55-17.38.65-3.41,1.53-7.97,2.29-11.36,1.14-5.1,2.09-8.67,2.78-11.27,1.45-5.46,3.78-13.02,5.06-16.65q2.55-7.26,3.95-10.89c1.84-4.76,3.33-8.23,4.42-10.73,3.73-8.56,7.46-15.71,7.49-15.78q3.62-6.86,5.55-10.28c3.17-5.59,5.86-9.86,5.97-10.04,1.82-2.89,3.54-5.62,6.36-9.75,1.96-2.86,4.68-6.61,6.72-9.41.04-.06,4.8-6.5,10.85-13.61,8.74-10.27,18.33-19.97,28.51-28.83,10.07-8.77,20.95-16.92,32.34-24.22,14.93-9.57,28.37-16.02,35.05-19.01,2.27-1.01,5.69-2.54,10.58-4.51,3.19-1.28,7.5-2.87,10.73-4.05.07-.03,8.23-2.93,16.78-5.34,3.19-.9,6.25-1.74,11.46-2.99,3.32-.79,7.77-1.73,11.12-2.41s8.15-1.46,11.65-2.03c2.02-.33,4.73-.68,6.76-.95,2.55-.34,16.06-2.03,31.29-2.19,2.02-.02,4.71-.05,6.73,0,3.73.08,8.7.26,12.43.43,4.08.19,8.65.64,13.5,1.11.06,0,6.92.72,14.09,1.89,3.54.57,9.01,1.53,14.99,2.84,6.98,1.52,11.81,2.85,16.48,4.13,3.6.99,8.34,2.51,11.88,3.66,2.8.91,6.49,2.25,9.26,3.27,1.91.7,4.44,1.7,6.33,2.45,5.55,2.2,10.19,4.33,13.58,5.88,8.17,3.73,18.27,9.18,24.54,12.96,3.65,2.2,7.09,4.28,12.69,8.03,3.59,2.41,8.3,5.75,11.76,8.35,10.75,8.1,17.68,14.32,23.57,19.83Z"/>
    </clipPath>
    <clipPath id="clippath-1">
      <path class="cls-1" d="m440.84,55.53c2.79,2.12,6.48,4.97,9.18,7.19,3.24,2.68,7.47,6.36,10.62,9.15,2.66,2.35,6.03,5.65,8.58,8.12,1.47,1.42,3.35,3.39,4.78,4.85.06.06,6.47,6.67,12.52,13.93,6.58,7.89,10.35,13.1,12.6,16.21,5.09,7.03,9.64,14.34,10.92,16.41,5.06,8.23,8.47,14.76,9.59,16.91,4.71,9.04,8.04,16.81,8.08,16.88,1.4,3.27,3.23,7.65,4.52,10.96,1.83,4.73,2.79,7.5,4.11,11.32,1.64,4.74,4.06,12.74,5.2,17.12q1.91,7.42,2.8,11.38c1.21,5.42,1.89,9.16,2.3,11.39,1.57,8.63,2.52,17.08,2.53,17.16.75,7.15.78,7.43,1.07,11.39.25,3.39.48,7.91.59,11.31.3,9.01.25,23.25-1.65,39.91-1.07,9.38-2.53,17.31-2.55,17.39q-1.43,7.54-2.3,11.41c-.76,3.38-1.88,7.87-2.76,11.22-1.26,4.78-3.62,12.57-5.06,16.66q-2.55,7.26-3.95,10.89c-1.84,4.76-3.33,8.23-4.41,10.73-6.75,15.47-14.06,28.17-19.01,36.1-.77,1.24-3.12,5.01-6.36,9.75-1.96,2.87-4.68,6.61-6.72,9.41-.04.06-4.82,6.52-10.85,13.61-8.79,10.33-18.12,19.76-28.5,28.84-9.95,8.7-20.83,16.85-32.33,24.22-14.05,9.02-26.8,15.31-35.02,19.01-1.79.8-5.5,2.47-10.57,4.51-3.19,1.28-7.5,2.87-10.73,4.05-.07.03-7.78,2.8-16.75,5.34-13.23,3.75-26.79,6.55-40.3,8.31-1.84.24-4.31.55-6.16.73-3.6.35-8.41.76-12.01,1.03-3.68.27-8.15.39-12.47.51-.05,0-5.74.14-12.73-.07-5.84-.17-9.5-.43-13.04-.69-.26-.02-6.33-.46-13.43-1.36-6.18-.79-9.77-1.41-13.94-2.13-4.95-.85-9.01-1.77-14.63-3.04-2.72-.61-6.32-1.58-9.02-2.29-.25-.07-6.23-1.65-14.78-4.47-3.98-1.31-9.21-3.26-13.12-4.74-2.69-1.02-6.24-2.48-8.88-3.64q-7.35-3.25-13.34-6.17c-.57-.28-5.77-2.83-12.26-6.47-4.68-2.62-5.49-3.12-11.82-7.02-3.69-2.27-5.93-3.82-11.92-7.93-2.08-1.43-4.79-3.44-6.81-4.95,9.02,6.77,21.25,9.03,36.42,6.71-15.17,2.31-27.4.05-36.42-6.71-1.72-1.32-4.04-3.05-5.73-4.41-2.68-2.15-6.26-5.02-8.83-7.3-2.73-2.42-6.38-5.63-9.03-8.14-2.94-2.78-6.76-6.6-9.59-9.49-.06-.06-6.46-6.66-12.51-13.92-6.58-7.9-10.35-13.1-12.6-16.21-5.09-7.03-9.64-14.34-10.92-16.41-5.06-8.23-8.47-14.76-9.59-16.91-4.71-9.04-8.04-16.81-8.08-16.88-1.4-3.27-3.23-7.65-4.52-10.96-1.83-4.73-2.79-7.49-4.11-11.32-1.64-4.74-4.06-12.74-5.2-17.12q-1.91-7.42-2.8-11.38c-1.22-5.42-1.92-9.31-2.3-11.39-1.57-8.63-2.52-17.08-2.53-17.16-.75-7.15-.78-7.43-1.07-11.39-.25-3.39-.48-7.91-.59-11.31-.3-9.01-.25-23.25,1.65-39.92,1.07-9.38,2.53-17.31,2.55-17.38.65-3.41,1.53-7.97,2.29-11.36,1.09-4.88,1.91-7.99,2.78-11.27,1.26-4.78,3.62-12.56,5.06-16.66q2.55-7.26,3.95-10.89c1.84-4.76,3.33-8.23,4.41-10.73,6.75-15.47,14.06-28.17,19.01-36.1.77-1.24,3.12-5.01,6.36-9.75,1.96-2.87,4.68-6.61,6.72-9.41.04-.06,4.82-6.52,10.85-13.61,8.79-10.33,18.11-19.76,28.5-28.84,9.95-8.69,20.83-16.84,32.33-24.22,14.04-9.01,26.8-15.31,35.02-19.01,1.78-.8,5.5-2.47,10.57-4.51,3.19-1.28,7.5-2.87,10.73-4.05.07-.03,7.77-2.79,16.75-5.34,9.51-2.7,16.54-4.17,17.31-4.33,3.49-.72,8.16-1.66,11.67-2.27s7.9-1.25,11.29-1.71c7.79-1.05,17.8-1.89,25.52-2.13,3.41-.11,7.27-.23,12.72-.17,7.5.08,13.01.44,13.06.44,6.02.4,8.52.57,13.5,1.11,4.97.54,9.71,1.18,14.09,1.89,6.78,1.1,11.12,2,14.99,2.84,3.99.86,9.26,2.19,13.2,3.22,1.91.5,7.21,1.95,15.16,4.57,3.96,1.3,9.17,3.24,13.07,4.72,2.7,1.02,6.27,2.49,8.91,3.66q7.23,3.19,13.35,6.18c.23.11,5.59,2.73,12.27,6.47,4.68,2.62,5.63,3.21,11.83,7.02,3.69,2.28,5.93,3.81,11.91,7.93,2.08,1.43,4.81,3.43,6.82,4.96Z"/>
    </clipPath>
    <clipPath id="clippath-2">
      <path class="cls-1" d="m404.3,49.01c-.28.04-.56.08-.85.12-.74-.56-.97-1.07-.5-1.14s1.45.32,2.2.88.97,1.07.5,1.14-1.45-.32-2.2-.88c.28-.04.56-.08.85-.12Z"/>
    </clipPath>
    <clipPath id="clippath-3">
      <path class="cls-1" d="m110.85,495.8c8.77,6.58,20.83,9.08,36.18,6.78-15.34,2.3-27.41-.2-36.18-6.78-4.49-3.5-10.46-8.19-14.75-11.93-4.68-4.08-10.73-9.74-15.13-14.13s-10.42-11.02-14.68-15.93c-3.17-3.65-7.19-8.69-10.06-12.59-5.53-7.52-12.72-17.73-17.24-25.9-3.88-7.01-8.92-16.43-12.39-23.64-2.42-5.02-5.25-11.9-7.25-17.1-11.21-29.13-17.05-58.86-18.26-87.85-.3-7.22-.25-16.86.04-24.07.26-6.34,1-14.78,1.78-21.08.89-7.18,2.25-16.76,4.01-23.77,3.18-12.65,7.8-29.47,12.48-41.64,4.31-11.2,11.48-25.57,17.17-36.14,3.56-6.61,8.8-15.2,13.33-21.2,3.99-5.29,9.2-12.43,13.31-17.63,4.57-5.78,11.04-13.22,16.41-18.26,4.72-4.43,10.9-10.44,15.72-14.76,5.47-4.91,13.26-10.91,19.23-15.22,16.03-11.56,30.32-19.2,39.58-23.74,5.58-2.74,13.14-6.14,18.92-8.42,6.71-2.64,15.8-5.81,22.69-7.96,11.36-3.56,26.94-6.93,38.7-8.77,9.94-1.55,23.36-2.44,33.4-3.03,5.22-.31,12.2-.09,17.42.02,6.01.13,14,.82,19.98,1.4,4.25.41,9.87,1.25,14.09,1.87s9.37,1.65,13.36,2.48c3.34.69,7.76,1.77,11.08,2.58,6.61,1.62,13.12,3.7,18.87,5.54,3.02.97,11.08,3.86,15.62,5.73,7.54,3.11,11.95,5,19.75,8.85,8.07,3.98,14.76,7.85,18.03,9.81,9.03,5.39,15.01,9.58,18.22,11.83,5.08,3.56,10.42,7.63,15.87,12.12,4.59,3.78,10.55,9.02,14.83,13.14,4.5,4.32,10.33,10.26,14.53,14.87,3.8,4.17,8.69,9.92,12.13,14.39,5.46,7.1,12.2,16.98,17.14,24.46,2.55,3.86,5.46,9.31,7.79,13.31,4.51,7.77,9.5,18.71,12.94,27.01,2.66,6.44,8.92,22.01,13.79,42.86,4.22,18.04,9.88,49.91,5.98,89.64-.71,7.19-1.95,16.77-3.4,23.84-1.3,6.33-3.37,14.7-4.82,21.01-1.64,7.13-4.78,16.42-7.44,23.24-4.85,12.43-12.23,28.7-18.76,40.33-6.17,11-15.64,24.98-23.46,34.88-12.31,15.59-23.99,26.86-31.7,33.78-5.55,4.99-13.12,11.5-19.24,15.77-10.36,7.24-24.53,16.44-35.61,22.52-6.69,3.67-15.96,7.92-23.01,10.86-5.68,2.37-13.37,5.26-19.21,7.18-7.82,2.58-18.45,5.43-26.46,7.36-5.73,1.38-13.47,2.88-19.32,3.65-9.99,1.3-23.39,2.54-33.45,3.04-6.83.34-15.96.16-22.78-.26-8.66-.53-20.17-1.74-28.75-3.04-4.03-.61-9.37-1.65-13.37-2.48-3.34-.69-7.76-1.75-11.07-2.58-3-.75-6.99-1.82-9.94-2.74q-9.32-2.9-16.93-5.61c-5.51-1.97-14.95-5.86-21.03-8.74-3.74-1.77-8.69-4.2-12.35-6.13-1.8-.95-4.18-2.24-5.95-3.24s-4.16-2.36-5.91-3.41c-2.2-1.32-6.77-4.06-11.96-7.53-3.82-2.56-8.8-6.15-12.52-8.86Z"/>
    </clipPath>
  </defs>
  <g class="cls-4">
    <g class="cls-4">
      <g class="cls-6">
        <g class="cls-4">
          <g>
            <path class="cls-2" d="m404.3,49.01c-.28.04-.56.08-.85.12.74.56,1.73.95,2.2.88-.45-.34-.9-.67-1.35-1.01Z"/>
            <path class="cls-2" d="m404.3,49.01c-.02.2-.03.41-.05.62"/>
            <path class="cls-2" d="m404.3,49.01c.25.31.49.62.74.93"/>
          </g>
          <g>
            <path class="cls-2" d="m404.3,49.01c.45.33.9.67,1.35,1.01.47-.07.25-.58-.5-1.14-.28.04-.57.09-.85.13Z"/>
            <path class="cls-2" d="m404.3,49.01c.53.27,1.06.53,1.59.8"/>
            <path class="cls-2" d="m404.3,49.01c.47.13.94.26,1.42.39"/>
          </g>
          <g>
            <path class="cls-2" d="m404.3,49.01c.28-.05.57-.09.85-.13-.74-.56-1.73-.95-2.2-.88.45.34.9.68,1.34,1.02Z"/>
            <path class="cls-2" d="m404.3,49.01c.02-.21.04-.42.06-.63"/>
            <path class="cls-2" d="m404.3,49.01c-.24-.32-.49-.63-.73-.94"/>
          </g>
          <g>
            <path class="cls-2" d="m404.3,49.01c-.45-.34-.9-.68-1.34-1.02-.47.07-.25.58.5,1.14.28-.04.56-.08.85-.12Z"/>
            <path class="cls-2" d="m404.3,49.01c-.53-.27-1.06-.54-1.59-.81"/>
            <path class="cls-2" d="m404.3,49.01c-.47-.14-.94-.27-1.41-.4"/>
          </g>
          <g>
            <path class="cls-2" d="m403.45,49.13c-17.2,2.62-37.28,11.16-59.6,25.19,44.23,33.18,102.67,56.64,130.54,52.39-18.35-30.36-41.44-56.22-68.74-76.7-.47.07-1.45-.32-2.2-.88Z"/>
            <path class="cls-2" d="m385.31,53.71c15.66,11.75,36.35,20.05,46.21,18.55"/>
            <path class="cls-2" d="m365.4,62.13c30.18,22.64,70.06,38.65,89.08,35.75"/>
            <path class="cls-2" d="m404.25,49.62c-1.07,12.6-5.51,30.82-13.09,53.97"/>
            <path class="cls-2" d="m405.03,49.94c14.89,19.01,25.94,43.44,32.95,72.45"/>
          </g>
          <g>
            <path class="cls-2" d="m405.65,50.01c27.3,20.48,50.39,46.35,68.74,76.7,27.86-4.25,14.6-34.59-29.64-67.77-9.12-9.24-22.4-12.7-39.6-10.07.74.56.97,1.07.5,1.14Z"/>
            <path class="cls-2" d="m431.52,72.25c9.86-1.5,5.17-12.24-10.49-23.99"/>
            <path class="cls-2" d="m454.48,97.89c19.01-2.9,9.96-23.6-20.22-46.24"/>
            <path class="cls-2" d="m405.89,49.81c32.25,16.36,60.15,38.23,83.02,64.82"/>
            <path class="cls-2" d="m405.71,49.4c28.63,8.07,53.01,21.9,72.57,40.92"/>
          </g>
          <g>
            <path class="cls-2" d="m405.15,48.87c17.2-2.62,30.49.83,39.6,10.07C400.52,25.76,342.07,2.31,314.21,6.55c31.55,7.08,61.44,20.96,88.74,41.44.47-.07,1.45.32,2.2.88Z"/>
            <path class="cls-2" d="m421.03,48.26c-15.66-11.75-36.35-20.05-46.21-18.55"/>
            <path class="cls-2" d="m434.25,51.64c-30.18-22.64-70.06-38.65-89.08-35.75"/>
            <path class="cls-2" d="m404.35,48.38c1.07-12.6-1.29-18.83-6.91-18.71"/>
            <path class="cls-2" d="m403.56,48.06c-14.89-19.01-32.74-31.46-52.96-37.19"/>
          </g>
          <g>
            <path class="cls-2" d="m402.95,47.99c-27.3-20.48-57.19-34.36-88.74-41.44-27.86,4.25-14.6,34.59,29.64,67.77,22.32-14.03,42.4-22.57,59.6-25.19-.74-.56-.97-1.07-.5-1.14Z"/>
            <path class="cls-2" d="m374.82,29.72c-9.86,1.5-5.17,12.24,10.49,23.99"/>
            <path class="cls-2" d="m345.17,15.89c-19.01,2.9-9.96,23.6,20.22,46.24"/>
            <path class="cls-2" d="m402.71,48.19c-32.25-16.36-66.95-26.24-103.03-29.56"/>
            <path class="cls-2" d="m402.89,48.6c-28.63-8.07-59.81-9.92-92.57-5.66"/>
          </g>
          <g>
            <path class="cls-2" d="m343.85,74.32c-21.92,13.78-45.06,32.25-68.78,54.9,80.35,60.28,186.52,102.89,237.14,95.18-7.08-35.01-19.8-67.87-37.82-97.69-27.86,4.25-86.31-19.21-130.54-52.39Z"/>
            <path class="cls-2" d="m321.54,89.65c57.29,42.98,132.99,73.37,169.08,67.87"/>
            <path class="cls-2" d="m298.57,107.98c69.36,52.03,161,88.81,204.69,82.16"/>
            <path class="cls-2" d="m391.16,103.59c-7.44,22.74-17.59,49.25-30.14,78.81"/>
            <path class="cls-2" d="m437.99,122.39c6.89,28.49,9.61,60.17,8.1,94.16"/>
          </g>
          <g>
            <path class="cls-2" d="m474.39,126.71c18.02,29.81,30.75,62.68,37.82,97.69,50.62-7.71,26.51-62.83-53.84-123.11-.08-19.02-4.67-33.27-13.62-42.35,44.23,33.18,57.5,63.52,29.64,67.77Z"/>
            <path class="cls-2" d="m490.63,157.51c36.09-5.5,18.9-44.8-38.39-87.78"/>
            <path class="cls-2" d="m503.26,190.14c43.69-6.66,22.89-54.23-46.47-106.26"/>
            <path class="cls-2" d="m488.91,114.63c22.47,26.12,39.18,55.66,49.69,87.82"/>
            <path class="cls-2" d="m478.28,90.32c19.22,18.68,33.01,41.54,41.01,67.97"/>
          </g>
          <g>
            <path class="cls-2" d="m444.75,58.95c8.95,9.08,13.54,23.32,13.62,42.35C378.02,41.01,271.85-1.6,221.23,6.11c30.71-6.66,61.99-6.51,92.98.44,27.86-4.25,86.31,19.21,130.54,52.39Z"/>
            <path class="cls-2" d="m452.24,69.73C394.95,26.75,319.25-3.63,283.16,1.87"/>
            <path class="cls-2" d="m456.79,83.88C387.44,31.85,295.79-4.94,252.1,1.72"/>
            <path class="cls-2" d="m397.44,29.67c-5.52.12-13.94,6.32-25.01,18.44"/>
            <path class="cls-2" d="m350.61,10.88c-19.85-5.63-41.13-4.59-63.26,3.09"/>
          </g>
          <g>
            <path class="cls-2" d="m314.21,6.55c-30.99-6.95-62.27-7.1-92.98-.44-50.62,7.71-26.51,62.83,53.84,123.11,23.72-22.65,46.86-41.12,68.78-54.9-44.23-33.18-57.5-63.52-29.64-67.77Z"/>
            <path class="cls-2" d="m283.16,1.87c-36.09,5.5-18.9,44.8,38.39,87.78"/>
            <path class="cls-2" d="m252.1,1.72c-43.69,6.66-22.89,54.23,46.47,106.26"/>
            <path class="cls-2" d="m299.68,18.63c-35.43-3.26-70.71-.09-104.84,9.43"/>
            <path class="cls-2" d="m310.31,42.95c-32.18,4.18-64.53,14.03-96.16,29.28"/>
          </g>
          <g>
            <path class="cls-2" d="m275.07,129.22c-23.73,22.66-46.83,48.34-68.68,76.35,104.7,78.55,243.05,134.08,309.01,124.03,4.97-34.79,3.89-70.18-3.19-105.2-50.62,7.71-156.79-34.9-237.14-95.18Z"/>
            <path class="cls-2" d="m251.57,152.86c90.03,67.54,208.99,115.29,265.71,106.65"/>
            <path class="cls-2" d="m228.63,178.36c98.17,73.64,227.88,125.71,289.72,116.28"/>
            <path class="cls-2" d="m361.01,182.4c-12.56,29.56-26.91,60.67-42.64,92.47"/>
            <path class="cls-2" d="m446.09,216.55c-1.51,34-7.18,68.59-16.85,102.82"/>
          </g>
          <g>
            <path class="cls-2" d="m512.21,224.4c7.08,35.02,8.15,70.41,3.19,105.2,65.96-10.05,34.55-81.87-70.15-160.42,8.8-26.02,13.22-48.86,13.13-67.89,80.35,60.28,104.45,115.4,53.84,123.11Z"/>
            <path class="cls-2" d="m517.28,259.51c56.72-8.64,29.71-70.4-60.32-137.94"/>
            <path class="cls-2" d="m518.35,294.65c61.84-9.42,32.39-76.76-65.77-150.4"/>
            <path class="cls-2" d="m538.6,202.45c10.51,32.17,14.27,65.32,11.18,98.55"/>
            <path class="cls-2" d="m519.29,158.29c8,26.43,9.79,55.08,5.33,85.16"/>
          </g>
          <g>
            <path class="cls-2" d="m458.37,101.29c.08,19.03-4.33,41.87-13.13,67.89C340.54,90.63,202.19,35.1,136.23,45.15c25.68-19.25,54.28-32.38,85-39.04,50.62-7.71,156.79,34.9,237.14,95.18Z"/>
            <path class="cls-2" d="m456.96,121.57C366.93,54.02,247.97,6.28,191.25,14.92"/>
            <path class="cls-2" d="m452.57,144.24C354.41,70.6,224.7,18.54,162.86,27.96"/>
            <path class="cls-2" d="m372.43,48.11c-11.08,12.12-24.26,29.54-39.18,51.77"/>
            <path class="cls-2" d="m287.35,13.96c-22.13,7.68-43.99,21.62-64.96,41.42"/>
          </g>
          <g>
            <path class="cls-2" d="m221.23,6.11c-30.72,6.66-59.32,19.8-85,39.04-65.96,10.05-34.55,81.87,70.15,160.42,21.85-28.01,44.96-53.7,68.68-76.35C194.72,68.94,170.61,13.82,221.23,6.11Z"/>
            <path class="cls-2" d="m191.25,14.92c-56.72,8.64-29.71,70.4,60.32,137.94"/>
            <path class="cls-2" d="m162.86,27.96c-61.84,9.42-32.39,76.76,65.77,150.4"/>
            <path class="cls-2" d="m194.84,28.06c-34.15,9.51-65.44,24.89-93,45.69"/>
            <path class="cls-2" d="m214.15,72.23c-31.64,15.25-60.96,35.13-87.14,59.08"/>
          </g>
          <g>
            <path class="cls-2" d="m206.39,205.57c-22.63,29-42.91,59.24-60.28,89.87,113.63,85.25,263.78,145.51,335.37,134.61,17.37-30.63,28.79-64.42,33.92-100.45-65.96,10.05-204.3-45.48-309.01-124.03Z"/>
            <path class="cls-2" d="m184.56,234.95c109.65,82.26,254.54,140.42,323.62,129.89"/>
            <path class="cls-2" d="m164.43,264.97c112.64,84.5,261.47,144.24,332.42,133.43"/>
            <path class="cls-2" d="m318.38,274.87c-16.29,32.93-33.35,65.15-50.73,95.78"/>
            <path class="cls-2" d="m429.23,319.37c-10.01,35.45-23.9,68.94-41.27,99.58"/>
          </g>
          <g>
            <path class="cls-2" d="m515.39,329.6c-5.13,36.03-16.54,69.82-33.92,100.45,71.58-10.91,37.5-88.86-76.14-174.1,17.37-30.63,30.8-59.82,39.9-86.76,104.7,78.55,136.11,150.37,70.15,160.42Z"/>
            <path class="cls-2" d="m508.18,364.85c69.08-10.52,36.18-85.74-73.47-168"/>
            <path class="cls-2" d="m496.85,398.4c70.96-10.81,37.17-88.08-75.47-172.57"/>
            <path class="cls-2" d="m549.79,301c-3.18,34.41-13.61,67.38-30.98,98.01"/>
            <path class="cls-2" d="m524.62,243.45c-4.61,31.15-15.76,62.47-33.13,93.1"/>
          </g>
          <g>
            <path class="cls-2" d="m445.24,169.18c-9.1,26.94-22.53,56.13-39.9,86.76C291.7,170.69,141.55,110.43,69.97,121.34c17.37-30.63,39.66-56.26,66.27-76.18,65.96-10.05,204.3,45.48,309.01,124.03Z"/>
            <path class="cls-2" d="m434.71,196.84C325.06,114.58,180.17,56.43,111.09,66.95"/>
            <path class="cls-2" d="m421.38,225.82C308.74,141.32,159.91,81.59,88.96,92.4"/>
            <path class="cls-2" d="m333.25,99.88c-15.45,23.02-32.08,50.22-49.46,80.85"/>
            <path class="cls-2" d="m222.39,55.39c-21.72,20.5-41.54,46.42-58.92,77.06"/>
          </g>
          <g>
            <path class="cls-2" d="m136.23,45.15c-26.6,19.92-48.89,45.55-66.27,76.18-71.58,10.91-37.5,88.86,76.14,174.1,17.37-30.63,37.65-60.86,60.28-89.87C101.68,127.02,70.28,55.2,136.23,45.15Z"/>
            <path class="cls-2" d="m111.09,66.95c-69.08,10.52-36.18,85.74,73.47,168"/>
            <path class="cls-2" d="m88.96,92.4c-70.96,10.81-37.17,88.08,75.47,172.57"/>
            <path class="cls-2" d="m101.84,73.75c-28.55,21.54-51.83,47.99-69.2,78.62"/>
            <path class="cls-2" d="m127.01,131.31c-27.12,24.8-49.68,52.9-67.05,83.53"/>
          </g>
          <g>
            <path class="cls-2" d="m146.11,295.44c-17.37,30.63-30.8,59.82-39.9,86.76,104.7,78.55,243.05,134.08,309.01,124.03,26.6-19.92,48.89-45.55,66.27-76.18-71.58,10.91-221.73-49.36-335.37-134.61Z"/>
            <path class="cls-2" d="m130.06,325.56c112.64,84.5,261.47,144.24,332.42,133.43"/>
            <path class="cls-2" d="m116.73,354.54c109.65,82.26,254.54,140.42,323.62,129.89"/>
            <path class="cls-2" d="m267.65,370.65c-17.37,30.63-34.01,57.83-49.46,80.85"/>
            <path class="cls-2" d="m387.96,418.94c-17.37,30.63-37.19,56.56-58.92,77.06"/>
          </g>
          <g>
            <path class="cls-2" d="m481.47,430.05c-17.37,30.63-39.66,56.26-66.27,76.18,65.96-10.05,34.55-81.87-70.15-160.42,22.63-29,42.91-59.24,60.28-89.87,113.63,85.25,147.72,163.2,76.14,174.1Z"/>
            <path class="cls-2" d="m462.48,458.99c70.96-10.81,37.17-88.08-75.47-172.57"/>
            <path class="cls-2" d="m440.35,484.43c69.08-10.52,36.18-85.74-73.47-168"/>
            <path class="cls-2" d="m518.8,399.01c-17.37,30.63-40.65,57.08-69.2,78.62"/>
            <path class="cls-2" d="m491.49,336.55c-17.37,30.63-39.93,58.73-67.05,83.53"/>
          </g>
          <g>
            <path class="cls-2" d="m405.34,255.94c-17.37,30.63-37.65,60.86-60.28,89.87-104.7-78.55-243.05-134.08-309.01-124.03,5.13-36.03,16.54-69.82,33.92-100.45,71.58-10.91,221.73,49.36,335.37,134.61Z"/>
            <path class="cls-2" d="m387.02,286.41C274.38,201.91,125.55,142.17,54.59,152.99"/>
            <path class="cls-2" d="m366.88,316.43C257.23,234.17,112.34,176.01,43.26,186.54"/>
            <path class="cls-2" d="m283.79,180.73c-17.37,30.63-34.44,62.85-50.73,95.78"/>
            <path class="cls-2" d="m163.48,132.44c-17.37,30.63-31.26,64.13-41.27,99.58"/>
          </g>
          <g>
            <path class="cls-2" d="m69.97,121.34c-17.37,30.63-28.79,64.42-33.92,100.45-65.96,10.05-34.55,81.87,70.15,160.42,9.1-26.94,22.53-56.13,39.9-86.76C32.47,210.19-1.62,132.24,69.97,121.34Z"/>
            <path class="cls-2" d="m54.59,152.99c-70.96,10.81-37.17,88.08,75.47,172.57"/>
            <path class="cls-2" d="m43.26,186.54c-69.08,10.52-36.18,85.74,73.47,168"/>
            <path class="cls-2" d="m32.64,152.38C15.27,183.01,4.84,215.98,1.66,250.39"/>
            <path class="cls-2" d="m59.95,214.84c-17.37,30.63-28.52,61.95-33.13,93.1"/>
          </g>
          <g>
            <path class="cls-2" d="m106.2,382.2c-8.8,26.02-13.22,48.86-13.13,67.89,80.35,60.28,186.52,102.89,237.14,95.18,30.72-6.66,59.32-19.8,85-39.04-65.96,10.05-204.3-45.48-309.01-124.03Z"/>
            <path class="cls-2" d="m98.87,407.14c98.17,73.64,227.88,125.71,289.72,116.28"/>
            <path class="cls-2" d="m94.48,429.82c90.03,67.54,208.99,115.29,265.71,106.65"/>
            <path class="cls-2" d="m218.19,451.5c-14.92,22.24-28.1,39.65-39.18,51.77"/>
            <path class="cls-2" d="m329.05,496c-20.97,19.8-42.83,33.74-64.96,41.42"/>
          </g>
          <g>
            <path class="cls-2" d="m415.21,506.23c-25.68,19.25-54.28,32.38-85,39.04,50.62-7.71,26.51-62.83-53.84-123.11,23.73-22.66,46.83-48.34,68.68-76.35,104.7,78.55,136.11,150.37,70.15,160.42Z"/>
            <path class="cls-2" d="m388.58,523.43c61.84-9.42,32.39-76.76-65.77-150.4"/>
            <path class="cls-2" d="m360.19,536.47c56.72-8.64,29.71-70.4-60.32-137.94"/>
            <path class="cls-2" d="m449.6,477.63c-27.56,20.81-58.85,36.18-93,45.69"/>
            <path class="cls-2" d="m424.44,420.08c-26.19,23.95-55.5,43.83-87.14,59.08"/>
          </g>
          <g>
            <path class="cls-2" d="m345.06,345.81c-21.85,28.01-44.96,53.7-68.68,76.35-80.35-60.28-186.52-102.89-237.14-95.18-7.08-35.02-8.15-70.41-3.19-105.2,65.96-10.05,204.3,45.48,309.01,124.03Z"/>
            <path class="cls-2" d="m322.81,373.02c-98.17-73.64-227.88-125.71-289.72-116.28"/>
            <path class="cls-2" d="m299.87,398.52c-90.03-67.54-208.99-115.29-265.71-106.65"/>
            <path class="cls-2" d="m233.07,276.51c-15.73,31.8-30.07,62.91-42.64,92.47"/>
            <path class="cls-2" d="m122.21,232.02c-9.67,34.23-15.34,68.82-16.85,102.82"/>
          </g>
          <g>
            <path class="cls-2" d="m36.05,221.78c-4.97,34.79-3.89,70.18,3.19,105.2-50.62,7.71-26.51,62.83,53.84,123.11-.08-19.03,4.33-41.87,13.13-67.89C1.5,303.66-29.91,231.83,36.05,221.78Z"/>
            <path class="cls-2" d="m33.1,256.74c-61.84,9.42-32.39,76.76,65.77,150.4"/>
            <path class="cls-2" d="m34.16,291.88c-56.72,8.64-29.71,70.4,60.32,137.94"/>
            <path class="cls-2" d="m1.66,250.39c-3.09,33.22.68,66.38,11.18,98.55"/>
            <path class="cls-2" d="m26.82,307.94c-4.46,30.08-2.67,58.73,5.33,85.16"/>
          </g>
          <g>
            <path class="cls-2" d="m93.07,450.09c.08,19.02,4.67,33.27,13.62,42.35,44.23,33.18,102.67,56.64,130.54,52.39,30.99,6.95,62.27,7.1,92.98.44-50.62,7.71-156.79-34.9-237.14-95.18Z"/>
            <path class="cls-2" d="m94.65,467.51c69.36,52.03,161,88.81,204.69,82.16"/>
            <path class="cls-2" d="m99.2,481.65c57.29,42.98,132.99,73.37,169.08,67.87"/>
            <path class="cls-2" d="m179.02,503.27c-11.08,12.11-19.49,18.32-25.01,18.44"/>
            <path class="cls-2" d="m264.09,537.42c-22.12,7.68-43.4,8.72-63.26,3.09"/>
          </g>
          <g>
            <path class="cls-2" d="m330.21,545.27c-30.71,6.66-61.99,6.51-92.98-.44,27.86-4.25,14.6-34.59-29.64-67.77,21.92-13.78,45.06-32.25,68.78-54.9,80.35,60.28,104.45,115.4,53.84,123.11Z"/>
            <path class="cls-2" d="m299.34,549.66c43.69-6.66,22.89-54.23-46.47-106.26"/>
            <path class="cls-2" d="m268.29,549.52c36.09-5.5,18.9-44.8-38.39-87.78"/>
            <path class="cls-2" d="m356.61,523.32c-34.14,9.51-69.41,12.68-104.84,9.43"/>
            <path class="cls-2" d="m337.29,479.16c-31.63,15.25-63.98,25.1-96.16,29.28"/>
          </g>
          <g>
            <path class="cls-2" d="m276.37,422.16c-23.72,22.65-46.86,41.12-68.78,54.9-44.23-33.18-102.67-56.64-130.54-52.39-18.02-29.81-30.75-62.68-37.82-97.69,50.62-7.71,156.79,34.9,237.14,95.18Z"/>
            <path class="cls-2" d="m252.87,443.4c-69.36-52.03-161-88.81-204.69-82.16"/>
            <path class="cls-2" d="m229.9,461.74c-57.29-42.98-132.99-73.37-169.08-67.87"/>
            <path class="cls-2" d="m190.43,368.98c-12.56,29.55-22.7,56.07-30.14,78.81"/>
            <path class="cls-2" d="m105.36,334.84c-1.51,33.99,1.21,65.66,8.1,94.16"/>
          </g>
          <g>
            <path class="cls-2" d="m39.23,326.98c7.08,35.01,19.8,67.87,37.82,97.69-27.86,4.25-14.6,34.59,29.64,67.77-8.95-9.08-13.54-23.32-13.62-42.34-80.35-60.28-104.45-115.4-53.84-123.11Z"/>
            <path class="cls-2" d="m48.18,361.24c-43.69,6.66-22.89,54.23,46.47,106.26"/>
            <path class="cls-2" d="m60.81,393.87c-36.09,5.5-18.9,44.8,38.39,87.78"/>
            <path class="cls-2" d="m12.84,348.93c10.5,32.16,27.22,61.7,49.69,87.82"/>
            <path class="cls-2" d="m32.15,393.1c8,26.42,21.79,49.29,41.01,67.97"/>
          </g>
          <g>
            <path class="cls-2" d="m106.69,492.44c9.27,9.4,22.84,12.81,40.34,10.14,27.78,20.84,58.13,35.06,90.2,42.25-27.86,4.25-86.31-19.21-130.54-52.39Z"/>
            <path class="cls-2" d="m154,521.71c-5.72.13-8.06-6.31-6.97-19.13"/>
            <path class="cls-2" d="m200.83,540.51c-20.55-5.83-38.65-18.59-53.8-37.93"/>
          </g>
          <g>
            <path class="cls-2" d="m237.23,544.83c-32.07-7.19-62.42-21.42-90.2-42.25,17.5-2.67,37.88-11.25,60.56-25.51,44.23,33.18,57.5,63.52,29.64,67.77Z"/>
            <path class="cls-2" d="m251.76,532.75c-36.67-3.37-71.91-13.52-104.73-30.17"/>
            <path class="cls-2" d="m241.13,508.44c-33.31,4.33-64.97,2.36-94.1-5.86"/>
          </g>
          <g>
            <path class="cls-2" d="m207.6,477.06c-22.69,14.26-43.06,22.85-60.56,25.51-27.78-20.84-51.32-47.05-69.98-77.91,27.86-4.25,86.31,19.21,130.54,52.39Z"/>
            <path class="cls-2" d="m160.29,447.79c-7.71,23.54-12.16,41.97-13.25,54.79"/>
            <path class="cls-2" d="m113.46,428.99c7.12,29.49,18.42,54.25,33.58,73.59"/>
          </g>
          <g>
            <path class="cls-2" d="m77.06,424.67c18.65,30.86,42.2,57.07,69.98,77.91-17.5,2.67-31.07-.74-40.34-10.14-44.23-33.18-57.5-63.52-29.64-67.77Z"/>
            <path class="cls-2" d="m62.53,436.75c23.25,27.03,51.69,49.18,84.5,65.83"/>
            <path class="cls-2" d="m73.16,461.06c19.88,19.33,44.74,33.3,73.87,41.51"/>
          </g>
        </g>
        <path class="cls-2" d="m464.41,75.35c.07.07,7.03,6.59,13.36,13.49,2.68,2.92,6.17,6.91,8.75,9.93,1.51,1.77,3.46,4.19,4.9,6.02,4.1,5.18,8.1,10.63,11.88,16.19,1.16,1.7,2.69,3.98,3.78,5.72,4.32,6.89,4.88,7.77,6.69,10.96.97,1.7,2.28,3.96,3.2,5.69,3.09,5.78,4.24,7.95,5.7,10.99,1.55,3.24,3.59,7.56,5.03,10.85,2.25,5.16,3.67,8.79,4.61,11.2,2.23,5.72,4.78,13.14,5.95,17.01q2.24,7.39,3.3,11.34c1.36,5.06,2.05,8.12,2.79,11.36,1.59,6.98,3,15.38,3.26,17.13,1.05,7.14,1.09,7.42,1.55,11.38.39,3.38.81,7.91,1.06,11.31,1.22,16.54.68,30.76,0,39.78-.38,5.13-1.55,20.75-5.91,40.24-2.15,9.6-4.33,16.8-4.35,16.87q-2.24,7.36-3.49,11.05t-3.95,10.89c-1.54,4.1-5.02,12.28-6.81,16.04q-3.3,6.96-5.1,10.46c-1.6,3.11-3.81,7.2-5.53,10.24-1.92,3.38-3.93,6.76-5.97,10.04q-2.07,3.32-6.36,9.75c-1.62,2.43-2.81,4.06-6.75,9.45-1.03,1.41-2.46,3.25-3.53,4.63-3.12,3.99-12.62,16.14-27.26,30.03-4.91,4.66-10.68,9.67-13.03,11.59q-5.94,4.85-9.14,7.29c-3.28,2.51-3.62,2.75-9.31,6.81-.04.03-4.05,2.87-9.42,6.32q-3.24,2.08-9.69,5.93c-2.59,1.55-8.73,4.99-15.04,8.16-17.45,8.75-31.3,13.4-37.22,15.39-6.75,2.27-14.8,4.46-16.97,5-3.42.86-7.98,1.98-11.43,2.72s-7.85,1.58-11.23,2.19c-5.05.91-12.2,1.92-18.23,2.56-4.24.45-10.9,1.05-18.51,1.34-1.6.06-6.48.25-12.79.2q-4.77-.04-13.16-.42c-2.18-.1-5.09-.3-7.26-.51-3.81-.36-8.89-.88-12.68-1.35-5.13-.65-9.04-1.33-14.44-2.28-2.75-.48-6.4-1.26-9.13-1.85-10.92-2.36-21.11-5.54-21.22-5.57-5.23-1.63-11.74-3.67-22.16-7.82-2.23-.89-5.2-2.11-7.39-3.09-6.65-2.98-8.89-3.98-12.59-5.87-6.31-3.21-7.45-3.78-12.01-6.34-4.82-2.71-5.92-3.38-11.99-7.13-2.06-1.27-4.78-3.03-6.78-4.41-3.57-2.46-8.28-5.81-11.78-8.37-1.38-1.04-2.69-2.18-3.92-3.43-8.95-9.08-13.54-23.32-13.62-42.35-.08-19.03,4.33-41.87,13.13-67.89,9.1-26.94,22.53-56.13,39.9-86.76,17.37-30.63,37.65-60.86,60.28-89.87,21.85-28.01,44.96-53.7,68.68-76.35s46.86-41.12,68.78-54.9c22.32-14.03,42.4-22.57,59.6-25.19.74.56,1.73.95,2.2.88s.25-.58-.5-1.14-1.73-.95-2.2-.88-.25.58.5,1.14c-17.2,2.62-37.28,11.16-59.6,25.19-21.92,13.78-45.06,32.25-68.78,54.9-23.73,22.66-46.83,48.34-68.68,76.35-22.63,29-42.91,59.24-60.28,89.87-17.37,30.63-30.8,59.82-39.9,86.76-8.8,26.02-13.22,48.86-13.13,67.89.08,19.02,4.67,33.27,13.62,42.34,1.23,1.25,2.54,2.39,3.92,3.43-2.79-2.13-6.49-4.99-9.21-7.21s-6.37-5.4-9.07-7.76c-.98-.86-7.12-6.38-12.52-11.91-3.04-3.12-8.14-8.33-14.89-16.37-6.2-7.38-10.38-13.16-13.15-16.99-1.24-1.71-2.85-4.02-4.01-5.78-2.05-3.11-4.77-7.27-6.71-10.44-3.27-5.35-6.97-11.9-9.41-16.67-.87-1.7-2.05-3.96-2.87-5.69-2.8-5.86-3.84-8.06-5.12-11.07-1.39-3.28-3.23-7.65-4.51-10.97-1.77-4.58-2.64-7.1-4.08-11.28-1.44-4.16-3.95-12.34-5.17-17.07q-1.91-7.42-2.79-11.36c-1.21-5.43-1.92-9.3-2.29-11.38-1.56-8.63-2.51-17.06-2.52-17.13-.36-3.39-.81-7.91-1.06-11.31-.4-5.53-.54-9.78-.59-11.38-.02-.56-.18-5.68-.12-11.43.04-3.39.21-7.9.35-11.29.09-2.12.54-9.56,1.42-17.18,1.17-10.1,2.53-17.3,2.55-17.38.65-3.41,1.53-7.97,2.29-11.36,1.14-5.1,2.09-8.67,2.78-11.27,1.45-5.46,3.78-13.02,5.06-16.65q2.55-7.26,3.95-10.89c1.84-4.76,3.33-8.23,4.42-10.73,3.73-8.56,7.46-15.71,7.49-15.78q3.62-6.86,5.55-10.28c3.17-5.59,5.86-9.86,5.97-10.04,1.82-2.89,3.54-5.62,6.36-9.75,1.96-2.86,4.68-6.61,6.72-9.41.04-.06,4.8-6.5,10.85-13.61,8.74-10.27,18.33-19.97,28.51-28.83,10.07-8.77,20.95-16.92,32.34-24.22,14.93-9.57,28.37-16.02,35.05-19.01,2.27-1.01,5.69-2.54,10.58-4.51,3.19-1.28,7.5-2.87,10.73-4.05.07-.03,8.23-2.93,16.78-5.34,3.19-.9,6.25-1.74,11.46-2.99,3.32-.79,7.77-1.73,11.12-2.41s8.15-1.46,11.65-2.03c2.02-.33,4.73-.68,6.76-.95,2.55-.34,16.06-2.03,31.29-2.19,2.02-.02,4.71-.05,6.73,0,3.73.08,8.7.26,12.43.43,4.08.19,8.65.64,13.5,1.11.06,0,6.92.72,14.09,1.89,3.54.57,9.01,1.53,14.99,2.84,6.98,1.52,11.81,2.85,16.48,4.13,3.6.99,8.34,2.51,11.88,3.66,2.8.91,6.49,2.25,9.26,3.27,1.91.7,4.44,1.7,6.33,2.45,5.55,2.2,10.19,4.33,13.58,5.88,8.17,3.73,18.27,9.18,24.54,12.96,3.65,2.2,7.09,4.28,12.69,8.03,3.59,2.41,8.3,5.75,11.76,8.35,10.75,8.1,17.68,14.32,23.57,19.83Z"/>
      </g>
      <path class="cls-1" d="m464.41,75.35c.07.07,7.03,6.59,13.36,13.49,2.68,2.92,6.17,6.91,8.75,9.93,1.51,1.77,3.46,4.19,4.9,6.02,4.1,5.18,8.1,10.63,11.88,16.19,1.16,1.7,2.69,3.98,3.78,5.72,4.32,6.89,4.88,7.77,6.69,10.96.97,1.7,2.28,3.96,3.2,5.69,3.09,5.78,4.24,7.95,5.7,10.99,1.55,3.24,3.59,7.56,5.03,10.85,2.25,5.16,3.67,8.79,4.61,11.2,2.23,5.72,4.78,13.14,5.95,17.01q2.24,7.39,3.3,11.34c1.36,5.06,2.05,8.12,2.79,11.36,1.59,6.98,3,15.38,3.26,17.13,1.05,7.14,1.09,7.42,1.55,11.38.39,3.38.81,7.91,1.06,11.31,1.22,16.54.68,30.76,0,39.78-.38,5.13-1.55,20.75-5.91,40.24-2.15,9.6-4.33,16.8-4.35,16.87q-2.24,7.36-3.49,11.05t-3.95,10.89c-1.54,4.1-5.02,12.28-6.81,16.04q-3.3,6.96-5.1,10.46c-1.6,3.11-3.81,7.2-5.53,10.24-1.92,3.38-3.93,6.76-5.97,10.04q-2.07,3.32-6.36,9.75c-1.62,2.43-2.81,4.06-6.75,9.45-1.03,1.41-2.46,3.25-3.53,4.63-3.12,3.99-12.62,16.14-27.26,30.03-4.91,4.66-10.68,9.67-13.03,11.59q-5.94,4.85-9.14,7.29c-3.28,2.51-3.62,2.75-9.31,6.81-.04.03-4.05,2.87-9.42,6.32q-3.24,2.08-9.69,5.93c-2.59,1.55-8.73,4.99-15.04,8.16-17.45,8.75-31.3,13.4-37.22,15.39-6.75,2.27-14.8,4.46-16.97,5-3.42.86-7.98,1.98-11.43,2.72s-7.85,1.58-11.23,2.19c-5.05.91-12.2,1.92-18.23,2.56-4.24.45-10.9,1.05-18.51,1.34-1.6.06-6.48.25-12.79.2q-4.77-.04-13.16-.42c-2.18-.1-5.09-.3-7.26-.51-3.81-.36-8.89-.88-12.68-1.35-5.13-.65-9.04-1.33-14.44-2.28-2.75-.48-6.4-1.26-9.13-1.85-10.92-2.36-21.11-5.54-21.22-5.57-5.23-1.63-11.74-3.67-22.16-7.82-2.23-.89-5.2-2.11-7.39-3.09-6.65-2.98-8.89-3.98-12.59-5.87-6.31-3.21-7.45-3.78-12.01-6.34-4.82-2.71-5.92-3.38-11.99-7.13-2.06-1.27-4.78-3.03-6.78-4.41-3.57-2.46-8.28-5.81-11.78-8.37-1.38-1.04-2.69-2.18-3.92-3.43-8.95-9.08-13.54-23.32-13.62-42.35-.08-19.03,4.33-41.87,13.13-67.89,9.1-26.94,22.53-56.13,39.9-86.76,17.37-30.63,37.65-60.86,60.28-89.87,21.85-28.01,44.96-53.7,68.68-76.35s46.86-41.12,68.78-54.9c22.32-14.03,42.4-22.57,59.6-25.19.74.56,1.73.95,2.2.88s.25-.58-.5-1.14-1.73-.95-2.2-.88-.25.58.5,1.14c-17.2,2.62-37.28,11.16-59.6,25.19-21.92,13.78-45.06,32.25-68.78,54.9-23.73,22.66-46.83,48.34-68.68,76.35-22.63,29-42.91,59.24-60.28,89.87-17.37,30.63-30.8,59.82-39.9,86.76-8.8,26.02-13.22,48.86-13.13,67.89.08,19.02,4.67,33.27,13.62,42.34,1.23,1.25,2.54,2.39,3.92,3.43-2.79-2.13-6.49-4.99-9.21-7.21s-6.37-5.4-9.07-7.76c-.98-.86-7.12-6.38-12.52-11.91-3.04-3.12-8.14-8.33-14.89-16.37-6.2-7.38-10.38-13.16-13.15-16.99-1.24-1.71-2.85-4.02-4.01-5.78-2.05-3.11-4.77-7.27-6.71-10.44-3.27-5.35-6.97-11.9-9.41-16.67-.87-1.7-2.05-3.96-2.87-5.69-2.8-5.86-3.84-8.06-5.12-11.07-1.39-3.28-3.23-7.65-4.51-10.97-1.77-4.58-2.64-7.1-4.08-11.28-1.44-4.16-3.95-12.34-5.17-17.07q-1.91-7.42-2.79-11.36c-1.21-5.43-1.92-9.3-2.29-11.38-1.56-8.63-2.51-17.06-2.52-17.13-.36-3.39-.81-7.91-1.06-11.31-.4-5.53-.54-9.78-.59-11.38-.02-.56-.18-5.68-.12-11.43.04-3.39.21-7.9.35-11.29.09-2.12.54-9.56,1.42-17.18,1.17-10.1,2.53-17.3,2.55-17.38.65-3.41,1.53-7.97,2.29-11.36,1.14-5.1,2.09-8.67,2.78-11.27,1.45-5.46,3.78-13.02,5.06-16.65q2.55-7.26,3.95-10.89c1.84-4.76,3.33-8.23,4.42-10.73,3.73-8.56,7.46-15.71,7.49-15.78q3.62-6.86,5.55-10.28c3.17-5.59,5.86-9.86,5.97-10.04,1.82-2.89,3.54-5.62,6.36-9.75,1.96-2.86,4.68-6.61,6.72-9.41.04-.06,4.8-6.5,10.85-13.61,8.74-10.27,18.33-19.97,28.51-28.83,10.07-8.77,20.95-16.92,32.34-24.22,14.93-9.57,28.37-16.02,35.05-19.01,2.27-1.01,5.69-2.54,10.58-4.51,3.19-1.28,7.5-2.87,10.73-4.05.07-.03,8.23-2.93,16.78-5.34,3.19-.9,6.25-1.74,11.46-2.99,3.32-.79,7.77-1.73,11.12-2.41s8.15-1.46,11.65-2.03c2.02-.33,4.73-.68,6.76-.95,2.55-.34,16.06-2.03,31.29-2.19,2.02-.02,4.71-.05,6.73,0,3.73.08,8.7.26,12.43.43,4.08.19,8.65.64,13.5,1.11.06,0,6.92.72,14.09,1.89,3.54.57,9.01,1.53,14.99,2.84,6.98,1.52,11.81,2.85,16.48,4.13,3.6.99,8.34,2.51,11.88,3.66,2.8.91,6.49,2.25,9.26,3.27,1.91.7,4.44,1.7,6.33,2.45,5.55,2.2,10.19,4.33,13.58,5.88,8.17,3.73,18.27,9.18,24.54,12.96,3.65,2.2,7.09,4.28,12.69,8.03,3.59,2.41,8.3,5.75,11.76,8.35,10.75,8.1,17.68,14.32,23.57,19.83Z"/>
    </g>
    <g class="cls-4">
      <g class="cls-5">
        <g class="cls-4">
          <g>
            <path class="cls-2" d="m403.45,49.13c-17.2,2.62-37.28,11.16-59.6,25.19,44.23,33.18,102.67,56.64,130.54,52.39-18.35-30.36-41.44-56.22-68.74-76.7-.47.07-1.45-.32-2.2-.88Z"/>
            <path class="cls-2" d="m404.25,49.62c-1.07,12.6-5.51,30.82-13.09,53.97"/>
            <path class="cls-2" d="m405.03,49.94c14.89,19.01,25.94,43.44,32.95,72.45"/>
          </g>
          <g>
            <path class="cls-2" d="m405.65,50.01c27.3,20.48,50.39,46.35,68.74,76.7,27.86-4.25,14.6-34.59-29.64-67.77-9.12-9.24-22.4-12.7-39.6-10.07.74.56.97,1.07.5,1.14Z"/>
            <path class="cls-2" d="m405.89,49.81c32.25,16.36,60.15,38.23,83.02,64.82"/>
            <path class="cls-2" d="m405.71,49.4c28.63,8.07,53.01,21.9,72.57,40.92"/>
          </g>
          <g>
            <path class="cls-2" d="m405.15,48.87c17.2-2.62,30.49.83,39.6,10.07C400.52,25.76,342.07,2.31,314.21,6.55c31.55,7.08,61.44,20.96,88.74,41.44.47-.07,1.45.32,2.2.88Z"/>
            <path class="cls-2" d="m404.35,48.38c1.07-12.6-1.29-18.83-6.91-18.71"/>
            <path class="cls-2" d="m403.56,48.06c-14.89-19.01-32.74-31.46-52.96-37.19"/>
          </g>
          <g>
            <path class="cls-2" d="m402.95,47.99c-27.3-20.48-57.19-34.36-88.74-41.44-27.86,4.25-14.6,34.59,29.64,67.77,22.32-14.03,42.4-22.57,59.6-25.19-.74-.56-.97-1.07-.5-1.14Z"/>
            <path class="cls-2" d="m402.71,48.19c-32.25-16.36-66.95-26.24-103.03-29.56"/>
            <path class="cls-2" d="m402.89,48.6c-28.63-8.07-59.81-9.92-92.57-5.66"/>
          </g>
          <g>
            <path class="cls-2" d="m343.85,74.32c-21.92,13.78-45.06,32.25-68.78,54.9,80.35,60.28,186.52,102.89,237.14,95.18-7.08-35.01-19.8-67.87-37.82-97.69-27.86,4.25-86.31-19.21-130.54-52.39Z"/>
            <path class="cls-2" d="m321.54,89.65c57.29,42.98,132.99,73.37,169.08,67.87"/>
            <path class="cls-2" d="m298.57,107.98c69.36,52.03,161,88.81,204.69,82.16"/>
            <path class="cls-2" d="m391.16,103.59c-7.44,22.74-17.59,49.25-30.14,78.81"/>
            <path class="cls-2" d="m437.99,122.39c6.89,28.49,9.61,60.17,8.1,94.16"/>
          </g>
          <g>
            <path class="cls-2" d="m474.39,126.71c18.02,29.81,30.75,62.68,37.82,97.69,50.62-7.71,26.51-62.83-53.84-123.11-.08-19.02-4.67-33.27-13.62-42.35,44.23,33.18,57.5,63.52,29.64,67.77Z"/>
            <path class="cls-2" d="m490.63,157.51c36.09-5.5,18.9-44.8-38.39-87.78"/>
            <path class="cls-2" d="m503.26,190.14c43.69-6.66,22.89-54.23-46.47-106.26"/>
            <path class="cls-2" d="m488.91,114.63c22.47,26.12,39.18,55.66,49.69,87.82"/>
            <path class="cls-2" d="m478.28,90.32c19.22,18.68,33.01,41.54,41.01,67.97"/>
          </g>
          <g>
            <path class="cls-2" d="m444.75,58.95c8.95,9.08,13.54,23.32,13.62,42.35C378.02,41.01,271.85-1.6,221.23,6.11c30.71-6.66,61.99-6.51,92.98.44,27.86-4.25,86.31,19.21,130.54,52.39Z"/>
            <path class="cls-2" d="m452.24,69.73C394.95,26.75,319.25-3.63,283.16,1.87"/>
            <path class="cls-2" d="m456.79,83.88C387.44,31.85,295.79-4.94,252.1,1.72"/>
            <path class="cls-2" d="m397.44,29.67c-5.52.12-13.94,6.32-25.01,18.44"/>
            <path class="cls-2" d="m350.61,10.88c-19.85-5.63-41.13-4.59-63.26,3.09"/>
          </g>
          <g>
            <path class="cls-2" d="m314.21,6.55c-30.99-6.95-62.27-7.1-92.98-.44-50.62,7.71-26.51,62.83,53.84,123.11,23.72-22.65,46.86-41.12,68.78-54.9-44.23-33.18-57.5-63.52-29.64-67.77Z"/>
            <path class="cls-2" d="m283.16,1.87c-36.09,5.5-18.9,44.8,38.39,87.78"/>
            <path class="cls-2" d="m252.1,1.72c-43.69,6.66-22.89,54.23,46.47,106.26"/>
            <path class="cls-2" d="m299.68,18.63c-35.43-3.26-70.71-.09-104.84,9.43"/>
            <path class="cls-2" d="m310.31,42.95c-32.18,4.18-64.53,14.03-96.16,29.28"/>
          </g>
          <g>
            <path class="cls-2" d="m275.07,129.22c-23.73,22.66-46.83,48.34-68.68,76.35,104.7,78.55,243.05,134.08,309.01,124.03,4.97-34.79,3.89-70.18-3.19-105.2-50.62,7.71-156.79-34.9-237.14-95.18Z"/>
            <path class="cls-2" d="m251.57,152.86c90.03,67.54,208.99,115.29,265.71,106.65"/>
            <path class="cls-2" d="m228.63,178.36c98.17,73.64,227.88,125.71,289.72,116.28"/>
            <path class="cls-2" d="m361.01,182.4c-12.56,29.56-26.91,60.67-42.64,92.47"/>
            <path class="cls-2" d="m446.09,216.55c-1.51,34-7.18,68.59-16.85,102.82"/>
          </g>
          <g>
            <path class="cls-2" d="m512.21,224.4c7.08,35.02,8.15,70.41,3.19,105.2,65.96-10.05,34.55-81.87-70.15-160.42,8.8-26.02,13.22-48.86,13.13-67.89,80.35,60.28,104.45,115.4,53.84,123.11Z"/>
            <path class="cls-2" d="m517.28,259.51c56.72-8.64,29.71-70.4-60.32-137.94"/>
            <path class="cls-2" d="m518.35,294.65c61.84-9.42,32.39-76.76-65.77-150.4"/>
            <path class="cls-2" d="m538.6,202.45c10.51,32.17,14.27,65.32,11.18,98.55"/>
            <path class="cls-2" d="m519.29,158.29c8,26.43,9.79,55.08,5.33,85.16"/>
          </g>
          <g>
            <path class="cls-2" d="m458.37,101.29c.08,19.03-4.33,41.87-13.13,67.89C340.54,90.63,202.19,35.1,136.23,45.15c25.68-19.25,54.28-32.38,85-39.04,50.62-7.71,156.79,34.9,237.14,95.18Z"/>
            <path class="cls-2" d="m456.96,121.57C366.93,54.02,247.97,6.28,191.25,14.92"/>
            <path class="cls-2" d="m452.57,144.24C354.41,70.6,224.7,18.54,162.86,27.96"/>
            <path class="cls-2" d="m372.43,48.11c-11.08,12.12-24.26,29.54-39.18,51.77"/>
            <path class="cls-2" d="m287.35,13.96c-22.13,7.68-43.99,21.62-64.96,41.42"/>
          </g>
          <g>
            <path class="cls-2" d="m221.23,6.11c-30.72,6.66-59.32,19.8-85,39.04-65.96,10.05-34.55,81.87,70.15,160.42,21.85-28.01,44.96-53.7,68.68-76.35C194.72,68.94,170.61,13.82,221.23,6.11Z"/>
            <path class="cls-2" d="m191.25,14.92c-56.72,8.64-29.71,70.4,60.32,137.94"/>
            <path class="cls-2" d="m162.86,27.96c-61.84,9.42-32.39,76.76,65.77,150.4"/>
            <path class="cls-2" d="m194.84,28.06c-34.15,9.51-65.44,24.89-93,45.69"/>
            <path class="cls-2" d="m214.15,72.23c-31.64,15.25-60.96,35.13-87.14,59.08"/>
          </g>
          <g>
            <path class="cls-2" d="m206.39,205.57c-22.63,29-42.91,59.24-60.28,89.87,113.63,85.25,263.78,145.51,335.37,134.61,17.37-30.63,28.79-64.42,33.92-100.45-65.96,10.05-204.3-45.48-309.01-124.03Z"/>
            <path class="cls-2" d="m184.56,234.95c109.65,82.26,254.54,140.42,323.62,129.89"/>
            <path class="cls-2" d="m164.43,264.97c112.64,84.5,261.47,144.24,332.42,133.43"/>
            <path class="cls-2" d="m318.38,274.87c-16.29,32.93-33.35,65.15-50.73,95.78"/>
            <path class="cls-2" d="m429.23,319.37c-10.01,35.45-23.9,68.94-41.27,99.58"/>
          </g>
          <g>
            <path class="cls-2" d="m515.39,329.6c-5.13,36.03-16.54,69.82-33.92,100.45,71.58-10.91,37.5-88.86-76.14-174.1,17.37-30.63,30.8-59.82,39.9-86.76,104.7,78.55,136.11,150.37,70.15,160.42Z"/>
            <path class="cls-2" d="m508.18,364.85c69.08-10.52,36.18-85.74-73.47-168"/>
            <path class="cls-2" d="m496.85,398.4c70.96-10.81,37.17-88.08-75.47-172.57"/>
            <path class="cls-2" d="m549.79,301c-3.18,34.41-13.61,67.38-30.98,98.01"/>
            <path class="cls-2" d="m524.62,243.45c-4.61,31.15-15.76,62.47-33.13,93.1"/>
          </g>
          <g>
            <path class="cls-2" d="m445.24,169.18c-9.1,26.94-22.53,56.13-39.9,86.76C291.7,170.69,141.55,110.43,69.97,121.34c17.37-30.63,39.66-56.26,66.27-76.18,65.96-10.05,204.3,45.48,309.01,124.03Z"/>
            <path class="cls-2" d="m434.71,196.84C325.06,114.58,180.17,56.43,111.09,66.95"/>
            <path class="cls-2" d="m421.38,225.82C308.74,141.32,159.91,81.59,88.96,92.4"/>
            <path class="cls-2" d="m333.25,99.88c-15.45,23.02-32.08,50.22-49.46,80.85"/>
            <path class="cls-2" d="m222.39,55.39c-21.72,20.5-41.54,46.42-58.92,77.06"/>
          </g>
          <g>
            <path class="cls-2" d="m136.23,45.15c-26.6,19.92-48.89,45.55-66.27,76.18-71.58,10.91-37.5,88.86,76.14,174.1,17.37-30.63,37.65-60.86,60.28-89.87C101.68,127.02,70.28,55.2,136.23,45.15Z"/>
            <path class="cls-2" d="m111.09,66.95c-69.08,10.52-36.18,85.74,73.47,168"/>
            <path class="cls-2" d="m88.96,92.4c-70.96,10.81-37.17,88.08,75.47,172.57"/>
            <path class="cls-2" d="m101.84,73.75c-28.55,21.54-51.83,47.99-69.2,78.62"/>
            <path class="cls-2" d="m127.01,131.31c-27.12,24.8-49.68,52.9-67.05,83.53"/>
          </g>
          <g>
            <path class="cls-2" d="m146.11,295.44c-17.37,30.63-30.8,59.82-39.9,86.76,104.7,78.55,243.05,134.08,309.01,124.03,26.6-19.92,48.89-45.55,66.27-76.18-71.58,10.91-221.73-49.36-335.37-134.61Z"/>
            <path class="cls-2" d="m130.06,325.56c112.64,84.5,261.47,144.24,332.42,133.43"/>
            <path class="cls-2" d="m116.73,354.54c109.65,82.26,254.54,140.42,323.62,129.89"/>
            <path class="cls-2" d="m267.65,370.65c-17.37,30.63-34.01,57.83-49.46,80.85"/>
            <path class="cls-2" d="m387.96,418.94c-17.37,30.63-37.19,56.56-58.92,77.06"/>
          </g>
          <g>
            <path class="cls-2" d="m481.47,430.05c-17.37,30.63-39.66,56.26-66.27,76.18,65.96-10.05,34.55-81.87-70.15-160.42,22.63-29,42.91-59.24,60.28-89.87,113.63,85.25,147.72,163.2,76.14,174.1Z"/>
            <path class="cls-2" d="m462.48,458.99c70.96-10.81,37.17-88.08-75.47-172.57"/>
            <path class="cls-2" d="m440.35,484.43c69.08-10.52,36.18-85.74-73.47-168"/>
            <path class="cls-2" d="m518.8,399.01c-17.37,30.63-40.65,57.08-69.2,78.62"/>
            <path class="cls-2" d="m491.49,336.55c-17.37,30.63-39.93,58.73-67.05,83.53"/>
          </g>
          <g>
            <path class="cls-2" d="m405.34,255.94c-17.37,30.63-37.65,60.86-60.28,89.87-104.7-78.55-243.05-134.08-309.01-124.03,5.13-36.03,16.54-69.82,33.92-100.45,71.58-10.91,221.73,49.36,335.37,134.61Z"/>
            <path class="cls-2" d="m387.02,286.41C274.38,201.91,125.55,142.17,54.59,152.99"/>
            <path class="cls-2" d="m366.88,316.43C257.23,234.17,112.34,176.01,43.26,186.54"/>
            <path class="cls-2" d="m283.79,180.73c-17.37,30.63-34.44,62.85-50.73,95.78"/>
            <path class="cls-2" d="m163.48,132.44c-17.37,30.63-31.26,64.13-41.27,99.58"/>
          </g>
          <g>
            <path class="cls-2" d="m69.97,121.34c-17.37,30.63-28.79,64.42-33.92,100.45-65.96,10.05-34.55,81.87,70.15,160.42,9.1-26.94,22.53-56.13,39.9-86.76C32.47,210.19-1.62,132.24,69.97,121.34Z"/>
            <path class="cls-2" d="m54.59,152.99c-70.96,10.81-37.17,88.08,75.47,172.57"/>
            <path class="cls-2" d="m43.26,186.54c-69.08,10.52-36.18,85.74,73.47,168"/>
            <path class="cls-2" d="m32.64,152.38C15.27,183.01,4.84,215.98,1.66,250.39"/>
            <path class="cls-2" d="m59.95,214.84c-17.37,30.63-28.52,61.95-33.13,93.1"/>
          </g>
          <g>
            <path class="cls-2" d="m106.2,382.2c-8.8,26.02-13.22,48.86-13.13,67.89,80.35,60.28,186.52,102.89,237.14,95.18,30.72-6.66,59.32-19.8,85-39.04-65.96,10.05-204.3-45.48-309.01-124.03Z"/>
            <path class="cls-2" d="m98.87,407.14c98.17,73.64,227.88,125.71,289.72,116.28"/>
            <path class="cls-2" d="m94.48,429.82c90.03,67.54,208.99,115.29,265.71,106.65"/>
            <path class="cls-2" d="m218.19,451.5c-14.92,22.24-28.1,39.65-39.18,51.77"/>
            <path class="cls-2" d="m329.05,496c-20.97,19.8-42.83,33.74-64.96,41.42"/>
          </g>
          <g>
            <path class="cls-2" d="m415.21,506.23c-25.68,19.25-54.28,32.38-85,39.04,50.62-7.71,26.51-62.83-53.84-123.11,23.73-22.66,46.83-48.34,68.68-76.35,104.7,78.55,136.11,150.37,70.15,160.42Z"/>
            <path class="cls-2" d="m388.58,523.43c61.84-9.42,32.39-76.76-65.77-150.4"/>
            <path class="cls-2" d="m360.19,536.47c56.72-8.64,29.71-70.4-60.32-137.94"/>
            <path class="cls-2" d="m449.6,477.63c-27.56,20.81-58.85,36.18-93,45.69"/>
            <path class="cls-2" d="m424.44,420.08c-26.19,23.95-55.5,43.83-87.14,59.08"/>
          </g>
          <g>
            <path class="cls-2" d="m345.06,345.81c-21.85,28.01-44.96,53.7-68.68,76.35-80.35-60.28-186.52-102.89-237.14-95.18-7.08-35.02-8.15-70.41-3.19-105.2,65.96-10.05,204.3,45.48,309.01,124.03Z"/>
            <path class="cls-2" d="m322.81,373.02c-98.17-73.64-227.88-125.71-289.72-116.28"/>
            <path class="cls-2" d="m299.87,398.52c-90.03-67.54-208.99-115.29-265.71-106.65"/>
            <path class="cls-2" d="m233.07,276.51c-15.73,31.8-30.07,62.91-42.64,92.47"/>
            <path class="cls-2" d="m122.21,232.02c-9.67,34.23-15.34,68.82-16.85,102.82"/>
          </g>
          <g>
            <path class="cls-2" d="m36.05,221.78c-4.97,34.79-3.89,70.18,3.19,105.2-50.62,7.71-26.51,62.83,53.84,123.11-.08-19.03,4.33-41.87,13.13-67.89C1.5,303.66-29.91,231.83,36.05,221.78Z"/>
            <path class="cls-2" d="m33.1,256.74c-61.84,9.42-32.39,76.76,65.77,150.4"/>
            <path class="cls-2" d="m34.16,291.88c-56.72,8.64-29.71,70.4,60.32,137.94"/>
            <path class="cls-2" d="m1.66,250.39c-3.09,33.22.68,66.38,11.18,98.55"/>
            <path class="cls-2" d="m26.82,307.94c-4.46,30.08-2.67,58.73,5.33,85.16"/>
          </g>
          <g>
            <path class="cls-2" d="m93.07,450.09c.08,19.02,4.67,33.27,13.62,42.35,44.23,33.18,102.67,56.64,130.54,52.39,30.99,6.95,62.27,7.1,92.98.44-50.62,7.71-156.79-34.9-237.14-95.18Z"/>
            <path class="cls-2" d="m94.65,467.51c69.36,52.03,161,88.81,204.69,82.16"/>
            <path class="cls-2" d="m99.2,481.65c57.29,42.98,132.99,73.37,169.08,67.87"/>
            <path class="cls-2" d="m179.02,503.27c-11.08,12.11-19.49,18.32-25.01,18.44"/>
            <path class="cls-2" d="m264.09,537.42c-22.12,7.68-43.4,8.72-63.26,3.09"/>
          </g>
          <g>
            <path class="cls-2" d="m330.21,545.27c-30.71,6.66-61.99,6.51-92.98-.44,27.86-4.25,14.6-34.59-29.64-67.77,21.92-13.78,45.06-32.25,68.78-54.9,80.35,60.28,104.45,115.4,53.84,123.11Z"/>
            <path class="cls-2" d="m299.34,549.66c43.69-6.66,22.89-54.23-46.47-106.26"/>
            <path class="cls-2" d="m268.29,549.52c36.09-5.5,18.9-44.8-38.39-87.78"/>
            <path class="cls-2" d="m356.61,523.32c-34.14,9.51-69.41,12.68-104.84,9.43"/>
            <path class="cls-2" d="m337.29,479.16c-31.63,15.25-63.98,25.1-96.16,29.28"/>
          </g>
          <g>
            <path class="cls-2" d="m276.37,422.16c-23.72,22.65-46.86,41.12-68.78,54.9-44.23-33.18-102.67-56.64-130.54-52.39-18.02-29.81-30.75-62.68-37.82-97.69,50.62-7.71,156.79,34.9,237.14,95.18Z"/>
            <path class="cls-2" d="m252.87,443.4c-69.36-52.03-161-88.81-204.69-82.16"/>
            <path class="cls-2" d="m229.9,461.74c-57.29-42.98-132.99-73.37-169.08-67.87"/>
            <path class="cls-2" d="m190.43,368.98c-12.56,29.55-22.7,56.07-30.14,78.81"/>
            <path class="cls-2" d="m105.36,334.84c-1.51,33.99,1.21,65.66,8.1,94.16"/>
          </g>
          <g>
            <path class="cls-2" d="m39.23,326.98c7.08,35.01,19.8,67.87,37.82,97.69-27.86,4.25-14.6,34.59,29.64,67.77-8.95-9.08-13.54-23.32-13.62-42.34-80.35-60.28-104.45-115.4-53.84-123.11Z"/>
            <path class="cls-2" d="m48.18,361.24c-43.69,6.66-22.89,54.23,46.47,106.26"/>
            <path class="cls-2" d="m60.81,393.87c-36.09,5.5-18.9,44.8,38.39,87.78"/>
            <path class="cls-2" d="m12.84,348.93c10.5,32.16,27.22,61.7,49.69,87.82"/>
            <path class="cls-2" d="m32.15,393.1c8,26.42,21.79,49.29,41.01,67.97"/>
          </g>
          <g>
            <path class="cls-2" d="m106.69,492.44c9.27,9.4,22.84,12.81,40.34,10.14,27.78,20.84,58.13,35.06,90.2,42.25-27.86,4.25-86.31-19.21-130.54-52.39Z"/>
            <path class="cls-2" d="m117.38,499.83c29.95,22.47,69.52,38.35,88.38,35.48"/>
            <path class="cls-2" d="m130.86,503.22c15.17,11.38,35.22,19.43,44.78,17.97"/>
            <path class="cls-2" d="m154,521.71c-5.72.13-8.06-6.31-6.97-19.13"/>
            <path class="cls-2" d="m200.83,540.51c-20.55-5.83-38.65-18.59-53.8-37.93"/>
          </g>
          <g>
            <path class="cls-2" d="m237.23,544.83c-32.07-7.19-62.42-21.42-90.2-42.25,17.5-2.67,37.88-11.25,60.56-25.51,44.23,33.18,57.5,63.52,29.64,67.77Z"/>
            <path class="cls-2" d="m205.77,535.31c18.87-2.87,9.88-23.42-20.07-45.88"/>
            <path class="cls-2" d="m175.64,521.2c9.56-1.46,5.01-11.86-10.17-23.25"/>
            <path class="cls-2" d="m251.76,532.75c-36.67-3.37-71.91-13.52-104.73-30.17"/>
            <path class="cls-2" d="m241.13,508.44c-33.31,4.33-64.97,2.36-94.1-5.86"/>
          </g>
          <g>
            <path class="cls-2" d="m207.6,477.06c-22.69,14.26-43.06,22.85-60.56,25.51-27.78-20.84-51.32-47.05-69.98-77.91,27.86-4.25,86.31,19.21,130.54,52.39Z"/>
            <path class="cls-2" d="m185.7,489.43c-29.95-22.47-69.52-38.35-88.38-35.48"/>
            <path class="cls-2" d="m165.47,497.95c-15.17-11.38-35.22-19.43-44.78-17.97"/>
            <path class="cls-2" d="m160.29,447.79c-7.71,23.54-12.16,41.97-13.25,54.79"/>
            <path class="cls-2" d="m113.46,428.99c7.12,29.49,18.42,54.25,33.58,73.59"/>
          </g>
          <g>
            <path class="cls-2" d="m77.06,424.67c18.65,30.86,42.2,57.07,69.98,77.91-17.5,2.67-31.07-.74-40.34-10.14-44.23-33.18-57.5-63.52-29.64-67.77Z"/>
            <path class="cls-2" d="m97.32,453.95c-18.87,2.87-9.88,23.42,20.07,45.88"/>
            <path class="cls-2" d="m120.69,479.97c-9.56,1.46-5.01,11.86,10.17,23.25"/>
            <path class="cls-2" d="m62.53,436.75c23.25,27.03,51.69,49.18,84.5,65.83"/>
            <path class="cls-2" d="m73.16,461.06c19.88,19.33,44.74,33.3,73.87,41.51"/>
          </g>
        </g>
        <path class="cls-2" d="m486.52,98.77c6.58,7.89,10.35,13.1,12.6,16.21,5.09,7.03,9.64,14.34,10.92,16.41,5.06,8.23,8.47,14.76,9.59,16.91,4.71,9.04,8.04,16.81,8.08,16.88,1.4,3.27,3.23,7.65,4.52,10.96,1.83,4.73,2.79,7.5,4.11,11.32,1.64,4.74,4.06,12.74,5.2,17.12q1.91,7.42,2.8,11.38c1.21,5.42,1.89,9.16,2.3,11.39,1.57,8.63,2.52,17.08,2.53,17.16.75,7.15.78,7.43,1.07,11.39.25,3.39.48,7.91.59,11.31.3,9.01.25,23.25-1.65,39.91-1.07,9.38-2.53,17.31-2.55,17.39q-1.43,7.54-2.3,11.41c-.76,3.38-1.88,7.87-2.76,11.22-1.26,4.78-3.62,12.57-5.06,16.66q-2.55,7.26-3.95,10.89c-1.84,4.76-3.33,8.23-4.41,10.73-6.75,15.47-14.06,28.17-19.01,36.1-.77,1.24-3.12,5.01-6.36,9.75-1.96,2.87-4.68,6.61-6.72,9.41-.04.06-4.82,6.52-10.85,13.61-8.79,10.33-18.12,19.76-28.5,28.84-9.95,8.7-20.83,16.85-32.33,24.22-14.05,9.02-26.8,15.31-35.02,19.01-1.79.8-5.5,2.47-10.57,4.51-3.19,1.28-7.5,2.87-10.73,4.05-.07.03-7.78,2.8-16.75,5.34-13.23,3.75-26.79,6.55-40.3,8.31-1.84.24-4.31.55-6.16.73-3.6.35-8.41.76-12.01,1.03-3.68.27-8.15.39-12.47.51-.05,0-5.74.14-12.73-.07-5.84-.17-9.5-.43-13.04-.69-.26-.02-6.33-.46-13.43-1.36-6.18-.79-9.77-1.41-13.94-2.13-4.95-.85-9.01-1.77-14.63-3.04-2.72-.61-6.32-1.58-9.02-2.29-.25-.07-6.23-1.65-14.78-4.47-3.98-1.31-9.21-3.26-13.12-4.74-2.69-1.02-6.24-2.48-8.88-3.64q-7.35-3.25-13.34-6.17c-.57-.28-5.77-2.83-12.26-6.47-4.68-2.62-5.49-3.12-11.82-7.02-3.69-2.27-5.93-3.82-11.92-7.93-2.08-1.43-4.79-3.44-6.81-4.95,9.02,6.77,21.25,9.03,36.42,6.71-15.17,2.31-27.4.05-36.42-6.71-1.72-1.32-4.04-3.05-5.73-4.41-2.68-2.15-6.26-5.02-8.83-7.3-2.73-2.42-6.38-5.63-9.03-8.14-2.94-2.78-6.76-6.6-9.59-9.49-.06-.06-6.46-6.66-12.51-13.92-6.58-7.9-10.35-13.1-12.6-16.21-5.09-7.03-9.64-14.34-10.92-16.41-5.06-8.23-8.47-14.76-9.59-16.91-4.71-9.04-8.04-16.81-8.08-16.88-1.4-3.27-3.23-7.65-4.52-10.96-1.83-4.73-2.79-7.49-4.11-11.32-1.64-4.74-4.06-12.74-5.2-17.12q-1.91-7.42-2.8-11.38c-1.22-5.42-1.92-9.31-2.3-11.39-1.57-8.63-2.52-17.08-2.53-17.16-.75-7.15-.78-7.43-1.07-11.39-.25-3.39-.48-7.91-.59-11.31-.3-9.01-.25-23.25,1.65-39.92,1.07-9.38,2.53-17.31,2.55-17.38.65-3.41,1.53-7.97,2.29-11.36,1.09-4.88,1.91-7.99,2.78-11.27,1.26-4.78,3.62-12.56,5.06-16.66q2.55-7.26,3.95-10.89c1.84-4.76,3.33-8.23,4.41-10.73,6.75-15.47,14.06-28.17,19.01-36.1.77-1.24,3.12-5.01,6.36-9.75,1.96-2.87,4.68-6.61,6.72-9.41.04-.06,4.82-6.52,10.85-13.61,8.79-10.33,18.11-19.76,28.5-28.84,9.95-8.69,20.83-16.84,32.33-24.22,14.04-9.01,26.8-15.31,35.02-19.01,1.78-.8,5.5-2.47,10.57-4.51,3.19-1.28,7.5-2.87,10.73-4.05.07-.03,7.77-2.79,16.75-5.34,9.51-2.7,16.54-4.17,17.31-4.33,3.49-.72,8.16-1.66,11.67-2.27s7.9-1.25,11.29-1.71c7.79-1.05,17.8-1.89,25.52-2.13,3.41-.11,7.27-.23,12.72-.17,7.5.08,13.01.44,13.06.44,6.02.4,8.52.57,13.5,1.11,4.97.54,9.71,1.18,14.09,1.89,6.78,1.1,11.12,2,14.99,2.84,3.99.86,9.26,2.19,13.2,3.22,1.91.5,7.21,1.95,15.16,4.57,3.96,1.3,9.17,3.24,13.07,4.72,2.7,1.02,6.27,2.49,8.91,3.66q7.23,3.19,13.35,6.18c.23.11,5.59,2.73,12.27,6.47,4.68,2.62,5.63,3.21,11.83,7.02,3.69,2.28,5.93,3.81,11.91,7.93,2.08,1.43,4.81,3.43,6.82,4.96,2.79,2.12,6.48,4.97,9.18,7.19,3.24,2.68,7.47,6.36,10.62,9.15,2.66,2.35,6.03,5.65,8.58,8.12,1.47,1.42,3.35,3.39,4.78,4.85"/>
      </g>
      <path class="cls-1" d="m440.84,55.53c2.79,2.12,6.48,4.97,9.18,7.19,3.24,2.68,7.47,6.36,10.62,9.15,2.66,2.35,6.03,5.65,8.58,8.12,1.47,1.42,3.35,3.39,4.78,4.85.06.06,6.47,6.67,12.52,13.93,6.58,7.89,10.35,13.1,12.6,16.21,5.09,7.03,9.64,14.34,10.92,16.41,5.06,8.23,8.47,14.76,9.59,16.91,4.71,9.04,8.04,16.81,8.08,16.88,1.4,3.27,3.23,7.65,4.52,10.96,1.83,4.73,2.79,7.5,4.11,11.32,1.64,4.74,4.06,12.74,5.2,17.12q1.91,7.42,2.8,11.38c1.21,5.42,1.89,9.16,2.3,11.39,1.57,8.63,2.52,17.08,2.53,17.16.75,7.15.78,7.43,1.07,11.39.25,3.39.48,7.91.59,11.31.3,9.01.25,23.25-1.65,39.91-1.07,9.38-2.53,17.31-2.55,17.39q-1.43,7.54-2.3,11.41c-.76,3.38-1.88,7.87-2.76,11.22-1.26,4.78-3.62,12.57-5.06,16.66q-2.55,7.26-3.95,10.89c-1.84,4.76-3.33,8.23-4.41,10.73-6.75,15.47-14.06,28.17-19.01,36.1-.77,1.24-3.12,5.01-6.36,9.75-1.96,2.87-4.68,6.61-6.72,9.41-.04.06-4.82,6.52-10.85,13.61-8.79,10.33-18.12,19.76-28.5,28.84-9.95,8.7-20.83,16.85-32.33,24.22-14.05,9.02-26.8,15.31-35.02,19.01-1.79.8-5.5,2.47-10.57,4.51-3.19,1.28-7.5,2.87-10.73,4.05-.07.03-7.78,2.8-16.75,5.34-13.23,3.75-26.79,6.55-40.3,8.31-1.84.24-4.31.55-6.16.73-3.6.35-8.41.76-12.01,1.03-3.68.27-8.15.39-12.47.51-.05,0-5.74.14-12.73-.07-5.84-.17-9.5-.43-13.04-.69-.26-.02-6.33-.46-13.43-1.36-6.18-.79-9.77-1.41-13.94-2.13-4.95-.85-9.01-1.77-14.63-3.04-2.72-.61-6.32-1.58-9.02-2.29-.25-.07-6.23-1.65-14.78-4.47-3.98-1.31-9.21-3.26-13.12-4.74-2.69-1.02-6.24-2.48-8.88-3.64q-7.35-3.25-13.34-6.17c-.57-.28-5.77-2.83-12.26-6.47-4.68-2.62-5.49-3.12-11.82-7.02-3.69-2.27-5.93-3.82-11.92-7.93-2.08-1.43-4.79-3.44-6.81-4.95,9.02,6.77,21.25,9.03,36.42,6.71-15.17,2.31-27.4.05-36.42-6.71-1.72-1.32-4.04-3.05-5.73-4.41-2.68-2.15-6.26-5.02-8.83-7.3-2.73-2.42-6.38-5.63-9.03-8.14-2.94-2.78-6.76-6.6-9.59-9.49-.06-.06-6.46-6.66-12.51-13.92-6.58-7.9-10.35-13.1-12.6-16.21-5.09-7.03-9.64-14.34-10.92-16.41-5.06-8.23-8.47-14.76-9.59-16.91-4.71-9.04-8.04-16.81-8.08-16.88-1.4-3.27-3.23-7.65-4.52-10.96-1.83-4.73-2.79-7.49-4.11-11.32-1.64-4.74-4.06-12.74-5.2-17.12q-1.91-7.42-2.8-11.38c-1.22-5.42-1.92-9.31-2.3-11.39-1.57-8.63-2.52-17.08-2.53-17.16-.75-7.15-.78-7.43-1.07-11.39-.25-3.39-.48-7.91-.59-11.31-.3-9.01-.25-23.25,1.65-39.92,1.07-9.38,2.53-17.31,2.55-17.38.65-3.41,1.53-7.97,2.29-11.36,1.09-4.88,1.91-7.99,2.78-11.27,1.26-4.78,3.62-12.56,5.06-16.66q2.55-7.26,3.95-10.89c1.84-4.76,3.33-8.23,4.41-10.73,6.75-15.47,14.06-28.17,19.01-36.1.77-1.24,3.12-5.01,6.36-9.75,1.96-2.87,4.68-6.61,6.72-9.41.04-.06,4.82-6.52,10.85-13.61,8.79-10.33,18.11-19.76,28.5-28.84,9.95-8.69,20.83-16.84,32.33-24.22,14.04-9.01,26.8-15.31,35.02-19.01,1.78-.8,5.5-2.47,10.57-4.51,3.19-1.28,7.5-2.87,10.73-4.05.07-.03,7.77-2.79,16.75-5.34,9.51-2.7,16.54-4.17,17.31-4.33,3.49-.72,8.16-1.66,11.67-2.27s7.9-1.25,11.29-1.71c7.79-1.05,17.8-1.89,25.52-2.13,3.41-.11,7.27-.23,12.72-.17,7.5.08,13.01.44,13.06.44,6.02.4,8.52.57,13.5,1.11,4.97.54,9.71,1.18,14.09,1.89,6.78,1.1,11.12,2,14.99,2.84,3.99.86,9.26,2.19,13.2,3.22,1.91.5,7.21,1.95,15.16,4.57,3.96,1.3,9.17,3.24,13.07,4.72,2.7,1.02,6.27,2.49,8.91,3.66q7.23,3.19,13.35,6.18c.23.11,5.59,2.73,12.27,6.47,4.68,2.62,5.63,3.21,11.83,7.02,3.69,2.28,5.93,3.81,11.91,7.93,2.08,1.43,4.81,3.43,6.82,4.96Z"/>
    </g>
    <g class="cls-4">
      <g class="cls-3">
        <g class="cls-4">
          <g>
            <path class="cls-2" d="m404.3,49.01c-.28.04-.56.08-.85.12.74.56,1.73.95,2.2.88-.45-.34-.9-.67-1.35-1.01Z"/>
            <path class="cls-2" d="m404.02,49.05c.25.19.58.32.73.29"/>
            <path class="cls-2" d="m403.73,49.09c.5.37,1.15.64,1.46.59"/>
            <path class="cls-2" d="m404.3,49.01c-.02.2-.03.41-.05.62"/>
            <path class="cls-2" d="m404.3,49.01c.25.31.49.62.74.93"/>
          </g>
          <g>
            <path class="cls-2" d="m404.3,49.01c.45.33.9.67,1.35,1.01.47-.07.25-.58-.5-1.14-.28.04-.57.09-.85.13Z"/>
            <path class="cls-2" d="m404.75,49.34c.16-.02.08-.19-.17-.38"/>
            <path class="cls-2" d="m405.2,49.68c.31-.05.16-.39-.33-.76"/>
            <path class="cls-2" d="m404.3,49.01c.53.27,1.06.53,1.59.8"/>
            <path class="cls-2" d="m404.3,49.01c.47.13.94.26,1.42.39"/>
          </g>
          <g>
            <path class="cls-2" d="m404.3,49.01c.28-.05.57-.09.85-.13-.74-.56-1.73-.95-2.2-.88.45.34.9.68,1.34,1.02Z"/>
            <path class="cls-2" d="m404.58,48.96c-.25-.19-.58-.32-.73-.29"/>
            <path class="cls-2" d="m404.86,48.92c-.5-.37-1.15-.64-1.46-.59"/>
            <path class="cls-2" d="m404.3,49.01c.02-.21.04-.42.06-.63"/>
            <path class="cls-2" d="m404.3,49.01c-.24-.32-.49-.63-.73-.94"/>
          </g>
          <g>
            <path class="cls-2" d="m404.3,49.01c-.45-.34-.9-.68-1.34-1.02-.47.07-.25.58.5,1.14.28-.04.56-.08.85-.12Z"/>
            <path class="cls-2" d="m403.85,48.67c-.16.02-.08.19.17.38"/>
            <path class="cls-2" d="m403.4,48.33c-.31.05-.16.39.33.76"/>
            <path class="cls-2" d="m404.3,49.01c-.53-.27-1.06-.54-1.59-.81"/>
            <path class="cls-2" d="m404.3,49.01c-.47-.14-.94-.27-1.41-.4"/>
          </g>
          <g>
            <path class="cls-2" d="m403.45,49.13c-17.2,2.62-37.28,11.16-59.6,25.19,44.23,33.18,102.67,56.64,130.54,52.39-18.35-30.36-41.44-56.22-68.74-76.7-.47.07-1.45-.32-2.2-.88Z"/>
            <path class="cls-2" d="m404.25,49.62c-1.07,12.6-5.51,30.82-13.09,53.97"/>
            <path class="cls-2" d="m405.03,49.94c14.89,19.01,25.94,43.44,32.95,72.45"/>
          </g>
          <g>
            <path class="cls-2" d="m405.65,50.01c27.3,20.48,50.39,46.35,68.74,76.7,27.86-4.25,14.6-34.59-29.64-67.77-9.12-9.24-22.4-12.7-39.6-10.07.74.56.97,1.07.5,1.14Z"/>
            <path class="cls-2" d="m405.89,49.81c32.25,16.36,60.15,38.23,83.02,64.82"/>
            <path class="cls-2" d="m405.71,49.4c28.63,8.07,53.01,21.9,72.57,40.92"/>
          </g>
          <g>
            <path class="cls-2" d="m405.15,48.87c17.2-2.62,30.49.83,39.6,10.07C400.52,25.76,342.07,2.31,314.21,6.55c31.55,7.08,61.44,20.96,88.74,41.44.47-.07,1.45.32,2.2.88Z"/>
            <path class="cls-2" d="m404.35,48.38c1.07-12.6-1.29-18.83-6.91-18.71"/>
            <path class="cls-2" d="m403.56,48.06c-14.89-19.01-32.74-31.46-52.96-37.19"/>
          </g>
          <g>
            <path class="cls-2" d="m402.95,47.99c-27.3-20.48-57.19-34.36-88.74-41.44-27.86,4.25-14.6,34.59,29.64,67.77,22.32-14.03,42.4-22.57,59.6-25.19-.74-.56-.97-1.07-.5-1.14Z"/>
            <path class="cls-2" d="m402.71,48.19c-32.25-16.36-66.95-26.24-103.03-29.56"/>
            <path class="cls-2" d="m402.89,48.6c-28.63-8.07-59.81-9.92-92.57-5.66"/>
          </g>
        </g>
        <path class="cls-2" d="m404.3,49.01c-.28.04-.56.08-.85.12-.74-.56-.97-1.07-.5-1.14s1.45.32,2.2.88.97,1.07.5,1.14-1.45-.32-2.2-.88c.28-.04.56-.08.85-.12Z"/>
      </g>
      <path class="cls-1" d="m404.3,49.01c-.28.04-.56.08-.85.12-.74-.56-.97-1.07-.5-1.14s1.45.32,2.2.88.97,1.07.5,1.14-1.45-.32-2.2-.88c.28-.04.56-.08.85-.12Z"/>
    </g>
    <g class="cls-4">
      <g class="cls-7">
        <g class="cls-4">
          <g>
            <path class="cls-2" d="m147.03,502.58c-71.29,10.68-71.7-82.16-.81-207.16,113.53,85.17,263.54,145.38,335.06,134.48-70.9,125-220.79,157.51-334.25,72.67Z"/>
            <path class="cls-2" d="m99.38,481.39c57.26,42.95,132.91,73.32,168.98,67.82"/>
            <path class="cls-2" d="m99.08,407.06c98.01,73.53,227.51,125.5,289.25,116.1"/>
            <path class="cls-2" d="m147.03,502.58c-4.33,52.11,49.73-7.02,120.62-132.01"/>
            <path class="cls-2" d="m147.03,502.58c61.95,78.72,169.93,41.23,240.83-83.77"/>
          </g>
          <g>
            <path class="cls-2" d="m147.03,502.58c113.46,84.83,263.36,52.32,334.25-72.67,71.52-10.9,37.46-88.77-76.07-173.94-70.9,125-186.67,235.54-258.19,246.62Z"/>
            <path class="cls-2" d="m268.36,549.22c36.07-5.5,18.89-44.77-38.36-87.73"/>
            <path class="cls-2" d="m388.33,523.15c61.74-9.41,32.34-76.64-65.67-150.16"/>
            <path class="cls-2" d="m147.03,502.58c134.03,67.73,300.65,21.31,371.55-103.68"/>
            <path class="cls-2" d="m147.03,502.58c118.98,33.32,273.36-41.09,344.26-166.09"/>
          </g>
          <g>
            <path class="cls-2" d="m147.03,502.58c71.52-11.08,187.29-121.62,258.19-246.62C291.69,170.79,141.68,110.58,70.16,121.48-.74,246.47,33.8,417.34,147.03,502.58Z"/>
            <path class="cls-2" d="m230,461.49c-57.26-42.95-132.91-73.32-168.98-67.82"/>
            <path class="cls-2" d="m322.66,372.99c-98.01-73.53-227.51-125.5-289.25-116.1"/>
            <path class="cls-2" d="m147.03,502.58c4.56-52.51,65.86-196.76,136.75-321.76"/>
            <path class="cls-2" d="m147.03,502.58c-61.72-79.12-54.35-245.01,16.55-370"/>
          </g>
          <g>
            <path class="cls-2" d="m147.03,502.58C33.8,417.34-.74,246.47,70.16,121.48c-71.52,10.9-37.46,88.77,76.07,173.94-70.9,125-70.48,217.83.81,207.16Z"/>
            <path class="cls-2" d="m61.02,393.67c-36.07,5.5-18.89,44.77,38.36,87.73"/>
            <path class="cls-2" d="m33.41,256.89c-61.74,9.41-32.34,76.64,65.67,150.16"/>
            <path class="cls-2" d="m147.03,502.58C13.23,434.44-38.03,277.49,32.86,152.49"/>
            <path class="cls-2" d="m147.03,502.58C28.28,468.85-10.74,339.89,60.15,214.89"/>
          </g>
          <g>
            <path class="cls-2" d="m146.22,295.42C217.12,170.43,332.89,59.89,404.3,49.01c113.35,85.03,147.89,255.9,76.99,380.9-71.52,10.9-221.53-49.31-335.06-134.48Z"/>
            <path class="cls-2" d="m228.77,178.4c98.01,73.53,227.51,125.5,289.25,116.1"/>
            <path class="cls-2" d="m321.41,89.95c57.26,42.95,132.91,73.32,168.98,67.82"/>
            <path class="cls-2" d="m267.66,370.56c70.9-125,132.19-269.24,136.64-321.56"/>
            <path class="cls-2" d="m387.86,418.81c70.9-125,78.27-290.89,16.44-369.8"/>
          </g>
          <g>
            <path class="cls-2" d="m481.29,429.91c70.9-125,36.36-295.87-76.99-380.9,71.41-10.88,71.82,81.96.92,206.96,113.53,85.17,147.59,163.05,76.07,173.94Z"/>
            <path class="cls-2" d="m518.02,294.5c61.74-9.41,32.34-76.64-65.67-150.16"/>
            <path class="cls-2" d="m490.39,157.77c36.07-5.5,18.89-44.77-38.36-87.73"/>
            <path class="cls-2" d="m518.58,398.89c70.9-125,19.63-281.95-114.28-349.89"/>
            <path class="cls-2" d="m491.29,336.49c70.9-125,31.87-253.96-86.99-287.48"/>
          </g>
          <g>
            <path class="cls-2" d="m405.22,255.96c70.9-125,70.48-217.83-.92-206.96C290.95-36.03,141.05-3.52,70.16,121.48c71.52-10.9,221.53,49.31,335.06,134.48Z"/>
            <path class="cls-2" d="m452.36,144.34C354.35,70.81,224.85,18.83,163.11,28.24"/>
            <path class="cls-2" d="m452.03,70.05C394.77,27.1,319.11-3.27,283.05,2.22"/>
            <path class="cls-2" d="m283.79,180.82C354.68,55.82,408.74-3.31,404.3,49.01"/>
            <path class="cls-2" d="m163.58,132.57C234.48,7.58,342.46-29.91,404.3,49.01"/>
          </g>
          <g>
            <path class="cls-2" d="m70.16,121.48C141.05-3.52,290.95-36.03,404.3,49.01c-71.41,10.88-187.17,121.42-258.07,246.42C32.69,210.25-1.36,132.37,70.16,121.48Z"/>
            <path class="cls-2" d="m163.11,28.24c-61.74,9.41-32.34,76.64,65.67,150.16"/>
            <path class="cls-2" d="m283.05,2.22c-36.07,5.5-18.89,44.77,38.36,87.73"/>
            <path class="cls-2" d="m32.86,152.49C103.76,27.49,270.38-18.93,404.3,49.01"/>
            <path class="cls-2" d="m60.15,214.89C131.05,89.9,285.43,15.48,404.3,49.01"/>
          </g>
        </g>
        <path class="cls-2" d="m110.85,495.8c8.77,6.58,20.83,9.08,36.18,6.78-15.34,2.3-27.41-.2-36.18-6.78-4.49-3.5-10.46-8.19-14.75-11.93-4.68-4.08-10.73-9.74-15.13-14.13s-10.42-11.02-14.68-15.93c-3.17-3.65-7.19-8.69-10.06-12.59-5.53-7.52-12.72-17.73-17.24-25.9-3.88-7.01-8.92-16.43-12.39-23.64-2.42-5.02-5.25-11.9-7.25-17.1-11.21-29.13-17.05-58.86-18.26-87.85-.3-7.22-.25-16.86.04-24.07.26-6.34,1-14.78,1.78-21.08.89-7.18,2.25-16.76,4.01-23.77,3.18-12.65,7.8-29.47,12.48-41.64,4.31-11.2,11.48-25.57,17.17-36.14,3.56-6.61,8.8-15.2,13.33-21.2,3.99-5.29,9.2-12.43,13.31-17.63,4.57-5.78,11.04-13.22,16.41-18.26,4.72-4.43,10.9-10.44,15.72-14.76,5.47-4.91,13.26-10.91,19.23-15.22,16.03-11.56,30.32-19.2,39.58-23.74,5.58-2.74,13.14-6.14,18.92-8.42,6.71-2.64,15.8-5.81,22.69-7.96,11.36-3.56,26.94-6.93,38.7-8.77,9.94-1.55,23.36-2.44,33.4-3.03,5.22-.31,12.2-.09,17.42.02,6.01.13,14,.82,19.98,1.4,4.25.41,9.87,1.25,14.09,1.87s9.37,1.65,13.36,2.48c3.34.69,7.76,1.77,11.08,2.58,6.61,1.62,13.12,3.7,18.87,5.54,3.02.97,11.08,3.86,15.62,5.73,7.54,3.11,11.95,5,19.75,8.85,8.07,3.98,14.76,7.85,18.03,9.81,9.03,5.39,15.01,9.58,18.22,11.83,5.08,3.56,10.42,7.63,15.87,12.12,4.59,3.78,10.55,9.02,14.83,13.14,4.5,4.32,10.33,10.26,14.53,14.87,3.8,4.17,8.69,9.92,12.13,14.39,5.46,7.1,12.2,16.98,17.14,24.46,2.55,3.86,5.46,9.31,7.79,13.31,4.51,7.77,9.5,18.71,12.94,27.01,2.66,6.44,8.92,22.01,13.79,42.86,4.22,18.04,9.88,49.91,5.98,89.64-.71,7.19-1.95,16.77-3.4,23.84-1.3,6.33-3.37,14.7-4.82,21.01-1.64,7.13-4.78,16.42-7.44,23.24-4.85,12.43-12.23,28.7-18.76,40.33-6.17,11-15.64,24.98-23.46,34.88-12.31,15.59-23.99,26.86-31.7,33.78-5.55,4.99-13.12,11.5-19.24,15.77-10.36,7.24-24.53,16.44-35.61,22.52-6.69,3.67-15.96,7.92-23.01,10.86-5.68,2.37-13.37,5.26-19.21,7.18-7.82,2.58-18.45,5.43-26.46,7.36-5.73,1.38-13.47,2.88-19.32,3.65-9.99,1.3-23.39,2.54-33.45,3.04-6.83.34-15.96.16-22.78-.26-8.66-.53-20.17-1.74-28.75-3.04-4.03-.61-9.37-1.65-13.37-2.48-3.34-.69-7.76-1.75-11.07-2.58-3-.75-6.99-1.82-9.94-2.74q-9.32-2.9-16.93-5.61c-5.51-1.97-14.95-5.86-21.03-8.74-3.74-1.77-8.69-4.2-12.35-6.13-1.8-.95-4.18-2.24-5.95-3.24s-4.16-2.36-5.91-3.41c-2.2-1.32-6.77-4.06-11.96-7.53-3.82-2.56-8.8-6.15-12.52-8.86Z"/>
      </g>
      <path class="cls-1" d="m110.85,495.8c8.77,6.58,20.83,9.08,36.18,6.78-15.34,2.3-27.41-.2-36.18-6.78-4.49-3.5-10.46-8.19-14.75-11.93-4.68-4.08-10.73-9.74-15.13-14.13s-10.42-11.02-14.68-15.93c-3.17-3.65-7.19-8.69-10.06-12.59-5.53-7.52-12.72-17.73-17.24-25.9-3.88-7.01-8.92-16.43-12.39-23.64-2.42-5.02-5.25-11.9-7.25-17.1-11.21-29.13-17.05-58.86-18.26-87.85-.3-7.22-.25-16.86.04-24.07.26-6.34,1-14.78,1.78-21.08.89-7.18,2.25-16.76,4.01-23.77,3.18-12.65,7.8-29.47,12.48-41.64,4.31-11.2,11.48-25.57,17.17-36.14,3.56-6.61,8.8-15.2,13.33-21.2,3.99-5.29,9.2-12.43,13.31-17.63,4.57-5.78,11.04-13.22,16.41-18.26,4.72-4.43,10.9-10.44,15.72-14.76,5.47-4.91,13.26-10.91,19.23-15.22,16.03-11.56,30.32-19.2,39.58-23.74,5.58-2.74,13.14-6.14,18.92-8.42,6.71-2.64,15.8-5.81,22.69-7.96,11.36-3.56,26.94-6.93,38.7-8.77,9.94-1.55,23.36-2.44,33.4-3.03,5.22-.31,12.2-.09,17.42.02,6.01.13,14,.82,19.98,1.4,4.25.41,9.87,1.25,14.09,1.87s9.37,1.65,13.36,2.48c3.34.69,7.76,1.77,11.08,2.58,6.61,1.62,13.12,3.7,18.87,5.54,3.02.97,11.08,3.86,15.62,5.73,7.54,3.11,11.95,5,19.75,8.85,8.07,3.98,14.76,7.85,18.03,9.81,9.03,5.39,15.01,9.58,18.22,11.83,5.08,3.56,10.42,7.63,15.87,12.12,4.59,3.78,10.55,9.02,14.83,13.14,4.5,4.32,10.33,10.26,14.53,14.87,3.8,4.17,8.69,9.92,12.13,14.39,5.46,7.1,12.2,16.98,17.14,24.46,2.55,3.86,5.46,9.31,7.79,13.31,4.51,7.77,9.5,18.71,12.94,27.01,2.66,6.44,8.92,22.01,13.79,42.86,4.22,18.04,9.88,49.91,5.98,89.64-.71,7.19-1.95,16.77-3.4,23.84-1.3,6.33-3.37,14.7-4.82,21.01-1.64,7.13-4.78,16.42-7.44,23.24-4.85,12.43-12.23,28.7-18.76,40.33-6.17,11-15.64,24.98-23.46,34.88-12.31,15.59-23.99,26.86-31.7,33.78-5.55,4.99-13.12,11.5-19.24,15.77-10.36,7.24-24.53,16.44-35.61,22.52-6.69,3.67-15.96,7.92-23.01,10.86-5.68,2.37-13.37,5.26-19.21,7.18-7.82,2.58-18.45,5.43-26.46,7.36-5.73,1.38-13.47,2.88-19.32,3.65-9.99,1.3-23.39,2.54-33.45,3.04-6.83.34-15.96.16-22.78-.26-8.66-.53-20.17-1.74-28.75-3.04-4.03-.61-9.37-1.65-13.37-2.48-3.34-.69-7.76-1.75-11.07-2.58-3-.75-6.99-1.82-9.94-2.74q-9.32-2.9-16.93-5.61c-5.51-1.97-14.95-5.86-21.03-8.74-3.74-1.77-8.69-4.2-12.35-6.13-1.8-.95-4.18-2.24-5.95-3.24s-4.16-2.36-5.91-3.41c-2.2-1.32-6.77-4.06-11.96-7.53-3.82-2.56-8.8-6.15-12.52-8.86Z"/>
    </g>
    <g class="cls-4">
      <g class="cls-4">
        <g>
          <path class="cls-2" d="m147.03,502.58c-71.29,10.68-71.7-82.16-.81-207.16,113.53,85.17,263.54,145.38,335.06,134.48-70.9,125-220.79,157.51-334.25,72.67Z"/>
          <path class="cls-2" d="m99.38,481.39c57.26,42.95,132.91,73.32,168.98,67.82"/>
          <path class="cls-2" d="m99.08,407.06c98.01,73.53,227.51,125.5,289.25,116.1"/>
          <path class="cls-2" d="m147.03,502.58c-4.33,52.11,49.73-7.02,120.62-132.01"/>
          <path class="cls-2" d="m147.03,502.58c61.95,78.72,169.93,41.23,240.83-83.77"/>
        </g>
        <g>
          <path class="cls-2" d="m147.03,502.58c113.46,84.83,263.36,52.32,334.25-72.67,71.52-10.9,37.46-88.77-76.07-173.94-70.9,125-186.67,235.54-258.19,246.62Z"/>
          <path class="cls-2" d="m268.36,549.22c36.07-5.5,18.89-44.77-38.36-87.73"/>
          <path class="cls-2" d="m388.33,523.15c61.74-9.41,32.34-76.64-65.67-150.16"/>
          <path class="cls-2" d="m147.03,502.58c134.03,67.73,300.65,21.31,371.55-103.68"/>
          <path class="cls-2" d="m147.03,502.58c118.98,33.32,273.36-41.09,344.26-166.09"/>
        </g>
        <g>
          <path class="cls-2" d="m147.03,502.58c71.52-11.08,187.29-121.62,258.19-246.62C291.69,170.79,141.68,110.58,70.16,121.48-.74,246.47,33.8,417.34,147.03,502.58Z"/>
          <path class="cls-2" d="m230,461.49c-57.26-42.95-132.91-73.32-168.98-67.82"/>
          <path class="cls-2" d="m322.66,372.99c-98.01-73.53-227.51-125.5-289.25-116.1"/>
          <path class="cls-2" d="m147.03,502.58c4.56-52.51,65.86-196.76,136.75-321.76"/>
          <path class="cls-2" d="m147.03,502.58c-61.72-79.12-54.35-245.01,16.55-370"/>
        </g>
        <g>
          <path class="cls-2" d="m147.03,502.58C33.8,417.34-.74,246.47,70.16,121.48c-71.52,10.9-37.46,88.77,76.07,173.94-70.9,125-70.48,217.83.81,207.16Z"/>
          <path class="cls-2" d="m61.02,393.67c-36.07,5.5-18.89,44.77,38.36,87.73"/>
          <path class="cls-2" d="m33.41,256.89c-61.74,9.41-32.34,76.64,65.67,150.16"/>
          <path class="cls-2" d="m147.03,502.58C13.23,434.44-38.03,277.49,32.86,152.49"/>
          <path class="cls-2" d="m147.03,502.58C28.28,468.85-10.74,339.89,60.15,214.89"/>
        </g>
        <g>
          <path class="cls-2" d="m404.3,49.01c113.35,85.03,147.89,255.9,76.99,380.9-71.52,10.9-221.53-49.31-335.06-134.48"/>
          <path class="cls-2" d="m228.77,178.4c98.01,73.53,227.51,125.5,289.25,116.1"/>
          <path class="cls-2" d="m321.41,89.95c57.26,42.95,132.91,73.32,168.98,67.82"/>
          <path class="cls-2" d="m267.66,370.56c70.9-125,132.19-269.24,136.64-321.56"/>
          <path class="cls-2" d="m387.86,418.81c70.9-125,78.27-290.89,16.44-369.8"/>
        </g>
        <g>
          <path class="cls-2" d="m481.29,429.91c70.9-125,36.36-295.87-76.99-380.9,71.41-10.88,71.82,81.96.92,206.96,113.53,85.17,147.59,163.05,76.07,173.94Z"/>
          <path class="cls-2" d="m518.02,294.5c61.74-9.41,32.34-76.64-65.67-150.16"/>
          <path class="cls-2" d="m490.39,157.77c36.07-5.5,18.89-44.77-38.36-87.73"/>
          <path class="cls-2" d="m518.58,398.89c70.9-125,19.63-281.95-114.28-349.89"/>
          <path class="cls-2" d="m491.29,336.49c70.9-125,31.87-253.96-86.99-287.48"/>
        </g>
        <g>
          <path class="cls-2" d="m405.22,255.96c70.9-125,70.48-217.83-.92-206.96C290.95-36.03,141.05-3.52,70.16,121.48c71.52-10.9,221.53,49.31,335.06,134.48Z"/>
          <path class="cls-2" d="m452.36,144.34C354.35,70.81,224.85,18.83,163.11,28.24"/>
          <path class="cls-2" d="m452.03,70.05C394.77,27.1,319.11-3.27,283.05,2.22"/>
          <path class="cls-2" d="m283.79,180.82C354.68,55.82,408.74-3.31,404.3,49.01"/>
          <path class="cls-2" d="m163.58,132.57C234.48,7.58,342.46-29.91,404.3,49.01"/>
        </g>
        <g>
          <path class="cls-2" d="m146.22,295.42C32.69,210.25-1.36,132.37,70.16,121.48,141.05-3.52,290.95-36.03,404.3,49.01"/>
          <path class="cls-2" d="m163.11,28.24c-61.74,9.41-32.34,76.64,65.67,150.16"/>
          <path class="cls-2" d="m283.05,2.22c-36.07,5.5-18.89,44.77,38.36,87.73"/>
          <path class="cls-2" d="m32.86,152.49C103.76,27.49,270.38-18.93,404.3,49.01"/>
          <path class="cls-2" d="m60.15,214.89C131.05,89.9,285.43,15.48,404.3,49.01"/>
        </g>
      </g>
    </g>
  </g>
</svg>