<?xml version="1.0" encoding="UTF-8"?>
<svg id="Layer_3" data-name="Layer 3" xmlns="http://www.w3.org/2000/svg" viewBox="0 0 1986 1182">
  <defs>
    <style>
      .cls-1 {
        fill: none;
        stroke: #fff;
        stroke-miterlimit: 10;
      }

      .cls-2 {
        fill: #fff;
        stroke-width: 0px;
      }
    </style>
  </defs>
  <path class="cls-2" d="m1392.3,247v688.37s-969.48,0-969.48,0l4.43-687.94,965.05-.43m1-1l-967.05.43-4.44,689.94h971.49s0-690.37,0-690.37h0Z"/>
  <path class="cls-2" d="m1077.08,478v240h-337.15v-240h337.15m1-1h-339.15v242h339.15v-242h0Z"/>
  <g>
    <polygon class="cls-1" points="740.11 718.63 1077.54 718.07 1393.64 941.07 423.43 941.07 740.11 718.63"/>
    <line class="cls-1" x1="514.67" y1="876.42" x2="1300.63" y2="876.04"/>
    <line class="cls-1" x1="577.54" y1="832.34" x2="1238.07" y2="831.81"/>
    <line class="cls-1" x1="623.14" y1="800.38" x2="1192.76" y2="799.78"/>
    <line class="cls-1" x1="657.73" y1="776.13" x2="1158.44" y2="775.52"/>
    <line class="cls-1" x1="684.87" y1="757.11" x2="1131.54" y2="756.5"/>
    <line class="cls-1" x1="706.73" y1="741.79" x2="1109.88" y2="741.19"/>
    <line class="cls-1" x1="724.71" y1="729.19" x2="1092.08" y2="728.61"/>
    <line class="cls-1" x1="1034.91" y1="718.14" x2="1270.58" y2="941.07"/>
    <line class="cls-1" x1="992.67" y1="718.21" x2="1148.76" y2="941.07"/>
    <line class="cls-1" x1="950.45" y1="718.28" x2="1027.15" y2="941.07"/>
    <line class="cls-1" x1="908.26" y1="718.35" x2="905.77" y2="941.07"/>
    <line class="cls-1" x1="866.1" y1="718.42" x2="784.61" y2="941.07"/>
    <line class="cls-1" x1="823.96" y1="718.49" x2="663.66" y2="941.07"/>
    <line class="cls-1" x1="781.85" y1="718.56" x2="542.94" y2="941.07"/>
  </g>
  <g>
    <polygon class="cls-1" points="1078.62 717.65 1077.76 477.62 1388.19 252.38 1394.36 940.55 1078.62 717.65"/>
    <line class="cls-1" x1="1302.37" y1="876.19" x2="1298.24" y2="318.22"/>
    <line class="cls-1" x1="1239.76" y1="831.9" x2="1236.8" y2="362.71"/>
    <line class="cls-1" x1="1194.41" y1="799.82" x2="1192.16" y2="395.03"/>
    <line class="cls-1" x1="1160.04" y1="775.5" x2="1158.27" y2="419.57"/>
    <line class="cls-1" x1="1133.09" y1="756.44" x2="1131.66" y2="438.84"/>
    <line class="cls-1" x1="1111.39" y1="741.09" x2="1110.21" y2="454.38"/>
    <line class="cls-1" x1="1093.55" y1="728.47" x2="1092.55" y2="467.16"/>
    <line class="cls-1" x1="1077.87" y1="507.76" x2="1388.96" y2="338.22"/>
    <line class="cls-1" x1="1077.98" y1="537.69" x2="1389.72" y2="423.61"/>
    <line class="cls-1" x1="1078.08" y1="567.65" x2="1390.49" y2="509.25"/>
    <line class="cls-1" x1="1078.19" y1="597.64" x2="1391.26" y2="595.14"/>
    <line class="cls-1" x1="1078.3" y1="627.66" x2="1392.03" y2="681.29"/>
    <line class="cls-1" x1="1078.4" y1="657.71" x2="1392.81" y2="767.69"/>
    <line class="cls-1" x1="1078.51" y1="687.79" x2="1393.59" y2="854.35"/>
  </g>
  <g>
    <polygon class="cls-1" points="740.35 719.3 739.38 477.62 428.08 252.1 423.67 940.27 740.35 719.3"/>
    <line class="cls-1" x1="515.73" y1="876.62" x2="517.63" y2="317.54"/>
    <line class="cls-1" x1="578.48" y1="832.74" x2="579.1" y2="361.99"/>
    <line class="cls-1" x1="623.99" y1="800.92" x2="623.92" y2="394.39"/>
    <line class="cls-1" x1="658.5" y1="776.78" x2="658.03" y2="419.05"/>
    <line class="cls-1" x1="685.58" y1="757.85" x2="684.88" y2="438.46"/>
    <line class="cls-1" x1="707.39" y1="742.6" x2="706.55" y2="454.13"/>
    <line class="cls-1" x1="725.33" y1="730.05" x2="724.41" y2="467.04"/>
    <line class="cls-1" x1="739.5" y1="507.87" x2="427.54" y2="337.11"/>
    <line class="cls-1" x1="739.62" y1="537.93" x2="426.99" y2="421.91"/>
    <line class="cls-1" x1="739.74" y1="568.04" x2="426.45" y2="507.2"/>
    <line class="cls-1" x1="739.87" y1="598.22" x2="425.9" y2="592.96"/>
    <line class="cls-1" x1="739.99" y1="628.46" x2="425.34" y2="679.23"/>
    <line class="cls-1" x1="740.11" y1="658.76" x2="424.79" y2="765.98"/>
    <line class="cls-1" x1="740.23" y1="689.13" x2="424.23" y2="853.24"/>
  </g>
  <g>
    <polygon class="cls-1" points="739.54 477.76 1078.24 477.48 1389.91 251.5 429.11 252.32 739.54 477.76"/>
    <line class="cls-1" x1="517.82" y1="317.33" x2="1299.21" y2="316.67"/>
    <line class="cls-1" x1="579.3" y1="361.89" x2="1237.75" y2="361.33"/>
    <line class="cls-1" x1="624.06" y1="394.33" x2="1192.99" y2="393.85"/>
    <line class="cls-1" x1="658.11" y1="419" x2="1158.95" y2="418.58"/>
    <line class="cls-1" x1="684.88" y1="438.4" x2="1132.18" y2="438.03"/>
    <line class="cls-1" x1="706.48" y1="454.06" x2="1110.59" y2="453.72"/>
    <line class="cls-1" x1="724.28" y1="466.95" x2="1092.8" y2="466.64"/>
    <line class="cls-1" x1="1035.55" y1="477.51" x2="1268.8" y2="251.6"/>
    <line class="cls-1" x1="993.21" y1="477.55" x2="1148.7" y2="251.71"/>
    <line class="cls-1" x1="950.87" y1="477.58" x2="1028.6" y2="251.81"/>
    <line class="cls-1" x1="908.54" y1="477.62" x2="908.5" y2="251.91"/>
    <line class="cls-1" x1="866.2" y1="477.65" x2="788.4" y2="252.01"/>
    <line class="cls-1" x1="823.86" y1="477.69" x2="668.3" y2="252.11"/>
    <line class="cls-1" x1="781.53" y1="477.73" x2="548.21" y2="252.22"/>
  </g>
</svg>