<svg width="1200" height="275" viewBox="0 0 1200 275" fill="none" xmlns="http://www.w3.org/2000/svg">
<path d="M21.998 4C21.627 18.3303 18.5525 22.1289 9 22.8417C18.4975 23.4902 21.3797 27.7376 21.998 42C21.8239 28.4504 24.4028 23.7339 36 22.8417C25.453 22.8348 22.4445 18.7262 21.998 4Z" fill="white"/>
<path d="M15.8865 63C15.433 80.7243 11.6753 85.4226 0 86.3042C11.608 87.1063 15.1307 92.3596 15.8865 110C15.6737 93.2413 18.8257 87.4078 33 86.3042C20.1092 86.2957 16.4322 81.214 15.8865 63Z" fill="white"/>
<path d="M56.1468 28C55.8857 38.1821 53.7222 40.8811 47 41.3875C53.6834 41.8483 55.7116 44.8662 56.1468 55C56.0243 45.3727 57.839 42.0215 66 41.3875C58.578 41.3826 56.4609 38.4634 56.1468 28Z" fill="white"/>
<path d="M1051.37 203.449C1051.28 186.103 1054.85 181.393 1066.38 180.171C1054.87 179.744 1051.22 174.716 1049.93 157.489C1050.66 173.871 1047.71 179.672 1033.72 181.188C1046.48 180.799 1050.27 185.655 1051.37 203.449Z" fill="white"/>
<path d="M1065.18 161.386C1065.1 147.051 1068.06 143.159 1077.58 142.149C1068.07 141.796 1065.06 137.641 1064 123.404C1064.59 136.942 1062.16 141.736 1050.6 142.989C1061.14 142.668 1064.27 146.681 1065.18 161.386Z" fill="white"/>
<path d="M1006.48 193.57C1006.42 181.78 1008.85 178.579 1016.68 177.749C1008.86 177.459 1006.38 174.041 1005.51 162.333C1006 173.466 1004 177.409 994.49 178.44C1003.16 178.175 1005.74 181.476 1006.48 193.57Z" fill="white"/>
<path d="M522.5 41.9409V40.9409H521.5V41.9409H522.5ZM540.5 41.9409H541.5V40.9409H540.5V41.9409ZM540.5 111.941V112.941H541.5V111.941H540.5ZM516 111.941L515.26 112.613L515.557 112.941H516V111.941ZM468.3 59.4409L469.04 58.7685L467.3 56.8532V59.4409H468.3ZM468.3 111.941V112.941H469.3V111.941H468.3ZM450.3 111.941H449.3V112.941H450.3V111.941ZM450.3 41.9409V40.9409H449.3V41.9409H450.3ZM474.7 41.9409L475.44 41.2684L475.142 40.9409H474.7V41.9409ZM522.5 94.5409L521.76 95.2134L523.5 97.1283V94.5409H522.5ZM522.5 42.9409H540.5V40.9409H522.5V42.9409ZM539.5 41.9409V111.941H541.5V41.9409H539.5ZM540.5 110.941H516V112.941H540.5V110.941ZM516.74 111.268L469.04 58.7685L467.56 60.1134L515.26 112.613L516.74 111.268ZM467.3 59.4409V111.941H469.3V59.4409H467.3ZM468.3 110.941H450.3V112.941H468.3V110.941ZM451.3 111.941V41.9409H449.3V111.941H451.3ZM450.3 42.9409H474.7V40.9409H450.3V42.9409ZM473.96 42.6134L521.76 95.2134L523.24 93.8684L475.44 41.2684L473.96 42.6134ZM523.5 94.5409V41.9409H521.5V94.5409H523.5ZM548.542 41.9409V40.9409H547.542V41.9409H548.542ZM566.542 41.9409H567.542V40.9409H566.542V41.9409ZM618.542 41.9409V40.9409H617.542V41.9409H618.542ZM636.542 41.9409H637.542V40.9409H636.542V41.9409ZM635.542 76.8409C635.542 88.8098 632.273 97.5019 625.413 103.236C618.514 109.004 607.796 111.941 592.542 111.941V113.941C607.988 113.941 619.27 110.978 626.696 104.771C634.161 98.53 637.542 89.172 637.542 76.8409H635.542ZM592.542 111.941C577.236 111.941 566.519 109.028 559.633 103.274C552.788 97.5533 549.542 88.863 549.542 76.8409H547.542C547.542 89.2188 550.896 98.5786 558.351 104.808C565.765 111.004 577.049 113.941 592.542 113.941V111.941ZM549.542 76.8409V41.9409H547.542V76.8409H549.542ZM548.542 42.9409H566.542V40.9409H548.542V42.9409ZM565.542 41.9409V76.8409H567.542V41.9409H565.542ZM565.542 76.8409C565.542 81.7977 566.215 87.3693 570.058 91.6813C573.916 96.0099 580.757 98.8409 592.542 98.8409V96.8409C581.028 96.8409 574.868 94.072 571.551 90.3505C568.219 86.6125 567.542 81.6842 567.542 76.8409H565.542ZM592.542 98.8409C604.33 98.8409 611.17 95.9835 615.027 91.6426C618.869 87.3191 619.542 81.7494 619.542 76.8409H617.542C617.542 81.6324 616.866 86.5627 613.532 90.3142C610.214 94.0483 604.054 96.8409 592.542 96.8409V98.8409ZM619.542 76.8409V41.9409H617.542V76.8409H619.542ZM618.542 42.9409H636.542V40.9409H618.542V42.9409ZM635.542 41.9409V76.8409H637.542V41.9409H635.542ZM716.25 41.9409V40.9409H715.25V41.9409H716.25ZM734.25 41.9409H735.25V40.9409H734.25V41.9409ZM734.25 111.941V112.941H735.25V111.941H734.25ZM709.75 111.941L709.01 112.613L709.307 112.941H709.75V111.941ZM662.05 59.4409L662.79 58.7685L661.05 56.8532V59.4409H662.05ZM662.05 111.941V112.941H663.05V111.941H662.05ZM644.05 111.941H643.05V112.941H644.05V111.941ZM644.05 41.9409V40.9409H643.05V41.9409H644.05ZM668.45 41.9409L669.19 41.2684L668.892 40.9409H668.45V41.9409ZM716.25 94.5409L715.51 95.2134L717.25 97.1283V94.5409H716.25ZM716.25 42.9409H734.25V40.9409H716.25V42.9409ZM733.25 41.9409V111.941H735.25V41.9409H733.25ZM734.25 110.941H709.75V112.941H734.25V110.941ZM710.49 111.268L662.79 58.7685L661.31 60.1134L709.01 112.613L710.49 111.268ZM661.05 59.4409V111.941H663.05V59.4409H661.05ZM662.05 110.941H644.05V112.941H662.05V110.941ZM645.05 111.941V41.9409H643.05V111.941H645.05ZM644.05 42.9409H668.45V40.9409H644.05V42.9409ZM667.71 42.6134L715.51 95.2134L716.99 93.8684L669.19 41.2684L667.71 42.6134ZM717.25 94.5409V41.9409H715.25V94.5409H717.25ZM783.616 86.1409H782.616V87.1409H783.616V86.1409ZM783.616 74.4409V73.4409H782.616V74.4409H783.616ZM828.016 74.4409H829.016V73.4409H828.016V74.4409ZM828.016 111.941V112.941H829.016V111.941H828.016ZM814.716 111.941L813.718 112.013L813.786 112.941H814.716V111.941ZM813.916 100.941L814.913 100.868L814.745 98.5564L813.178 100.265L813.916 100.941ZM828.016 69.2409V70.2409H829.081L829.014 69.1778L828.016 69.2409ZM809.716 69.2409L808.733 69.4263L808.887 70.2409H809.716V69.2409ZM809.716 86.1409L810.713 86.2162L810.794 85.1409H809.716V86.1409ZM784.616 86.1409V74.4409H782.616V86.1409H784.616ZM783.616 75.4409H828.016V73.4409H783.616V75.4409ZM827.016 74.4409V111.941H829.016V74.4409H827.016ZM828.016 110.941H814.716V112.941H828.016V110.941ZM815.713 111.868L814.913 100.868L812.918 101.013L813.718 112.013L815.713 111.868ZM813.178 100.265C806.804 107.22 796.593 111.941 781.916 111.941V113.941C797.038 113.941 807.828 109.062 814.653 101.617L813.178 100.265ZM781.916 111.941C769.168 111.941 759.027 108.778 752.088 102.879C745.173 96.9998 741.316 88.2986 741.316 76.9409H739.316C739.316 88.7832 743.358 98.082 750.793 104.403C758.204 110.704 768.863 113.941 781.916 113.941V111.941ZM741.316 76.9409C741.316 65.5859 745.17 56.8957 752.444 51.0188C759.752 45.1145 770.645 41.9409 784.916 41.9409V39.9409C770.386 39.9409 758.979 43.1673 751.187 49.4631C743.361 55.7861 739.316 65.0959 739.316 76.9409H741.316ZM784.916 41.9409C798.805 41.9409 809.079 44.6475 815.987 49.3903C822.854 54.1048 826.486 60.8897 827.018 69.304L829.014 69.1778C828.446 60.1922 824.527 52.827 817.119 47.7415C809.753 42.6844 799.026 39.9409 784.916 39.9409V41.9409ZM828.016 68.2409H809.716V70.2409H828.016V68.2409ZM810.698 69.0555C810.159 66.1967 808.591 62.651 804.646 59.8391C800.721 57.0414 794.543 55.0409 784.916 55.0409V57.0409C794.288 57.0409 800.01 58.9905 803.485 61.4677C806.941 63.9308 808.272 66.9852 808.733 69.4263L810.698 69.0555ZM784.916 55.0409C773.036 55.0409 766.063 58.32 762.087 62.884C758.131 67.4233 757.316 73.0372 757.316 77.3409H759.316C759.316 73.2446 760.1 68.2085 763.595 64.1979C767.068 60.2118 773.395 57.0409 784.916 57.0409V55.0409ZM757.316 77.3409C757.316 81.6965 758.157 87.4049 762.119 92.029C766.105 96.6817 773.078 100.041 784.916 100.041V98.0409C773.454 98.0409 767.126 94.8001 763.638 90.7278C760.124 86.6269 759.316 81.4854 759.316 77.3409H757.316ZM784.916 100.041C802.492 100.041 810.252 92.3238 810.713 86.2162L808.718 86.0657C808.379 90.558 802.139 98.0409 784.916 98.0409V100.041ZM809.716 85.1409H783.616V87.1409H809.716V85.1409ZM909.066 56.2409V57.2409H910.066V56.2409H909.066ZM853.066 56.2409V55.2409H852.066V56.2409H853.066ZM853.066 70.4409H852.066V71.4409H853.066V70.4409ZM909.066 70.4409H910.066V69.4409H909.066V70.4409ZM909.066 83.4409V84.4409H910.066V83.4409H909.066ZM853.066 83.4409V82.4409H852.066V83.4409H853.066ZM853.066 97.6409H852.066V98.6409H853.066V97.6409ZM909.066 97.6409H910.066V96.6409H909.066V97.6409ZM909.066 111.941V112.941H910.066V111.941H909.066ZM835.066 111.941H834.066V112.941H835.066V111.941ZM835.066 41.9409V40.9409H834.066V41.9409H835.066ZM909.066 41.9409H910.066V40.9409H909.066V41.9409ZM909.066 55.2409H853.066V57.2409H909.066V55.2409ZM852.066 56.2409V70.4409H854.066V56.2409H852.066ZM853.066 71.4409H909.066V69.4409H853.066V71.4409ZM908.066 70.4409V83.4409H910.066V70.4409H908.066ZM909.066 82.4409H853.066V84.4409H909.066V82.4409ZM852.066 83.4409V97.6409H854.066V83.4409H852.066ZM853.066 98.6409H909.066V96.6409H853.066V98.6409ZM908.066 97.6409V111.941H910.066V97.6409H908.066ZM909.066 110.941H835.066V112.941H909.066V110.941ZM836.066 111.941V41.9409H834.066V111.941H836.066ZM835.066 42.9409H909.066V40.9409H835.066V42.9409ZM908.066 41.9409V56.2409H910.066V41.9409H908.066ZM987.832 41.9409V40.9409H986.832V41.9409H987.832ZM1005.83 41.9409H1006.83V40.9409H1005.83V41.9409ZM1005.83 111.941V112.941H1006.83V111.941H1005.83ZM981.332 111.941L980.592 112.613L980.889 112.941H981.332V111.941ZM933.632 59.4409L934.372 58.7685L932.632 56.8532V59.4409H933.632ZM933.632 111.941V112.941H934.632V111.941H933.632ZM915.632 111.941H914.632V112.941H915.632V111.941ZM915.632 41.9409V40.9409H914.632V41.9409H915.632ZM940.032 41.9409L940.772 41.2684L940.475 40.9409H940.032V41.9409ZM987.832 94.5409L987.092 95.2134L988.832 97.1283V94.5409H987.832ZM987.832 42.9409H1005.83V40.9409H987.832V42.9409ZM1004.83 41.9409V111.941H1006.83V41.9409H1004.83ZM1005.83 110.941H981.332V112.941H1005.83V110.941ZM982.072 111.268L934.372 58.7685L932.892 60.1134L980.592 112.613L982.072 111.268ZM932.632 59.4409V111.941H934.632V59.4409H932.632ZM933.632 110.941H915.632V112.941H933.632V110.941ZM916.632 111.941V41.9409H914.632V111.941H916.632ZM915.632 42.9409H940.032V40.9409H915.632V42.9409ZM939.292 42.6134L987.092 95.2134L988.572 93.8684L940.772 41.2684L939.292 42.6134ZM988.832 94.5409V41.9409H986.832V94.5409H988.832Z" fill="#E5631B" fill-opacity="0.5"/>
<path d="M522.5 20V19H521.5V20H522.5ZM540.5 20H541.5V19H540.5V20ZM540.5 90V91H541.5V90H540.5ZM516 90L515.26 90.6725L515.557 91H516V90ZM468.3 37.5L469.04 36.8275L467.3 34.9123V37.5H468.3ZM468.3 90V91H469.3V90H468.3ZM450.3 90H449.3V91H450.3V90ZM450.3 20V19H449.3V20H450.3ZM474.7 20L475.44 19.3275L475.142 19H474.7V20ZM522.5 72.6L521.76 73.2725L523.5 75.1873V72.6H522.5ZM522.5 21H540.5V19H522.5V21ZM539.5 20V90H541.5V20H539.5ZM540.5 89H516V91H540.5V89ZM516.74 89.3275L469.04 36.8275L467.56 38.1725L515.26 90.6725L516.74 89.3275ZM467.3 37.5V90H469.3V37.5H467.3ZM468.3 89H450.3V91H468.3V89ZM451.3 90V20H449.3V90H451.3ZM450.3 21H474.7V19H450.3V21ZM473.96 20.6725L521.76 73.2725L523.24 71.9275L475.44 19.3275L473.96 20.6725ZM523.5 72.6V20H521.5V72.6H523.5ZM548.542 20V19H547.542V20H548.542ZM566.542 20H567.542V19H566.542V20ZM618.542 20V19H617.542V20H618.542ZM636.542 20H637.542V19H636.542V20ZM635.542 54.9C635.542 66.8689 632.273 75.5609 625.413 81.2953C618.514 87.0627 607.796 90 592.542 90V92C607.988 92 619.27 89.0373 626.696 82.8297C634.161 76.5891 637.542 67.2311 637.542 54.9H635.542ZM592.542 90C577.236 90 566.519 87.0867 559.633 81.3327C552.788 75.6124 549.542 66.9221 549.542 54.9H547.542C547.542 67.2779 550.896 76.6376 558.351 82.8673C565.765 89.0633 577.049 92 592.542 92V90ZM549.542 54.9V20H547.542V54.9H549.542ZM548.542 21H566.542V19H548.542V21ZM565.542 20V54.9H567.542V20H565.542ZM565.542 54.9C565.542 59.8568 566.215 65.4284 570.058 69.7404C573.916 74.0689 580.757 76.9 592.542 76.9V74.9C581.028 74.9 574.868 72.1311 571.551 68.4096C568.219 64.6716 567.542 59.7432 567.542 54.9H565.542ZM592.542 76.9C604.33 76.9 611.17 74.0426 615.027 69.7017C618.869 65.3782 619.542 59.8085 619.542 54.9H617.542C617.542 59.6915 616.866 64.6218 613.532 68.3733C610.214 72.1074 604.054 74.9 592.542 74.9V76.9ZM619.542 54.9V20H617.542V54.9H619.542ZM618.542 21H636.542V19H618.542V21ZM635.542 20V54.9H637.542V20H635.542ZM716.25 20V19H715.25V20H716.25ZM734.25 20H735.25V19H734.25V20ZM734.25 90V91H735.25V90H734.25ZM709.75 90L709.01 90.6725L709.307 91H709.75V90ZM662.05 37.5L662.79 36.8275L661.05 34.9123V37.5H662.05ZM662.05 90V91H663.05V90H662.05ZM644.05 90H643.05V91H644.05V90ZM644.05 20V19H643.05V20H644.05ZM668.45 20L669.19 19.3275L668.892 19H668.45V20ZM716.25 72.6L715.51 73.2725L717.25 75.1873V72.6H716.25ZM716.25 21H734.25V19H716.25V21ZM733.25 20V90H735.25V20H733.25ZM734.25 89H709.75V91H734.25V89ZM710.49 89.3275L662.79 36.8275L661.31 38.1725L709.01 90.6725L710.49 89.3275ZM661.05 37.5V90H663.05V37.5H661.05ZM662.05 89H644.05V91H662.05V89ZM645.05 90V20H643.05V90H645.05ZM644.05 21H668.45V19H644.05V21ZM667.71 20.6725L715.51 73.2725L716.99 71.9275L669.19 19.3275L667.71 20.6725ZM717.25 72.6V20H715.25V72.6H717.25ZM783.616 64.2H782.616V65.2H783.616V64.2ZM783.616 52.5V51.5H782.616V52.5H783.616ZM828.016 52.5H829.016V51.5H828.016V52.5ZM828.016 90V91H829.016V90H828.016ZM814.716 90L813.718 90.0725L813.786 91H814.716V90ZM813.916 79L814.913 78.9275L814.745 76.6155L813.178 78.3243L813.916 79ZM828.016 47.3V48.3H829.081L829.014 47.2369L828.016 47.3ZM809.716 47.3L808.733 47.4854L808.887 48.3H809.716V47.3ZM809.716 64.2L810.713 64.2753L810.794 63.2H809.716V64.2ZM784.616 64.2V52.5H782.616V64.2H784.616ZM783.616 53.5H828.016V51.5H783.616V53.5ZM827.016 52.5V90H829.016V52.5H827.016ZM828.016 89H814.716V91H828.016V89ZM815.713 89.9275L814.913 78.9275L812.918 79.0725L813.718 90.0725L815.713 89.9275ZM813.178 78.3243C806.804 85.2786 796.593 90 781.916 90V92C797.038 92 807.828 87.1214 814.653 79.6757L813.178 78.3243ZM781.916 90C769.168 90 759.027 86.8372 752.088 80.9381C745.173 75.0589 741.316 66.3577 741.316 55H739.316C739.316 66.8423 743.358 76.1411 750.793 82.4619C758.204 88.7628 768.863 92 781.916 92V90ZM741.316 55C741.316 43.645 745.17 34.9548 752.444 29.0778C759.752 23.1736 770.645 20 784.916 20V18C770.386 18 758.979 21.2264 751.187 27.5222C743.361 33.8452 739.316 43.155 739.316 55H741.316ZM784.916 20C798.805 20 809.079 22.7065 815.987 27.4494C822.854 32.1639 826.486 38.9487 827.018 47.3631L829.014 47.2369C828.446 38.2513 824.527 30.8861 817.119 25.8006C809.753 20.7434 799.026 18 784.916 18V20ZM828.016 46.3H809.716V48.3H828.016V46.3ZM810.698 47.1146C810.159 44.2557 808.591 40.7101 804.646 37.8982C800.721 35.1004 794.543 33.1 784.916 33.1V35.1C794.288 35.1 800.01 37.0495 803.485 39.5268C806.941 41.9899 808.272 45.0443 808.733 47.4854L810.698 47.1146ZM784.916 33.1C773.036 33.1 766.063 36.3791 762.087 40.9431C758.131 45.4824 757.316 51.0963 757.316 55.4H759.316C759.316 51.3037 760.1 46.2676 763.595 42.2569C767.068 38.2709 773.395 35.1 784.916 35.1V33.1ZM757.316 55.4C757.316 59.7556 758.157 65.464 762.119 70.0881C766.105 74.7408 773.078 78.1 784.916 78.1V76.1C773.454 76.1 767.126 72.8592 763.638 68.7869C760.124 64.686 759.316 59.5444 759.316 55.4H757.316ZM784.916 78.1C802.492 78.1 810.252 70.3829 810.713 64.2753L808.718 64.1247C808.379 68.6171 802.139 76.1 784.916 76.1V78.1ZM809.716 63.2H783.616V65.2H809.716V63.2ZM909.066 34.3V35.3H910.066V34.3H909.066ZM853.066 34.3V33.3H852.066V34.3H853.066ZM853.066 48.5H852.066V49.5H853.066V48.5ZM909.066 48.5H910.066V47.5H909.066V48.5ZM909.066 61.5V62.5H910.066V61.5H909.066ZM853.066 61.5V60.5H852.066V61.5H853.066ZM853.066 75.7H852.066V76.7H853.066V75.7ZM909.066 75.7H910.066V74.7H909.066V75.7ZM909.066 90V91H910.066V90H909.066ZM835.066 90H834.066V91H835.066V90ZM835.066 20V19H834.066V20H835.066ZM909.066 20H910.066V19H909.066V20ZM909.066 33.3H853.066V35.3H909.066V33.3ZM852.066 34.3V48.5H854.066V34.3H852.066ZM853.066 49.5H909.066V47.5H853.066V49.5ZM908.066 48.5V61.5H910.066V48.5H908.066ZM909.066 60.5H853.066V62.5H909.066V60.5ZM852.066 61.5V75.7H854.066V61.5H852.066ZM853.066 76.7H909.066V74.7H853.066V76.7ZM908.066 75.7V90H910.066V75.7H908.066ZM909.066 89H835.066V91H909.066V89ZM836.066 90V20H834.066V90H836.066ZM835.066 21H909.066V19H835.066V21ZM908.066 20V34.3H910.066V20H908.066ZM987.832 20V19H986.832V20H987.832ZM1005.83 20H1006.83V19H1005.83V20ZM1005.83 90V91H1006.83V90H1005.83ZM981.332 90L980.592 90.6725L980.889 91H981.332V90ZM933.632 37.5L934.372 36.8275L932.632 34.9123V37.5H933.632ZM933.632 90V91H934.632V90H933.632ZM915.632 90H914.632V91H915.632V90ZM915.632 20V19H914.632V20H915.632ZM940.032 20L940.772 19.3275L940.475 19H940.032V20ZM987.832 72.6L987.092 73.2725L988.832 75.1873V72.6H987.832ZM987.832 21H1005.83V19H987.832V21ZM1004.83 20V90H1006.83V20H1004.83ZM1005.83 89H981.332V91H1005.83V89ZM982.072 89.3275L934.372 36.8275L932.892 38.1725L980.592 90.6725L982.072 89.3275ZM932.632 37.5V90H934.632V37.5H932.632ZM933.632 89H915.632V91H933.632V89ZM916.632 90V20H914.632V90H916.632ZM915.632 21H940.032V19H915.632V21ZM939.292 20.6725L987.092 73.2725L988.572 71.9275L940.772 19.3275L939.292 20.6725ZM988.832 72.6V20H986.832V72.6H988.832Z" fill="#E5631B" fill-opacity="0.25"/>
<path d="M142.3 96.8232H143.3V95.8232H142.3V96.8232ZM142.3 111.923L142.899 112.724L143.3 112.424V111.923H142.3ZM89.1 151.723L88.501 150.923L86.094 152.723H89.1V151.723ZM142.3 151.723H143.3V150.723H142.3V151.723ZM142.3 166.823V167.823H143.3V166.823H142.3ZM63.3 166.823H62.3V167.823H63.3V166.823ZM63.3 151.723L62.7002 150.923L62.3 151.223V151.723H63.3ZM116.4 111.923L117 112.723L119.402 110.923H116.4V111.923ZM63.3 111.923H62.3V112.923H63.3V111.923ZM63.3 96.8232V95.8232H62.3V96.8232H63.3ZM141.3 96.8232V111.923H143.3V96.8232H141.3ZM141.701 111.123L88.501 150.923L89.699 152.524L142.899 112.724L141.701 111.123ZM89.1 152.723H142.3V150.723H89.1V152.723ZM141.3 151.723V166.823H143.3V151.723H141.3ZM142.3 165.823H63.3V167.823H142.3V165.823ZM64.3 166.823V151.723H62.3V166.823H64.3ZM63.8998 152.523L117 112.723L115.8 111.123L62.7002 150.923L63.8998 152.523ZM116.4 110.923H63.3V112.923H116.4V110.923ZM64.3 111.923V96.8232H62.3V111.923H64.3ZM63.3 97.8232H142.3V95.8232H63.3V97.8232ZM223.823 111.123V112.123H224.823V111.123H223.823ZM167.823 111.123V110.123H166.823V111.123H167.823ZM167.823 125.323H166.823V126.323H167.823V125.323ZM223.823 125.323H224.823V124.323H223.823V125.323ZM223.823 138.323V139.323H224.823V138.323H223.823ZM167.823 138.323V137.323H166.823V138.323H167.823ZM167.823 152.523H166.823V153.523H167.823V152.523ZM223.823 152.523H224.823V151.523H223.823V152.523ZM223.823 166.823V167.823H224.823V166.823H223.823ZM149.823 166.823H148.823V167.823H149.823V166.823ZM149.823 96.8232V95.8232H148.823V96.8232H149.823ZM223.823 96.8232H224.823V95.8232H223.823V96.8232ZM223.823 110.123H167.823V112.123H223.823V110.123ZM166.823 111.123V125.323H168.823V111.123H166.823ZM167.823 126.323H223.823V124.323H167.823V126.323ZM222.823 125.323V138.323H224.823V125.323H222.823ZM223.823 137.323H167.823V139.323H223.823V137.323ZM166.823 138.323V152.523H168.823V138.323H166.823ZM167.823 153.523H223.823V151.523H167.823V153.523ZM222.823 152.523V166.823H224.823V152.523H222.823ZM223.823 165.823H149.823V167.823H223.823V165.823ZM150.823 166.823V96.8232H148.823V166.823H150.823ZM149.823 97.8232H223.823V95.8232H149.823V97.8232ZM222.823 96.8232V111.123H224.823V96.8232H222.823ZM248.39 96.8232H249.39V95.8232H248.39V96.8232ZM248.39 166.823V167.823H249.39V166.823H248.39ZM230.39 166.823H229.39V167.823H230.39V166.823ZM230.39 96.8232V95.8232H229.39V96.8232H230.39ZM247.39 96.8232V166.823H249.39V96.8232H247.39ZM248.39 165.823H230.39V167.823H248.39V165.823ZM231.39 166.823V96.8232H229.39V166.823H231.39ZM230.39 97.8232H248.39V95.8232H230.39V97.8232ZM342.09 126.623V127.623H343.183L343.086 126.534L342.09 126.623ZM323.79 126.623L322.801 126.772L322.929 127.623H323.79V126.623ZM323.79 136.823V135.823H322.928L322.801 136.676L323.79 136.823ZM342.09 136.823L343.086 136.912L343.182 135.823H342.09V136.823ZM255.39 131.723C255.39 120.315 258.628 111.663 265.487 105.835C272.379 99.9795 283.101 96.8232 298.39 96.8232V94.8232C282.879 94.8232 271.6 98.017 264.192 104.311C256.751 110.634 253.39 119.932 253.39 131.723H255.39ZM298.39 96.8232C312.235 96.8232 322.47 99.4569 329.444 104.461C336.378 109.435 340.215 116.845 341.094 126.712L343.086 126.534C342.165 116.202 338.102 108.211 330.61 102.836C323.159 97.4896 312.445 94.8232 298.39 94.8232V96.8232ZM342.09 125.623H323.79V127.623H342.09V125.623ZM324.779 126.474C323.889 120.559 321.134 116.356 316.585 113.674C312.097 111.029 305.961 109.923 298.39 109.923V111.923C305.819 111.923 311.533 113.018 315.57 115.397C319.546 117.741 321.991 121.388 322.801 126.772L324.779 126.474ZM298.39 109.923C289.159 109.923 282.377 111.555 277.898 115.184C273.369 118.852 271.39 124.396 271.39 131.723H273.39C273.39 124.751 275.261 119.894 279.157 116.738C283.103 113.541 289.321 111.923 298.39 111.923V109.923ZM271.39 131.723C271.39 139.102 273.395 144.693 277.932 148.398C282.423 152.065 289.205 153.723 298.39 153.723V151.723C289.375 151.723 283.157 150.082 279.197 146.849C275.285 143.654 273.39 138.744 273.39 131.723H271.39ZM298.39 153.723C305.915 153.723 312.051 152.592 316.552 149.907C321.111 147.188 323.889 142.936 324.779 136.971L322.801 136.676C321.99 142.11 319.519 145.808 315.528 148.189C311.478 150.605 305.765 151.723 298.39 151.723V153.723ZM323.79 137.823H342.09V135.823H323.79V137.823ZM341.094 136.735C340.214 146.654 336.376 154.114 329.442 159.125C322.468 164.165 312.233 166.823 298.39 166.823V168.823C312.446 168.823 323.162 166.131 330.613 160.746C338.104 155.333 342.165 147.292 343.086 136.912L341.094 136.735ZM298.39 166.823C283.102 166.823 272.382 163.643 265.49 157.751C258.629 151.886 255.39 143.183 255.39 131.723H253.39C253.39 143.563 256.75 152.911 264.19 159.271C271.598 165.604 282.877 168.823 298.39 168.823V166.823ZM423.652 96.8232V95.8232H422.652V96.8232H423.652ZM441.652 96.8232H442.652V95.8232H441.652V96.8232ZM441.652 166.823V167.823H442.652V166.823H441.652ZM423.652 166.823H422.652V167.823H423.652V166.823ZM423.652 139.423H424.652V138.423H423.652V139.423ZM366.652 139.423V138.423H365.652V139.423H366.652ZM366.652 166.823V167.823H367.652V166.823H366.652ZM348.652 166.823H347.652V167.823H348.652V166.823ZM348.652 96.8232V95.8232H347.652V96.8232H348.652ZM366.652 96.8232H367.652V95.8232H366.652V96.8232ZM366.652 124.223H365.652V125.223H366.652V124.223ZM423.652 124.223V125.223H424.652V124.223H423.652ZM423.652 97.8232H441.652V95.8232H423.652V97.8232ZM440.652 96.8232V166.823H442.652V96.8232H440.652ZM441.652 165.823H423.652V167.823H441.652V165.823ZM424.652 166.823V139.423H422.652V166.823H424.652ZM423.652 138.423H366.652V140.423H423.652V138.423ZM365.652 139.423V166.823H367.652V139.423H365.652ZM366.652 165.823H348.652V167.823H366.652V165.823ZM349.652 166.823V96.8232H347.652V166.823H349.652ZM348.652 97.8232H366.652V95.8232H348.652V97.8232ZM365.652 96.8232V124.223H367.652V96.8232H365.652ZM366.652 125.223H423.652V123.223H366.652V125.223ZM424.652 124.223V96.8232H422.652V124.223H424.652Z" fill="#E5631B" fill-opacity="0.5"/>
<path d="M142.3 118.765H143.3V117.765H142.3V118.765ZM142.3 133.865L142.899 134.665L143.3 134.365V133.865H142.3ZM89.1 173.665L88.501 172.864L86.094 174.665H89.1V173.665ZM142.3 173.665H143.3V172.665H142.3V173.665ZM142.3 188.765V189.765H143.3V188.765H142.3ZM63.3 188.765H62.3V189.765H63.3V188.765ZM63.3 173.665L62.7002 172.864L62.3 173.164V173.665H63.3ZM116.4 133.865L117 134.665L119.402 132.865H116.4V133.865ZM63.3 133.865H62.3V134.865H63.3V133.865ZM63.3 118.765V117.765H62.3V118.765H63.3ZM141.3 118.765V133.865H143.3V118.765H141.3ZM141.701 133.064L88.501 172.864L89.699 174.465L142.899 134.665L141.701 133.064ZM89.1 174.665H142.3V172.665H89.1V174.665ZM141.3 173.665V188.765H143.3V173.665H141.3ZM142.3 187.765H63.3V189.765H142.3V187.765ZM64.3 188.765V173.665H62.3V188.765H64.3ZM63.8998 174.465L117 134.665L115.8 133.064L62.7002 172.864L63.8998 174.465ZM116.4 132.865H63.3V134.865H116.4V132.865ZM64.3 133.865V118.765H62.3V133.865H64.3ZM63.3 119.765H142.3V117.765H63.3V119.765ZM223.823 133.065V134.065H224.823V133.065H223.823ZM167.823 133.065V132.065H166.823V133.065H167.823ZM167.823 147.265H166.823V148.265H167.823V147.265ZM223.823 147.265H224.823V146.265H223.823V147.265ZM223.823 160.265V161.265H224.823V160.265H223.823ZM167.823 160.265V159.265H166.823V160.265H167.823ZM167.823 174.465H166.823V175.465H167.823V174.465ZM223.823 174.465H224.823V173.465H223.823V174.465ZM223.823 188.765V189.765H224.823V188.765H223.823ZM149.823 188.765H148.823V189.765H149.823V188.765ZM149.823 118.765V117.765H148.823V118.765H149.823ZM223.823 118.765H224.823V117.765H223.823V118.765ZM223.823 132.065H167.823V134.065H223.823V132.065ZM166.823 133.065V147.265H168.823V133.065H166.823ZM167.823 148.265H223.823V146.265H167.823V148.265ZM222.823 147.265V160.265H224.823V147.265H222.823ZM223.823 159.265H167.823V161.265H223.823V159.265ZM166.823 160.265V174.465H168.823V160.265H166.823ZM167.823 175.465H223.823V173.465H167.823V175.465ZM222.823 174.465V188.765H224.823V174.465H222.823ZM223.823 187.765H149.823V189.765H223.823V187.765ZM150.823 188.765V118.765H148.823V188.765H150.823ZM149.823 119.765H223.823V117.765H149.823V119.765ZM222.823 118.765V133.065H224.823V118.765H222.823ZM248.39 118.765H249.39V117.765H248.39V118.765ZM248.39 188.765V189.765H249.39V188.765H248.39ZM230.39 188.765H229.39V189.765H230.39V188.765ZM230.39 118.765V117.765H229.39V118.765H230.39ZM247.39 118.765V188.765H249.39V118.765H247.39ZM248.39 187.765H230.39V189.765H248.39V187.765ZM231.39 188.765V118.765H229.39V188.765H231.39ZM230.39 119.765H248.39V117.765H230.39V119.765ZM342.09 148.565V149.565H343.183L343.086 148.476L342.09 148.565ZM323.79 148.565L322.801 148.713L322.929 149.565H323.79V148.565ZM323.79 158.765V157.765H322.928L322.801 158.617L323.79 158.765ZM342.09 158.765L343.086 158.853L343.182 157.765H342.09V158.765ZM255.39 153.665C255.39 142.256 258.628 133.604 265.487 127.777C272.379 121.921 283.101 118.765 298.39 118.765V116.765C282.879 116.765 271.6 119.958 264.192 126.253C256.751 132.575 253.39 141.873 253.39 153.665H255.39ZM298.39 118.765C312.235 118.765 322.47 121.398 329.444 126.402C336.378 131.377 340.215 138.786 341.094 148.653L343.086 148.476C342.165 138.143 338.102 130.153 330.61 124.777C323.159 119.431 312.445 116.765 298.39 116.765V118.765ZM342.09 147.565H323.79V149.565H342.09V147.565ZM324.779 148.416C323.889 142.5 321.134 138.297 316.585 135.616C312.097 132.97 305.961 131.865 298.39 131.865V133.865C305.819 133.865 311.533 134.959 315.57 137.339C319.546 139.682 321.991 143.329 322.801 148.713L324.779 148.416ZM298.39 131.865C289.159 131.865 282.377 133.497 277.898 137.125C273.369 140.794 271.39 146.337 271.39 153.665H273.39C273.39 146.692 275.261 141.835 279.157 138.679C283.103 135.483 289.321 133.865 298.39 133.865V131.865ZM271.39 153.665C271.39 161.043 273.395 166.634 277.932 170.339C282.423 174.006 289.205 175.665 298.39 175.665V173.665C289.375 173.665 283.157 172.023 279.197 168.79C275.285 165.595 273.39 160.686 273.39 153.665H271.39ZM298.39 175.665C305.915 175.665 312.051 174.533 316.552 171.848C321.111 169.129 323.889 164.878 324.779 158.912L322.801 158.617C321.99 164.052 319.519 167.75 315.528 170.131C311.478 172.546 305.765 173.665 298.39 173.665V175.665ZM323.79 159.765H342.09V157.765H323.79V159.765ZM341.094 158.676C340.214 168.595 336.376 176.055 329.442 181.067C322.468 186.107 312.233 188.765 298.39 188.765V190.765C312.446 190.765 323.162 188.073 330.613 182.688C338.104 177.274 342.165 169.234 343.086 158.853L341.094 158.676ZM298.39 188.765C283.102 188.765 272.382 185.584 265.49 179.692C258.629 173.827 255.39 165.125 255.39 153.665H253.39C253.39 165.505 256.75 174.852 264.19 181.212C271.598 187.545 282.877 190.765 298.39 190.765V188.765ZM423.652 118.765V117.765H422.652V118.765H423.652ZM441.652 118.765H442.652V117.765H441.652V118.765ZM441.652 188.765V189.765H442.652V188.765H441.652ZM423.652 188.765H422.652V189.765H423.652V188.765ZM423.652 161.365H424.652V160.365H423.652V161.365ZM366.652 161.365V160.365H365.652V161.365H366.652ZM366.652 188.765V189.765H367.652V188.765H366.652ZM348.652 188.765H347.652V189.765H348.652V188.765ZM348.652 118.765V117.765H347.652V118.765H348.652ZM366.652 118.765H367.652V117.765H366.652V118.765ZM366.652 146.165H365.652V147.165H366.652V146.165ZM423.652 146.165V147.165H424.652V146.165H423.652ZM423.652 119.765H441.652V117.765H423.652V119.765ZM440.652 118.765V188.765H442.652V118.765H440.652ZM441.652 187.765H423.652V189.765H441.652V187.765ZM424.652 188.765V161.365H422.652V188.765H424.652ZM423.652 160.365H366.652V162.365H423.652V160.365ZM365.652 161.365V188.765H367.652V161.365H365.652ZM366.652 187.765H348.652V189.765H366.652V187.765ZM349.652 188.765V118.765H347.652V188.765H349.652ZM348.652 119.765H366.652V117.765H348.652V119.765ZM365.652 118.765V146.165H367.652V118.765H365.652ZM366.652 147.165H423.652V145.165H366.652V147.165ZM424.652 146.165V118.765H422.652V146.165H424.652Z" fill="#E5631B" fill-opacity="0.25"/>
<path d="M142.3 71.2256H143.3V70.2256H142.3V71.2256ZM142.3 86.3256L142.899 87.1263L143.3 86.8263V86.3256H142.3ZM89.1 126.126L88.501 125.325L86.094 127.126H89.1V126.126ZM142.3 126.126H143.3V125.126H142.3V126.126ZM142.3 141.226V142.226H143.3V141.226H142.3ZM63.3 141.226H62.3V142.226H63.3V141.226ZM63.3 126.126L62.7002 125.325L62.3 125.625V126.126H63.3ZM116.4 86.3256L117 87.1258L119.402 85.3256H116.4V86.3256ZM63.3 86.3256H62.3V87.3256H63.3V86.3256ZM63.3 71.2256V70.2256H62.3V71.2256H63.3ZM141.3 71.2256V86.3256H143.3V71.2256H141.3ZM141.701 85.5249L88.501 125.325L89.699 126.926L142.899 87.1263L141.701 85.5249ZM89.1 127.126H142.3V125.126H89.1V127.126ZM141.3 126.126V141.226H143.3V126.126H141.3ZM142.3 140.226H63.3V142.226H142.3V140.226ZM64.3 141.226V126.126H62.3V141.226H64.3ZM63.8998 126.926L117 87.1258L115.8 85.5254L62.7002 125.325L63.8998 126.926ZM116.4 85.3256H63.3V87.3256H116.4V85.3256ZM64.3 86.3256V71.2256H62.3V86.3256H64.3ZM63.3 72.2256H142.3V70.2256H63.3V72.2256ZM223.823 85.5256V86.5256H224.823V85.5256H223.823ZM167.823 85.5256V84.5256H166.823V85.5256H167.823ZM167.823 99.7256H166.823V100.726H167.823V99.7256ZM223.823 99.7256H224.823V98.7256H223.823V99.7256ZM223.823 112.726V113.726H224.823V112.726H223.823ZM167.823 112.726V111.726H166.823V112.726H167.823ZM167.823 126.926H166.823V127.926H167.823V126.926ZM223.823 126.926H224.823V125.926H223.823V126.926ZM223.823 141.226V142.226H224.823V141.226H223.823ZM149.823 141.226H148.823V142.226H149.823V141.226ZM149.823 71.2256V70.2256H148.823V71.2256H149.823ZM223.823 71.2256H224.823V70.2256H223.823V71.2256ZM223.823 84.5256H167.823V86.5256H223.823V84.5256ZM166.823 85.5256V99.7256H168.823V85.5256H166.823ZM167.823 100.726H223.823V98.7256H167.823V100.726ZM222.823 99.7256V112.726H224.823V99.7256H222.823ZM223.823 111.726H167.823V113.726H223.823V111.726ZM166.823 112.726V126.926H168.823V112.726H166.823ZM167.823 127.926H223.823V125.926H167.823V127.926ZM222.823 126.926V141.226H224.823V126.926H222.823ZM223.823 140.226H149.823V142.226H223.823V140.226ZM150.823 141.226V71.2256H148.823V141.226H150.823ZM149.823 72.2256H223.823V70.2256H149.823V72.2256ZM222.823 71.2256V85.5256H224.823V71.2256H222.823ZM248.39 71.2256H249.39V70.2256H248.39V71.2256ZM248.39 141.226V142.226H249.39V141.226H248.39ZM230.39 141.226H229.39V142.226H230.39V141.226ZM230.39 71.2256V70.2256H229.39V71.2256H230.39ZM247.39 71.2256V141.226H249.39V71.2256H247.39ZM248.39 140.226H230.39V142.226H248.39V140.226ZM231.39 141.226V71.2256H229.39V141.226H231.39ZM230.39 72.2256H248.39V70.2256H230.39V72.2256ZM342.09 101.026V102.026H343.183L343.086 100.937L342.09 101.026ZM323.79 101.026L322.801 101.174L322.929 102.026H323.79V101.026ZM323.79 111.226V110.226H322.928L322.801 111.078L323.79 111.226ZM342.09 111.226L343.086 111.314L343.182 110.226H342.09V111.226ZM255.39 106.126C255.39 94.7171 258.628 86.0653 265.487 80.2377C272.379 74.3819 283.101 71.2256 298.39 71.2256V69.2256C282.879 69.2256 271.6 72.4193 264.192 78.7135C256.751 85.0359 253.39 94.3341 253.39 106.126H255.39ZM298.39 71.2256C312.235 71.2256 322.47 73.8592 329.444 78.8631C336.378 83.8376 340.215 91.2471 341.094 101.114L343.086 100.937C342.165 90.6041 338.102 82.6135 330.61 77.2381C323.159 71.8919 312.445 69.2256 298.39 69.2256V71.2256ZM342.09 100.026H323.79V102.026H342.09V100.026ZM324.779 100.877C323.889 94.9611 321.134 90.7579 316.585 88.0766C312.097 85.431 305.961 84.3256 298.39 84.3256V86.3256C305.819 86.3256 311.533 87.4202 315.57 89.7996C319.546 92.1433 321.991 95.79 322.801 101.174L324.779 100.877ZM298.39 84.3256C289.159 84.3256 282.377 85.9575 277.898 89.5861C273.369 93.2548 271.39 98.7981 271.39 106.126H273.39C273.39 99.1531 275.261 94.2964 279.157 91.1401C283.103 87.9436 289.321 86.3256 298.39 86.3256V84.3256ZM271.39 106.126C271.39 113.504 273.395 119.095 277.932 122.8C282.423 126.467 289.205 128.126 298.39 128.126V126.126C289.375 126.126 283.157 124.484 279.197 121.251C275.285 118.056 273.39 113.147 273.39 106.126H271.39ZM298.39 128.126C305.915 128.126 312.051 126.994 316.552 124.309C321.111 121.59 323.889 117.339 324.779 111.373L322.801 111.078C321.99 116.513 319.519 120.211 315.528 122.592C311.478 125.007 305.765 126.126 298.39 126.126V128.126ZM323.79 112.226H342.09V110.226H323.79V112.226ZM341.094 111.137C340.214 121.056 336.376 128.516 329.442 133.528C322.468 138.568 312.233 141.226 298.39 141.226V143.226C312.446 143.226 323.162 140.534 330.613 135.149C338.104 129.735 342.165 121.695 343.086 111.314L341.094 111.137ZM298.39 141.226C283.102 141.226 272.382 138.045 265.49 132.153C258.629 126.288 255.39 117.586 255.39 106.126H253.39C253.39 117.966 256.75 127.313 264.19 133.673C271.598 140.006 282.877 143.226 298.39 143.226V141.226ZM423.652 71.2256V70.2256H422.652V71.2256H423.652ZM441.652 71.2256H442.652V70.2256H441.652V71.2256ZM441.652 141.226V142.226H442.652V141.226H441.652ZM423.652 141.226H422.652V142.226H423.652V141.226ZM423.652 113.826H424.652V112.826H423.652V113.826ZM366.652 113.826V112.826H365.652V113.826H366.652ZM366.652 141.226V142.226H367.652V141.226H366.652ZM348.652 141.226H347.652V142.226H348.652V141.226ZM348.652 71.2256V70.2256H347.652V71.2256H348.652ZM366.652 71.2256H367.652V70.2256H366.652V71.2256ZM366.652 98.6256H365.652V99.6256H366.652V98.6256ZM423.652 98.6256V99.6256H424.652V98.6256H423.652ZM423.652 72.2256H441.652V70.2256H423.652V72.2256ZM440.652 71.2256V141.226H442.652V71.2256H440.652ZM441.652 140.226H423.652V142.226H441.652V140.226ZM424.652 141.226V113.826H422.652V141.226H424.652ZM423.652 112.826H366.652V114.826H423.652V112.826ZM365.652 113.826V141.226H367.652V113.826H365.652ZM366.652 140.226H348.652V142.226H366.652V140.226ZM349.652 141.226V71.2256H347.652V141.226H349.652ZM348.652 72.2256H366.652V70.2256H348.652V72.2256ZM365.652 71.2256V98.6256H367.652V71.2256H365.652ZM366.652 99.6256H423.652V97.6256H366.652V99.6256ZM424.652 98.6256V71.2256H422.652V98.6256H424.652ZM521.828 71.2256V70.2256H520.828V71.2256H521.828ZM539.828 71.2256H540.828V70.2256H539.828V71.2256ZM539.828 141.226V142.226H540.828V141.226H539.828ZM515.328 141.226L514.588 141.898L514.886 142.226H515.328V141.226ZM467.628 88.7256L468.368 88.0531L466.628 86.1379V88.7256H467.628ZM467.628 141.226V142.226H468.628V141.226H467.628ZM449.628 141.226H448.628V142.226H449.628V141.226ZM449.628 71.2256V70.2256H448.628V71.2256H449.628ZM474.028 71.2256L474.768 70.553L474.471 70.2256H474.028V71.2256ZM521.828 123.826L521.088 124.498L522.828 126.413V123.826H521.828ZM521.828 72.2256H539.828V70.2256H521.828V72.2256ZM538.828 71.2256V141.226H540.828V71.2256H538.828ZM539.828 140.226H515.328V142.226H539.828V140.226ZM516.068 140.553L468.368 88.0531L466.888 89.398L514.588 141.898L516.068 140.553ZM466.628 88.7256V141.226H468.628V88.7256H466.628ZM467.628 140.226H449.628V142.226H467.628V140.226ZM450.628 141.226V71.2256H448.628V141.226H450.628ZM449.628 72.2256H474.028V70.2256H449.628V72.2256ZM473.288 71.8981L521.088 124.498L522.568 123.153L474.768 70.553L473.288 71.8981ZM522.828 123.826V71.2256H520.828V123.826H522.828ZM547.87 71.2256V70.2256H546.87V71.2256H547.87ZM565.87 71.2256H566.87V70.2256H565.87V71.2256ZM617.87 71.2256V70.2256H616.87V71.2256H617.87ZM635.87 71.2256H636.87V70.2256H635.87V71.2256ZM634.87 106.126C634.87 118.094 631.601 126.787 624.741 132.521C617.842 138.288 607.124 141.226 591.87 141.226V143.226C607.316 143.226 618.598 140.263 626.024 134.055C633.49 127.815 636.87 118.457 636.87 106.126H634.87ZM591.87 141.226C576.564 141.226 565.847 138.312 558.962 132.558C552.116 126.838 548.87 118.148 548.87 106.126H546.87C546.87 118.503 550.224 127.863 557.679 134.093C565.093 140.289 576.377 143.226 591.87 143.226V141.226ZM548.87 106.126V71.2256H546.87V106.126H548.87ZM547.87 72.2256H565.87V70.2256H547.87V72.2256ZM564.87 71.2256V106.126H566.87V71.2256H564.87ZM564.87 106.126C564.87 111.082 565.543 116.654 569.386 120.966C573.244 125.295 580.085 128.126 591.87 128.126V126.126C580.356 126.126 574.196 123.357 570.879 119.635C567.548 115.897 566.87 110.969 566.87 106.126H564.87ZM591.87 128.126C603.659 128.126 610.498 125.268 614.355 120.927C618.197 116.604 618.87 111.034 618.87 106.126H616.87C616.87 110.917 616.194 115.847 612.86 119.599C609.542 123.333 603.382 126.126 591.87 126.126V128.126ZM618.87 106.126V71.2256H616.87V106.126H618.87ZM617.87 72.2256H635.87V70.2256H617.87V72.2256ZM634.87 71.2256V106.126H636.87V71.2256H634.87ZM715.578 71.2256V70.2256H714.578V71.2256H715.578ZM733.578 71.2256H734.578V70.2256H733.578V71.2256ZM733.578 141.226V142.226H734.578V141.226H733.578ZM709.078 141.226L708.338 141.898L708.636 142.226H709.078V141.226ZM661.378 88.7256L662.118 88.0531L660.378 86.1379V88.7256H661.378ZM661.378 141.226V142.226H662.378V141.226H661.378ZM643.378 141.226H642.378V142.226H643.378V141.226ZM643.378 71.2256V70.2256H642.378V71.2256H643.378ZM667.778 71.2256L668.518 70.553L668.221 70.2256H667.778V71.2256ZM715.578 123.826L714.838 124.498L716.578 126.413V123.826H715.578ZM715.578 72.2256H733.578V70.2256H715.578V72.2256ZM732.578 71.2256V141.226H734.578V71.2256H732.578ZM733.578 140.226H709.078V142.226H733.578V140.226ZM709.818 140.553L662.118 88.0531L660.638 89.398L708.338 141.898L709.818 140.553ZM660.378 88.7256V141.226H662.378V88.7256H660.378ZM661.378 140.226H643.378V142.226H661.378V140.226ZM644.378 141.226V71.2256H642.378V141.226H644.378ZM643.378 72.2256H667.778V70.2256H643.378V72.2256ZM667.038 71.8981L714.838 124.498L716.318 123.153L668.518 70.553L667.038 71.8981ZM716.578 123.826V71.2256H714.578V123.826H716.578ZM782.944 115.426H781.944V116.426H782.944V115.426ZM782.944 103.726V102.726H781.944V103.726H782.944ZM827.344 103.726H828.344V102.726H827.344V103.726ZM827.344 141.226V142.226H828.344V141.226H827.344ZM814.044 141.226L813.046 141.298L813.114 142.226H814.044V141.226ZM813.244 130.226L814.241 130.153L814.073 127.841L812.507 129.55L813.244 130.226ZM827.344 98.5256V99.5256H828.409L828.342 98.4625L827.344 98.5256ZM809.044 98.5256L808.061 98.711L808.215 99.5256H809.044V98.5256ZM809.044 115.426L810.041 115.501L810.122 114.426H809.044V115.426ZM783.944 115.426V103.726H781.944V115.426H783.944ZM782.944 104.726H827.344V102.726H782.944V104.726ZM826.344 103.726V141.226H828.344V103.726H826.344ZM827.344 140.226H814.044V142.226H827.344V140.226ZM815.041 141.153L814.241 130.153L812.246 130.298L813.046 141.298L815.041 141.153ZM812.507 129.55C806.132 136.504 795.921 141.226 781.244 141.226V143.226C796.366 143.226 807.156 138.347 813.981 130.901L812.507 129.55ZM781.244 141.226C768.496 141.226 758.355 138.063 751.416 132.164C744.501 126.284 740.644 117.583 740.644 106.226H738.644C738.644 118.068 742.686 127.367 750.121 133.687C757.532 139.988 768.191 143.226 781.244 143.226V141.226ZM740.644 106.226C740.644 94.8706 744.498 86.1804 751.772 80.3034C759.08 74.3992 769.973 71.2256 784.244 71.2256V69.2256C769.714 69.2256 758.308 72.452 750.515 78.7477C742.689 85.0708 738.644 94.3806 738.644 106.226H740.644ZM784.244 71.2256C798.133 71.2256 808.407 73.9321 815.315 78.675C822.183 83.3895 825.814 90.1743 826.346 98.5887L828.342 98.4625C827.774 89.4768 823.855 82.1117 816.447 77.0262C809.081 71.969 798.354 69.2256 784.244 69.2256V71.2256ZM827.344 97.5256H809.044V99.5256H827.344V97.5256ZM810.026 98.3402C809.487 95.4813 807.919 91.9357 803.974 89.1238C800.049 86.326 793.872 84.3256 784.244 84.3256V86.3256C793.616 86.3256 799.338 88.2751 802.813 90.7524C806.269 93.2155 807.6 96.2698 808.061 98.711L810.026 98.3402ZM784.244 84.3256C772.364 84.3256 765.392 87.6047 761.415 92.1686C757.459 96.708 756.644 102.322 756.644 106.626H758.644C758.644 102.529 759.428 97.4932 762.923 93.4825C766.396 89.4965 772.723 86.3256 784.244 86.3256V84.3256ZM756.644 106.626C756.644 110.981 757.485 116.69 761.447 121.314C765.433 125.966 772.406 129.326 784.244 129.326V127.326C772.782 127.326 766.455 124.085 762.966 120.012C759.452 115.912 758.644 110.77 758.644 106.626H756.644ZM784.244 129.326C801.82 129.326 809.58 121.608 810.041 115.501L808.047 115.35C807.708 119.843 801.467 127.326 784.244 127.326V129.326ZM809.044 114.426H782.944V116.426H809.044V114.426ZM908.394 85.5256V86.5256H909.394V85.5256H908.394ZM852.394 85.5256V84.5256H851.394V85.5256H852.394ZM852.394 99.7256H851.394V100.726H852.394V99.7256ZM908.394 99.7256H909.394V98.7256H908.394V99.7256ZM908.394 112.726V113.726H909.394V112.726H908.394ZM852.394 112.726V111.726H851.394V112.726H852.394ZM852.394 126.926H851.394V127.926H852.394V126.926ZM908.394 126.926H909.394V125.926H908.394V126.926ZM908.394 141.226V142.226H909.394V141.226H908.394ZM834.394 141.226H833.394V142.226H834.394V141.226ZM834.394 71.2256V70.2256H833.394V71.2256H834.394ZM908.394 71.2256H909.394V70.2256H908.394V71.2256ZM908.394 84.5256H852.394V86.5256H908.394V84.5256ZM851.394 85.5256V99.7256H853.394V85.5256H851.394ZM852.394 100.726H908.394V98.7256H852.394V100.726ZM907.394 99.7256V112.726H909.394V99.7256H907.394ZM908.394 111.726H852.394V113.726H908.394V111.726ZM851.394 112.726V126.926H853.394V112.726H851.394ZM852.394 127.926H908.394V125.926H852.394V127.926ZM907.394 126.926V141.226H909.394V126.926H907.394ZM908.394 140.226H834.394V142.226H908.394V140.226ZM835.394 141.226V71.2256H833.394V141.226H835.394ZM834.394 72.2256H908.394V70.2256H834.394V72.2256ZM907.394 71.2256V85.5256H909.394V71.2256H907.394ZM987.16 71.2256V70.2256H986.16V71.2256H987.16ZM1005.16 71.2256H1006.16V70.2256H1005.16V71.2256ZM1005.16 141.226V142.226H1006.16V141.226H1005.16ZM980.66 141.226L979.92 141.898L980.218 142.226H980.66V141.226ZM932.96 88.7256L933.7 88.0531L931.96 86.1379V88.7256H932.96ZM932.96 141.226V142.226H933.96V141.226H932.96ZM914.96 141.226H913.96V142.226H914.96V141.226ZM914.96 71.2256V70.2256H913.96V71.2256H914.96ZM939.36 71.2256L940.1 70.553L939.803 70.2256H939.36V71.2256ZM987.16 123.826L986.42 124.498L988.16 126.413V123.826H987.16ZM987.16 72.2256H1005.16V70.2256H987.16V72.2256ZM1004.16 71.2256V141.226H1006.16V71.2256H1004.16ZM1005.16 140.226H980.66V142.226H1005.16V140.226ZM981.4 140.553L933.7 88.0531L932.22 89.398L979.92 141.898L981.4 140.553ZM931.96 88.7256V141.226H933.96V88.7256H931.96ZM932.96 140.226H914.96V142.226H932.96V140.226ZM915.96 141.226V71.2256H913.96V141.226H915.96ZM914.96 72.2256H939.36V70.2256H914.96V72.2256ZM938.62 71.8981L986.42 124.498L987.9 123.153L940.1 70.553L938.62 71.8981ZM988.16 123.826V71.2256H986.16V123.826H988.16Z" fill="white"/>
</svg>
