<svg width="1464" height="175" viewBox="0 0 1464 175" fill="none" xmlns="http://www.w3.org/2000/svg">
<path d="M1257 3H1057.86L895 140H1257V3Z" stroke="white"/>
<path d="M226 140L862.295 140L1025 3L226 3V140Z" stroke="white"/>
<path d="M414.553 72.55C420.382 75.334 423.949 79.51 423.949 85.861C423.949 99.346 411.682 103.87 390.28 103.87C369.139 103.87 354.871 99.346 354.871 79.945H370.531C370.531 89.689 377.752 90.733 391.15 90.733C403.591 90.733 408.289 89.689 408.289 83.86C408.289 77.77 403.591 77.248 382.45 77.248V67.852C403.156 67.852 408.289 67.33 408.289 61.24C408.289 55.933 404.635 54.367 391.15 54.367C376.273 54.367 370.531 55.933 370.531 65.155H354.871C354.871 45.754 369.139 41.23 390.28 41.23C411.682 41.23 423.949 45.754 423.949 59.239C423.949 65.59 420.382 69.766 414.553 72.55ZM474.788 42.1C490.535 42.1 504.368 51.844 504.368 72.55C504.368 93.256 490.535 103 474.788 103H430.592V42.1H474.788ZM468.872 89.863C480.704 89.863 488.708 87.34 488.708 72.55C488.708 57.76 480.704 55.237 468.872 55.237H446.252V89.863H468.872ZM512.705 67.243H582.305V79.597H512.705V67.243ZM684.772 42.1V103H669.112V61.24L643.795 103H632.485L607.168 61.24V103H591.508V42.1H612.649L638.14 85.078L663.631 42.1H684.772ZM728.322 103.87C701.526 103.87 690.042 92.734 690.042 72.463C690.042 52.279 701.526 41.23 728.322 41.23C755.031 41.23 766.602 52.366 766.602 72.463C766.602 92.647 755.031 103.87 728.322 103.87ZM728.322 90.733C744.591 90.733 750.942 84.904 750.942 72.463C750.942 60.109 744.678 54.367 728.322 54.367C711.966 54.367 705.702 60.022 705.702 72.463C705.702 84.991 712.053 90.733 728.322 90.733ZM816.5 42.1C832.247 42.1 846.08 51.844 846.08 72.55C846.08 93.256 832.247 103 816.5 103H772.304V42.1H816.5ZM810.584 89.863C822.416 89.863 830.42 87.34 830.42 72.55C830.42 57.76 822.416 55.237 810.584 55.237H787.964V89.863H810.584ZM916.123 54.541H867.403V66.895H916.123V78.205H867.403V90.559H916.123V103H851.743V42.1H916.123V54.541ZM937.496 89.863H984.476V103H921.836V42.1H937.496V89.863ZM1006.23 89.863H1053.21V103H990.569V42.1H1006.23V89.863ZM1123.68 54.541H1074.96V66.895H1123.68V78.205H1074.96V90.559H1123.68V103H1059.3V42.1H1123.68V54.541Z" fill="white"/>
<ellipse cx="40.5" cy="20.5596" rx="18.5" ry="18" fill="white"/>
<ellipse cx="40.5" cy="20.5596" rx="18.5" ry="18" fill="white"/>
<ellipse cx="40.5" cy="20.5596" rx="18.5" ry="18" fill="white"/>
<path d="M77.7581 4.70339C78.7928 4.54082 79.569 4.48222 80.095 4.5081C79.7377 4.89502 79.1427 5.39687 78.2903 6.0056C76.5214 7.26892 73.823 8.86753 70.3764 10.6956C63.4937 14.3462 53.7405 18.8526 42.7513 23.3442C31.7621 27.8358 21.6445 31.451 14.1753 33.6664C10.4349 34.7758 7.38933 35.5249 5.24192 35.8623C4.20718 36.0248 3.43099 36.0834 2.90496 36.0576C3.26227 35.6706 3.8573 35.1688 4.70967 34.5601C6.47863 33.2967 9.17697 31.6981 12.6236 29.87C19.5063 26.2194 29.2595 21.713 40.2487 17.2215C51.2379 12.7299 61.3555 9.11465 68.8247 6.89927C72.5651 5.78985 75.6107 5.04078 77.7581 4.70339Z" stroke="white" stroke-width="2"/>
<circle cx="1330.5" cy="16.5" r="6.5" fill="#E5631B"/>
<circle cx="195.5" cy="168.5" r="6.5" fill="#E5631B"/>
<circle cx="1439.5" cy="124.5" r="24" stroke="white"/>
</svg>
