<svg width="889" height="124" viewBox="0 0 889 124" fill="none" xmlns="http://www.w3.org/2000/svg">
<rect x="1.5" y="1.5" width="886" height="121" rx="57.5" stroke="white" stroke-width="3"/>
<path d="M56.2192 26C55.642 54.6606 50.8595 62.2578 36 63.6833C50.7738 64.9804 55.2573 73.4751 56.2192 102C55.9483 74.9008 59.96 65.4679 78 63.6833C61.5935 63.6697 56.9137 55.4524 56.2192 26Z" fill="#E5631B"/>
<path d="M838.256 26C837.707 54.6606 833.152 62.2578 819 63.6833C833.07 64.9804 837.34 73.4751 838.256 102C837.998 74.9008 841.819 65.4679 859 63.6833C843.375 63.6697 838.918 55.4524 838.256 26Z" fill="#E5631B"/>
<path d="M324.76 32H340.92L312.12 88H292.44L263.64 32H279.8L302.28 77.36L324.76 32ZM358.762 32V88H344.362V32H358.762ZM405.783 32C420.263 32 432.983 40.96 432.983 60C432.983 79.04 420.263 88 405.783 88H365.143V32H405.783ZM400.343 75.92C411.223 75.92 418.583 73.6 418.583 60C418.583 46.4 411.223 44.08 400.343 44.08H379.543V75.92H400.343ZM497.39 43.44H452.59V54.8H497.39V65.2H452.59V76.56H497.39V88H438.19V32H497.39V43.44ZM536.574 88.8C511.934 88.8 501.374 78.56 501.374 59.92C501.374 41.36 511.934 31.2 536.574 31.2C561.134 31.2 571.774 41.44 571.774 59.92C571.774 78.48 561.134 88.8 536.574 88.8ZM536.574 76.72C551.534 76.72 557.374 71.36 557.374 59.92C557.374 48.56 551.614 43.28 536.574 43.28C521.534 43.28 515.774 48.48 515.774 59.92C515.774 71.44 521.614 76.72 536.574 76.72ZM575.202 68.72H589.603C589.603 74.64 594.403 77.36 612.643 77.36C627.763 77.36 632.323 75.68 632.323 71.28C632.323 66.64 629.123 65.84 610.963 64.96C586.563 63.84 576.883 60 576.883 47.44C576.883 35.12 589.443 31.2 610.403 31.2C631.523 31.2 644.323 36.48 644.323 50.32H629.923C629.923 44.16 623.763 42.64 608.803 42.64C594.643 42.64 591.283 44 591.283 48.16C591.283 52.48 594.643 53.28 610.963 54.24C633.043 55.44 646.723 56.64 646.723 70.8C646.723 85.76 632.563 88.8 611.843 88.8C588.883 88.8 575.202 84.88 575.202 68.72Z" fill="white"/>
</svg>
