<svg width="1141" height="275" viewBox="0 0 1141 275" fill="none" xmlns="http://www.w3.org/2000/svg">
<path d="M463.5 41.9409V40.9409H462.5V41.9409H463.5ZM481.5 41.9409H482.5V40.9409H481.5V41.9409ZM481.5 111.941V112.941H482.5V111.941H481.5ZM457 111.941L456.26 112.613L456.557 112.941H457V111.941ZM409.3 59.4409L410.04 58.7685L408.3 56.8532V59.4409H409.3ZM409.3 111.941V112.941H410.3V111.941H409.3ZM391.3 111.941H390.3V112.941H391.3V111.941ZM391.3 41.9409V40.9409H390.3V41.9409H391.3ZM415.7 41.9409L416.44 41.2684L416.142 40.9409H415.7V41.9409ZM463.5 94.5409L462.76 95.2134L464.5 97.1283V94.5409H463.5ZM463.5 42.9409H481.5V40.9409H463.5V42.9409ZM480.5 41.9409V111.941H482.5V41.9409H480.5ZM481.5 110.941H457V112.941H481.5V110.941ZM457.74 111.268L410.04 58.7685L408.56 60.1134L456.26 112.613L457.74 111.268ZM408.3 59.4409V111.941H410.3V59.4409H408.3ZM409.3 110.941H391.3V112.941H409.3V110.941ZM392.3 111.941V41.9409H390.3V111.941H392.3ZM391.3 42.9409H415.7V40.9409H391.3V42.9409ZM414.96 42.6134L462.76 95.2134L464.24 93.8684L416.44 41.2684L414.96 42.6134ZM464.5 94.5409V41.9409H462.5V94.5409H464.5ZM489.542 41.9409V40.9409H488.542V41.9409H489.542ZM507.542 41.9409H508.542V40.9409H507.542V41.9409ZM559.542 41.9409V40.9409H558.542V41.9409H559.542ZM577.542 41.9409H578.542V40.9409H577.542V41.9409ZM576.542 76.8409C576.542 88.8098 573.273 97.5019 566.413 103.236C559.514 109.004 548.796 111.941 533.542 111.941V113.941C548.988 113.941 560.27 110.978 567.696 104.771C575.161 98.53 578.542 89.172 578.542 76.8409H576.542ZM533.542 111.941C518.236 111.941 507.519 109.028 500.633 103.274C493.788 97.5533 490.542 88.863 490.542 76.8409H488.542C488.542 89.2188 491.896 98.5786 499.351 104.808C506.765 111.004 518.049 113.941 533.542 113.941V111.941ZM490.542 76.8409V41.9409H488.542V76.8409H490.542ZM489.542 42.9409H507.542V40.9409H489.542V42.9409ZM506.542 41.9409V76.8409H508.542V41.9409H506.542ZM506.542 76.8409C506.542 81.7977 507.215 87.3693 511.058 91.6813C514.916 96.0099 521.757 98.8409 533.542 98.8409V96.8409C522.028 96.8409 515.868 94.072 512.551 90.3505C509.219 86.6125 508.542 81.6842 508.542 76.8409H506.542ZM533.542 98.8409C545.33 98.8409 552.17 95.9835 556.027 91.6426C559.869 87.3191 560.542 81.7494 560.542 76.8409H558.542C558.542 81.6324 557.866 86.5627 554.532 90.3142C551.214 94.0483 545.054 96.8409 533.542 96.8409V98.8409ZM560.542 76.8409V41.9409H558.542V76.8409H560.542ZM559.542 42.9409H577.542V40.9409H559.542V42.9409ZM576.542 41.9409V76.8409H578.542V41.9409H576.542ZM657.25 41.9409V40.9409H656.25V41.9409H657.25ZM675.25 41.9409H676.25V40.9409H675.25V41.9409ZM675.25 111.941V112.941H676.25V111.941H675.25ZM650.75 111.941L650.01 112.613L650.307 112.941H650.75V111.941ZM603.05 59.4409L603.79 58.7685L602.05 56.8532V59.4409H603.05ZM603.05 111.941V112.941H604.05V111.941H603.05ZM585.05 111.941H584.05V112.941H585.05V111.941ZM585.05 41.9409V40.9409H584.05V41.9409H585.05ZM609.45 41.9409L610.19 41.2684L609.892 40.9409H609.45V41.9409ZM657.25 94.5409L656.51 95.2134L658.25 97.1283V94.5409H657.25ZM657.25 42.9409H675.25V40.9409H657.25V42.9409ZM674.25 41.9409V111.941H676.25V41.9409H674.25ZM675.25 110.941H650.75V112.941H675.25V110.941ZM651.49 111.268L603.79 58.7685L602.31 60.1134L650.01 112.613L651.49 111.268ZM602.05 59.4409V111.941H604.05V59.4409H602.05ZM603.05 110.941H585.05V112.941H603.05V110.941ZM586.05 111.941V41.9409H584.05V111.941H586.05ZM585.05 42.9409H609.45V40.9409H585.05V42.9409ZM608.71 42.6134L656.51 95.2134L657.99 93.8684L610.19 41.2684L608.71 42.6134ZM658.25 94.5409V41.9409H656.25V94.5409H658.25ZM724.616 86.1409H723.616V87.1409H724.616V86.1409ZM724.616 74.4409V73.4409H723.616V74.4409H724.616ZM769.016 74.4409H770.016V73.4409H769.016V74.4409ZM769.016 111.941V112.941H770.016V111.941H769.016ZM755.716 111.941L754.718 112.013L754.786 112.941H755.716V111.941ZM754.916 100.941L755.913 100.868L755.745 98.5564L754.178 100.265L754.916 100.941ZM769.016 69.2409V70.2409H770.081L770.014 69.1778L769.016 69.2409ZM750.716 69.2409L749.733 69.4263L749.887 70.2409H750.716V69.2409ZM750.716 86.1409L751.713 86.2162L751.794 85.1409H750.716V86.1409ZM725.616 86.1409V74.4409H723.616V86.1409H725.616ZM724.616 75.4409H769.016V73.4409H724.616V75.4409ZM768.016 74.4409V111.941H770.016V74.4409H768.016ZM769.016 110.941H755.716V112.941H769.016V110.941ZM756.713 111.868L755.913 100.868L753.918 101.013L754.718 112.013L756.713 111.868ZM754.178 100.265C747.804 107.22 737.593 111.941 722.916 111.941V113.941C738.038 113.941 748.828 109.062 755.653 101.617L754.178 100.265ZM722.916 111.941C710.168 111.941 700.027 108.778 693.088 102.879C686.173 96.9998 682.316 88.2986 682.316 76.9409H680.316C680.316 88.7832 684.358 98.082 691.793 104.403C699.204 110.704 709.863 113.941 722.916 113.941V111.941ZM682.316 76.9409C682.316 65.5859 686.17 56.8957 693.444 51.0188C700.752 45.1145 711.645 41.9409 725.916 41.9409V39.9409C711.386 39.9409 699.979 43.1673 692.187 49.4631C684.361 55.7861 680.316 65.0959 680.316 76.9409H682.316ZM725.916 41.9409C739.805 41.9409 750.079 44.6475 756.987 49.3903C763.854 54.1048 767.486 60.8897 768.018 69.304L770.014 69.1778C769.446 60.1922 765.527 52.827 758.119 47.7415C750.753 42.6844 740.026 39.9409 725.916 39.9409V41.9409ZM769.016 68.2409H750.716V70.2409H769.016V68.2409ZM751.698 69.0555C751.159 66.1967 749.591 62.651 745.646 59.8391C741.721 57.0414 735.543 55.0409 725.916 55.0409V57.0409C735.288 57.0409 741.01 58.9905 744.485 61.4677C747.941 63.9308 749.272 66.9852 749.733 69.4263L751.698 69.0555ZM725.916 55.0409C714.036 55.0409 707.063 58.32 703.087 62.884C699.131 67.4233 698.316 73.0372 698.316 77.3409H700.316C700.316 73.2446 701.1 68.2085 704.595 64.1979C708.068 60.2118 714.395 57.0409 725.916 57.0409V55.0409ZM698.316 77.3409C698.316 81.6965 699.157 87.4049 703.119 92.029C707.105 96.6817 714.078 100.041 725.916 100.041V98.0409C714.454 98.0409 708.126 94.8001 704.638 90.7278C701.124 86.6269 700.316 81.4854 700.316 77.3409H698.316ZM725.916 100.041C743.492 100.041 751.252 92.3238 751.713 86.2162L749.718 86.0657C749.379 90.558 743.139 98.0409 725.916 98.0409V100.041ZM750.716 85.1409H724.616V87.1409H750.716V85.1409ZM850.066 56.2409V57.2409H851.066V56.2409H850.066ZM794.066 56.2409V55.2409H793.066V56.2409H794.066ZM794.066 70.4409H793.066V71.4409H794.066V70.4409ZM850.066 70.4409H851.066V69.4409H850.066V70.4409ZM850.066 83.4409V84.4409H851.066V83.4409H850.066ZM794.066 83.4409V82.4409H793.066V83.4409H794.066ZM794.066 97.6409H793.066V98.6409H794.066V97.6409ZM850.066 97.6409H851.066V96.6409H850.066V97.6409ZM850.066 111.941V112.941H851.066V111.941H850.066ZM776.066 111.941H775.066V112.941H776.066V111.941ZM776.066 41.9409V40.9409H775.066V41.9409H776.066ZM850.066 41.9409H851.066V40.9409H850.066V41.9409ZM850.066 55.2409H794.066V57.2409H850.066V55.2409ZM793.066 56.2409V70.4409H795.066V56.2409H793.066ZM794.066 71.4409H850.066V69.4409H794.066V71.4409ZM849.066 70.4409V83.4409H851.066V70.4409H849.066ZM850.066 82.4409H794.066V84.4409H850.066V82.4409ZM793.066 83.4409V97.6409H795.066V83.4409H793.066ZM794.066 98.6409H850.066V96.6409H794.066V98.6409ZM849.066 97.6409V111.941H851.066V97.6409H849.066ZM850.066 110.941H776.066V112.941H850.066V110.941ZM777.066 111.941V41.9409H775.066V111.941H777.066ZM776.066 42.9409H850.066V40.9409H776.066V42.9409ZM849.066 41.9409V56.2409H851.066V41.9409H849.066ZM928.832 41.9409V40.9409H927.832V41.9409H928.832ZM946.832 41.9409H947.832V40.9409H946.832V41.9409ZM946.832 111.941V112.941H947.832V111.941H946.832ZM922.332 111.941L921.592 112.613L921.889 112.941H922.332V111.941ZM874.632 59.4409L875.372 58.7685L873.632 56.8532V59.4409H874.632ZM874.632 111.941V112.941H875.632V111.941H874.632ZM856.632 111.941H855.632V112.941H856.632V111.941ZM856.632 41.9409V40.9409H855.632V41.9409H856.632ZM881.032 41.9409L881.772 41.2684L881.475 40.9409H881.032V41.9409ZM928.832 94.5409L928.092 95.2134L929.832 97.1283V94.5409H928.832ZM928.832 42.9409H946.832V40.9409H928.832V42.9409ZM945.832 41.9409V111.941H947.832V41.9409H945.832ZM946.832 110.941H922.332V112.941H946.832V110.941ZM923.072 111.268L875.372 58.7685L873.892 60.1134L921.592 112.613L923.072 111.268ZM873.632 59.4409V111.941H875.632V59.4409H873.632ZM874.632 110.941H856.632V112.941H874.632V110.941ZM857.632 111.941V41.9409H855.632V111.941H857.632ZM856.632 42.9409H881.032V40.9409H856.632V42.9409ZM880.292 42.6134L928.092 95.2134L929.572 93.8684L881.772 41.2684L880.292 42.6134ZM929.832 94.5409V41.9409H927.832V94.5409H929.832Z" fill="#E5631B" fill-opacity="0.5"/>
<path d="M463.5 20V19H462.5V20H463.5ZM481.5 20H482.5V19H481.5V20ZM481.5 90V91H482.5V90H481.5ZM457 90L456.26 90.6725L456.557 91H457V90ZM409.3 37.5L410.04 36.8275L408.3 34.9123V37.5H409.3ZM409.3 90V91H410.3V90H409.3ZM391.3 90H390.3V91H391.3V90ZM391.3 20V19H390.3V20H391.3ZM415.7 20L416.44 19.3275L416.142 19H415.7V20ZM463.5 72.6L462.76 73.2725L464.5 75.1873V72.6H463.5ZM463.5 21H481.5V19H463.5V21ZM480.5 20V90H482.5V20H480.5ZM481.5 89H457V91H481.5V89ZM457.74 89.3275L410.04 36.8275L408.56 38.1725L456.26 90.6725L457.74 89.3275ZM408.3 37.5V90H410.3V37.5H408.3ZM409.3 89H391.3V91H409.3V89ZM392.3 90V20H390.3V90H392.3ZM391.3 21H415.7V19H391.3V21ZM414.96 20.6725L462.76 73.2725L464.24 71.9275L416.44 19.3275L414.96 20.6725ZM464.5 72.6V20H462.5V72.6H464.5ZM489.542 20V19H488.542V20H489.542ZM507.542 20H508.542V19H507.542V20ZM559.542 20V19H558.542V20H559.542ZM577.542 20H578.542V19H577.542V20ZM576.542 54.9C576.542 66.8689 573.273 75.5609 566.413 81.2953C559.514 87.0627 548.796 90 533.542 90V92C548.988 92 560.27 89.0373 567.696 82.8297C575.161 76.5891 578.542 67.2311 578.542 54.9H576.542ZM533.542 90C518.236 90 507.519 87.0867 500.633 81.3327C493.788 75.6124 490.542 66.9221 490.542 54.9H488.542C488.542 67.2779 491.896 76.6376 499.351 82.8673C506.765 89.0633 518.049 92 533.542 92V90ZM490.542 54.9V20H488.542V54.9H490.542ZM489.542 21H507.542V19H489.542V21ZM506.542 20V54.9H508.542V20H506.542ZM506.542 54.9C506.542 59.8568 507.215 65.4284 511.058 69.7404C514.916 74.0689 521.757 76.9 533.542 76.9V74.9C522.028 74.9 515.868 72.1311 512.551 68.4096C509.219 64.6716 508.542 59.7432 508.542 54.9H506.542ZM533.542 76.9C545.33 76.9 552.17 74.0426 556.027 69.7017C559.869 65.3782 560.542 59.8085 560.542 54.9H558.542C558.542 59.6915 557.866 64.6218 554.532 68.3733C551.214 72.1074 545.054 74.9 533.542 74.9V76.9ZM560.542 54.9V20H558.542V54.9H560.542ZM559.542 21H577.542V19H559.542V21ZM576.542 20V54.9H578.542V20H576.542ZM657.25 20V19H656.25V20H657.25ZM675.25 20H676.25V19H675.25V20ZM675.25 90V91H676.25V90H675.25ZM650.75 90L650.01 90.6725L650.307 91H650.75V90ZM603.05 37.5L603.79 36.8275L602.05 34.9123V37.5H603.05ZM603.05 90V91H604.05V90H603.05ZM585.05 90H584.05V91H585.05V90ZM585.05 20V19H584.05V20H585.05ZM609.45 20L610.19 19.3275L609.892 19H609.45V20ZM657.25 72.6L656.51 73.2725L658.25 75.1873V72.6H657.25ZM657.25 21H675.25V19H657.25V21ZM674.25 20V90H676.25V20H674.25ZM675.25 89H650.75V91H675.25V89ZM651.49 89.3275L603.79 36.8275L602.31 38.1725L650.01 90.6725L651.49 89.3275ZM602.05 37.5V90H604.05V37.5H602.05ZM603.05 89H585.05V91H603.05V89ZM586.05 90V20H584.05V90H586.05ZM585.05 21H609.45V19H585.05V21ZM608.71 20.6725L656.51 73.2725L657.99 71.9275L610.19 19.3275L608.71 20.6725ZM658.25 72.6V20H656.25V72.6H658.25ZM724.616 64.2H723.616V65.2H724.616V64.2ZM724.616 52.5V51.5H723.616V52.5H724.616ZM769.016 52.5H770.016V51.5H769.016V52.5ZM769.016 90V91H770.016V90H769.016ZM755.716 90L754.718 90.0725L754.786 91H755.716V90ZM754.916 79L755.913 78.9275L755.745 76.6155L754.178 78.3243L754.916 79ZM769.016 47.3V48.3H770.081L770.014 47.2369L769.016 47.3ZM750.716 47.3L749.733 47.4854L749.887 48.3H750.716V47.3ZM750.716 64.2L751.713 64.2753L751.794 63.2H750.716V64.2ZM725.616 64.2V52.5H723.616V64.2H725.616ZM724.616 53.5H769.016V51.5H724.616V53.5ZM768.016 52.5V90H770.016V52.5H768.016ZM769.016 89H755.716V91H769.016V89ZM756.713 89.9275L755.913 78.9275L753.918 79.0725L754.718 90.0725L756.713 89.9275ZM754.178 78.3243C747.804 85.2786 737.593 90 722.916 90V92C738.038 92 748.828 87.1214 755.653 79.6757L754.178 78.3243ZM722.916 90C710.168 90 700.027 86.8372 693.088 80.9381C686.173 75.0589 682.316 66.3577 682.316 55H680.316C680.316 66.8423 684.358 76.1411 691.793 82.4619C699.204 88.7628 709.863 92 722.916 92V90ZM682.316 55C682.316 43.645 686.17 34.9548 693.444 29.0778C700.752 23.1736 711.645 20 725.916 20V18C711.386 18 699.979 21.2264 692.187 27.5222C684.361 33.8452 680.316 43.155 680.316 55H682.316ZM725.916 20C739.805 20 750.079 22.7065 756.987 27.4494C763.854 32.1639 767.486 38.9487 768.018 47.3631L770.014 47.2369C769.446 38.2513 765.527 30.8861 758.119 25.8006C750.753 20.7434 740.026 18 725.916 18V20ZM769.016 46.3H750.716V48.3H769.016V46.3ZM751.698 47.1146C751.159 44.2557 749.591 40.7101 745.646 37.8982C741.721 35.1004 735.543 33.1 725.916 33.1V35.1C735.288 35.1 741.01 37.0495 744.485 39.5268C747.941 41.9899 749.272 45.0443 749.733 47.4854L751.698 47.1146ZM725.916 33.1C714.036 33.1 707.063 36.3791 703.087 40.9431C699.131 45.4824 698.316 51.0963 698.316 55.4H700.316C700.316 51.3037 701.1 46.2676 704.595 42.2569C708.068 38.2709 714.395 35.1 725.916 35.1V33.1ZM698.316 55.4C698.316 59.7556 699.157 65.464 703.119 70.0881C707.105 74.7408 714.078 78.1 725.916 78.1V76.1C714.454 76.1 708.126 72.8592 704.638 68.7869C701.124 64.686 700.316 59.5444 700.316 55.4H698.316ZM725.916 78.1C743.492 78.1 751.252 70.3829 751.713 64.2753L749.718 64.1247C749.379 68.6171 743.139 76.1 725.916 76.1V78.1ZM750.716 63.2H724.616V65.2H750.716V63.2ZM850.066 34.3V35.3H851.066V34.3H850.066ZM794.066 34.3V33.3H793.066V34.3H794.066ZM794.066 48.5H793.066V49.5H794.066V48.5ZM850.066 48.5H851.066V47.5H850.066V48.5ZM850.066 61.5V62.5H851.066V61.5H850.066ZM794.066 61.5V60.5H793.066V61.5H794.066ZM794.066 75.7H793.066V76.7H794.066V75.7ZM850.066 75.7H851.066V74.7H850.066V75.7ZM850.066 90V91H851.066V90H850.066ZM776.066 90H775.066V91H776.066V90ZM776.066 20V19H775.066V20H776.066ZM850.066 20H851.066V19H850.066V20ZM850.066 33.3H794.066V35.3H850.066V33.3ZM793.066 34.3V48.5H795.066V34.3H793.066ZM794.066 49.5H850.066V47.5H794.066V49.5ZM849.066 48.5V61.5H851.066V48.5H849.066ZM850.066 60.5H794.066V62.5H850.066V60.5ZM793.066 61.5V75.7H795.066V61.5H793.066ZM794.066 76.7H850.066V74.7H794.066V76.7ZM849.066 75.7V90H851.066V75.7H849.066ZM850.066 89H776.066V91H850.066V89ZM777.066 90V20H775.066V90H777.066ZM776.066 21H850.066V19H776.066V21ZM849.066 20V34.3H851.066V20H849.066ZM928.832 20V19H927.832V20H928.832ZM946.832 20H947.832V19H946.832V20ZM946.832 90V91H947.832V90H946.832ZM922.332 90L921.592 90.6725L921.889 91H922.332V90ZM874.632 37.5L875.372 36.8275L873.632 34.9123V37.5H874.632ZM874.632 90V91H875.632V90H874.632ZM856.632 90H855.632V91H856.632V90ZM856.632 20V19H855.632V20H856.632ZM881.032 20L881.772 19.3275L881.475 19H881.032V20ZM928.832 72.6L928.092 73.2725L929.832 75.1873V72.6H928.832ZM928.832 21H946.832V19H928.832V21ZM945.832 20V90H947.832V20H945.832ZM946.832 89H922.332V91H946.832V89ZM923.072 89.3275L875.372 36.8275L873.892 38.1725L921.592 90.6725L923.072 89.3275ZM873.632 37.5V90H875.632V37.5H873.632ZM874.632 89H856.632V91H874.632V89ZM857.632 90V20H855.632V90H857.632ZM856.632 21H881.032V19H856.632V21ZM880.292 20.6725L928.092 73.2725L929.572 71.9275L881.772 19.3275L880.292 20.6725ZM929.832 72.6V20H927.832V72.6H929.832Z" fill="#E5631B" fill-opacity="0.25"/>
<path d="M83.3 96.8232H84.3V95.8232H83.3V96.8232ZM83.3 111.923L83.899 112.724L84.3 112.424V111.923H83.3ZM30.1 151.723L29.501 150.923L27.094 152.723H30.1V151.723ZM83.3 151.723H84.3V150.723H83.3V151.723ZM83.3 166.823V167.823H84.3V166.823H83.3ZM4.3 166.823H3.3V167.823H4.3V166.823ZM4.3 151.723L3.70024 150.923L3.3 151.223V151.723H4.3ZM57.4 111.923L57.9998 112.723L60.4015 110.923H57.4V111.923ZM4.3 111.923H3.3V112.923H4.3V111.923ZM4.3 96.8232V95.8232H3.3V96.8232H4.3ZM82.3 96.8232V111.923H84.3V96.8232H82.3ZM82.701 111.123L29.501 150.923L30.699 152.524L83.899 112.724L82.701 111.123ZM30.1 152.723H83.3V150.723H30.1V152.723ZM82.3 151.723V166.823H84.3V151.723H82.3ZM83.3 165.823H4.3V167.823H83.3V165.823ZM5.3 166.823V151.723H3.3V166.823H5.3ZM4.89976 152.523L57.9998 112.723L56.8002 111.123L3.70024 150.923L4.89976 152.523ZM57.4 110.923H4.3V112.923H57.4V110.923ZM5.3 111.923V96.8232H3.3V111.923H5.3ZM4.3 97.8232H83.3V95.8232H4.3V97.8232ZM164.823 111.123V112.123H165.823V111.123H164.823ZM108.823 111.123V110.123H107.823V111.123H108.823ZM108.823 125.323H107.823V126.323H108.823V125.323ZM164.823 125.323H165.823V124.323H164.823V125.323ZM164.823 138.323V139.323H165.823V138.323H164.823ZM108.823 138.323V137.323H107.823V138.323H108.823ZM108.823 152.523H107.823V153.523H108.823V152.523ZM164.823 152.523H165.823V151.523H164.823V152.523ZM164.823 166.823V167.823H165.823V166.823H164.823ZM90.8234 166.823H89.8234V167.823H90.8234V166.823ZM90.8234 96.8232V95.8232H89.8234V96.8232H90.8234ZM164.823 96.8232H165.823V95.8232H164.823V96.8232ZM164.823 110.123H108.823V112.123H164.823V110.123ZM107.823 111.123V125.323H109.823V111.123H107.823ZM108.823 126.323H164.823V124.323H108.823V126.323ZM163.823 125.323V138.323H165.823V125.323H163.823ZM164.823 137.323H108.823V139.323H164.823V137.323ZM107.823 138.323V152.523H109.823V138.323H107.823ZM108.823 153.523H164.823V151.523H108.823V153.523ZM163.823 152.523V166.823H165.823V152.523H163.823ZM164.823 165.823H90.8234V167.823H164.823V165.823ZM91.8234 166.823V96.8232H89.8234V166.823H91.8234ZM90.8234 97.8232H164.823V95.8232H90.8234V97.8232ZM163.823 96.8232V111.123H165.823V96.8232H163.823ZM189.39 96.8232H190.39V95.8232H189.39V96.8232ZM189.39 166.823V167.823H190.39V166.823H189.39ZM171.39 166.823H170.39V167.823H171.39V166.823ZM171.39 96.8232V95.8232H170.39V96.8232H171.39ZM188.39 96.8232V166.823H190.39V96.8232H188.39ZM189.39 165.823H171.39V167.823H189.39V165.823ZM172.39 166.823V96.8232H170.39V166.823H172.39ZM171.39 97.8232H189.39V95.8232H171.39V97.8232ZM283.09 126.623V127.623H284.183L284.086 126.534L283.09 126.623ZM264.79 126.623L263.801 126.772L263.929 127.623H264.79V126.623ZM264.79 136.823V135.823H263.928L263.801 136.676L264.79 136.823ZM283.09 136.823L284.086 136.912L284.182 135.823H283.09V136.823ZM196.39 131.723C196.39 120.315 199.628 111.663 206.487 105.835C213.379 99.9795 224.101 96.8232 239.39 96.8232V94.8232C223.879 94.8232 212.6 98.017 205.192 104.311C197.751 110.634 194.39 119.932 194.39 131.723H196.39ZM239.39 96.8232C253.235 96.8232 263.47 99.4569 270.444 104.461C277.378 109.435 281.215 116.845 282.094 126.712L284.086 126.534C283.165 116.202 279.102 108.211 271.61 102.836C264.159 97.4896 253.445 94.8232 239.39 94.8232V96.8232ZM283.09 125.623H264.79V127.623H283.09V125.623ZM265.779 126.474C264.889 120.559 262.134 116.356 257.585 113.674C253.097 111.029 246.961 109.923 239.39 109.923V111.923C246.819 111.923 252.533 113.018 256.57 115.397C260.546 117.741 262.991 121.388 263.801 126.772L265.779 126.474ZM239.39 109.923C230.159 109.923 223.377 111.555 218.898 115.184C214.369 118.852 212.39 124.396 212.39 131.723H214.39C214.39 124.751 216.261 119.894 220.157 116.738C224.103 113.541 230.321 111.923 239.39 111.923V109.923ZM212.39 131.723C212.39 139.102 214.395 144.693 218.932 148.398C223.423 152.065 230.205 153.723 239.39 153.723V151.723C230.375 151.723 224.157 150.082 220.197 146.849C216.285 143.654 214.39 138.744 214.39 131.723H212.39ZM239.39 153.723C246.915 153.723 253.051 152.592 257.552 149.907C262.111 147.188 264.889 142.936 265.779 136.971L263.801 136.676C262.99 142.11 260.519 145.808 256.528 148.189C252.478 150.605 246.765 151.723 239.39 151.723V153.723ZM264.79 137.823H283.09V135.823H264.79V137.823ZM282.094 136.735C281.214 146.654 277.376 154.114 270.442 159.125C263.468 164.165 253.233 166.823 239.39 166.823V168.823C253.446 168.823 264.162 166.131 271.613 160.746C279.104 155.333 283.165 147.292 284.086 136.912L282.094 136.735ZM239.39 166.823C224.102 166.823 213.382 163.643 206.49 157.751C199.629 151.886 196.39 143.183 196.39 131.723H194.39C194.39 143.563 197.75 152.911 205.19 159.271C212.598 165.604 223.877 168.823 239.39 168.823V166.823ZM364.652 96.8232V95.8232H363.652V96.8232H364.652ZM382.652 96.8232H383.652V95.8232H382.652V96.8232ZM382.652 166.823V167.823H383.652V166.823H382.652ZM364.652 166.823H363.652V167.823H364.652V166.823ZM364.652 139.423H365.652V138.423H364.652V139.423ZM307.652 139.423V138.423H306.652V139.423H307.652ZM307.652 166.823V167.823H308.652V166.823H307.652ZM289.652 166.823H288.652V167.823H289.652V166.823ZM289.652 96.8232V95.8232H288.652V96.8232H289.652ZM307.652 96.8232H308.652V95.8232H307.652V96.8232ZM307.652 124.223H306.652V125.223H307.652V124.223ZM364.652 124.223V125.223H365.652V124.223H364.652ZM364.652 97.8232H382.652V95.8232H364.652V97.8232ZM381.652 96.8232V166.823H383.652V96.8232H381.652ZM382.652 165.823H364.652V167.823H382.652V165.823ZM365.652 166.823V139.423H363.652V166.823H365.652ZM364.652 138.423H307.652V140.423H364.652V138.423ZM306.652 139.423V166.823H308.652V139.423H306.652ZM307.652 165.823H289.652V167.823H307.652V165.823ZM290.652 166.823V96.8232H288.652V166.823H290.652ZM289.652 97.8232H307.652V95.8232H289.652V97.8232ZM306.652 96.8232V124.223H308.652V96.8232H306.652ZM307.652 125.223H364.652V123.223H307.652V125.223ZM365.652 124.223V96.8232H363.652V124.223H365.652Z" fill="#E5631B" fill-opacity="0.5"/>
<path d="M83.3 118.765H84.3V117.765H83.3V118.765ZM83.3 133.865L83.899 134.665L84.3 134.365V133.865H83.3ZM30.1 173.665L29.501 172.864L27.094 174.665H30.1V173.665ZM83.3 173.665H84.3V172.665H83.3V173.665ZM83.3 188.765V189.765H84.3V188.765H83.3ZM4.3 188.765H3.3V189.765H4.3V188.765ZM4.3 173.665L3.70024 172.864L3.3 173.164V173.665H4.3ZM57.4 133.865L57.9998 134.665L60.4015 132.865H57.4V133.865ZM4.3 133.865H3.3V134.865H4.3V133.865ZM4.3 118.765V117.765H3.3V118.765H4.3ZM82.3 118.765V133.865H84.3V118.765H82.3ZM82.701 133.064L29.501 172.864L30.699 174.465L83.899 134.665L82.701 133.064ZM30.1 174.665H83.3V172.665H30.1V174.665ZM82.3 173.665V188.765H84.3V173.665H82.3ZM83.3 187.765H4.3V189.765H83.3V187.765ZM5.3 188.765V173.665H3.3V188.765H5.3ZM4.89976 174.465L57.9998 134.665L56.8002 133.064L3.70024 172.864L4.89976 174.465ZM57.4 132.865H4.3V134.865H57.4V132.865ZM5.3 133.865V118.765H3.3V133.865H5.3ZM4.3 119.765H83.3V117.765H4.3V119.765ZM164.823 133.065V134.065H165.823V133.065H164.823ZM108.823 133.065V132.065H107.823V133.065H108.823ZM108.823 147.265H107.823V148.265H108.823V147.265ZM164.823 147.265H165.823V146.265H164.823V147.265ZM164.823 160.265V161.265H165.823V160.265H164.823ZM108.823 160.265V159.265H107.823V160.265H108.823ZM108.823 174.465H107.823V175.465H108.823V174.465ZM164.823 174.465H165.823V173.465H164.823V174.465ZM164.823 188.765V189.765H165.823V188.765H164.823ZM90.8234 188.765H89.8234V189.765H90.8234V188.765ZM90.8234 118.765V117.765H89.8234V118.765H90.8234ZM164.823 118.765H165.823V117.765H164.823V118.765ZM164.823 132.065H108.823V134.065H164.823V132.065ZM107.823 133.065V147.265H109.823V133.065H107.823ZM108.823 148.265H164.823V146.265H108.823V148.265ZM163.823 147.265V160.265H165.823V147.265H163.823ZM164.823 159.265H108.823V161.265H164.823V159.265ZM107.823 160.265V174.465H109.823V160.265H107.823ZM108.823 175.465H164.823V173.465H108.823V175.465ZM163.823 174.465V188.765H165.823V174.465H163.823ZM164.823 187.765H90.8234V189.765H164.823V187.765ZM91.8234 188.765V118.765H89.8234V188.765H91.8234ZM90.8234 119.765H164.823V117.765H90.8234V119.765ZM163.823 118.765V133.065H165.823V118.765H163.823ZM189.39 118.765H190.39V117.765H189.39V118.765ZM189.39 188.765V189.765H190.39V188.765H189.39ZM171.39 188.765H170.39V189.765H171.39V188.765ZM171.39 118.765V117.765H170.39V118.765H171.39ZM188.39 118.765V188.765H190.39V118.765H188.39ZM189.39 187.765H171.39V189.765H189.39V187.765ZM172.39 188.765V118.765H170.39V188.765H172.39ZM171.39 119.765H189.39V117.765H171.39V119.765ZM283.09 148.565V149.565H284.183L284.086 148.476L283.09 148.565ZM264.79 148.565L263.801 148.713L263.929 149.565H264.79V148.565ZM264.79 158.765V157.765H263.928L263.801 158.617L264.79 158.765ZM283.09 158.765L284.086 158.853L284.182 157.765H283.09V158.765ZM196.39 153.665C196.39 142.256 199.628 133.604 206.487 127.777C213.379 121.921 224.101 118.765 239.39 118.765V116.765C223.879 116.765 212.6 119.958 205.192 126.253C197.751 132.575 194.39 141.873 194.39 153.665H196.39ZM239.39 118.765C253.235 118.765 263.47 121.398 270.444 126.402C277.378 131.377 281.215 138.786 282.094 148.653L284.086 148.476C283.165 138.143 279.102 130.153 271.61 124.777C264.159 119.431 253.445 116.765 239.39 116.765V118.765ZM283.09 147.565H264.79V149.565H283.09V147.565ZM265.779 148.416C264.889 142.5 262.134 138.297 257.585 135.616C253.097 132.97 246.961 131.865 239.39 131.865V133.865C246.819 133.865 252.533 134.959 256.57 137.339C260.546 139.682 262.991 143.329 263.801 148.713L265.779 148.416ZM239.39 131.865C230.159 131.865 223.377 133.497 218.898 137.125C214.369 140.794 212.39 146.337 212.39 153.665H214.39C214.39 146.692 216.261 141.835 220.157 138.679C224.103 135.483 230.321 133.865 239.39 133.865V131.865ZM212.39 153.665C212.39 161.043 214.395 166.634 218.932 170.339C223.423 174.006 230.205 175.665 239.39 175.665V173.665C230.375 173.665 224.157 172.023 220.197 168.79C216.285 165.595 214.39 160.686 214.39 153.665H212.39ZM239.39 175.665C246.915 175.665 253.051 174.533 257.552 171.848C262.111 169.129 264.889 164.878 265.779 158.912L263.801 158.617C262.99 164.052 260.519 167.75 256.528 170.131C252.478 172.546 246.765 173.665 239.39 173.665V175.665ZM264.79 159.765H283.09V157.765H264.79V159.765ZM282.094 158.676C281.214 168.595 277.376 176.055 270.442 181.067C263.468 186.107 253.233 188.765 239.39 188.765V190.765C253.446 190.765 264.162 188.073 271.613 182.688C279.104 177.274 283.165 169.234 284.086 158.853L282.094 158.676ZM239.39 188.765C224.102 188.765 213.382 185.584 206.49 179.692C199.629 173.827 196.39 165.125 196.39 153.665H194.39C194.39 165.505 197.75 174.852 205.19 181.212C212.598 187.545 223.877 190.765 239.39 190.765V188.765ZM364.652 118.765V117.765H363.652V118.765H364.652ZM382.652 118.765H383.652V117.765H382.652V118.765ZM382.652 188.765V189.765H383.652V188.765H382.652ZM364.652 188.765H363.652V189.765H364.652V188.765ZM364.652 161.365H365.652V160.365H364.652V161.365ZM307.652 161.365V160.365H306.652V161.365H307.652ZM307.652 188.765V189.765H308.652V188.765H307.652ZM289.652 188.765H288.652V189.765H289.652V188.765ZM289.652 118.765V117.765H288.652V118.765H289.652ZM307.652 118.765H308.652V117.765H307.652V118.765ZM307.652 146.165H306.652V147.165H307.652V146.165ZM364.652 146.165V147.165H365.652V146.165H364.652ZM364.652 119.765H382.652V117.765H364.652V119.765ZM381.652 118.765V188.765H383.652V118.765H381.652ZM382.652 187.765H364.652V189.765H382.652V187.765ZM365.652 188.765V161.365H363.652V188.765H365.652ZM364.652 160.365H307.652V162.365H364.652V160.365ZM306.652 161.365V188.765H308.652V161.365H306.652ZM307.652 187.765H289.652V189.765H307.652V187.765ZM290.652 188.765V118.765H288.652V188.765H290.652ZM289.652 119.765H307.652V117.765H289.652V119.765ZM306.652 118.765V146.165H308.652V118.765H306.652ZM307.652 147.165H364.652V145.165H307.652V147.165ZM365.652 146.165V118.765H363.652V146.165H365.652Z" fill="#E5631B" fill-opacity="0.25"/>
<path d="M83.3 71.2256H85.3V69.2256H83.3V71.2256ZM83.3 86.3256L84.4981 87.927L85.3 87.3271V86.3256H83.3ZM30.1 126.126L28.9019 124.524L24.0879 128.126H30.1V126.126ZM83.3 126.126H85.3V124.126H83.3V126.126ZM83.3 141.226V143.226H85.3V141.226H83.3ZM4.3 141.226H2.3V143.226H4.3V141.226ZM4.3 126.126L3.10048 124.525L2.3 125.125V126.126H4.3ZM57.4 86.3256L58.5995 87.9259L63.403 84.3256H57.4V86.3256ZM4.3 86.3256H2.3V88.3256H4.3V86.3256ZM4.3 71.2256V69.2256H2.3V71.2256H4.3ZM81.3 71.2256V86.3256H85.3V71.2256H81.3ZM82.1019 84.7241L28.9019 124.524L31.2981 127.727L84.4981 87.927L82.1019 84.7241ZM30.1 128.126H83.3V124.126H30.1V128.126ZM81.3 126.126V141.226H85.3V126.126H81.3ZM83.3 139.226H4.3V143.226H83.3V139.226ZM6.3 141.226V126.126H2.3V141.226H6.3ZM5.49952 127.726L58.5995 87.9259L56.2005 84.7252L3.10048 124.525L5.49952 127.726ZM57.4 84.3256H4.3V88.3256H57.4V84.3256ZM6.3 86.3256V71.2256H2.3V86.3256H6.3ZM4.3 73.2256H83.3V69.2256H4.3V73.2256ZM164.823 85.5256V87.5256H166.823V85.5256H164.823ZM108.823 85.5256V83.5256H106.823V85.5256H108.823ZM108.823 99.7256H106.823V101.726H108.823V99.7256ZM164.823 99.7256H166.823V97.7256H164.823V99.7256ZM164.823 112.726V114.726H166.823V112.726H164.823ZM108.823 112.726V110.726H106.823V112.726H108.823ZM108.823 126.926H106.823V128.926H108.823V126.926ZM164.823 126.926H166.823V124.926H164.823V126.926ZM164.823 141.226V143.226H166.823V141.226H164.823ZM90.8234 141.226H88.8234V143.226H90.8234V141.226ZM90.8234 71.2256V69.2256H88.8234V71.2256H90.8234ZM164.823 71.2256H166.823V69.2256H164.823V71.2256ZM164.823 83.5256H108.823V87.5256H164.823V83.5256ZM106.823 85.5256V99.7256H110.823V85.5256H106.823ZM108.823 101.726H164.823V97.7256H108.823V101.726ZM162.823 99.7256V112.726H166.823V99.7256H162.823ZM164.823 110.726H108.823V114.726H164.823V110.726ZM106.823 112.726V126.926H110.823V112.726H106.823ZM108.823 128.926H164.823V124.926H108.823V128.926ZM162.823 126.926V141.226H166.823V126.926H162.823ZM164.823 139.226H90.8234V143.226H164.823V139.226ZM92.8234 141.226V71.2256H88.8234V141.226H92.8234ZM90.8234 73.2256H164.823V69.2256H90.8234V73.2256ZM162.823 71.2256V85.5256H166.823V71.2256H162.823ZM189.39 71.2256H191.39V69.2256H189.39V71.2256ZM189.39 141.226V143.226H191.39V141.226H189.39ZM171.39 141.226H169.39V143.226H171.39V141.226ZM171.39 71.2256V69.2256H169.39V71.2256H171.39ZM187.39 71.2256V141.226H191.39V71.2256H187.39ZM189.39 139.226H171.39V143.226H189.39V139.226ZM173.39 141.226V71.2256H169.39V141.226H173.39ZM171.39 73.2256H189.39V69.2256H171.39V73.2256ZM283.09 101.026V103.026H285.276L285.082 100.848L283.09 101.026ZM264.79 101.026L262.812 101.323L263.068 103.026H264.79V101.026ZM264.79 111.226V109.226H263.066L262.812 110.931L264.79 111.226ZM283.09 111.226L285.082 111.402L285.275 109.226H283.09V111.226ZM197.39 106.126C197.39 94.9085 200.567 86.58 207.135 80.9997C213.769 75.3631 224.212 72.2256 239.39 72.2256V68.2256C223.768 68.2256 212.211 71.438 204.545 77.9514C196.813 84.5212 193.39 94.1426 193.39 106.126H197.39ZM239.39 72.2256C253.13 72.2256 263.126 74.8429 269.861 79.6756C276.515 84.4497 280.239 91.5686 281.098 101.203L285.082 100.848C284.14 90.2825 279.964 82.0015 272.193 76.4256C264.504 70.9083 253.55 68.2256 239.39 68.2256V72.2256ZM283.09 99.0256H264.79V103.026H283.09V99.0256ZM266.768 100.728C265.838 94.5467 262.928 90.0652 258.093 87.2151C253.379 84.4364 247.031 83.3256 239.39 83.3256V87.3256C246.748 87.3256 252.251 88.4148 256.062 90.661C259.752 92.836 262.042 96.2045 262.812 101.323L266.768 100.728ZM239.39 83.3256C230.078 83.3256 223.014 84.9645 218.268 88.809C213.423 92.734 211.39 98.6206 211.39 106.126H215.39C215.39 99.3305 217.206 94.8172 220.786 91.9171C224.465 88.9367 230.401 87.3256 239.39 87.3256V83.3256ZM211.39 106.126C211.39 113.683 213.45 119.614 218.3 123.575C223.056 127.459 230.12 129.126 239.39 129.126V125.126C230.459 125.126 224.523 123.492 220.83 120.476C217.23 117.537 215.39 112.968 215.39 106.126H211.39ZM239.39 129.126C246.989 129.126 253.338 127.987 258.064 125.168C262.906 122.28 265.839 117.752 266.768 111.521L262.812 110.931C262.041 116.1 259.723 119.521 256.015 121.733C252.192 124.014 246.69 125.126 239.39 125.126V129.126ZM264.79 113.226H283.09V109.226H264.79V113.226ZM281.098 111.049C280.239 120.737 276.512 127.907 269.856 132.717C263.121 137.584 253.127 140.226 239.39 140.226V144.226C253.553 144.226 264.509 141.517 272.199 135.959C279.968 130.344 284.141 122.014 285.082 111.402L281.098 111.049ZM239.39 140.226C224.215 140.226 213.774 137.064 207.139 131.393C200.569 125.776 197.39 117.395 197.39 106.126H193.39C193.39 118.156 196.811 127.825 204.54 134.433C212.206 140.987 223.765 144.226 239.39 144.226V140.226ZM364.652 71.2256V69.2256H362.652V71.2256H364.652ZM382.652 71.2256H384.652V69.2256H382.652V71.2256ZM382.652 141.226V143.226H384.652V141.226H382.652ZM364.652 141.226H362.652V143.226H364.652V141.226ZM364.652 113.826H366.652V111.826H364.652V113.826ZM307.652 113.826V111.826H305.652V113.826H307.652ZM307.652 141.226V143.226H309.652V141.226H307.652ZM289.652 141.226H287.652V143.226H289.652V141.226ZM289.652 71.2256V69.2256H287.652V71.2256H289.652ZM307.652 71.2256H309.652V69.2256H307.652V71.2256ZM307.652 98.6256H305.652V100.626H307.652V98.6256ZM364.652 98.6256V100.626H366.652V98.6256H364.652ZM364.652 73.2256H382.652V69.2256H364.652V73.2256ZM380.652 71.2256V141.226H384.652V71.2256H380.652ZM382.652 139.226H364.652V143.226H382.652V139.226ZM366.652 141.226V113.826H362.652V141.226H366.652ZM364.652 111.826H307.652V115.826H364.652V111.826ZM305.652 113.826V141.226H309.652V113.826H305.652ZM307.652 139.226H289.652V143.226H307.652V139.226ZM291.652 141.226V71.2256H287.652V141.226H291.652ZM289.652 73.2256H307.652V69.2256H289.652V73.2256ZM305.652 71.2256V98.6256H309.652V71.2256H305.652ZM307.652 100.626H364.652V96.6256H307.652V100.626ZM366.652 98.6256V71.2256H362.652V98.6256H366.652ZM462.828 71.2256V69.2256H460.828V71.2256H462.828ZM480.828 71.2256H482.828V69.2256H480.828V71.2256ZM480.828 141.226V143.226H482.828V141.226H480.828ZM456.328 141.226L454.848 142.571L455.443 143.226H456.328V141.226ZM408.628 88.7256L410.108 87.3807L406.628 83.5502V88.7256H408.628ZM408.628 141.226V143.226H410.628V141.226H408.628ZM390.628 141.226H388.628V143.226H390.628V141.226ZM390.628 71.2256V69.2256H388.628V71.2256H390.628ZM415.028 71.2256L416.508 69.8805L415.913 69.2256H415.028V71.2256ZM462.828 123.826L461.348 125.171L464.828 129V123.826H462.828ZM462.828 73.2256H480.828V69.2256H462.828V73.2256ZM478.828 71.2256V141.226H482.828V71.2256H478.828ZM480.828 139.226H456.328V143.226H480.828V139.226ZM457.808 139.881L410.108 87.3807L407.148 90.0705L454.848 142.571L457.808 139.881ZM406.628 88.7256V141.226H410.628V88.7256H406.628ZM408.628 139.226H390.628V143.226H408.628V139.226ZM392.628 141.226V71.2256H388.628V141.226H392.628ZM390.628 73.2256H415.028V69.2256H390.628V73.2256ZM413.548 72.5706L461.348 125.171L464.308 122.481L416.508 69.8805L413.548 72.5706ZM464.828 123.826V71.2256H460.828V123.826H464.828ZM488.87 71.2256V69.2256H486.87V71.2256H488.87ZM506.87 71.2256H508.87V69.2256H506.87V71.2256ZM558.87 71.2256V69.2256H556.87V71.2256H558.87ZM576.87 71.2256H578.87V69.2256H576.87V71.2256ZM574.87 106.126C574.87 117.913 571.657 126.272 565.1 131.754C558.464 137.301 548.028 140.226 532.87 140.226V144.226C548.413 144.226 559.977 141.25 567.666 134.823C575.434 128.329 578.87 118.638 578.87 106.126H574.87ZM532.87 140.226C517.657 140.226 507.224 137.324 500.603 131.791C494.062 126.325 490.87 117.97 490.87 106.126H486.87C486.87 118.681 490.278 128.376 498.038 134.86C505.717 141.277 517.283 144.226 532.87 144.226V140.226ZM490.87 106.126V71.2256H486.87V106.126H490.87ZM488.87 73.2256H506.87V69.2256H488.87V73.2256ZM504.87 71.2256V106.126H508.87V71.2256H504.87ZM504.87 106.126C504.87 111.139 505.541 117.032 509.64 121.631C513.768 126.263 520.949 129.126 532.87 129.126V125.126C521.491 125.126 515.672 122.388 512.626 118.97C509.55 115.519 508.87 110.912 508.87 106.126H504.87ZM532.87 129.126C544.797 129.126 551.976 126.236 556.103 121.592C560.199 116.982 560.87 111.093 560.87 106.126H556.87C556.87 110.859 556.192 115.469 553.113 118.935C550.064 122.365 544.244 125.126 532.87 125.126V129.126ZM560.87 106.126V71.2256H556.87V106.126H560.87ZM558.87 73.2256H576.87V69.2256H558.87V73.2256ZM574.87 71.2256V106.126H578.87V71.2256H574.87ZM656.578 71.2256V69.2256H654.578V71.2256H656.578ZM674.578 71.2256H676.578V69.2256H674.578V71.2256ZM674.578 141.226V143.226H676.578V141.226H674.578ZM650.078 141.226L648.598 142.571L649.193 143.226H650.078V141.226ZM602.378 88.7256L603.858 87.3807L600.378 83.5502V88.7256H602.378ZM602.378 141.226V143.226H604.378V141.226H602.378ZM584.378 141.226H582.378V143.226H584.378V141.226ZM584.378 71.2256V69.2256H582.378V71.2256H584.378ZM608.778 71.2256L610.258 69.8805L609.663 69.2256H608.778V71.2256ZM656.578 123.826L655.098 125.171L658.578 129V123.826H656.578ZM656.578 73.2256H674.578V69.2256H656.578V73.2256ZM672.578 71.2256V141.226H676.578V71.2256H672.578ZM674.578 139.226H650.078V143.226H674.578V139.226ZM651.558 139.881L603.858 87.3807L600.898 90.0705L648.598 142.571L651.558 139.881ZM600.378 88.7256V141.226H604.378V88.7256H600.378ZM602.378 139.226H584.378V143.226H602.378V139.226ZM586.378 141.226V71.2256H582.378V141.226H586.378ZM584.378 73.2256H608.778V69.2256H584.378V73.2256ZM607.298 72.5706L655.098 125.171L658.058 122.481L610.258 69.8805L607.298 72.5706ZM658.578 123.826V71.2256H654.578V123.826H658.578ZM723.944 115.426H721.944V117.426H723.944V115.426ZM723.944 103.726V101.726H721.944V103.726H723.944ZM768.344 103.726H770.344V101.726H768.344V103.726ZM768.344 141.226V143.226H770.344V141.226H768.344ZM755.044 141.226L753.049 141.371L753.184 143.226H755.044V141.226ZM754.244 130.226L756.238 130.081L755.902 125.457L752.769 128.874L754.244 130.226ZM768.344 98.5256V100.526H770.474L770.34 98.3994L768.344 98.5256ZM750.044 98.5256L748.078 98.8964L748.386 100.526H750.044V98.5256ZM750.044 115.426L752.038 115.576L752.2 113.426H750.044V115.426ZM725.944 115.426V103.726H721.944V115.426H725.944ZM723.944 105.726H768.344V101.726H723.944V105.726ZM766.344 103.726V141.226H770.344V103.726H766.344ZM768.344 139.226H755.044V143.226H768.344V139.226ZM757.038 141.081L756.238 130.081L752.249 130.371L753.049 141.371L757.038 141.081ZM752.769 128.874C746.62 135.583 736.699 140.226 722.244 140.226V144.226C737.589 144.226 748.668 139.268 755.718 131.577L752.769 128.874ZM722.244 140.226C709.649 140.226 699.767 137.1 693.064 131.402C686.409 125.743 682.644 117.341 682.644 106.226H678.644C678.644 118.31 682.779 127.908 690.473 134.449C698.121 140.951 709.039 144.226 722.244 144.226V140.226ZM682.644 106.226C682.644 95.1156 686.403 86.7352 693.401 81.0813C700.466 75.3728 711.102 72.2256 725.244 72.2256V68.2256C710.585 68.2256 698.921 71.4783 690.887 77.9699C682.785 84.5159 678.644 94.1355 678.644 106.226H682.644ZM725.244 72.2256C739.023 72.2256 749.07 74.9137 755.749 79.4994C762.346 84.0284 765.834 90.5231 766.348 98.6518L770.34 98.3994C769.754 89.1281 765.691 81.4727 758.013 76.2017C750.418 70.9875 739.464 68.2256 725.244 68.2256V72.2256ZM768.344 96.5256H750.044V100.526H768.344V96.5256ZM752.009 98.1548C751.43 95.0871 749.744 91.2958 745.555 88.3095C741.405 85.3515 734.999 83.3256 725.244 83.3256V87.3256C734.488 87.3256 739.982 89.2497 743.233 91.5667C746.444 93.8554 747.657 96.6641 748.078 98.8964L752.009 98.1548ZM725.244 83.3256C713.185 83.3256 705.889 86.6588 701.661 91.5117C697.475 96.3154 696.644 102.218 696.644 106.626H700.644C700.644 102.633 701.412 97.8857 704.677 94.1395C707.898 90.4424 713.902 87.3256 725.244 87.3256V83.3256ZM696.644 106.626C696.644 111.087 697.502 117.079 701.687 121.964C705.922 126.907 713.218 130.326 725.244 130.326V126.326C713.97 126.326 707.965 123.144 704.725 119.362C701.436 115.523 700.644 110.664 700.644 106.626H696.644ZM725.244 130.326C742.996 130.326 751.516 122.491 752.038 115.576L748.049 115.275C747.771 118.96 742.291 126.326 725.244 126.326V130.326ZM750.044 113.426H723.944V117.426H750.044V113.426ZM849.394 85.5256V87.5256H851.394V85.5256H849.394ZM793.394 85.5256V83.5256H791.394V85.5256H793.394ZM793.394 99.7256H791.394V101.726H793.394V99.7256ZM849.394 99.7256H851.394V97.7256H849.394V99.7256ZM849.394 112.726V114.726H851.394V112.726H849.394ZM793.394 112.726V110.726H791.394V112.726H793.394ZM793.394 126.926H791.394V128.926H793.394V126.926ZM849.394 126.926H851.394V124.926H849.394V126.926ZM849.394 141.226V143.226H851.394V141.226H849.394ZM775.394 141.226H773.394V143.226H775.394V141.226ZM775.394 71.2256V69.2256H773.394V71.2256H775.394ZM849.394 71.2256H851.394V69.2256H849.394V71.2256ZM849.394 83.5256H793.394V87.5256H849.394V83.5256ZM791.394 85.5256V99.7256H795.394V85.5256H791.394ZM793.394 101.726H849.394V97.7256H793.394V101.726ZM847.394 99.7256V112.726H851.394V99.7256H847.394ZM849.394 110.726H793.394V114.726H849.394V110.726ZM791.394 112.726V126.926H795.394V112.726H791.394ZM793.394 128.926H849.394V124.926H793.394V128.926ZM847.394 126.926V141.226H851.394V126.926H847.394ZM849.394 139.226H775.394V143.226H849.394V139.226ZM777.394 141.226V71.2256H773.394V141.226H777.394ZM775.394 73.2256H849.394V69.2256H775.394V73.2256ZM847.394 71.2256V85.5256H851.394V71.2256H847.394ZM928.16 71.2256V69.2256H926.16V71.2256H928.16ZM946.16 71.2256H948.16V69.2256H946.16V71.2256ZM946.16 141.226V143.226H948.16V141.226H946.16ZM921.66 141.226L920.18 142.571L920.775 143.226H921.66V141.226ZM873.96 88.7256L875.44 87.3807L871.96 83.5502V88.7256H873.96ZM873.96 141.226V143.226H875.96V141.226H873.96ZM855.96 141.226H853.96V143.226H855.96V141.226ZM855.96 71.2256V69.2256H853.96V71.2256H855.96ZM880.36 71.2256L881.84 69.8805L881.245 69.2256H880.36V71.2256ZM928.16 123.826L926.68 125.171L930.16 129V123.826H928.16ZM928.16 73.2256H946.16V69.2256H928.16V73.2256ZM944.16 71.2256V141.226H948.16V71.2256H944.16ZM946.16 139.226H921.66V143.226H946.16V139.226ZM923.14 139.881L875.44 87.3807L872.48 90.0705L920.18 142.571L923.14 139.881ZM871.96 88.7256V141.226H875.96V88.7256H871.96ZM873.96 139.226H855.96V143.226H873.96V139.226ZM857.96 141.226V71.2256H853.96V141.226H857.96ZM855.96 73.2256H880.36V69.2256H855.96V73.2256ZM878.88 72.5706L926.68 125.171L929.64 122.481L881.84 69.8805L878.88 72.5706ZM930.16 123.826V71.2256H926.16V123.826H930.16Z" fill="white"/>
</svg>
