<svg width="1467" height="248" viewBox="0 0 1467 248" fill="none" xmlns="http://www.w3.org/2000/svg">
<path d="M614.3 46.1V48.1H616.3V46.1H614.3ZM558.3 46.1V44.1H556.3V46.1H558.3ZM558.3 63.9H556.3V65.9H558.3V63.9ZM608.3 63.9H610.3V61.9H608.3V63.9ZM608.3 79.1V81.1H610.3V79.1H608.3ZM558.3 79.1V77.1H556.3V79.1H558.3ZM558.3 101V103H560.3V101H558.3ZM540.3 101H538.3V103H540.3V101ZM540.3 31V29H538.3V31H540.3ZM614.3 31H616.3V29H614.3V31ZM614.3 44.1H558.3V48.1H614.3V44.1ZM556.3 46.1V63.9H560.3V46.1H556.3ZM558.3 65.9H608.3V61.9H558.3V65.9ZM606.3 63.9V79.1H610.3V63.9H606.3ZM608.3 77.1H558.3V81.1H608.3V77.1ZM556.3 79.1V101H560.3V79.1H556.3ZM558.3 99H540.3V103H558.3V99ZM542.3 101V31H538.3V101H542.3ZM540.3 33H614.3V29H540.3V33ZM612.3 31V46.1H616.3V31H612.3ZM661.034 100C645.86 100 635.418 96.8387 628.784 91.1673C622.213 85.5502 619.034 77.1699 619.034 65.9H615.034C615.034 77.9301 618.455 87.5998 626.185 94.2077C633.851 100.761 645.409 104 661.034 104V100ZM619.034 65.9C619.034 54.6829 622.212 46.3544 628.779 40.7741C635.413 35.1376 645.857 32 661.034 32V28C645.412 28 633.855 31.2124 626.189 37.7259C618.457 44.2956 615.034 53.9171 615.034 65.9H619.034ZM661.034 32C676.157 32 686.603 35.1604 693.252 40.8114C699.836 46.4074 703.034 54.7394 703.034 65.9H707.034C707.034 53.9606 703.583 44.3426 695.842 37.7636C688.166 31.2396 676.612 28 661.034 28V32ZM703.034 65.9C703.034 77.1135 699.834 85.4972 693.247 91.13C686.598 96.8159 676.154 100 661.034 100V104C676.615 104 688.171 100.734 695.847 94.17C703.585 87.5528 707.034 77.8865 707.034 65.9H703.034ZM661.034 88.9C670.546 88.9 677.624 87.2113 682.326 83.3001C687.118 79.3136 689.034 73.3747 689.034 65.9H685.034C685.034 72.7253 683.301 77.2864 679.768 80.2249C676.145 83.2387 670.223 84.9 661.034 84.9V88.9ZM689.034 65.9C689.034 58.4784 687.145 52.5834 682.357 48.6325C677.666 44.7608 670.588 43.1 661.034 43.1V47.1C670.281 47.1 676.203 48.7392 679.811 51.7175C683.324 54.6166 685.034 59.1216 685.034 65.9H689.034ZM661.034 43.1C651.487 43.1 644.407 44.7337 639.714 48.5927C634.922 52.5331 633.034 58.4324 633.034 65.9H637.034C637.034 59.0676 638.747 54.5669 642.255 51.6823C645.862 48.7163 651.782 47.1 661.034 47.1V43.1ZM633.034 65.9C633.034 73.4208 634.949 79.3639 639.746 83.3398C644.449 87.2385 651.529 88.9 661.034 88.9V84.9C651.84 84.9 645.919 83.2615 642.298 80.2602C638.77 77.3361 637.034 72.7792 637.034 65.9H633.034ZM792.097 31H794.097V29H792.097V31ZM792.097 46.1V48.1H794.097V46.1H792.097ZM758.097 46.1V44.1H756.097V46.1H758.097ZM758.097 101V103H760.097V101H758.097ZM740.097 101H738.097V103H740.097V101ZM740.097 46.1H742.097V44.1H740.097V46.1ZM706.097 46.1H704.097V48.1H706.097V46.1ZM706.097 31V29H704.097V31H706.097ZM790.097 31V46.1H794.097V31H790.097ZM792.097 44.1H758.097V48.1H792.097V44.1ZM756.097 46.1V101H760.097V46.1H756.097ZM758.097 99H740.097V103H758.097V99ZM742.097 101V46.1H738.097V101H742.097ZM740.097 44.1H706.097V48.1H740.097V44.1ZM708.097 46.1V31H704.097V46.1H708.097ZM706.097 33H792.097V29H706.097V33ZM837.695 100C822.52 100 812.078 96.8387 805.444 91.1673C798.874 85.5502 795.695 77.1699 795.695 65.9H791.695C791.695 77.9301 795.115 87.5998 802.845 94.2077C810.511 100.761 822.069 104 837.695 104V100ZM795.695 65.9C795.695 54.6829 798.872 46.3544 805.44 40.7741C812.074 35.1376 822.517 32 837.695 32V28C822.072 28 810.516 31.2124 802.85 37.7259C795.117 44.2956 791.695 53.9171 791.695 65.9H795.695ZM837.695 32C852.817 32 863.263 35.1604 869.912 40.8114C876.496 46.4074 879.695 54.7394 879.695 65.9H883.695C883.695 53.9606 880.243 44.3426 872.502 37.7636C864.826 31.2396 853.272 28 837.695 28V32ZM879.695 65.9C879.695 77.1135 876.494 85.4972 869.907 91.13C863.258 96.8159 852.814 100 837.695 100V104C853.275 104 864.831 100.734 872.507 94.17C880.245 87.5528 883.695 77.8865 883.695 65.9H879.695ZM837.695 88.9C847.206 88.9 854.284 87.2113 858.986 83.3001C863.778 79.3136 865.695 73.3747 865.695 65.9H861.695C861.695 72.7253 859.961 77.2864 856.428 80.2249C852.805 83.2387 846.883 84.9 837.695 84.9V88.9ZM865.695 65.9C865.695 58.4784 863.805 52.5834 859.018 48.6325C854.326 44.7608 847.248 43.1 837.695 43.1V47.1C846.941 47.1 852.863 48.7392 856.471 51.7175C859.984 54.6166 861.695 59.1216 861.695 65.9H865.695ZM837.695 43.1C828.147 43.1 821.067 44.7337 816.374 48.5927C811.582 52.5331 809.695 58.4324 809.695 65.9H813.695C813.695 59.0676 815.407 54.5669 818.915 51.6823C822.522 48.7163 828.442 47.1 837.695 47.1V43.1ZM809.695 65.9C809.695 73.4208 811.609 79.3639 816.406 83.3398C821.11 87.2385 828.189 88.9 837.695 88.9V84.9C828.5 84.9 822.579 83.2615 818.958 80.2602C815.43 77.3361 813.695 72.7792 813.695 65.9H809.695ZM885.98 76.9V74.9H883.98V76.9H885.98ZM903.98 76.9H905.98V74.9H903.98V76.9ZM930.68 72.2L930.776 70.2023L930.771 70.2021L930.68 72.2ZM972.38 53.9V55.9H974.38V53.9H972.38ZM954.38 53.9H952.38V55.9H954.38V53.9ZM930.68 58.8L930.562 60.7966L930.571 60.7971L930.68 58.8ZM885.98 78.9H903.98V74.9H885.98V78.9ZM901.98 76.9C901.98 79.0226 902.412 81.0479 903.616 82.8293C904.817 84.6058 906.648 85.9366 909.074 86.9268C913.822 88.8643 921.378 89.7 932.78 89.7V85.7C921.381 85.7 914.537 84.8357 910.585 83.2232C908.662 82.4384 907.567 81.5317 906.93 80.5894C906.297 79.6521 905.98 78.4774 905.98 76.9H901.98ZM932.78 89.7C942.219 89.7 948.658 89.1859 952.777 87.8673C954.865 87.1989 956.553 86.2651 957.714 84.9076C958.914 83.5034 959.38 81.8481 959.38 80.1H955.38C955.38 81.1019 955.132 81.7715 954.674 82.308C954.175 82.8911 953.257 83.5136 951.557 84.0577C948.102 85.1641 942.24 85.7 932.78 85.7V89.7ZM959.38 80.1C959.38 78.4403 959.097 76.7659 957.971 75.336C956.869 73.9361 955.195 73.0741 953.099 72.4666C948.985 71.2738 942.037 70.748 930.776 70.2023L930.583 74.1977C942.023 74.752 948.425 75.2762 951.985 76.3084C953.727 76.8134 954.472 77.3577 954.829 77.8108C955.162 78.2341 955.38 78.8597 955.38 80.1H959.38ZM930.771 70.2021C915.508 69.5015 905.244 67.951 898.819 64.8152C895.667 63.2764 893.531 61.3971 892.161 59.118C890.786 56.8302 890.08 53.9694 890.08 50.3H886.08C886.08 54.4806 886.886 58.1073 888.733 61.1789C890.585 64.2592 893.38 66.6111 897.065 68.4098C904.316 71.949 915.351 73.4985 930.588 74.1979L930.771 70.2021ZM890.08 50.3C890.08 46.8086 890.962 44.0364 892.568 41.7963C894.186 39.5384 896.64 37.6799 900.006 36.2073C906.806 33.2324 916.929 32 929.98 32V28C916.831 28 906.003 29.2176 898.403 32.5427C894.569 34.2201 891.461 36.4741 889.317 39.4662C887.159 42.4761 886.08 46.0914 886.08 50.3H890.08ZM929.98 32C943.083 32 953.289 33.6498 960.154 37.2353C963.554 39.0109 966.084 41.235 967.773 43.9293C969.458 46.618 970.38 49.8944 970.38 53.9H974.38C974.38 49.2556 973.302 45.2195 971.162 41.8051C969.025 38.3962 965.906 35.7266 962.006 33.6897C954.271 29.6502 943.277 28 929.98 28V32ZM972.38 51.9H954.38V55.9H972.38V51.9ZM956.38 53.9C956.38 51.6234 955.802 49.5879 954.443 47.8982C953.109 46.2395 951.178 45.1089 948.831 44.3174C944.217 42.7611 937.303 42.3 927.98 42.3V46.3C937.357 46.3 943.643 46.7889 947.553 48.1076C949.469 48.7536 950.632 49.5417 951.326 50.4049C951.995 51.2371 952.38 52.3266 952.38 53.9H956.38ZM927.98 42.3C919.17 42.3 913.379 42.71 909.766 43.9005C907.911 44.5117 906.417 45.3939 905.415 46.7254C904.399 48.0753 904.08 49.6321 904.08 51.2H908.08C908.08 50.1679 908.286 49.5622 908.61 49.1308C908.949 48.6811 909.611 48.1633 911.018 47.6995C913.93 46.74 919.089 46.3 927.98 46.3V42.3ZM904.08 51.2C904.08 52.8048 904.393 54.4009 905.506 55.7624C906.583 57.0803 908.187 57.9031 910.157 58.4914C914.03 59.6477 920.446 60.2015 930.562 60.7965L930.797 56.8034C920.514 56.1985 914.63 55.6523 911.302 54.6586C909.672 54.1719 908.951 53.6572 908.603 53.2313C908.291 52.8491 908.08 52.2952 908.08 51.2H904.08ZM930.571 60.7971C944.475 61.5527 955.315 62.3029 962.704 64.9572C966.343 66.2646 968.964 67.9764 970.689 70.2264C972.398 72.455 973.38 75.4097 973.38 79.5H977.38C977.38 74.7403 976.224 70.87 973.864 67.7924C971.52 64.7361 968.141 62.6604 964.056 61.1928C955.995 58.2971 944.485 57.5473 930.788 56.8029L930.571 60.7971ZM973.38 79.5C973.38 83.8482 972.356 87.1756 970.564 89.7674C968.766 92.3686 966.084 94.3884 962.504 95.9245C955.253 99.0354 944.722 100 931.78 100V104C944.737 104 956.007 103.065 964.081 99.6005C968.163 97.8491 971.525 95.4126 973.855 92.0419C976.191 88.6619 977.38 84.5018 977.38 79.5H973.38ZM931.78 100C917.448 100 906.4 98.7597 898.978 95.2198C895.318 93.4742 892.609 91.2002 890.799 88.2878C888.986 85.3717 887.98 81.6644 887.98 76.9H883.98C883.98 82.2356 885.111 86.7158 887.401 90.3997C889.694 94.0873 893.054 96.8258 897.256 98.8302C905.559 102.79 917.411 104 931.78 104V100Z" fill="#E5631B"/>
<rect x="520" y="65" width="492" height="96" fill="black"/>
<path d="M614.3 91.1V93.1H616.3V91.1H614.3ZM558.3 91.1V89.1H556.3V91.1H558.3ZM558.3 108.9H556.3V110.9H558.3V108.9ZM608.3 108.9H610.3V106.9H608.3V108.9ZM608.3 124.1V126.1H610.3V124.1H608.3ZM558.3 124.1V122.1H556.3V124.1H558.3ZM558.3 146V148H560.3V146H558.3ZM540.3 146H538.3V148H540.3V146ZM540.3 76V74H538.3V76H540.3ZM614.3 76H616.3V74H614.3V76ZM614.3 89.1H558.3V93.1H614.3V89.1ZM556.3 91.1V108.9H560.3V91.1H556.3ZM558.3 110.9H608.3V106.9H558.3V110.9ZM606.3 108.9V124.1H610.3V108.9H606.3ZM608.3 122.1H558.3V126.1H608.3V122.1ZM556.3 124.1V146H560.3V124.1H556.3ZM558.3 144H540.3V148H558.3V144ZM542.3 146V76H538.3V146H542.3ZM540.3 78H614.3V74H540.3V78ZM612.3 76V91.1H616.3V76H612.3ZM661.034 145C645.86 145 635.418 141.839 628.784 136.167C622.213 130.55 619.034 122.17 619.034 110.9H615.034C615.034 122.93 618.455 132.6 626.185 139.208C633.851 145.761 645.409 149 661.034 149V145ZM619.034 110.9C619.034 99.6829 622.212 91.3544 628.779 85.7741C635.413 80.1376 645.857 77 661.034 77V73C645.412 73 633.855 76.2124 626.189 82.7259C618.457 89.2956 615.034 98.9171 615.034 110.9H619.034ZM661.034 77C676.157 77 686.603 80.1604 693.252 85.8114C699.836 91.4074 703.034 99.7394 703.034 110.9H707.034C707.034 98.9606 703.583 89.3426 695.842 82.7636C688.166 76.2396 676.612 73 661.034 73V77ZM703.034 110.9C703.034 122.113 699.834 130.497 693.247 136.13C686.598 141.816 676.154 145 661.034 145V149C676.615 149 688.171 145.734 695.847 139.17C703.585 132.553 707.034 122.886 707.034 110.9H703.034ZM661.034 133.9C670.546 133.9 677.624 132.211 682.326 128.3C687.118 124.314 689.034 118.375 689.034 110.9H685.034C685.034 117.725 683.301 122.286 679.768 125.225C676.145 128.239 670.223 129.9 661.034 129.9V133.9ZM689.034 110.9C689.034 103.478 687.145 97.5834 682.357 93.6325C677.666 89.7608 670.588 88.1 661.034 88.1V92.1C670.281 92.1 676.203 93.7392 679.811 96.7175C683.324 99.6166 685.034 104.122 685.034 110.9H689.034ZM661.034 88.1C651.487 88.1 644.407 89.7337 639.714 93.5927C634.922 97.5331 633.034 103.432 633.034 110.9H637.034C637.034 104.068 638.747 99.5669 642.255 96.6823C645.862 93.7163 651.782 92.1 661.034 92.1V88.1ZM633.034 110.9C633.034 118.421 634.949 124.364 639.746 128.34C644.449 132.239 651.529 133.9 661.034 133.9V129.9C651.84 129.9 645.919 128.261 642.298 125.26C638.77 122.336 637.034 117.779 637.034 110.9H633.034ZM792.097 76H794.097V74H792.097V76ZM792.097 91.1V93.1H794.097V91.1H792.097ZM758.097 91.1V89.1H756.097V91.1H758.097ZM758.097 146V148H760.097V146H758.097ZM740.097 146H738.097V148H740.097V146ZM740.097 91.1H742.097V89.1H740.097V91.1ZM706.097 91.1H704.097V93.1H706.097V91.1ZM706.097 76V74H704.097V76H706.097ZM790.097 76V91.1H794.097V76H790.097ZM792.097 89.1H758.097V93.1H792.097V89.1ZM756.097 91.1V146H760.097V91.1H756.097ZM758.097 144H740.097V148H758.097V144ZM742.097 146V91.1H738.097V146H742.097ZM740.097 89.1H706.097V93.1H740.097V89.1ZM708.097 91.1V76H704.097V91.1H708.097ZM706.097 78H792.097V74H706.097V78ZM837.695 145C822.52 145 812.078 141.839 805.444 136.167C798.874 130.55 795.695 122.17 795.695 110.9H791.695C791.695 122.93 795.115 132.6 802.845 139.208C810.511 145.761 822.069 149 837.695 149V145ZM795.695 110.9C795.695 99.6829 798.872 91.3544 805.44 85.7741C812.074 80.1376 822.517 77 837.695 77V73C822.072 73 810.516 76.2124 802.85 82.7259C795.117 89.2956 791.695 98.9171 791.695 110.9H795.695ZM837.695 77C852.817 77 863.263 80.1604 869.912 85.8114C876.496 91.4074 879.695 99.7394 879.695 110.9H883.695C883.695 98.9606 880.243 89.3426 872.502 82.7636C864.826 76.2396 853.272 73 837.695 73V77ZM879.695 110.9C879.695 122.113 876.494 130.497 869.907 136.13C863.258 141.816 852.814 145 837.695 145V149C853.275 149 864.831 145.734 872.507 139.17C880.245 132.553 883.695 122.886 883.695 110.9H879.695ZM837.695 133.9C847.206 133.9 854.284 132.211 858.986 128.3C863.778 124.314 865.695 118.375 865.695 110.9H861.695C861.695 117.725 859.961 122.286 856.428 125.225C852.805 128.239 846.883 129.9 837.695 129.9V133.9ZM865.695 110.9C865.695 103.478 863.805 97.5834 859.018 93.6325C854.326 89.7608 847.248 88.1 837.695 88.1V92.1C846.941 92.1 852.863 93.7392 856.471 96.7175C859.984 99.6166 861.695 104.122 861.695 110.9H865.695ZM837.695 88.1C828.147 88.1 821.067 89.7337 816.374 93.5927C811.582 97.5331 809.695 103.432 809.695 110.9H813.695C813.695 104.068 815.407 99.5669 818.915 96.6823C822.522 93.7163 828.442 92.1 837.695 92.1V88.1ZM809.695 110.9C809.695 118.421 811.609 124.364 816.406 128.34C821.11 132.239 828.189 133.9 837.695 133.9V129.9C828.5 129.9 822.579 128.261 818.958 125.26C815.43 122.336 813.695 117.779 813.695 110.9H809.695ZM885.98 121.9V119.9H883.98V121.9H885.98ZM903.98 121.9H905.98V119.9H903.98V121.9ZM930.68 117.2L930.776 115.202L930.771 115.202L930.68 117.2ZM972.38 98.9V100.9H974.38V98.9H972.38ZM954.38 98.9H952.38V100.9H954.38V98.9ZM930.68 103.8L930.562 105.797L930.571 105.797L930.68 103.8ZM885.98 123.9H903.98V119.9H885.98V123.9ZM901.98 121.9C901.98 124.023 902.412 126.048 903.616 127.829C904.817 129.606 906.648 130.937 909.074 131.927C913.822 133.864 921.378 134.7 932.78 134.7V130.7C921.381 130.7 914.537 129.836 910.585 128.223C908.662 127.438 907.567 126.532 906.93 125.589C906.297 124.652 905.98 123.477 905.98 121.9H901.98ZM932.78 134.7C942.219 134.7 948.658 134.186 952.777 132.867C954.865 132.199 956.553 131.265 957.714 129.908C958.914 128.503 959.38 126.848 959.38 125.1H955.38C955.38 126.102 955.132 126.772 954.674 127.308C954.175 127.891 953.257 128.514 951.557 129.058C948.102 130.164 942.24 130.7 932.78 130.7V134.7ZM959.38 125.1C959.38 123.44 959.097 121.766 957.971 120.336C956.869 118.936 955.195 118.074 953.099 117.467C948.985 116.274 942.037 115.748 930.776 115.202L930.583 119.198C942.023 119.752 948.425 120.276 951.985 121.308C953.727 121.813 954.472 122.358 954.829 122.811C955.162 123.234 955.38 123.86 955.38 125.1H959.38ZM930.771 115.202C915.508 114.502 905.244 112.951 898.819 109.815C895.667 108.276 893.531 106.397 892.161 104.118C890.786 101.83 890.08 98.9694 890.08 95.3H886.08C886.08 99.4806 886.886 103.107 888.733 106.179C890.585 109.259 893.38 111.611 897.065 113.41C904.316 116.949 915.351 118.498 930.588 119.198L930.771 115.202ZM890.08 95.3C890.08 91.8086 890.962 89.0364 892.568 86.7963C894.186 84.5384 896.64 82.6799 900.006 81.2073C906.806 78.2324 916.929 77 929.98 77V73C916.831 73 906.003 74.2176 898.403 77.5427C894.569 79.2201 891.461 81.4741 889.317 84.4662C887.159 87.4761 886.08 91.0914 886.08 95.3H890.08ZM929.98 77C943.083 77 953.289 78.6498 960.154 82.2353C963.554 84.0109 966.084 86.235 967.773 88.9293C969.458 91.618 970.38 94.8944 970.38 98.9H974.38C974.38 94.2556 973.302 90.2195 971.162 86.8051C969.025 83.3962 965.906 80.7266 962.006 78.6897C954.271 74.6502 943.277 73 929.98 73V77ZM972.38 96.9H954.38V100.9H972.38V96.9ZM956.38 98.9C956.38 96.6234 955.802 94.5879 954.443 92.8982C953.109 91.2395 951.178 90.1089 948.831 89.3174C944.217 87.7611 937.303 87.3 927.98 87.3V91.3C937.357 91.3 943.643 91.7889 947.553 93.1076C949.469 93.7536 950.632 94.5417 951.326 95.4049C951.995 96.2371 952.38 97.3266 952.38 98.9H956.38ZM927.98 87.3C919.17 87.3 913.379 87.71 909.766 88.9005C907.911 89.5117 906.417 90.3939 905.415 91.7254C904.399 93.0753 904.08 94.6321 904.08 96.2H908.08C908.08 95.1679 908.286 94.5622 908.61 94.1308C908.949 93.6811 909.611 93.1633 911.018 92.6995C913.93 91.74 919.089 91.3 927.98 91.3V87.3ZM904.08 96.2C904.08 97.8048 904.393 99.4009 905.506 100.762C906.583 102.08 908.187 102.903 910.157 103.491C914.03 104.648 920.446 105.201 930.562 105.797L930.797 101.803C920.514 101.199 914.63 100.652 911.302 99.6586C909.672 99.1719 908.951 98.6572 908.603 98.2313C908.291 97.8491 908.08 97.2952 908.08 96.2H904.08ZM930.571 105.797C944.475 106.553 955.315 107.303 962.704 109.957C966.343 111.265 968.964 112.976 970.689 115.226C972.398 117.455 973.38 120.41 973.38 124.5H977.38C977.38 119.74 976.224 115.87 973.864 112.792C971.52 109.736 968.141 107.66 964.056 106.193C955.995 103.297 944.485 102.547 930.788 101.803L930.571 105.797ZM973.38 124.5C973.38 128.848 972.356 132.176 970.564 134.767C968.766 137.369 966.084 139.388 962.504 140.925C955.253 144.035 944.722 145 931.78 145V149C944.737 149 956.007 148.065 964.081 144.6C968.163 142.849 971.525 140.413 973.855 137.042C976.191 133.662 977.38 129.502 977.38 124.5H973.38ZM931.78 145C917.448 145 906.4 143.76 898.978 140.22C895.318 138.474 892.609 136.2 890.799 133.288C888.986 130.372 887.98 126.664 887.98 121.9H883.98C883.98 127.236 885.111 131.716 887.401 135.4C889.694 139.087 893.054 141.826 897.256 143.83C905.559 147.79 917.411 149 931.78 149V145Z" fill="white"/>
<path d="M948 1L1012 1V65" stroke="white"/>
<path d="M1011 101V172.37H947" stroke="white"/>
<path d="M0 85L468 85" stroke="white" stroke-width="3"/>
<path d="M1031 85H1467" stroke="white" stroke-width="3"/>
<path d="M494 65V1H558" stroke="white"/>
<path d="M558 176H494V112" stroke="white"/>
</svg>
