<?xml version="1.0" encoding="UTF-8"?>
<svg xmlns="http://www.w3.org/2000/svg" viewBox="0 0 850.41 367.42">
  <defs>
    <style>
      .cls-1, .cls-2 {
        stroke-width: .5px;
      }

      .cls-1, .cls-2, .cls-3 {
        stroke: #fff;
        stroke-miterlimit: 10;
      }

      .cls-2, .cls-3 {
        fill: none;
      }

      .cls-3 {
        stroke-width: .35px;
      }
    </style>
  </defs>
  <g id="Layer_2" data-name="Layer 2">
    <g>
      <polygon class="cls-2" points="257.03 228.88 612.22 228.88 849.49 367.17 .99 367.17 257.03 228.88"/>
      <line class="cls-2" x1="66.14" y1="331.99" x2="789.12" y2="331.99"/>
      <line class="cls-2" x1="114.49" y1="305.87" x2="744.31" y2="305.87"/>
      <line class="cls-2" x1="151.81" y1="285.71" x2="709.73" y2="285.71"/>
      <line class="cls-2" x1="181.48" y1="269.69" x2="682.23" y2="269.69"/>
      <line class="cls-2" x1="205.63" y1="256.64" x2="659.85" y2="256.64"/>
      <line class="cls-2" x1="225.68" y1="245.82" x2="641.27" y2="245.82"/>
      <line class="cls-2" x1="242.58" y1="236.68" x2="625.61" y2="236.68"/>
      <line class="cls-2" x1="567.82" y1="228.88" x2="743.43" y2="367.17"/>
      <line class="cls-2" x1="523.42" y1="228.88" x2="637.36" y2="367.17"/>
      <line class="cls-2" x1="479.02" y1="228.88" x2="531.3" y2="367.17"/>
      <line class="cls-2" x1="434.63" y1="228.88" x2="425.24" y2="367.17"/>
      <line class="cls-2" x1="390.23" y1="228.88" x2="319.18" y2="367.17"/>
      <line class="cls-2" x1="345.83" y1="228.88" x2="213.11" y2="367.17"/>
      <line class="cls-2" x1="301.43" y1="228.88" x2="107.05" y2="367.17"/>
    </g>
    <ellipse class="cls-1" cx="430.99" cy="266.67" rx="101" ry="14"/>
  </g>
  <g id="Layer_3" data-name="Layer 3">
    <g>
      <path class="cls-3" d="m377.73,21.76s-.06,0-.09.01c-7.09.84-14.3,1.85-21.44,3.01-.48.08-.96.16-1.44.24l-.14.05c-.39.27-.77.55-1.15.83-12.3,8.83-22.95,19.57-31.7,31.94-.03.03-.05.07-.08.11-.15.22-.3.43-.45.65h0s.78-.14.78-.14c.05,0,.09-.01.14-.03,9.58-1.7,19.44-3.21,29.31-4.5.22-.03.43-.06.65-.09l.16-.03s.05-.09.08-.14c.11-.19.22-.39.34-.58,7.06-12.08,15.53-22.41,25.2-30.7.03-.02.05-.04.07-.07.11-.09.2-.18.31-.26l.52-.44c-.36.04-.72.09-1.08.13Zm-25.85,31.46c-9.81,1.27-19.63,2.76-29.19,4.46,8.89-12.44,19.74-23.21,32.25-32.02,7.26-1.19,14.59-2.24,21.81-3.11-9.53,8.33-17.89,18.64-24.87,30.67Z"/>
      <path class="cls-3" d="m432.52.47v.66h-.55c-.36,0-.7,0-1.05.01h0c-.39,0-.78,0-1.17.02h0c-.43,0-.81.01-1.18.03h-.07s-.07,0-.11,0c-1.4.04-2.79.11-4.18.2t-.01,0c-2.51.14-5.02.37-7.5.66h-.01c-21.72,2.55-42.4,10.29-60.48,22.72-.4.27-.8.55-1.2.83l-.19-.27-.19-.27s.04-.03.06-.04c21.71-15.24,47.21-23.71,73.78-24.5h.14c.38-.01.72-.02,1.07-.03h.05c.42-.01.8-.02,1.17-.02h.03c.39,0,.78-.01,1.18-.01h.43Z"/>
      <path class="cls-3" d="m432.15,271s-.03,0-.05,0c-.04,0-.08,0-.12,0-.96,0-1.92-.01-2.88-.04h0c-1.34-.03-2.67-.09-4-.16h0c-2.46-.13-4.91-.34-7.35-.61-.03,0-.05,0-.09-.01-19.93-2.19-39.09-8.77-56.19-19.38-.4-.24-.8-.49-1.2-.74-.07-.05-.15-.1-.22-.14-13.6-8.68-25.43-19.6-35.15-32.46-.18-.22-.35-.45-.51-.67-.04-.06-.09-.11-.13-.17-6.4-8.58-11.77-17.92-15.96-27.77-.07-.17-.14-.34-.22-.51-.03-.07-.05-.13-.08-.19-3.42-8.17-6.04-16.71-7.77-25.4-.03-.14-.06-.28-.09-.42-.01-.09-.03-.16-.05-.25-1.56-7.98-2.4-16.18-2.49-24.37,0-.11,0-.22,0-.34v-.32c0-.32,0-.64,0-.96,0-7.83.68-15.69,2.01-23.37.01-.09.03-.17.05-.26.03-.14.05-.28.07-.41,1.55-8.64,3.96-17.14,7.17-25.3.03-.06.05-.13.07-.18.07-.17.14-.35.21-.52,3.89-9.72,8.93-19.01,14.98-27.59.02-.03.05-.07.07-.11l-.27-.19-.27-.19c-.15.22-.3.43-.45.65h0s0,0,0,0c-5.98,8.58-10.95,17.83-14.8,27.52-.03.06-.05.13-.07.18-.07.18-.14.35-.2.53-3.17,8.15-5.56,16.64-7.1,25.25-.02.08-.03.16-.05.24-.03.14-.05.28-.07.43-1.33,7.66-2,15.5-2,23.31,0,.32,0,.64,0,.96v.33c0,.11,0,.22,0,.33.09,8.18.93,16.35,2.47,24.32.03.14.06.29.09.43.01.08.03.16.05.24,1.72,8.68,4.31,17.2,7.71,25.35.07.18.15.36.22.54.03.05.05.11.07.16,4.14,9.82,9.45,19.14,15.78,27.7.17.24.36.49.53.73.03.04.06.08.09.12,9.62,12.84,21.29,23.77,34.73,32.51.34.22.68.44,1.02.66.05.03.1.06.14.09,21.71,13.81,46.85,21.11,72.69,21.11v-.66h-.38Z"/>
      <path class="cls-3" d="m377.98,22.34l-.43-.5c15.21-13.01,32.82-20.37,50.93-21.31h.07c.58-.03,1.18-.05,1.78-.07.27-.01.55-.02.84-.02.4,0,.77-.01,1.15-.01h.16v.66h-.16c-.37,0-.74,0-1.1.01-.32,0-.59,0-.86.02-.6.01-1.19.04-1.78.07h-.07c-17.94.93-35.41,8.24-50.51,21.15Z"/>
      <path class="cls-3" d="m432.47,271.62c-17.97,0-35.64-6.32-51.08-18.29-10.69-8.27-20.06-18.95-27.88-31.74-5.47-8.95-10.07-18.79-13.65-29.24-3.05-8.88-5.38-18.24-6.92-27.82-1.43-8.88-2.18-18.02-2.25-27.18,0-.44,0-.89,0-1.33,0-8.69.62-17.38,1.85-25.82,1.37-9.48,3.52-18.81,6.4-27.74,3.35-10.38,7.68-20.17,12.85-29.11l.57.33c-5.15,8.9-9.45,18.65-12.79,28.98-2.87,8.89-5.02,18.19-6.38,27.63-1.22,8.41-1.84,17.07-1.84,25.73,0,.44,0,.89,0,1.32.06,9.13.82,18.24,2.24,27.08,1.53,9.54,3.85,18.86,6.89,27.71,3.57,10.4,8.14,20.2,13.59,29.11,7.77,12.72,17.1,23.33,27.72,31.56,15.33,11.87,32.85,18.15,50.68,18.15v.66Z"/>
      <path class="cls-3" d="m370.45,80.22l.1-.43c2.4-10.51,5.48-20.41,9.16-29.43l.08-.19.2-.02c8.79-.77,17.71-1.38,26.53-1.8l.43-.02-.09.42c-1.9,9.02-3.5,18.94-4.75,29.5l-.03.28h-.28c-10.34.39-20.74.95-30.89,1.66l-.44.03Zm9.79-29.43c-3.58,8.81-6.59,18.47-8.95,28.71,9.93-.69,20.08-1.23,30.19-1.61,1.23-10.32,2.79-20.02,4.64-28.87-8.6.41-17.3,1.01-25.87,1.76Z"/>
      <path class="cls-3" d="m397.75,20.34l-.51-.42c9.77-11.8,21-18.51,32.46-19.41h.19c.13-.02.25-.03.38-.04l.09-.03.05.02c.31-.02.64-.04.96-.04.31-.01.61-.02.93-.02h.11v.66h-.11c-.3,0-.6,0-.91.02-.34,0-.67.02-1,.05h-.09s-.01,0-.01,0c-.11,0-.23.01-.35.02h-.19c-11.28.9-22.35,7.53-32,19.19Z"/>
      <path class="cls-3" d="m432.42,271.58c-11.4,0-22.68-5.73-32.61-16.57-7.18-7.84-13.54-18.11-18.9-30.54-3.87-8.96-7.13-18.88-9.7-29.5-2.23-9.22-3.94-18.95-5.07-28.92-1.06-9.36-1.62-19.01-1.67-28.69,0-.45,0-.91,0-1.36,0-9.19.46-18.38,1.38-27.31,1.02-9.98,2.61-19.7,4.71-28.89l.64.15c-2.1,9.16-3.68,18.86-4.7,28.81-.91,8.91-1.37,18.08-1.37,27.24,0,.45,0,.91,0,1.36.04,9.66.6,19.29,1.66,28.63,1.13,9.95,2.83,19.65,5.05,28.84,2.56,10.58,5.81,20.46,9.66,29.39,5.33,12.36,11.66,22.57,18.79,30.36,9.8,10.7,20.91,16.36,32.13,16.36v.66Z"/>
      <path class="cls-3" d="m415.67,19.14l-.6-.26c4.82-11.24,10.13-17.43,15.79-18.39.08-.02.18-.03.28-.04.05-.01.13-.02.21-.03.32-.04.64-.06.96-.06l.06.66c-.35,0-.64.02-.94.06-.08,0-.14.01-.2.02-.1,0-.17.02-.23.04h-.08c-5.31.91-10.6,7.13-15.25,18Z"/>
      <path class="cls-3" d="m432.37,271.54c-5.69,0-11.07-5.26-16.01-15.64-3.62-7.61-6.82-17.63-9.54-29.78-2-8.97-3.7-18.92-5.03-29.58-1.18-9.37-2.08-19.32-2.67-29.56-.57-9.72-.87-19.69-.89-29.63,0-.46,0-.93,0-1.4,0-9.45.25-18.95.74-28.22.54-10.19,1.38-20.13,2.49-29.56l.65.08c-1.11,9.41-1.95,19.34-2.49,29.51-.49,9.26-.74,18.74-.74,28.18,0,.47,0,.93,0,1.4.02,9.94.32,19.89.89,29.6.6,10.23,1.5,20.16,2.67,29.52,1.34,10.64,3.03,20.57,5.02,29.52,2.7,12.1,5.89,22.08,9.49,29.64,4.75,9.98,10.08,15.26,15.41,15.26v.66Z"/>
      <polygon class="cls-3" points="431.98 271.17 431.98 .73 432.64 .65 432.64 271.1 431.98 271.17"/>
      <path class="cls-3" d="m432.26,271.47v-.66c18.46,0,33.49-60.53,33.49-134.93S450.72.94,432.26.94V.29c9.2,0,17.8,14.16,24.23,39.87,6.39,25.57,9.91,59.57,9.91,95.72s-3.52,70.15-9.91,95.72c-6.43,25.71-15.03,39.87-24.23,39.87Z"/>
      <path class="cls-3" d="m432.2,271.43v-.66c37.11,0,67.3-60.53,67.3-134.93S469.31.91,432.2.91V.25c37.47,0,67.96,60.83,67.96,135.59s-30.49,135.59-67.96,135.59Z"/>
      <path class="cls-3" d="m432.15,271.39v-.66c55.76,0,101.12-60.53,101.12-134.93S487.91.87,432.15.87V.21c56.12,0,101.78,60.83,101.78,135.59s-45.66,135.59-101.78,135.59Z"/>
      <path class="cls-3" d="m567.69,135.77c0,.42,0,.84,0,1.26,0,.22,0,.44,0,.66-.12,8.64-1.05,17.08-2.72,25.26-.05.22-.09.45-.14.66-1.9,9.11-4.73,17.88-8.37,26.23h0c-.1.24-.2.47-.31.7-4.52,10.18-10.25,19.71-17.01,28.4-.22.28-.43.56-.66.84h0c-10.26,12.97-22.83,24.02-37.1,32.53h0c-.38.22-.76.45-1.14.67h0c-19.08,11.13-41.11,17.74-64.6,18.33h0c-.23,0-.45.01-.68.01-.39.01-.78.02-1.17.02-.4,0-.81.01-1.21.01h-.43v-.66c.18,0,.36,0,.54,0,.35,0,.7,0,1.05,0,.39,0,.8,0,1.19-.02.23,0,.46,0,.68-.01h.01c.18,0,.35,0,.52-.01,1.44-.04,2.88-.11,4.31-.2,2.48-.14,4.94-.37,7.39-.65,18.27-2.13,35.44-7.91,50.75-16.61.39-.22.78-.44,1.17-.67h0c14.53-8.44,27.35-19.53,37.79-32.58.22-.28.45-.56.67-.84,6.84-8.69,12.64-18.24,17.2-28.45.11-.23.21-.47.32-.7,3.67-8.35,6.52-17.15,8.45-26.28.05-.22.09-.44.14-.66,1.69-8.19,2.63-16.65,2.74-25.3,0-.22,0-.44,0-.66,0-.42,0-.84,0-1.26,0-8.19-.73-16.21-2.14-23.99-.04-.22-.08-.45-.12-.67-1.69-9.08-4.28-17.83-7.68-26.17-.1-.24-.19-.47-.29-.7-4.19-10.1-9.57-19.58-15.96-28.27-.18-.25-.37-.49-.55-.74-9.35-12.52-20.81-23.37-33.86-32.02-.42-.28-.85-.56-1.28-.83-17.11-11.07-36.88-18.36-58.11-20.71-2.47-.28-4.97-.48-7.48-.61-1.35-.08-2.71-.14-4.07-.16-.94-.03-1.9-.04-2.84-.04-.04,0-.07,0-.11,0h-.43V.17c27.52,0,53.15,8.24,74.56,22.39.42.28.84.55,1.26.84,12.83,8.69,24.1,19.51,33.3,31.96.18.25.37.5.55.75,6.33,8.69,11.64,18.15,15.79,28.22.1.24.19.47.28.7,3.38,8.33,5.95,17.07,7.62,26.12.04.22.08.45.13.67,1.39,7.77,2.11,15.78,2.11,23.95Z"/>
    </g>
    <g>
      <path class="cls-3" d="m379.5,50.86l.2-.5c4.95-12.12,10.85-22.37,17.54-30.44l.09-.11h.14c6-.49,12.02-.87,17.88-1.13l.52-.02-.21.48c-3.34,7.79-6.31,17.75-8.82,29.62l-.05.25h-.25c-8.8.43-17.72,1.04-26.5,1.81l-.54.05Zm18.16-30.42c-6.52,7.9-12.28,17.88-17.14,29.66,8.53-.74,17.18-1.33,25.73-1.74,2.46-11.55,5.35-21.31,8.6-29.01-5.64.26-11.42.63-17.19,1.08Z"/>
      <path class="cls-3" d="m377.81,22.41l-.08-.65c6.49-.77,13.13-1.43,19.75-1.96l.05.66c-6.61.53-13.24,1.19-19.72,1.96Z"/>
      <path class="cls-3" d="m507.91,23.4c-.43-.06-.86-.11-1.29-.17-.07,0-.13-.02-.19-.03-6.74-.89-13.55-1.64-20.23-2.25-.32-.03-.65-.06-.97-.09-.06,0-.13-.01-.18-.01-5.92-.53-11.94-.96-17.92-1.29-.23-.01-.46-.03-.69-.04-.06,0-.11,0-.17,0-5.59-.29-11.19-.49-16.66-.61-.17,0-.35,0-.52-.01h-.16c-5.46-.11-10.95-.13-16.3-.05h-.32c-.11,0-.22,0-.34,0-5.44.07-10.95.23-16.39.48-.07,0-.14,0-.21,0l-.03-.66c.17,0,.34-.01.52-.02,0,0,0,0,0,0,5.34-.24,10.76-.39,16.1-.47.11,0,.22,0,.32,0h.34c5.26-.08,10.64-.06,16,.05.16,0,.31,0,.47,0,.07,0,.15,0,.22,0,5.37.11,10.87.3,16.36.58.26.01.53.03.8.04.02,0,.05,0,.07,0,5.86.31,11.78.73,17.59,1.24.38.03.76.07,1.15.1h.01c6.56.59,13.22,1.32,19.85,2.17.5.06,1,.13,1.5.19.42.28.84.55,1.26.84Z"/>
      <path class="cls-3" d="m354.86,25.66c-.47.08-.93.15-1.4.24.38-.28.76-.56,1.15-.83.02-.01.04-.03.06-.04.03,0,.05,0,.08-.01l.11.65Z"/>
      <path class="cls-3" d="m352.12,53.84l-.08-.65c9.3-1.21,18.7-2.23,27.95-3.04l.06.66c-9.24.8-18.63,1.82-27.92,3.03Z"/>
      <path class="cls-3" d="m541.76,56.1c-.24-.04-.47-.07-.71-.11-.07-.01-.14-.02-.21-.03-9.49-1.45-19.11-2.71-28.61-3.74-.2-.03-.39-.05-.59-.07-.07,0-.14-.01-.22-.03-8.9-.96-17.9-1.76-26.75-2.34-.16-.01-.31-.02-.47-.03-.08,0-.15-.01-.23-.01-8.43-.57-17.03-.98-25.58-1.22-.14,0-.28,0-.41-.01-.08,0-.16,0-.24,0-8.39-.24-16.84-.32-25.12-.22h-.32c-.11,0-.22,0-.34,0-8.31.08-16.78.32-25.18.72-.09,0-.17,0-.26.01l-.03-.66c.14,0,.28-.01.42-.02h0c8.35-.39,16.77-.64,25.04-.72.11,0,.22,0,.33,0h.33c8.24-.09,16.64-.01,24.98.22.13,0,.26,0,.39,0,.09,0,.18,0,.26,0,8.5.24,17.05.65,25.43,1.21.18,0,.37.02.55.03.05,0,.1,0,.14.01,8.8.58,17.75,1.36,26.6,2.32.24.02.47.05.71.07.03,0,.06,0,.09.01,9.45,1.02,19.02,2.26,28.48,3.71.29.05.58.09.87.13.02,0,.03,0,.05,0,.18.25.37.5.55.75Z"/>
      <path class="cls-3" d="m322.02,58.45c-.26.05-.52.09-.78.14.15-.22.3-.43.45-.65.03-.03.05-.07.08-.11.05-.01.09-.02.13-.03l.06.32.06.32Z"/>
      <path class="cls-3" d="m557.83,85.03c-.17-.03-.34-.05-.51-.07-.08,0-.15-.02-.23-.03-10.52-1.28-21.17-2.39-31.64-3.3-.16-.01-.31-.03-.47-.04-.09,0-.16-.01-.25-.02-10.11-.88-20.44-1.63-30.75-2.19-.14-.01-.27-.02-.41-.03-.09,0-.18,0-.26-.01-10.06-.55-20.19-.96-30.12-1.19-.13,0-.26-.01-.39-.01-.09,0-.18,0-.28,0-10.05-.24-20.1-.33-29.88-.26h-.66c-10,.07-20.06.3-29.91.66-.09,0-.19,0-.28.01v-.33s-.03-.33-.03-.33c.13,0,.26,0,.39-.01,9.83-.37,19.86-.59,29.83-.66h.66c9.75-.07,19.79.02,29.8.26.13,0,.24,0,.37,0,.1,0,.2,0,.3,0,9.91.24,20.01.64,30.05,1.18.15,0,.3.02.45.03.07,0,.14,0,.22.01,10.28.57,20.6,1.3,30.68,2.18.18.01.35.03.53.05.06,0,.13.01.18.01,10.45.91,21.08,2.02,31.58,3.28.2.03.4.05.6.07.05,0,.1.01.15.02.1.24.19.47.28.7Z"/>
      <path class="cls-3" d="m370.89,80.19c-.14.01-.29.02-.43.03h0c-10.43.72-20.83,1.61-30.94,2.65-.07,0-.14.01-.22.02-.16.02-.34.03-.5.05-10.68,1.08-21.42,2.35-31.9,3.78-.06,0-.13.02-.18.03-.18.03-.38.05-.56.08.07-.18.14-.35.2-.53.03-.06.05-.13.07-.18.07,0,.13-.02.19-.03.18-.03.38-.05.56-.07,10.47-1.42,21.17-2.68,31.83-3.76h0c.07,0,.14-.01.21-.02.17-.02.34-.03.51-.05,10.08-1.03,20.46-1.92,30.87-2.63.09,0,.16-.01.25-.02l.02.33.02.33Z"/>
      <path class="cls-3" d="m565.58,111.82c-.22-.02-.45-.04-.68-.05-10.93-.72-21.88-1.34-32.83-1.86-.22-.01-.45-.02-.66-.03-10.86-.52-21.73-.95-32.61-1.28-.22,0-.44-.01-.66-.02-10.81-.33-21.62-.57-32.44-.72-.22,0-.44,0-.66,0-10.79-.15-21.58-.2-32.38-.17-.22,0-.44,0-.66,0-10.79.04-21.58.16-32.38.39-.22,0-.44,0-.66.01-10.83.22-21.65.53-32.47.94-.22,0-.45.01-.67.03-10.89.41-21.77.91-32.65,1.51-.22,0-.44.02-.66.04-10.97.6-21.93,1.3-32.88,2.09-.22.01-.45.03-.67.05.02-.14.05-.28.07-.43.01-.08.03-.16.05-.24.22-.02.45-.03.67-.05,10.94-.79,21.9-1.48,32.86-2.08.22-.02.45-.03.66-.04,10.87-.59,21.74-1.1,32.62-1.51.22,0,.44-.01.66-.02,10.81-.41,21.63-.72,32.44-.94.22,0,.44-.01.66-.01,10.78-.22,21.56-.35,32.34-.39.22,0,.43,0,.66,0,10.78-.03,21.56.02,32.34.17.22,0,.44,0,.66,0,10.81.14,21.62.39,32.42.72.22,0,.44,0,.66.02,10.86.33,21.72.76,32.57,1.28.22,0,.45.02.67.03,10.95.52,21.89,1.14,32.81,1.85.22.01.45.03.68.05.04.22.08.45.13.67Z"/>
      <path class="cls-3" d="m296.94,137.02v.33c0,.11,0,.22,0,.33h270.73c0-.22,0-.44,0-.66h-270.74Z"/>
      <path class="cls-3" d="m564.27,162.98c-10.89.7-21.79,1.32-32.7,1.84-.22.01-.44.03-.66.03-10.81.51-21.64.93-32.46,1.26-.22.01-.44.02-.66.02-10.76.33-21.52.57-32.28.71-.22,0-.44,0-.66,0-10.74.15-21.48.2-32.21.17-.22,0-.44,0-.66,0-10.75-.04-21.49-.16-32.23-.38-.22,0-.44-.01-.66-.01-10.79-.22-21.56-.53-32.34-.93-.22,0-.45-.02-.66-.03-10.85-.41-21.69-.91-32.54-1.5-.22,0-.45-.02-.67-.03-10.94-.6-21.87-1.29-32.79-2.07-.23-.02-.45-.03-.68-.05.03.14.06.29.09.43.01.08.03.16.05.24.22.02.45.03.68.05,10.91.78,21.83,1.47,32.76,2.07.22.01.45.03.67.04,10.83.59,21.66,1.09,32.5,1.49.22.01.45.02.67.03,10.76.4,21.52.71,32.3.93.22,0,.43,0,.66.01,10.72.22,21.46.34,32.19.38.22,0,.44,0,.66,0,2.11,0,4.23,0,6.34,0,8.62,0,17.23-.06,25.84-.17.22,0,.43,0,.66-.01,10.75-.14,21.5-.38,32.24-.7.22,0,.43-.01.66-.02h0c10.81-.33,21.61-.75,32.41-1.26.22-.01.45-.02.67-.03,10.9-.52,21.79-1.13,32.67-1.84.22-.01.45-.03.68-.05.05-.22.1-.44.14-.66-.23.01-.45.03-.68.05Z"/>
      <path class="cls-3" d="m555.68,189.92c-10.41,1.24-20.85,2.31-31.32,3.21-.24.02-.47.04-.71.06-10.11.87-20.25,1.57-30.39,2.13-.22.01-.44.03-.66.04-9.91.53-19.83.92-29.76,1.15-.22.01-.45.01-.67.02-9.84.23-19.69.31-29.53.25-.22,0-.44,0-.66,0-9.87-.07-19.73-.28-29.57-.65-.22,0-.45-.01-.67-.03-10-.37-19.98-.9-29.96-1.57-.23-.02-.46-.03-.69-.05-10.25-.7-20.48-1.56-30.68-2.59-.24-.02-.47-.04-.72-.07-10.59-1.06-21.15-2.29-31.69-3.71-.25-.03-.5-.07-.75-.1.07.18.15.36.22.54.03.05.05.11.07.16.25.03.5.07.75.1,10.51,1.4,21.06,2.63,31.63,3.69.24.03.48.05.72.07,10.18,1.01,20.38,1.87,30.6,2.56.24.02.47.03.7.05,9.95.67,19.9,1.2,29.87,1.57.22,0,.45.02.67.02,9.83.36,19.66.58,29.49.65.22,0,.44,0,.66,0,2.11.01,4.23.02,6.34.02,7.7,0,15.4-.09,23.1-.27.22,0,.45,0,.67-.01,9.91-.24,19.8-.62,29.69-1.15.22,0,.44-.02.66-.04,10.12-.55,20.23-1.25,30.31-2.11.24-.01.48-.03.72-.06,10.44-.9,20.86-1.95,31.24-3.19.26-.03.51-.06.76-.09.11-.24.21-.47.31-.7-.25.04-.5.07-.76.09Z"/>
      <path class="cls-3" d="m538.17,219.08c-9.27,1.37-18.57,2.55-27.9,3.52-.28.03-.54.07-.82.09h0c-8.66.91-17.34,1.64-26.05,2.2-.23.02-.47.03-.7.04-8.29.54-16.6.92-24.91,1.15-.22.01-.44.01-.66.02-8.17.22-16.34.29-24.5.21-.22,0-.44,0-.66,0-8.2-.08-16.4-.31-24.59-.7-.22,0-.45-.01-.68-.03-8.45-.39-16.9-.95-25.32-1.67-.25-.03-.49-.05-.74-.07-8.93-.76-17.82-1.7-26.7-2.83-.28-.03-.55-.07-.83-.1-9.66-1.23-19.28-2.67-28.85-4.32-.31-.05-.63-.11-.93-.16.17.24.36.49.53.73.03.04.06.08.09.12.32.05.63.11.95.16,9.52,1.64,19.09,3.07,28.7,4.3.28.04.57.07.85.11,8.81,1.11,17.66,2.05,26.53,2.81.24.03.49.05.74.07,8.36.71,16.74,1.26,25.15,1.65.22.01.45.03.68.03,8.12.38,16.26.61,24.41.69.22,0,.44,0,.66,0,2.09.02,4.18.03,6.27.03h.07c6,0,12-.08,17.98-.24.22,0,.44,0,.66-.02,8.26-.22,16.51-.59,24.73-1.13.24-.01.47-.03.7-.05,8.65-.56,17.28-1.28,25.87-2.19.28-.03.55-.05.83-.09,9.28-.97,18.53-2.14,27.74-3.51.32-.04.64-.09.95-.14h0c.22-.28.44-.56.66-.84-.32.05-.63.1-.95.14Z"/>
      <path class="cls-3" d="m501.34,252.31c-.38.22-.76.45-1.14.67h0c-.55.07-1.11.14-1.66.2-5.91.68-11.85,1.26-17.8,1.74-.41.03-.84.07-1.26.1-5.25.41-10.52.73-15.8.98h0c-.3.01-.6.03-.9.04-4.93.22-9.87.38-14.82.46-.24,0-.47.01-.7.01-2.76.05-5.52.07-8.27.07h-.11c-2.08,0-4.16-.01-6.23-.04-.22,0-.44,0-.66,0-4.94-.07-9.87-.2-14.78-.41h0c-.25,0-.49-.02-.74-.03-5.2-.22-10.38-.52-15.56-.9h0c-.32-.03-.65-.05-.97-.07-5.73-.43-11.44-.95-17.13-1.57h0c-.43-.04-.85-.09-1.28-.14-6.7-.74-13.37-1.61-20.02-2.62-.55-.08-1.09-.16-1.63-.24-.05-.03-.1-.06-.14-.09-.34-.22-.68-.44-1.02-.66.53.09,1.07.16,1.6.25,6.79,1.05,13.61,1.97,20.43,2.74.42.05.84.1,1.26.14,5.81.65,11.63,1.2,17.46,1.65.32.03.64.05.96.07,5.27.4,10.54.72,15.83.95h0c.24.01.49.03.74.03,5,.22,10.01.36,15.02.42.22,0,.43.01.66.01,4.95.06,9.9.05,14.84-.03.23,0,.47,0,.7-.01,5.03-.09,10.05-.25,15.07-.49.3,0,.6-.03.9-.04,5.38-.26,10.76-.61,16.13-1.05h0c.41-.03.82-.07,1.23-.1h0c6.08-.51,12.13-1.12,18.19-1.84h0c.55-.07,1.09-.13,1.63-.2Z"/>
    </g>
  </g>
</svg>